<svg width="201" height="119" viewBox="0 0 201 119" fill="none" xmlns="http://www.w3.org/2000/svg">
<path d="M179.107 117.558H20.8532C16.1744 117.558 12.3798 113.764 12.3798 109.085V9.92847C12.3798 5.24963 16.1744 1.45508 20.8532 1.45508H179.107C183.786 1.45508 187.58 5.24963 187.58 9.92847V109.085C187.58 113.764 183.786 117.558 179.107 117.558Z" fill="white" stroke="#DBDBDB" stroke-width="2"/>
<path d="M187.58 9.92847C187.58 10.6374 187.299 11.3172 186.797 11.8184C186.296 12.3196 185.616 12.6012 184.907 12.6012H15.0529C14.344 12.6012 13.6642 12.3196 13.1629 11.8184C12.6616 11.3172 12.3799 10.6374 12.3798 9.92847C12.3798 5.24963 16.1744 1.45508 20.8532 1.45508H179.107C183.786 1.45508 187.58 5.24963 187.58 9.92847Z" fill="white" stroke="#DBDBDB" stroke-width="2"/>
<path d="M20.8701 9.38528C21.1293 9.3886 21.3865 9.34043 21.6269 9.24355C21.8672 9.14668 22.086 9.00304 22.2704 8.82097C22.4548 8.6389 22.6012 8.42202 22.7012 8.18291C22.8011 7.9438 22.8526 7.68723 22.8526 7.42807C22.8526 7.16892 22.8011 6.91234 22.7012 6.67324C22.6012 6.43413 22.4548 6.21725 22.2704 6.03517C22.086 5.8531 21.8672 5.70946 21.6269 5.61259C21.3865 5.51572 21.1293 5.46755 20.8701 5.47086C20.3554 5.47745 19.864 5.68655 19.5023 6.05288C19.1406 6.41922 18.9378 6.91328 18.9378 7.42807C18.9378 7.94286 19.1406 8.43693 19.5023 8.80326C19.864 9.16959 20.3554 9.3787 20.8701 9.38528ZM29.0256 9.38528C29.2847 9.3886 29.5419 9.34043 29.7823 9.24355C30.0227 9.14668 30.2414 9.00304 30.4258 8.82097C30.6102 8.6389 30.7567 8.42202 30.8566 8.18291C30.9565 7.9438 31.008 7.68723 31.008 7.42807C31.008 7.16892 30.9565 6.91234 30.8566 6.67324C30.7567 6.43413 30.6102 6.21725 30.4258 6.03517C30.2414 5.8531 30.0227 5.70946 29.7823 5.61259C29.5419 5.51572 29.2847 5.46755 29.0256 5.47086C28.5108 5.47745 28.0194 5.68655 27.6577 6.05288C27.2961 6.41922 27.0933 6.91328 27.0933 7.42807C27.0933 7.94286 27.2961 8.43693 27.6577 8.80326C28.0194 9.16959 28.5108 9.3787 29.0256 9.38528ZM36.8551 9.38528C37.1142 9.3886 37.3714 9.34043 37.6118 9.24355C37.8522 9.14668 38.0709 9.00304 38.2553 8.82097C38.4397 8.6389 38.5862 8.42202 38.6861 8.18291C38.786 7.9438 38.8375 7.68723 38.8375 7.42807C38.8375 7.16892 38.786 6.91234 38.6861 6.67324C38.5862 6.43413 38.4397 6.21725 38.2553 6.03517C38.0709 5.8531 37.8522 5.70946 37.6118 5.61259C37.3714 5.51572 37.1142 5.46755 36.8551 5.47086C36.3403 5.47745 35.8489 5.68655 35.4872 6.05288C35.1256 6.41922 34.9228 6.91328 34.9228 7.42807C34.9228 7.94286 35.1256 8.43693 35.4872 8.80326C35.8489 9.16959 36.3403 9.3787 36.8551 9.38528Z" fill="#E1E4E5"/>
<path d="M70.1061 28.2715H3.52981C1.58035 28.2715 0 29.8518 0 31.8013V52.9808C0 54.9302 1.58035 56.5106 3.52981 56.5106H70.1061C72.0555 56.5106 73.6359 54.9302 73.6359 52.9808V31.8013C73.6359 29.8518 72.0555 28.2715 70.1061 28.2715Z" fill="#7984F4"/>
<path d="M64.4031 36.9434H22.8281C21.9124 36.9434 21.1701 37.6856 21.1701 38.6012C21.1701 39.5168 21.9124 40.2591 22.8281 40.2591H64.4031C65.3188 40.2591 66.0611 39.5168 66.0611 38.6012C66.0611 37.6856 65.3188 36.9434 64.4031 36.9434Z" fill="white"/>
<path d="M48.5893 44.3398H22.8281C21.9124 44.3398 21.1701 45.0821 21.1701 45.9977C21.1701 46.9133 21.9124 47.6555 22.8281 47.6555H48.5893C49.505 47.6555 50.2473 46.9133 50.2473 45.9977C50.2473 45.0821 49.505 44.3398 48.5893 44.3398Z" fill="white"/>
<path d="M11.9879 47.6562C14.9461 47.6562 17.3443 45.258 17.3443 42.2998C17.3443 39.3415 14.9461 36.9434 11.9879 36.9434C9.02961 36.9434 6.63147 39.3415 6.63147 42.2998C6.63147 45.258 9.02961 47.6562 11.9879 47.6562Z" fill="white"/>
<path d="M127.03 60.3164H112.713C112.241 60.3164 111.859 60.6989 111.859 61.1708V74.4247C111.859 74.8966 112.241 75.2791 112.713 75.2791H127.03C127.502 75.2791 127.885 74.8966 127.885 74.4247V61.1708C127.885 60.6989 127.502 60.3164 127.03 60.3164Z" fill="#7984F4"/>
<path d="M169.762 102.568H132.383C131.56 102.568 130.893 103.236 130.893 104.059C130.893 104.882 131.56 105.549 132.383 105.549H169.762C170.586 105.549 171.253 104.882 171.253 104.059C171.253 103.236 170.586 102.568 169.762 102.568Z" fill="white"/>
<path d="M130.775 71.9699V94.9391C130.775 95.7785 131.455 96.459 132.295 96.459H132.295C133.134 96.459 133.815 95.7785 133.815 94.9391V71.9699C133.815 71.1305 133.134 70.45 132.295 70.45H132.295C131.455 70.45 130.775 71.1305 130.775 71.9699Z" fill="white"/>
<path d="M143.948 71.9699V94.9391C143.948 95.7785 144.628 96.459 145.468 96.459H145.468C146.308 96.459 146.988 95.7785 146.988 94.9391V71.9699C146.988 71.1305 146.308 70.45 145.468 70.45H145.468C144.628 70.45 143.948 71.1305 143.948 71.9699Z" fill="white"/>
<path d="M157.121 71.9699V94.9391C157.121 95.7785 157.802 96.459 158.641 96.459H158.642C159.481 96.459 160.161 95.7785 160.161 94.9391V71.9699C160.161 71.1305 159.481 70.45 158.642 70.45H158.641C157.802 70.45 157.121 71.1305 157.121 71.9699Z" fill="white"/>
<path d="M155.545 109.219H132.383C131.56 109.219 130.893 109.886 130.893 110.709C130.893 111.532 131.56 112.2 132.383 112.2H155.545C156.368 112.2 157.035 111.532 157.035 110.709C157.035 109.886 156.368 109.219 155.545 109.219Z" fill="white"/>
<path d="M137.53 80.9208V95.108C137.53 95.8541 138.135 96.459 138.881 96.459H138.881C139.627 96.459 140.232 95.8541 140.232 95.108V80.9208C140.232 80.1747 139.627 79.5699 138.881 79.5699H138.881C138.135 79.5699 137.53 80.1747 137.53 80.9208Z" fill="white"/>
<path d="M150.704 80.9208V95.108C150.704 95.8541 151.308 96.459 152.054 96.459H152.055C152.801 96.459 153.406 95.8541 153.406 95.108V80.9208C153.406 80.1747 152.801 79.5699 152.055 79.5699H152.054C151.308 79.5699 150.704 80.1747 150.704 80.9208Z" fill="white"/>
<path d="M163.877 80.9208V95.108C163.877 95.8541 164.482 96.459 165.228 96.459H165.228C165.974 96.459 166.579 95.8541 166.579 95.108V80.9208C166.579 80.1747 165.974 79.5699 165.228 79.5699H165.228C164.482 79.5699 163.877 80.1747 163.877 80.9208Z" fill="white"/>
<path d="M122.637 112.2C125.297 112.2 127.453 110.044 127.453 107.384C127.453 104.724 125.297 102.568 122.637 102.568C119.978 102.568 117.821 104.724 117.821 107.384C117.821 110.044 119.978 112.2 122.637 112.2Z" fill="white"/>
<path d="M194.231 9.05664H131.389C128.203 9.05664 125.62 11.6396 125.62 14.8259V31.0217C125.62 34.208 128.203 36.7909 131.389 36.7909H194.231C197.417 36.7909 200 34.208 200 31.0217V14.8259C200 11.6396 197.417 9.05664 194.231 9.05664Z" fill="white" stroke="#DBDBDB" stroke-width="2"/>
<path d="M191.154 17.3262H148.435C147.494 17.3262 146.731 18.0889 146.731 19.0297C146.731 19.9705 147.494 20.7332 148.435 20.7332H191.154C192.095 20.7332 192.858 19.9705 192.858 19.0297C192.858 18.0889 192.095 17.3262 191.154 17.3262Z" fill="#DBDBDB"/>
<path d="M174.905 24.9258H148.435C147.494 24.9258 146.731 25.6885 146.731 26.6293C146.731 27.5701 147.494 28.3328 148.435 28.3328H174.905C175.846 28.3328 176.609 27.5701 176.609 26.6293C176.609 25.6885 175.846 24.9258 174.905 24.9258Z" fill="#DBDBDB"/>
<path fill-rule="evenodd" clip-rule="evenodd" d="M136.97 30.237C132.959 30.237 129.707 26.9392 129.707 22.8722C129.707 18.8052 132.959 15.5078 136.97 15.5078C140.98 15.5078 144.232 18.8052 144.232 22.8722C144.232 26.9392 140.98 30.237 136.97 30.237Z" fill="#94D89C"/>
<path d="M139.527 21.6445L136.459 24.9176L134.617 22.9541" stroke="white" stroke-width="3.568" stroke-linecap="round" stroke-linejoin="round"/>
<path d="M54.6599 91.3671H37.0541M29.1663 68.4409L25.5641 72.0396L23.8141 70.2947L29.1663 68.4409ZM36.9711 66.7188H47.6173H36.9711ZM37.0541 72.0005H54.6599H37.0541ZM29.1663 80.7652L25.5641 84.3639L23.8141 82.6191L29.1663 80.7652ZM36.9711 79.0431H47.6173H36.9711ZM37.0541 84.3248H54.6599H37.0541ZM54.6599 96.6489H36.9711H54.6599Z" stroke="#DBDBDB" stroke-width="3" stroke-linecap="round" stroke-linejoin="round"/>
<path d="M26.4901 99.9095C29.2633 99.9095 31.5116 97.6614 31.5116 94.8883C31.5116 92.1149 29.2633 89.8672 26.4901 89.8672C23.7172 89.8672 21.469 92.115 21.469 94.8883C21.469 97.6613 23.7172 99.9095 26.4901 99.9095Z" stroke="#DBDBDB" stroke-width="3" stroke-linecap="round" stroke-linejoin="round"/>
<path d="M82.5712 66.7188H93.2177M82.6542 72.0005H100.26M82.5712 79.0431H93.2177M82.6542 84.3248H100.26M100.26 96.6489H82.5712M100.26 91.3671H82.6542M74.7667 68.4409L71.1644 72.0396L69.4145 70.2947L74.7667 68.4409ZM74.7667 80.7652L71.1644 84.3639L69.4145 82.6191L74.7667 80.7652Z" stroke="#DBDBDB" stroke-width="3" stroke-linecap="round" stroke-linejoin="round"/>
<path d="M72.0904 99.9095C74.8638 99.9095 77.1115 97.6612 77.1115 94.8883C77.1115 92.1151 74.8637 89.8672 72.0904 89.8672C69.3175 89.8672 67.0692 92.115 67.0692 94.8883C67.0692 97.6613 69.3174 99.9095 72.0904 99.9095Z" stroke="#DBDBDB" stroke-width="3" stroke-linecap="round" stroke-linejoin="round"/>
<path fill-rule="evenodd" clip-rule="evenodd" d="M120.429 39.7107H119.734C119.653 39.7106 119.576 39.6786 119.519 39.6217C119.462 39.5648 119.43 39.4877 119.43 39.4072V38.7113C119.43 38.5431 119.567 38.4078 119.734 38.4078H120.429C120.51 38.4081 120.587 38.4401 120.644 38.497C120.701 38.5539 120.733 38.6309 120.733 38.7113V39.4072C120.733 39.4471 120.725 39.4866 120.71 39.5235C120.695 39.5604 120.673 39.5939 120.644 39.6221C120.616 39.6503 120.583 39.6727 120.546 39.6879C120.509 39.7031 120.469 39.7108 120.429 39.7107ZM118.017 39.7107H117.321C117.241 39.7105 117.164 39.6784 117.107 39.6215C117.05 39.5647 117.018 39.4876 117.018 39.4072V38.7113C117.018 38.5431 117.155 38.4078 117.321 38.4078H118.017C118.098 38.4081 118.175 38.4401 118.232 38.497C118.288 38.5539 118.321 38.6309 118.321 38.7113V39.4072C118.321 39.4876 118.288 39.5647 118.232 39.6215C118.175 39.6784 118.098 39.7105 118.017 39.7107ZM115.603 39.7107H114.908C114.828 39.7105 114.75 39.6784 114.694 39.6215C114.637 39.5647 114.604 39.4876 114.604 39.4072V38.7113C114.604 38.5431 114.741 38.4078 114.908 38.4078H115.603C115.77 38.4078 115.907 38.5447 115.907 38.7113V39.4072C115.907 39.4471 115.9 39.4866 115.884 39.5235C115.869 39.5603 115.847 39.5938 115.818 39.622C115.79 39.6502 115.757 39.6726 115.72 39.6878C115.683 39.703 115.643 39.7108 115.603 39.7107ZM113.191 39.7107H112.496C112.415 39.7105 112.338 39.6784 112.281 39.6215C112.224 39.5647 112.192 39.4876 112.192 39.4072V38.7113C112.192 38.5431 112.329 38.4078 112.496 38.4078H113.191C113.36 38.4078 113.496 38.5447 113.496 38.7113V39.4072C113.496 39.4877 113.463 39.5647 113.406 39.6214C113.349 39.6782 113.272 39.7103 113.191 39.7107ZM110.779 39.7107H110.083C110.003 39.7107 109.925 39.6788 109.868 39.6219C109.811 39.565 109.779 39.4878 109.778 39.4072V38.7113C109.778 38.5431 109.915 38.4078 110.083 38.4078H110.779C110.86 38.4081 110.937 38.4401 110.993 38.497C111.05 38.5539 111.082 38.6309 111.083 38.7113V39.4072C111.082 39.4876 111.05 39.5647 110.993 39.6215C110.937 39.6784 110.86 39.7105 110.779 39.7107ZM117.929 37.0803H117.233C117.153 37.08 117.076 37.048 117.019 36.9911C116.962 36.9342 116.93 36.8572 116.929 36.7767V36.0796C116.929 35.9126 117.066 35.7758 117.233 35.7758H117.929C118.097 35.7758 118.233 35.9126 118.233 36.0796V36.7751C118.233 36.8152 118.225 36.8548 118.21 36.8918C118.195 36.9289 118.172 36.9625 118.144 36.9909C118.116 37.0193 118.082 37.0418 118.045 37.0571C118.008 37.0724 117.969 37.0803 117.929 37.0803ZM115.517 37.0803H114.821C114.74 37.08 114.663 37.0479 114.606 36.9911C114.55 36.9342 114.518 36.8572 114.517 36.7767V36.0796C114.517 35.9126 114.654 35.7758 114.821 35.7758H115.517C115.684 35.7758 115.82 35.9126 115.82 36.0796V36.7751C115.821 36.8152 115.813 36.8548 115.798 36.8918C115.783 36.9289 115.76 36.9625 115.732 36.9909C115.704 37.0193 115.67 37.0418 115.633 37.0571C115.596 37.0724 115.557 37.0803 115.517 37.0803ZM113.104 37.0803H112.409C112.328 37.0803 112.251 37.0483 112.193 36.9915C112.136 36.9346 112.104 36.8574 112.103 36.7767V36.0796C112.103 35.9126 112.24 35.7758 112.409 35.7758H113.104C113.271 35.7758 113.408 35.9126 113.408 36.0796V36.7751C113.408 36.8558 113.376 36.9331 113.319 36.9903C113.262 37.0475 113.185 37.0798 113.104 37.0803ZM115.603 42.5367H114.908C114.827 42.5364 114.75 42.5043 114.693 42.4474C114.636 42.3905 114.604 42.3133 114.604 42.2328V41.5373C114.604 41.369 114.741 41.2335 114.908 41.2335H115.603C115.77 41.2335 115.907 41.3703 115.907 41.5373V42.2328C115.907 42.2727 115.9 42.3123 115.884 42.3492C115.869 42.3861 115.847 42.4196 115.819 42.4479C115.79 42.4761 115.757 42.4985 115.72 42.5137C115.683 42.5289 115.643 42.5368 115.603 42.5367ZM113.191 42.5367H112.496C112.415 42.5364 112.338 42.5043 112.281 42.4474C112.224 42.3905 112.192 42.3133 112.192 42.2328V41.5373C112.192 41.369 112.329 41.2335 112.496 41.2335H113.191C113.36 41.2335 113.496 41.3703 113.496 41.5373V42.2328C113.496 42.3134 113.463 42.3904 113.406 42.4473C113.349 42.5041 113.272 42.5362 113.191 42.5367ZM108.27 28.9017H107.574C107.493 28.9016 107.416 28.8696 107.359 28.8127C107.302 28.7558 107.27 28.6787 107.27 28.5982V27.9024C107.27 27.7341 107.407 27.5988 107.574 27.5988H108.27C108.35 27.5991 108.427 27.6312 108.484 27.688C108.541 27.7449 108.573 27.822 108.573 27.9024V28.5982C108.573 28.6381 108.565 28.6776 108.55 28.7145C108.535 28.7514 108.513 28.7849 108.484 28.8131C108.456 28.8413 108.423 28.8637 108.386 28.8789C108.349 28.8941 108.309 28.9019 108.27 28.9017ZM105.857 28.9017H105.162C105.081 28.9014 105.004 28.8693 104.947 28.8125C104.89 28.7556 104.858 28.6786 104.858 28.5982V27.9024C104.858 27.7341 104.995 27.5988 105.162 27.5988H105.857C105.938 27.5991 106.015 27.6312 106.072 27.688C106.129 27.7449 106.161 27.822 106.161 27.9024V28.5982C106.161 28.6786 106.129 28.7557 106.072 28.8126C106.015 28.8694 105.938 28.9015 105.857 28.9017ZM103.444 28.9017H102.748C102.667 28.9015 102.59 28.8694 102.533 28.8126C102.477 28.7557 102.444 28.6786 102.444 28.5982V27.9024C102.444 27.7341 102.581 27.5988 102.748 27.5988H103.444C103.611 27.5988 103.747 27.7357 103.747 27.9024V28.5982C103.747 28.6381 103.74 28.6776 103.724 28.7145C103.709 28.7514 103.687 28.7848 103.658 28.813C103.63 28.8412 103.597 28.8636 103.56 28.8788C103.523 28.894 103.483 28.9018 103.444 28.9017ZM101.031 28.9017H100.336C100.255 28.9015 100.178 28.8694 100.121 28.8126C100.064 28.7557 100.032 28.6786 100.032 28.5982V27.9024C100.032 27.7341 100.169 27.5988 100.336 27.5988H101.031C101.2 27.5988 101.337 27.7357 101.337 27.9024V28.5982C101.336 28.6787 101.303 28.7556 101.246 28.8124C101.189 28.8691 101.112 28.9012 101.031 28.9017ZM98.6192 28.9017H97.9234C97.8427 28.9017 97.7654 28.8698 97.7082 28.8129C97.651 28.7561 97.6187 28.6789 97.6182 28.5982V27.9024C97.6182 27.7341 97.7551 27.5988 97.9234 27.5988H98.6192C98.6996 27.5991 98.7767 27.6312 98.8335 27.688C98.8904 27.7449 98.9225 27.822 98.9227 27.9024V28.5982C98.9225 28.6786 98.8904 28.7557 98.8335 28.8126C98.7767 28.8694 98.6996 28.9015 98.6192 28.9017ZM105.769 26.2713H105.073C104.993 26.271 104.916 26.239 104.859 26.1821C104.802 26.1252 104.77 26.0482 104.77 25.9678V25.2706C104.77 25.1037 104.906 24.9668 105.073 24.9668H105.769C105.937 24.9668 106.072 25.1037 106.072 25.2706V25.9662C106.073 26.0062 106.065 26.0458 106.05 26.0829C106.035 26.1199 106.012 26.1536 105.984 26.1819C105.956 26.2103 105.922 26.2328 105.885 26.2481C105.849 26.2635 105.809 26.2713 105.769 26.2713ZM103.357 26.2713H102.661C102.58 26.271 102.503 26.239 102.447 26.1821C102.39 26.1252 102.358 26.0482 102.357 25.9678V25.2706C102.357 25.1037 102.494 24.9668 102.661 24.9668H103.357C103.523 24.9668 103.66 25.1037 103.66 25.2706V25.9662C103.66 26.0062 103.653 26.0458 103.638 26.0829C103.623 26.1199 103.6 26.1536 103.572 26.1819C103.544 26.2103 103.51 26.2328 103.473 26.2481C103.436 26.2635 103.397 26.2713 103.357 26.2713ZM100.945 26.2713H100.249C100.168 26.2713 100.091 26.2394 100.033 26.1825C99.9763 26.1256 99.944 26.0484 99.9436 25.9678V25.2706C99.9436 25.1037 100.08 24.9668 100.249 24.9668H100.945C101.111 24.9668 101.248 25.1037 101.248 25.2706V25.9662C101.248 26.0468 101.216 26.1242 101.159 26.1814C101.102 26.2385 101.025 26.2709 100.945 26.2713ZM103.444 31.7277H102.748C102.667 31.7273 102.59 31.6951 102.533 31.6382C102.477 31.5813 102.445 31.5043 102.444 31.4238V30.728C102.444 30.5601 102.581 30.4245 102.748 30.4245H103.444C103.611 30.4245 103.747 30.5613 103.747 30.728V31.4238C103.747 31.4638 103.74 31.5033 103.724 31.5402C103.709 31.5771 103.687 31.6106 103.659 31.6388C103.63 31.667 103.597 31.6894 103.56 31.7047C103.523 31.7199 103.483 31.7277 103.444 31.7277ZM101.031 31.7277H100.336C100.255 31.7273 100.178 31.6951 100.121 31.6382C100.064 31.5813 100.032 31.5043 100.032 31.4238V30.728C100.032 30.5601 100.169 30.4245 100.336 30.4245H101.031C101.2 30.4245 101.337 30.5613 101.337 30.728V31.4238C101.336 31.5043 101.303 31.5812 101.246 31.638C101.189 31.6948 101.112 31.727 101.031 31.7277Z" fill="#DBDBDB"/>
<path d="M80.7725 46.2914C81.9158 50.5581 86.3014 53.0902 90.5681 51.9469C94.8348 50.8037 97.3669 46.418 96.2236 42.1513C95.0804 37.8846 90.6947 35.3526 86.428 36.4958C82.1613 37.6391 79.6293 42.0247 80.7725 46.2914Z" fill="url(#paint0_linear_1828_17010)"/>
<path d="M82.9799 45.698C83.7965 48.7456 86.9291 50.5542 89.9767 49.7376C93.0243 48.921 94.8329 45.7884 94.0163 42.7408C93.1997 39.6932 90.0671 37.8846 87.0195 38.7012C83.9719 39.5178 82.1633 42.6504 82.9799 45.698Z" fill="white"/>
<path d="M90.5682 51.9463C89.2977 52.2867 87.9629 52.3085 86.682 52.0099C85.4011 51.7112 84.2136 51.1012 83.2247 50.234C82.2358 49.3668 81.4761 48.2691 81.0128 47.0381C80.5495 45.8071 80.3969 44.4809 80.5686 43.1769C80.7402 41.8728 81.2308 40.6313 81.9969 39.5621C82.763 38.493 83.781 37.6293 84.9606 37.0476C86.1402 36.4658 87.4451 36.1839 88.7597 36.2269C90.0743 36.2699 91.358 36.6365 92.497 37.2941L91.2974 39.3723C90.5001 38.9116 89.6016 38.6549 88.6814 38.6247C87.7611 38.5946 86.8477 38.792 86.022 39.1995C85.1961 39.6066 84.4834 40.2111 83.947 40.9594C83.4105 41.7078 83.067 42.5769 82.9468 43.4898C82.8266 44.4027 82.9334 45.3312 83.2579 46.1929C83.5823 47.0546 84.1143 47.823 84.8066 48.43C85.499 49.0368 86.3302 49.4637 87.2268 49.6728C88.1234 49.8819 89.0577 49.8667 89.947 49.6287L90.5682 51.9463Z" fill="#94D89C"/>
<defs>
<linearGradient id="paint0_linear_1828_17010" x1="72.1982" y1="48.9423" x2="112.992" y2="37.5009" gradientUnits="userSpaceOnUse">
<stop stop-color="white"/>
<stop offset="1" stop-color="#EEEEEE"/>
</linearGradient>
</defs>
</svg>
