<svg xmlns="http://www.w3.org/2000/svg" width="24" height="22.588" viewBox="0 0 24 22.588">
  <path id="Icon_awesome-chart-pie" data-name="Icon awesome-chart-pie" d="M23.285,12.706H12.816l6.972,6.972a.708.708,0,0,0,.979.03,10.566,10.566,0,0,0,3.226-6.214A.707.707,0,0,0,23.285,12.706Zm-.7-2.859A10.613,10.613,0,0,0,12.741,0,.71.71,0,0,0,12,.717v9.872h9.872a.71.71,0,0,0,.714-.741Zm-12.7,2.859V2.237A.707.707,0,0,0,9.1,1.529,10.58,10.58,0,0,0,.006,12.369,10.719,10.719,0,0,0,10.722,22.587a10.506,10.506,0,0,0,5.967-1.942.7.7,0,0,0,.069-1.062Z" transform="translate(0 0)" fill="#fff"/>
</svg>
