<svg width="16" height="16" viewBox="0 0 16 16" fill="none" xmlns="http://www.w3.org/2000/svg">
<path fill-rule="evenodd" clip-rule="evenodd" d="M7.07503 12.236L13.0105 6.30048C13.2121 6.09893 13.2121 5.77212 13.0105 5.57058L12.2806 4.84067C12.0791 4.63909 11.7523 4.63909 11.5507 4.84067L6.71006 9.68125L4.4501 7.42129C4.24855 7.21974 3.92174 7.21974 3.72016 7.42129L2.99026 8.15119C2.78871 8.35274 2.78871 8.67955 2.99026 8.88109L6.34509 12.2359C6.54668 12.4375 6.87345 12.4375 7.07503 12.236ZM16 8C16 12.4183 12.4183 16 8 16C3.58171 16 0 12.4183 0 8C0 3.58171 3.58171 0 8 0C12.4183 0 16 3.58171 16 8Z" fill="#94D89C"/>
</svg>
