<svg width="16" height="16" viewBox="0 0 16 16" fill="none" xmlns="http://www.w3.org/2000/svg">
<path d="M7.99974 2.10569e-07C6.41743 2.13171e-07 4.87065 0.469217 3.55501 1.34831C2.23937 2.22741 1.21396 3.4769 0.608453 4.93878C0.00294768 6.40066 -0.155457 8.00926 0.153271 9.56117C0.461999 11.1131 1.22399 12.5386 2.34289 13.6574C3.46179 14.7762 4.88734 15.5382 6.43926 15.8468C7.99118 16.1554 9.59978 15.9969 11.0616 15.3913C12.5235 14.7858 13.7729 13.7603 14.6519 12.4446C15.5309 11.1289 16.0001 9.58209 16 7.99977C16.0002 6.94914 15.7933 5.90876 15.3914 4.93807C14.9894 3.96738 14.4001 3.0854 13.6571 2.34251C12.9142 1.59962 12.0322 1.01038 11.0615 0.608447C10.0908 0.206511 9.05038 -0.000240859 7.99974 2.10569e-07ZM9.84175 11.2934L6.99731 9.22563C6.9483 9.18948 6.90846 9.14235 6.88097 9.08801C6.85348 9.03367 6.83912 8.97364 6.83903 8.91275V3.48353C6.83927 3.38091 6.88014 3.28256 6.95271 3.20999C7.02527 3.13743 7.12362 3.09656 7.22624 3.09632H8.77463C8.87725 3.09656 8.97559 3.13743 9.04816 3.20999C9.12072 3.28256 9.1616 3.38091 9.16184 3.48353V7.92545L11.2112 9.41603C11.2524 9.44601 11.2873 9.48384 11.3138 9.52734C11.3403 9.57083 11.358 9.61914 11.3658 9.66949C11.3736 9.71984 11.3714 9.77123 11.3593 9.82072C11.3471 9.8702 11.3254 9.91681 11.2952 9.95785L10.3854 11.2112C10.324 11.294 10.2324 11.349 10.1305 11.3644C10.0287 11.3798 9.92484 11.3543 9.84175 11.2934Z" fill="white"/>
</svg>
