<svg width="13" height="16" viewBox="0 0 13 16" fill="none" xmlns="http://www.w3.org/2000/svg">
<path d="M12.9784 3.81067V4H8.83862V1.31817e-07H9.03456C9.24037 2.27936e-05 9.43774 0.0789924 9.58331 0.219556L12.7507 3.28C12.8229 3.34966 12.8801 3.43239 12.9192 3.52344C12.9583 3.6145 12.9784 3.7121 12.9784 3.81067ZM8.58011 5C8.37442 4.99953 8.17728 4.9204 8.03179 4.7799C7.88629 4.63941 7.80428 4.44897 7.80367 4.25022V1.31817e-07H1.33552C1.23354 -5.82951e-05 1.13255 0.0193069 1.03832 0.0569884C0.944089 0.0946699 0.858471 0.149929 0.78636 0.219605C0.714249 0.289281 0.65706 0.372008 0.618062 0.463056C0.579064 0.554103 0.559022 0.651685 0.559082 0.750222V15.2502C0.559082 15.3487 0.579169 15.4463 0.618194 15.5373C0.657219 15.6282 0.714418 15.7109 0.786523 15.7806C0.858628 15.8502 0.944225 15.9054 1.03842 15.9431C1.13262 15.9807 1.23358 16.0001 1.33552 16H12.2024C12.4082 16 12.6056 15.921 12.7511 15.7804C12.8966 15.6398 12.9784 15.4491 12.9784 15.2502V5H8.58011ZM4.54384 12.516C4.51211 12.5486 4.46827 12.5678 4.42195 12.5692C4.37563 12.5706 4.33063 12.5542 4.29683 12.5236L2.19889 10.6222C2.18148 10.6064 2.16761 10.5874 2.15813 10.5662C2.14865 10.545 2.14376 10.5222 2.14376 10.4991C2.14376 10.476 2.14865 10.4532 2.15813 10.432C2.16761 10.4109 2.18148 10.3918 2.19889 10.376L4.29683 8.47556C4.33063 8.44492 4.37563 8.4285 4.42195 8.42992C4.46827 8.43134 4.51211 8.45047 4.54384 8.48311L5.17722 9.13556C5.19323 9.15206 5.20565 9.1715 5.21373 9.19272C5.22182 9.21394 5.22541 9.23652 5.2243 9.25911C5.22318 9.2817 5.21738 9.30385 5.20724 9.32423C5.1971 9.34462 5.18282 9.36283 5.16526 9.37778L3.84652 10.5L5.1648 11.6209C5.18236 11.6358 5.19664 11.654 5.20678 11.6744C5.21692 11.6948 5.22272 11.717 5.22384 11.7396C5.22495 11.7621 5.22136 11.7847 5.21327 11.8059C5.20519 11.8272 5.19277 11.8466 5.17676 11.8631L4.54384 12.516ZM6.20296 14.0933L5.31521 13.8444C5.29316 13.8383 5.27259 13.8279 5.25467 13.8141C5.23675 13.8002 5.22183 13.7831 5.21076 13.7636C5.1997 13.7442 5.19271 13.7228 5.19019 13.7008C5.18767 13.6787 5.18967 13.6564 5.19608 13.6351L7.18271 7.02222C7.18911 7.00092 7.19979 6.98104 7.21414 6.96372C7.22849 6.9464 7.24623 6.93199 7.26635 6.9213C7.28647 6.91061 7.30857 6.90385 7.33139 6.90142C7.35422 6.89899 7.37731 6.90092 7.39936 6.90711L8.28711 7.156C8.30916 7.16218 8.32973 7.1725 8.34765 7.18637C8.36557 7.20024 8.38049 7.21738 8.39156 7.23682C8.40262 7.25626 8.40961 7.27761 8.41213 7.29966C8.41465 7.32172 8.41265 7.34403 8.40624 7.36533L6.41915 13.9787C6.4128 14 6.40217 14.0198 6.38786 14.0371C6.37356 14.0545 6.35586 14.0689 6.33577 14.0796C6.31569 14.0903 6.29362 14.097 6.27083 14.0995C6.24805 14.1019 6.22498 14.1 6.20296 14.0938V14.0933ZM11.403 10.6222L9.30503 12.5227C9.27123 12.5533 9.22623 12.5697 9.17991 12.5683C9.13359 12.5669 9.08975 12.5478 9.05802 12.5151L8.42464 11.8631C8.40863 11.8466 8.39621 11.8272 8.38813 11.8059C8.38004 11.7847 8.37645 11.7621 8.37756 11.7396C8.37868 11.717 8.38448 11.6948 8.39462 11.6744C8.40476 11.654 8.41904 11.6358 8.4366 11.6209L9.75488 10.5L8.43706 9.37778C8.4195 9.36283 8.40522 9.34462 8.39508 9.32423C8.38494 9.30385 8.37914 9.2817 8.37803 9.25911C8.37691 9.23652 8.3805 9.21394 8.38859 9.19272C8.39667 9.1715 8.40909 9.15206 8.4251 9.13556L9.05848 8.48311C9.09021 8.45047 9.13405 8.43134 9.18037 8.42992C9.22669 8.4285 9.27169 8.44492 9.30549 8.47556L11.4034 10.376C11.4208 10.3918 11.4347 10.4109 11.4442 10.432C11.4537 10.4532 11.4586 10.476 11.4586 10.4991C11.4586 10.5222 11.4537 10.545 11.4442 10.5662C11.4347 10.5874 11.4208 10.6064 11.4034 10.6222H11.403Z" fill="#DADADA"/>
</svg>
