<svg width="24" height="26" viewBox="0 0 24 26" fill="none" xmlns="http://www.w3.org/2000/svg">
<path fill-rule="evenodd" clip-rule="evenodd" d="M11.9973 16.5739C9.76822 16.5739 7.95364 14.7593 7.95364 12.5302C7.95364 10.3012 9.76822 8.4866 11.9973 8.4866C14.2263 8.4866 16.0409 10.3012 16.0409 12.5302C16.0409 14.7593 14.2263 16.5739 11.9973 16.5739ZM23.6935 15.5478L21.5402 14.3044C21.7576 13.1317 21.7576 11.9287 21.5402 10.7561L23.6935 9.51268C23.9411 9.37115 24.0523 9.07799 23.9715 8.80504C23.4104 7.00563 22.4551 5.37806 21.2066 4.02345C21.0146 3.81621 20.7012 3.76567 20.4586 3.9072L18.3053 5.15062C17.4006 4.37222 16.3593 3.77073 15.2322 3.37648V0.894697C15.2322 0.611647 15.035 0.363967 14.757 0.303317C12.902 -0.111153 11.0015 -0.0909326 9.23748 0.303317C8.95948 0.363967 8.76235 0.611647 8.76235 0.894697V3.38153C7.64024 3.78084 6.59901 4.38233 5.68919 5.15567L3.54101 3.91225C3.29334 3.77072 2.98501 3.81621 2.79294 4.0285C1.54447 5.37806 0.58916 7.00562 0.0281101 8.81009C-0.0578199 9.08303 0.0584401 9.3762 0.30611 9.51773L2.45934 10.7611C2.24199 11.9338 2.24199 13.1368 2.45934 14.3094L0.30611 15.5528C0.0584401 15.6944 -0.0527599 15.9875 0.0281101 16.2605C0.58916 18.0599 1.54447 19.6875 2.79294 21.0421C2.98501 21.2493 3.29839 21.2998 3.54101 21.1583L5.69424 19.9149C6.599 20.6933 7.64024 21.2948 8.7674 21.689V24.1759C8.7674 24.4589 8.96453 24.7066 9.24253 24.7672C11.0975 25.1817 12.9981 25.1615 14.7621 24.7672C15.0401 24.7066 15.2372 24.4589 15.2372 24.1759V21.689C16.3593 21.2897 17.4006 20.6882 18.3104 19.9149L20.4636 21.1583C20.7113 21.2998 21.0196 21.2544 21.2117 21.0421C22.4601 19.6925 23.4155 18.0649 23.9765 16.2605C24.0523 15.9825 23.9411 15.6893 23.6935 15.5478L23.6935 15.5478Z" fill="#7984F4"/>
</svg>
