<svg width="16" height="16" viewBox="0 0 16 16" fill="none" xmlns="http://www.w3.org/2000/svg">
  <path
    d="M8.00894 5.83213C7.47501 5.83213 6.97501 6.03927 6.59644 6.41785C6.21965 6.79642 6.01072 7.29642 6.01072 7.83035C6.01072 8.36427 6.21965 8.86427 6.59644 9.24285C6.97501 9.61963 7.47501 9.82856 8.00894 9.82856C8.54287 9.82856 9.04287 9.61963 9.42144 9.24285C9.79822 8.86427 10.0072 8.36427 10.0072 7.83035C10.0072 7.29642 9.79822 6.79642 9.42144 6.41785C9.23653 6.23152 9.01645 6.08379 8.77397 5.98324C8.53148 5.88269 8.27144 5.83133 8.00894 5.83213ZM15.3714 10.0375L14.2036 9.03928C14.2589 8.69999 14.2875 8.35356 14.2875 8.00892C14.2875 7.66427 14.2589 7.31606 14.2036 6.97856L15.3714 5.98035C15.4597 5.90482 15.5228 5.80423 15.5525 5.69195C15.5821 5.57967 15.5769 5.46102 15.5375 5.35177L15.5214 5.30535C15.2 4.40658 14.7184 3.57348 14.1 2.84642L14.0679 2.80892C13.9928 2.72062 13.8927 2.65714 13.7808 2.62686C13.6689 2.59658 13.5505 2.6009 13.4411 2.63927L11.9911 3.15535C11.4554 2.71606 10.8589 2.36963 10.2125 2.12856L9.93215 0.612488C9.911 0.498278 9.8556 0.393207 9.77331 0.311234C9.69101 0.229261 9.58573 0.174268 9.47144 0.153559L9.42322 0.144631C8.49465 -0.0232265 7.51608 -0.0232265 6.58751 0.144631L6.53929 0.153559C6.425 0.174268 6.31972 0.229261 6.23743 0.311234C6.15513 0.393207 6.09973 0.498278 6.07858 0.612488L5.79644 2.1357C5.15613 2.3787 4.55964 2.72428 4.03037 3.15892L2.56965 2.63927C2.4603 2.6006 2.34178 2.59611 2.22982 2.62642C2.11786 2.65672 2.01778 2.72037 1.94287 2.80892L1.91072 2.84642C1.29339 3.57426 0.811922 4.40715 0.489294 5.30535L0.473223 5.35177C0.392866 5.57499 0.458937 5.82499 0.639294 5.98035L1.82144 6.98927C1.76608 7.32499 1.73929 7.66785 1.73929 8.00713C1.73929 8.34999 1.76608 8.69285 1.82144 9.02499L0.642866 10.0339C0.554644 10.1094 0.491502 10.21 0.461837 10.3223C0.432172 10.4346 0.437389 10.5532 0.476794 10.6625L0.492866 10.7089C0.81608 11.6071 1.29287 12.4375 1.91429 13.1678L1.94644 13.2053C2.02153 13.2936 2.12162 13.3571 2.23351 13.3874C2.3454 13.4177 2.46384 13.4134 2.57322 13.375L4.03394 12.8553C4.56608 13.2928 5.15894 13.6393 5.80001 13.8786L6.08215 15.4018C6.1033 15.516 6.15871 15.6211 6.241 15.703C6.32329 15.785 6.42857 15.84 6.54287 15.8607L6.59108 15.8696C7.52879 16.0384 8.48909 16.0384 9.4268 15.8696L9.47501 15.8607C9.5893 15.84 9.69459 15.785 9.77688 15.703C9.85917 15.6211 9.91457 15.516 9.93572 15.4018L10.2161 13.8857C10.8625 13.6428 11.4589 13.2982 11.9947 12.8589L13.4447 13.375C13.554 13.4137 13.6725 13.4181 13.7845 13.3878C13.8964 13.3575 13.9965 13.2939 14.0714 13.2053L14.1036 13.1678C14.725 12.4339 15.2018 11.6071 15.525 10.7089L15.5411 10.6625C15.6179 10.4411 15.5518 10.1928 15.3714 10.0375ZM8.00894 10.9696C6.27501 10.9696 4.86965 9.56427 4.86965 7.83035C4.86965 6.09642 6.27501 4.69106 8.00894 4.69106C9.74287 4.69106 11.1482 6.09642 11.1482 7.83035C11.1482 9.56427 9.74287 10.9696 8.00894 10.9696Z"
  />
</svg>
