<?xml version="1.0" encoding="UTF-8"?>
<svg
  width="343.06pt"
  height="102.93pt"
  version="1.1"
  viewBox="0 0 343.06 102.93"
  xmlns="http://www.w3.org/2000/svg"
  xmlns:xlink="http://www.w3.org/1999/xlink"
>
  <defs>
    <symbol id="d" overflow="visible">
      <path
        d="m15.031-26.812c0 7.0938 1.3281 10.578 6.8594 15.141l8.5312 7.1094c5.4062 4.4375 8.1719 4.5625 14.906 4.5625h18.281c3.8438 0 7.9375-0.84375 7.9375-5.7656 0-5.0625-4.5625-5.7812-7.9375-5.7812h-20.312c-2.2969 0-4.5781-1.2031-6.625-2.8906l-6.9688-5.8906c-1.8125-1.4375-3.125-2.6406-3.125-4.9219v-14.312c0-2.2812 1.3125-3.4844 3.125-4.9375l6.9688-5.8906c2.0469-1.6719 4.3281-2.875 6.625-2.875h20.312c3.375 0 7.9375-0.73438 7.9375-5.7812 0-4.9219-4.0938-5.7656-7.9375-5.7656h-18.281c-6.7344 0-9.5 0.125-14.906 4.5625l-8.5312 7.0938c-5.5312 4.5781-6.8594 8.0625-6.8594 15.156z"
      />
    </symbol>
    <symbol id="c" overflow="visible">
      <path
        d="m71.547-56.875c0-3.9688-0.84375-7.9375-5.7656-7.9375-4.9375 0-5.7812 3.9688-5.7812 7.9375v33.547l-16.953 10.703c-1.0781 0.71875-2.2812 1.0781-3.6094 1.0781h-3.8438c-2.7656 0-5.7656-0.71875-6.7344-2.4062-0.96875-1.6719-1.0781-4.8125-1.2031-7.4531l-1.2031-35.469c-0.125-3.7344-0.71875-7.9375-5.6562-7.9375-5.2812 0-5.8906 4.4531-5.7656 8.6562l1.2031 36.312c0.23438 6.25 0.125 11.188 5.2969 15.641 3.8438 3.2344 7.4531 4.2031 10.703 4.2031h8.5312c3.125 0 6.25-1.4375 9.9844-3.8438l9.375-6.1406v1.9219c0 3.9688 0.84375 8.0625 5.7656 8.0625 6.1406 0 5.6562-5.8906 5.6562-8.5312z"
      />
    </symbol>
    <symbol id="b" overflow="visible">
      <path
        d="m15.031-7.9375c0 3.9688 0.84375 7.9375 5.7656 7.9375 4.9375 0 5.7812-3.9688 5.7812-7.9375v-29.219l16.109-13.344c2.0469-1.6875 3.6094-2.7656 5.7656-2.7656h3.375c2.7656 0 5.5312 0 6.9688 2.0469 1.2031 1.6719 1.2031 3.125 1.2031 5.0469 0 3.7188 1.6875 7.0938 5.8906 7.0938 4.9375 0 5.6562-4.0938 5.6562-8.0625 0-5.2812-1.3281-9.25-5.1719-13.109-3.125-3.125-6.8438-4.5625-11.297-4.5625h-9.2656c-3.6094 0-6.9688 2.2812-10.219 4.9219l-9.0156 7.4688v-4.7031c0-3.8438-1.2031-7.6875-5.7812-7.6875-5.2812 0-5.7656 4.3281-5.7656 8.5312z"
      />
    </symbol>
    <symbol id="a" overflow="visible">
      <path
        d="m49.297-80.562c0-6.8594-1.9219-8.0625-8.5312-8.0625h-12.141c-3.8594 0-7.9375 0.84375-7.9375 5.7656 0 5.0625 4.5625 5.7812 7.9375 5.7812h9.1406v65.531h-9.1406c-3.8594 0-7.9375 0.84375-7.9375 5.7812 0 5.0469 4.5625 5.7656 7.9375 5.7656h29.328c3.375 0 7.9375-0.71875 7.9375-5.7656 0-4.9375-4.0781-5.7812-7.9375-5.7812h-8.6562z"
      />
    </symbol>
  </defs>
  <path
    d="m333.98 14.043c-2.7422 0-4.9609-2.2227-4.9609-4.9609 0-2.7422 2.2188-4.9609 4.9609-4.9609 2.7383 0 4.9609 2.2188 4.9609 4.9609 0 2.7383-2.2227 4.9609-4.9609 4.9609m-49.27 84.762c-2.7422 0-4.9609-2.2226-4.9609-4.9609 0-2.7422 2.2188-4.9609 4.9609-4.9609 2.7383 0 4.957 2.2188 4.957 4.9609 0 2.7383-2.2188 4.9609-4.957 4.9609m49.27-98.805c-5.0156 0-9.082 4.0664-9.082 9.082 0 1.0703 0.26953 2.0664 0.60937 3.0195l-42.605 73.023c-4.1172 0.86328-7.2734 4.3438-7.2734 8.7188 0 5.0156 4.0664 9.082 9.082 9.082 5.0117 0 9.0781-4.0664 9.0781-9.082 0-1.0078-0.26953-1.9297-0.57031-2.8359l42.82-73.262c3.9922-0.95703 7.0234-4.3789 7.0234-8.6641 0-5.0156-4.0664-9.082-9.082-9.082"
    fill="#0c544c"
  />
  <path
    d="m296.82 14.043c-2.7422 0-4.9609-2.2227-4.9609-4.9609 0-2.7422 2.2188-4.9609 4.9609-4.9609 2.7383 0 4.957 2.2188 4.957 4.9609 0 2.7383-2.2188 4.9609-4.957 4.9609m-49.273 84.762c-2.7383 0-4.9609-2.2226-4.9609-4.9609 0-2.7422 2.2226-4.9609 4.9609-4.9609 2.7422 0 4.9609 2.2188 4.9609 4.9609 0 2.7383-2.2188 4.9609-4.9609 4.9609m49.273-98.805c-5.0195 0-9.082 4.0664-9.082 9.082 0 1.0703 0.26953 2.0664 0.60938 3.0195l-42.605 73.023c-4.1211 0.86328-7.2774 4.3438-7.2774 8.7188 0 5.0156 4.0664 9.082 9.082 9.082 5.0156 0 9.082-4.0664 9.082-9.082 0-1.0078-0.26953-1.9297-0.57032-2.8359l42.82-73.262c3.9922-0.95703 7.0234-4.3789 7.0234-8.6641 0-5.0156-4.0703-9.082-9.082-9.082"
    fill="#073551"
  />
  <path
    d="m228.96 29.227c2.7383 0 4.9609 2.2227 4.9609 4.9609s-2.2227 4.9609-4.9609 4.9609c-2.7422 0-4.9609-2.2226-4.9609-4.9609s2.2188-4.9609 4.9609-4.9609m0 14.043c5.0156 0 9.082-4.0664 9.082-9.082 0-1.0039-0.27344-1.9297-0.57422-2.8359-1.2031-3.6055-4.5-6.2461-8.5078-6.2461-0.64063 0-1.2031 0.23828-1.8086 0.36718-4.1172 0.85938-7.2734 4.3398-7.2734 8.7148 0 5.0156 4.0664 9.082 9.082 9.082"
    fill="#073551"
  />
  <path
    d="m224 65.922c0-2.7422 2.2227-4.9609 4.9609-4.9609s4.9609 2.2188 4.9609 4.9609c0 2.7383-2.2227 4.957-4.9609 4.957s-4.9609-2.2188-4.9609-4.957m14.043 0c0-1.0078-0.27344-1.9297-0.57422-2.8359-1.2031-3.6055-4.4961-6.2461-8.5078-6.2461-0.64063 0-1.2031 0.23828-1.8086 0.36328-4.1172 0.86328-7.2734 4.3438-7.2734 8.7188 0 5.0117 4.0664 9.082 9.082 9.082 5.0156 0 9.082-4.0703 9.082-9.082"
    fill="#073551"
  />
  <use
    transform="translate(-86.211 -184.05)"
    x="71.179703"
    y="286.97659"
    width="100%"
    height="100%"
    fill="#073551"
    xlink:href="#d"
  />
  <use
    transform="translate(-86.211 -184.05)"
    x="133.71095"
    y="286.97659"
    width="100%"
    height="100%"
    fill="#073551"
    xlink:href="#c"
  />
  <use
    transform="translate(-86.211 -184.05)"
    x="196.2422"
    y="286.97659"
    width="100%"
    height="100%"
    fill="#073551"
    xlink:href="#b"
  />
  <use
    transform="translate(-86.211 -184.05)"
    x="239.65331"
    y="286.97659"
    width="100%"
    height="100%"
    fill="#073551"
    xlink:href="#a"
  />
</svg>
