<svg width="400" height="121" viewBox="0 0 400 121" fill="none" xmlns="http://www.w3.org/2000/svg">
<path d="M389.41 17.3637C386.215 17.3637 383.627 14.774 383.627 11.5804C383.627 8.38561 386.215 5.79596 389.41 5.79596C392.605 5.79596 395.193 8.38561 395.193 11.5804C395.193 14.774 392.605 17.3637 389.41 17.3637ZM331.962 116.195C328.767 116.195 326.178 113.605 326.178 110.411C326.178 107.217 328.767 104.627 331.962 104.627C335.156 104.627 337.745 107.217 337.745 110.411C337.745 113.605 335.156 116.195 331.962 116.195ZM389.41 0.99093C383.562 0.99093 378.821 5.73183 378.821 11.5804C378.821 12.8292 379.135 13.9893 379.532 15.1029L329.854 100.248C325.052 101.253 321.373 105.31 321.373 110.411C321.373 116.259 326.113 121 331.962 121C337.809 121 342.55 116.259 342.55 110.411C342.55 109.239 342.234 108.16 341.883 107.106L391.813 21.6837C396.468 20.569 400 16.5767 400 11.5804C400 5.73183 395.258 0.99093 389.41 0.99093Z" fill="#ACACAC"/>
<path d="M346.081 17.3637C342.886 17.3637 340.297 14.774 340.297 11.5804C340.297 8.38561 342.886 5.79596 346.081 5.79596C349.275 5.79596 351.864 8.38561 351.864 11.5804C351.864 14.774 349.275 17.3637 346.081 17.3637ZM288.632 116.195C285.438 116.195 282.848 113.605 282.848 110.411C282.848 107.217 285.438 104.627 288.632 104.627C291.826 104.627 294.416 107.217 294.416 110.411C294.416 113.605 291.826 116.195 288.632 116.195ZM346.081 0.99093C340.232 0.99093 335.491 5.73183 335.491 11.5804C335.491 12.8292 335.806 13.9893 336.202 15.1029L286.524 100.248C281.723 101.253 278.043 105.31 278.043 110.411C278.043 116.259 282.784 121 288.632 121C294.48 121 299.221 116.259 299.221 110.411C299.221 109.239 298.905 108.16 298.554 107.106L348.484 21.6837C353.138 20.569 356.67 16.5767 356.67 11.5804C356.67 5.73183 351.928 0.99093 346.081 0.99093Z" fill="#ACACAC"/>
<path d="M266.96 35.0686C270.154 35.0686 272.743 37.6583 272.743 40.8519C272.743 44.0467 270.154 46.6364 266.96 46.6364C263.765 46.6364 261.176 44.0467 261.176 40.8519C261.176 37.6583 263.765 35.0686 266.96 35.0686ZM266.96 51.4414C272.807 51.4414 277.549 46.7005 277.549 40.8519C277.549 39.6801 277.233 38.6016 276.881 37.5475C275.478 33.343 271.635 30.2636 266.96 30.2636C266.212 30.2636 265.556 30.5411 264.853 30.6892C260.05 31.6943 256.37 35.7519 256.37 40.8519C256.37 46.7005 261.112 51.4414 266.96 51.4414Z" fill="#ACACAC"/>
<path d="M261.176 77.8519C261.176 74.6571 263.765 72.0686 266.959 72.0686C270.154 72.0686 272.743 74.6571 272.743 77.8519C272.743 81.0467 270.154 83.6352 266.959 83.6352C263.765 83.6352 261.176 81.0467 261.176 77.8519ZM277.548 77.8519C277.548 76.6789 277.232 75.6016 276.88 74.5475C275.478 70.343 271.636 67.2624 266.959 67.2624C266.212 67.2624 265.556 67.5411 264.852 67.6892C260.05 68.6931 256.371 72.7519 256.371 77.8519C256.371 83.6993 261.112 88.4414 266.959 88.4414C272.808 88.4414 277.548 83.6993 277.548 77.8519Z" fill="#ACACAC"/>
<path d="M0 89.7269C0 97.9995 1.54233 102.066 7.99209 107.394L17.9471 115.666C24.2567 120.854 27.4816 120.994 35.3334 120.994H56.6457C61.1325 120.994 65.8997 120.013 65.8997 114.264C65.8997 108.375 60.5716 107.534 56.6457 107.534H32.9498C30.2858 107.534 27.6218 106.132 25.2382 104.169L17.1059 97.2984C15.0027 95.6159 13.4604 94.2137 13.4604 91.5497V74.8645C13.4604 72.2004 15.0027 70.7983 17.1059 69.1158L25.2382 62.2454C27.6218 60.2824 30.2858 58.8803 32.9498 58.8803H56.6457C60.5716 58.8803 65.8997 58.039 65.8997 52.1501C65.8997 46.4014 61.1325 45.4199 56.6457 45.4199H35.3334C27.4816 45.4199 24.2567 45.5601 17.9471 50.748L7.99209 59.0205C1.54233 64.3486 0 68.4147 0 76.6872V89.7269Z" fill="#ACACAC"/>
<path d="M138.81 54.6739C138.81 50.0469 137.829 45.4199 132.08 45.4199C126.331 45.4199 125.35 50.0469 125.35 54.6739V93.7931L105.58 106.272C104.318 107.113 102.916 107.534 101.374 107.534H96.8868C93.6619 107.534 90.1566 106.693 89.0349 104.73C87.9132 102.767 87.773 99.1212 87.6328 96.0365L86.2307 54.6739C86.0905 50.3273 85.3894 45.4199 79.6407 45.4199C73.4714 45.4199 72.7703 50.6078 72.9105 55.5152L74.3126 97.8592C74.5931 105.15 74.4528 110.899 80.482 116.087C84.9687 119.873 89.1751 120.994 92.9608 120.994H102.916C106.561 120.994 110.207 119.312 114.554 116.507L125.49 109.357V111.6C125.49 116.227 126.472 120.994 132.22 120.994C139.371 120.994 138.81 114.124 138.81 111.039V54.6739Z" fill="#ACACAC"/>
<path d="M145.821 111.74C145.821 116.367 146.802 120.994 152.551 120.994C158.3 120.994 159.281 116.367 159.281 111.74V77.6687L178.07 62.1052C180.453 60.1422 182.276 58.8803 184.8 58.8803H188.726C191.951 58.8803 195.175 58.8803 196.858 61.2639C198.26 63.2269 198.26 64.9094 198.26 67.1528C198.26 71.4994 200.223 75.4253 205.131 75.4253C210.879 75.4253 211.72 70.6581 211.72 66.0311C211.72 59.8618 210.178 55.2348 205.691 50.748C202.046 47.1025 197.699 45.4199 192.511 45.4199H181.715C177.509 45.4199 173.583 48.084 169.797 51.1686L159.281 59.8618V54.3935C159.281 49.9067 157.879 45.4199 152.551 45.4199C146.382 45.4199 145.821 50.4676 145.821 55.375V111.74Z" fill="#ACACAC"/>
<path d="M236.398 27.0524C236.398 19.0603 234.155 17.6582 226.443 17.6582H212.282C207.795 17.6582 203.028 18.6397 203.028 24.3884C203.028 30.2773 208.356 31.1186 212.282 31.1186H222.938V107.534H212.282C207.795 107.534 203.028 108.516 203.028 114.264C203.028 120.153 208.356 120.995 212.282 120.995H246.494C250.42 120.995 255.748 120.153 255.748 114.264C255.748 108.516 250.98 107.534 246.494 107.534H236.398V27.0524Z" fill="#ACACAC"/>
</svg>
