<svg width="15" height="16" viewBox="0 0 15 16" fill="none" xmlns="http://www.w3.org/2000/svg">
<path d="M7.5 0.5C3.35826 0.5 0 3.85826 0 8C0 12.1417 3.35826 15.5 7.5 15.5C11.6417 15.5 15 12.1417 15 8C15 3.85826 11.6417 0.5 7.5 0.5ZM7.5 14.2277C4.06138 14.2277 1.27232 11.4386 1.27232 8C1.27232 4.56138 4.06138 1.77232 7.5 1.77232C10.9386 1.77232 13.7277 4.56138 13.7277 8C13.7277 11.4386 10.9386 14.2277 7.5 14.2277Z" fill="#CBD5E1"/>
<path d="M10.4247 10.1193L8.03745 8.3933V4.24989C8.03745 4.17623 7.97719 4.11597 7.90353 4.11597H7.09828C7.02462 4.11597 6.96436 4.17623 6.96436 4.24989V8.86037C6.96436 8.9039 6.98444 8.94408 7.0196 8.96919L9.78857 10.9882C9.84883 11.0317 9.93254 11.0183 9.97607 10.9597L10.4549 10.3068C10.4984 10.2449 10.485 10.1611 10.4247 10.1193Z" fill="#CBD5E1"/>
</svg>
