<svg width="21" height="24" viewBox="0 0 21 24" fill="none" xmlns="http://www.w3.org/2000/svg">
<path d="M13.9333 11.4C13.913 11.6377 13.8239 11.8643 13.677 12.0522C13.53 12.2401 13.3315 12.3812 13.1058 12.4582C12.88 12.5352 12.6367 12.5448 12.4055 12.4859C12.1743 12.4269 11.9653 12.302 11.804 12.1262C11.6427 11.9505 11.536 11.7316 11.497 11.4963C11.458 11.2609 11.4883 11.0193 11.5843 10.8009C11.6803 10.5825 11.8378 10.3968 12.0376 10.2664C12.2374 10.136 12.4708 10.0666 12.7093 10.0667C12.8773 10.0737 13.0422 10.1138 13.1947 10.1846C13.3472 10.2555 13.4842 10.3557 13.5978 10.4795C13.7115 10.6034 13.7997 10.7484 13.8572 10.9063C13.9148 11.0643 13.9407 11.232 13.9333 11.4ZM8.32934 10.0667C7.99201 10.0905 7.67626 10.2414 7.44573 10.4888C7.21519 10.7362 7.08701 11.0618 7.08701 11.4C7.08701 11.7382 7.21519 12.0638 7.44573 12.3112C7.67626 12.5586 7.99201 12.7095 8.32934 12.7333C8.49731 12.7263 8.66224 12.6862 8.8147 12.6154C8.96716 12.5445 9.10415 12.4443 9.21784 12.3205C9.33153 12.1967 9.41968 12.0516 9.47725 11.8937C9.53482 11.7357 9.56067 11.568 9.55334 11.4C9.56175 11.2317 9.5366 11.0634 9.47934 10.9049C9.42209 10.7464 9.33388 10.6009 9.21984 10.4768C9.10581 10.3527 8.96824 10.2525 8.81513 10.1821C8.66201 10.1117 8.49643 10.0725 8.32801 10.0667H8.32934ZM21 2.472V24C17.9767 21.3287 18.944 22.2127 15.432 18.948L16.068 21.168H2.46001C1.80604 21.1662 1.17953 20.9048 0.718231 20.4413C0.25693 19.9777 -0.00141058 19.35 5.79348e-06 18.696V2.472C-0.00141058 1.81803 0.25693 1.19026 0.718231 0.72671C1.17953 0.263158 1.80604 0.00176596 2.46001 0L18.54 0C19.194 0.00176596 19.8205 0.263158 20.2818 0.72671C20.7431 1.19026 21.0014 1.81803 21 2.472ZM17.58 13.848C17.5412 11.4152 16.9503 9.02308 15.852 6.852C14.8856 6.09295 13.7074 5.65268 12.48 5.592L12.312 5.784C13.4047 6.07475 14.4231 6.5942 15.3 7.308C13.9309 6.56993 12.4112 6.15486 10.857 6.09454C9.30285 6.03422 7.75548 6.33026 6.33334 6.96C5.88934 7.164 5.62534 7.308 5.62534 7.308C6.5496 6.55719 7.62812 6.01952 8.78401 5.73333L8.66667 5.592C7.43931 5.65268 6.26107 6.09295 5.29467 6.852C4.19546 9.02286 3.60368 11.415 3.56401 13.848C3.97787 14.4287 4.52813 14.8988 5.16635 15.2168C5.80457 15.5349 6.51118 15.6912 7.22401 15.672C7.22401 15.672 7.66801 15.132 8.02801 14.676C7.18439 14.4631 6.44162 13.9623 5.92801 13.26C6.10467 13.3833 6.39467 13.544 6.42001 13.56C7.55891 14.1808 8.82163 14.5406 10.1167 14.6132C11.4118 14.6859 12.7068 14.4696 13.908 13.98C14.3933 13.7969 14.8562 13.5594 15.288 13.272C14.7552 13.9894 13.9858 14.4952 13.116 14.7C13.476 15.156 13.908 15.672 13.908 15.672C14.6223 15.69 15.3303 15.5333 15.9702 15.2154C16.6102 14.8975 17.1628 14.4281 17.58 13.848Z" fill="#7984F4"/>
</svg>
