<svg xmlns="http://www.w3.org/2000/svg" width="30.049" height="31.262" viewBox="0 0 30.049 31.262"><defs><style>.a{stroke:#1788ee;stroke-width:2px;}</style></defs><path class="a" d="M28.953,18.709l-2.512-1.451a11.359,11.359,0,0,0,0-4.14l2.512-1.451a.713.713,0,0,0,.324-.826,14.687,14.687,0,0,0-3.226-5.579.71.71,0,0,0-.873-.136L22.667,6.579a11.129,11.129,0,0,0-3.585-2.07v-2.9a.707.707,0,0,0-.554-.69,14.825,14.825,0,0,0-6.439,0,.706.706,0,0,0-.554.69v2.9a11.48,11.48,0,0,0-3.585,2.07L5.442,5.134a.7.7,0,0,0-.873.136,14.6,14.6,0,0,0-3.226,5.579.705.705,0,0,0,.324.826L4.18,13.124a11.359,11.359,0,0,0,0,4.14L1.668,18.714a.713.713,0,0,0-.324.826,14.687,14.687,0,0,0,3.226,5.579.71.71,0,0,0,.873.136L7.954,23.8a11.129,11.129,0,0,0,3.585,2.07v2.9a.706.706,0,0,0,.554.69,14.825,14.825,0,0,0,6.439,0,.706.706,0,0,0,.554-.69v-2.9a11.48,11.48,0,0,0,3.585-2.07l2.512,1.451a.7.7,0,0,0,.873-.136,14.6,14.6,0,0,0,3.226-5.579.728.728,0,0,0-.33-.831Zm-13.646,1.2a4.718,4.718,0,1,1,4.718-4.718A4.724,4.724,0,0,1,15.308,19.906Z" transform="translate(-0.283 0.437)"/></svg>