<svg width="21" height="24" viewBox="0 0 21 24" fill="none" xmlns="http://www.w3.org/2000/svg">
<path d="M21 16.8753V1.12534C21.0004 0.977488 20.9716 0.831011 20.9153 0.694324C20.8589 0.557638 20.7761 0.433437 20.6716 0.328861C20.5671 0.224285 20.4429 0.141397 20.3063 0.0849601C20.1696 0.0285233 20.0232 -0.000348866 19.8753 3.18104e-06H4.5C3.30663 0.000356614 2.16225 0.474576 1.31841 1.31841C0.474573 2.16225 0.000353433 3.30664 0 4.5L0 19.5C0.000353433 20.6934 0.474573 21.8377 1.31841 22.6816C2.16225 23.5254 3.30663 23.9996 4.5 24H19.8753C20.0231 24.0003 20.1695 23.9715 20.3061 23.9151C20.4427 23.8587 20.5669 23.7759 20.6714 23.6714C20.7759 23.5669 20.8587 23.4427 20.9151 23.3061C20.9715 23.1695 21.0003 23.0231 21 22.8753V22.1253C20.9997 21.9574 20.9621 21.7917 20.89 21.64C20.8178 21.4884 20.7128 21.3547 20.5827 21.2487C20.3858 20.0899 20.3858 18.9061 20.5827 17.7473C20.7131 17.6425 20.8183 17.5097 20.8905 17.3588C20.9627 17.2079 21.0002 17.0427 21 16.8753ZM6 6.28133C6.00017 6.20677 6.02987 6.13532 6.08259 6.0826C6.13532 6.02987 6.20677 6.00018 6.28133 6H16.2187C16.2932 6.00018 16.3647 6.02987 16.4174 6.0826C16.4701 6.13532 16.4998 6.20677 16.5 6.28133V7.21867C16.4998 7.29323 16.4701 7.36468 16.4174 7.41741C16.3647 7.47013 16.2932 7.49983 16.2187 7.5H6.28133C6.20677 7.49983 6.13532 7.47013 6.08259 7.41741C6.02987 7.36468 6.00017 7.29323 6 7.21867V6.28133ZM6 9.28133C6.00017 9.20677 6.02987 9.13532 6.08259 9.0826C6.13532 9.02987 6.20677 9.00018 6.28133 9H16.2187C16.2932 9.00018 16.3647 9.02987 16.4174 9.0826C16.4701 9.13532 16.4998 9.20677 16.5 9.28133V10.2187C16.4998 10.2932 16.4701 10.3647 16.4174 10.4174C16.3647 10.4701 16.2932 10.4998 16.2187 10.5H6.28133C6.20677 10.4998 6.13532 10.4701 6.08259 10.4174C6.02987 10.3647 6.00017 10.2932 6 10.2187V9.28133ZM17.878 21H4.5C4.10217 21 3.72064 20.842 3.43934 20.5607C3.15803 20.2794 3 19.8978 3 19.5C3 19.1022 3.15803 18.7206 3.43934 18.4393C3.72064 18.158 4.10217 18 4.5 18H17.878C17.7889 18.998 17.7889 20.002 17.878 21Z" fill="#7984F4"/>
</svg>
