<svg width="200" height="182" viewBox="0 0 200 182" fill="none" xmlns="http://www.w3.org/2000/svg">
<circle cx="100" cy="90.9999" r="90.9091" fill="#1E293B"/>
<path d="M20.797 108.696C20.043 110.063 18.3915 110.251 15.7456 109.991C13.7559 109.795 11.9413 109.644 9.95128 108.541C8.55858 107.77 7.45602 106.727 6.6513 105.714C5.77925 104.617 4.56191 103.364 5.15856 102.12C5.97867 100.41 10.7204 98.9703 15.3249 101.325C20.3831 103.912 21.5347 107.359 20.797 108.696Z" fill="#475569"/>
<path d="M183.57 99.6114C180.257 102.137 175 100.663 175 100.663C175 100.663 175.117 95.0948 178.432 92.5711C181.745 90.0454 187 91.5171 187 91.5171C187 91.5171 186.883 97.0856 183.57 99.6114Z" fill="#475569"/>
<path d="M14.9916 52.812C17.906 56.398 23.7789 56.0838 23.7789 56.0838C23.7789 56.0838 24.9231 49.9558 22.0056 46.3715C19.0913 42.7855 13.2212 43.0977 13.2212 43.0977C13.2212 43.0977 12.0773 49.2261 14.9916 52.812Z" fill="#475569"/>
<path d="M92 168.091C90.3431 168.091 89 166.748 89 165.091C89 163.434 90.3431 162.091 92 162.091C93.6569 162.091 95 163.434 95 165.091C95 166.748 93.6569 168.091 92 168.091Z" fill="#475569"/>
<path d="M115.5 146.091C113.567 146.091 112 144.748 112 143.091C112 141.434 113.567 140.091 115.5 140.091C117.433 140.091 119 141.434 119 143.091C119 144.748 117.433 146.091 115.5 146.091Z" fill="#475569"/>
<path d="M174.5 55.0908C173.119 55.0908 172 53.9715 172 52.5908C172 51.2101 173.119 50.0908 174.5 50.0908C175.881 50.0908 177 51.2101 177 52.5908C177 53.9715 175.881 55.0908 174.5 55.0908Z" fill="#475569"/>
<path d="M6.53077 64.8843C6.9569 66.4746 6.01311 68.1093 4.42276 68.5354C2.8324 68.9616 1.19772 68.0178 0.771584 66.4274C0.34545 64.8371 1.28924 63.2024 2.87959 62.7763C4.46994 62.3501 6.10463 63.2939 6.53077 64.8843Z" fill="#475569"/>
<path d="M51 39.0908C48.7909 39.0908 47 37.3 47 35.0908C47 32.8817 48.7909 31.0908 51 31.0908C53.2091 31.0908 55 32.8817 55 35.0908C55 37.3 53.2091 39.0908 51 39.0908Z" fill="#475569"/>
<path d="M196.5 134.091C194.567 134.091 193 132.972 193 131.591C193 130.21 194.567 129.091 196.5 129.091C198.433 129.091 200 130.21 200 131.591C200 132.972 198.433 134.091 196.5 134.091Z" fill="#475569"/>
<path d="M20 155.091C20 157.852 18.2091 160.091 16 160.091C13.7909 160.091 12 157.852 12 155.091C12 152.329 13.7909 150.091 16 150.091C18.2091 150.091 20 152.329 20 155.091Z" fill="#475569"/>
<path d="M167.459 127.091H167.539C168.012 133.95 173 134.056 173 134.056C173 134.056 167.5 134.165 167.5 142.091C167.5 134.165 162 134.056 162 134.056C162 134.056 166.986 133.95 167.459 127.091Z" fill="#E1E4E5"/>
<path fill-rule="evenodd" clip-rule="evenodd" d="M111 76.0908C111 93.2123 97.1214 107.091 79.9998 107.091C62.8786 107.091 49 93.2123 49 76.0908C49 58.9697 62.8786 45.0908 79.9998 45.0908C97.1214 45.0908 111 58.9697 111 76.0908Z" stroke="#EEF2FF" stroke-width="6" stroke-linecap="round" stroke-linejoin="round"/>
<path d="M137 131.091L104 100.091" stroke="#EEF2FF" stroke-width="6" stroke-linecap="round" stroke-linejoin="round"/>
<path fill-rule="evenodd" clip-rule="evenodd" d="M126 137.36V122.822C126 120.419 126.631 118.058 127.83 115.975C129.029 113.892 130.754 112.159 132.832 110.95L146.582 102.954C148.682 101.734 151.069 101.091 153.499 101.091C155.928 101.091 158.315 101.734 160.415 102.954L174.165 110.95C176.244 112.158 177.97 113.891 179.169 115.974C180.368 118.057 181 120.419 181 122.822V137.36C181 139.763 180.369 142.124 179.17 144.207C177.971 146.29 176.246 148.023 174.168 149.232L160.418 157.227C158.318 158.448 155.931 159.091 153.502 159.091C151.072 159.091 148.686 158.448 146.585 157.227L132.835 149.232C130.756 148.023 129.03 146.291 127.831 144.208C126.632 142.124 126 139.763 126 137.36Z" fill="#818CF8"/>
<path d="M153.5 130.326V117.091M153.498 140.62C153.432 140.62 153.367 140.639 153.307 140.676C153.246 140.713 153.191 140.767 153.145 140.835C153.099 140.904 153.062 140.985 153.037 141.074C153.012 141.163 153 141.259 153 141.355C153 141.501 153.029 141.643 153.084 141.764C153.139 141.885 153.218 141.98 153.309 142.035C153.401 142.091 153.501 142.105 153.598 142.076C153.695 142.048 153.785 141.977 153.854 141.874C153.924 141.771 153.972 141.64 153.991 141.497C154.01 141.354 153.999 141.206 153.961 141.072C153.923 140.937 153.859 140.823 153.776 140.742C153.694 140.662 153.597 140.619 153.498 140.62Z" stroke="white" stroke-width="6" stroke-linecap="round" stroke-linejoin="round"/>
</svg>
