<svg width="12" height="10" viewBox="0 0 12 10" fill="none" xmlns="http://www.w3.org/2000/svg">
<path d="M11.6431 0.468889V2.96889C11.6429 3.06152 11.6143 3.15202 11.561 3.22898C11.5076 3.30594 11.4319 3.36592 11.3433 3.40136C11.2547 3.4368 11.1573 3.44611 11.0632 3.42812C10.9692 3.41014 10.8828 3.36565 10.8149 3.30028L10.0933 2.6025L5.17068 7.35889C5.12565 7.40241 5.07218 7.43694 5.01333 7.46049C4.95449 7.48405 4.89141 7.49617 4.82772 7.49617C4.76402 7.49617 4.70095 7.48405 4.6421 7.46049C4.58325 7.43694 4.52978 7.40241 4.48475 7.35889L4.02707 6.91667C3.98203 6.87315 3.9463 6.82149 3.92192 6.76463C3.89754 6.70777 3.88499 6.64682 3.88499 6.58528C3.88499 6.52373 3.89754 6.46279 3.92192 6.40593C3.9463 6.34907 3.98203 6.2974 4.02707 6.25389L8.94966 1.4975L8.22808 0.8C8.16052 0.73436 8.11456 0.650876 8.096 0.560056C8.07744 0.469236 8.0871 0.37514 8.12377 0.289614C8.16043 0.204088 8.22247 0.130954 8.30206 0.0794192C8.38165 0.0278843 8.47523 0.000251653 8.57104 0L11.1584 0C11.2221 3.64675e-05 11.2851 0.0121936 11.344 0.0357772C11.4028 0.0593608 11.4562 0.0939091 11.5012 0.137449C11.5463 0.18099 11.582 0.23267 11.6063 0.289538C11.6306 0.346407 11.6431 0.40735 11.6431 0.468889ZM8.2275 5.28889L7.90408 5.60139C7.85905 5.64491 7.82333 5.69658 7.79896 5.75344C7.77459 5.8103 7.76206 5.87124 7.76206 5.93278V8.75H1.29368V2.5H6.63024C6.75887 2.49999 6.88223 2.45063 6.97321 2.36278L7.29663 2.05028C7.36443 1.9847 7.41059 1.90119 7.42928 1.81027C7.44798 1.71936 7.43837 1.62514 7.40167 1.5395C7.36497 1.45386 7.30282 1.38065 7.22308 1.32913C7.14334 1.2776 7.04959 1.25007 6.95366 1.25H0.970258C0.71293 1.25 0.466141 1.34877 0.284182 1.52459C0.102223 1.7004 0 1.93886 0 2.1875L0 9.0625C0 9.31114 0.102223 9.5496 0.284182 9.72541C0.466141 9.90123 0.71293 10 0.970258 10H8.08548C8.34281 10 8.5896 9.90123 8.77156 9.72541C8.95352 9.5496 9.05574 9.31114 9.05574 9.0625V5.62028C9.05581 5.52753 9.02739 5.43685 8.97409 5.35971C8.92079 5.28258 8.84499 5.22246 8.7563 5.18698C8.66762 5.15149 8.57003 5.14224 8.47589 5.16038C8.38176 5.17852 8.29531 5.22325 8.2275 5.28889Z" fill="#7984F4"/>
</svg>
