<svg width="19" height="22" viewBox="0 0 19 22" fill="none" xmlns="http://www.w3.org/2000/svg">
<path d="M4.94114 21.8154C4.94114 21.8154 8.11467 20.1262 9.86677 12.0257C10.5055 10.2356 14.305 10.0155 15.6704 10.3989C17.0358 10.7824 18.469 10.6967 18.0337 9.55187C17.5988 8.40728 18.6096 7.38189 18.065 7.68452C17.5203 7.98672 17.709 6.58061 16.9726 6.72136C16.2361 6.8624 16.2802 4.76727 16.2802 4.76727C16.2802 4.76727 16.3078 4.41886 16.1489 3.90447C15.9906 3.39007 15.9048 2.86789 14.7506 3.41913C14.9242 1.97192 13.8681 1.43229 13.0722 1.26135C12.2769 1.08998 12.0909 -0.132005 11.5732 0.0117239C11.0557 0.155737 10.8579 0.188904 10.6267 0.223632C10.3953 0.258785 9.42099 -0.150858 9.80809 0.597272C10.2941 1.53633 9.2594 4.63913 9.53254 5.92206C9.14884 3.75875 8.47186 0.438092 6.9352 0.287133C5.39883 0.135892 5.81726 0.753616 5.81726 0.753616L5.0405 0.604217L4.66672 1.30231C4.66672 1.30231 4.08273 1.25865 4.04474 2.10303C4.00718 2.94755 3.35387 2.57362 3.02474 2.81119C2.69547 3.04889 3.91405 4.48874 3.91405 4.48874C3.91405 4.48874 2.53898 3.71283 2.23111 3.97534C1.92324 4.23813 1.18319 5.03176 0.938117 4.80781C0.692615 4.58371 1.1333 5.29087 1.1333 5.29087C1.1333 5.29087 -0.108103 5.10476 0.675322 6.27699C1.45889 7.44937 0.0568891 6.64227 0.12436 6.96375C0.191547 7.28551 0.997224 8.11415 0.997224 8.11415L0.239454 9.19354C0.239454 9.19354 -0.519874 9.571 0.665822 9.75045C1.8518 9.92976 9.47471 9.16576 8.98087 12.0776C8.48717 14.9896 8.03656 18.6768 4.9709 20.8589C1.90553 23.041 4.61073 21.3503 4.77884 21.7377C4.94709 22.1247 5.4371 21.1614 5.4371 21.1614" fill="white"/>
</svg>
