<svg width="24" height="24" viewBox="0 0 24 24" fill="none" xmlns="http://www.w3.org/2000/svg">
<path fill-rule="evenodd" clip-rule="evenodd" d="M5.19677 17.3081C5.11935 17.3565 5.11935 17.4823 5.19677 17.5935C5.27419 17.7048 5.40483 17.7532 5.46774 17.7048C5.54516 17.6419 5.54516 17.5161 5.46774 17.4048C5.4 17.2936 5.27419 17.2452 5.19677 17.3081V17.3081ZM5.74839 18.0194C5.67097 18.0823 5.7 18.2274 5.81129 18.3194C5.92258 18.4307 6.0629 18.4452 6.12581 18.3678C6.18871 18.3049 6.15968 18.1597 6.06291 18.0678C5.95646 17.9565 5.8113 17.9419 5.74839 18.0194ZM4.18064 16.2968C4.14677 16.3597 4.19516 16.4371 4.29193 16.4855C4.36935 16.5339 4.46612 16.5194 4.49999 16.4516C4.53386 16.3887 4.48547 16.3113 4.3887 16.2629C4.29193 16.2339 4.21451 16.2484 4.18064 16.2968ZM4.70323 16.6887C4.64033 16.7371 4.65484 16.8484 4.7371 16.9403C4.81452 17.0177 4.92581 17.0516 4.98871 16.9887C5.05161 16.9403 5.0371 16.829 4.95484 16.7371C4.87742 16.6597 4.76613 16.6258 4.70323 16.6887ZM11.8452 1e-05C5.13387 1e-05 0 5.09517 0 11.8065C0 17.1726 3.37742 21.7645 8.20161 23.3806C8.82097 23.4919 9.03871 23.1097 9.03871 22.7952C9.03871 22.4952 9.02419 20.8403 9.02419 19.8242C9.02419 19.8242 5.63709 20.55 4.9258 18.3823C4.9258 18.3823 4.37419 16.9742 3.58064 16.6113C3.58064 16.6113 2.47258 15.8516 3.65806 15.8661C3.65806 15.8661 4.8629 15.9629 5.5258 17.1145C6.58548 18.9823 8.36128 18.4452 9.05322 18.1258C9.16451 17.3516 9.47903 16.8145 9.82741 16.4952C7.12257 16.1952 4.39354 15.8032 4.39354 11.1484C4.39354 9.81775 4.76128 9.15001 5.53547 8.2984C5.40966 7.98388 4.99837 6.68711 5.66128 5.01292C6.67257 4.6984 8.99999 6.31937 8.99999 6.31937C9.96773 6.0484 11.0081 5.90808 12.0387 5.90808C13.0693 5.90808 14.1097 6.0484 15.0774 6.31937C15.0774 6.31937 17.4048 4.69356 18.4161 5.01292C19.079 6.69195 18.6677 7.98389 18.5419 8.2984C19.3161 9.15485 19.7903 9.82259 19.7903 11.1484C19.7903 15.8177 16.9403 16.1903 14.2355 16.4952C14.6806 16.8774 15.0581 17.6032 15.0581 18.7403C15.0581 20.371 15.0435 22.3887 15.0435 22.7855C15.0435 23.1 15.2661 23.4823 15.8806 23.371C20.7193 21.7645 24 17.1726 24 11.8064C24 5.09516 18.5564 0 11.8452 0V1e-05ZM8.66129 18.542C8.52097 18.5758 8.42419 18.6678 8.43871 18.7791C8.45323 18.8758 8.57903 18.9387 8.72419 18.9049C8.86451 18.871 8.96129 18.7791 8.94677 18.6823C8.93225 18.5903 8.80161 18.5274 8.66129 18.542ZM6.52258 18.6242C6.48871 18.721 6.58548 18.8323 6.73064 18.8613C6.85645 18.9097 7.00161 18.8613 7.03064 18.7645C7.05967 18.6678 6.96774 18.5565 6.82258 18.5129C6.69677 18.479 6.55645 18.5274 6.52258 18.6242ZM8.02742 18.8419C8.02742 18.9387 7.91613 19.0161 7.77581 19.0161C7.61613 19.0307 7.50484 18.9532 7.50484 18.8419C7.50484 18.7452 7.61613 18.6678 7.75645 18.6678C7.90161 18.6532 8.02742 18.7307 8.02742 18.8419Z" fill="#7984F4"/>
</svg>
