<svg width="16" height="16" viewBox="0 0 16 16" fill="none" xmlns="http://www.w3.org/2000/svg">
<path d="M7.99286 0.219666C3.57679 0.21788 0 3.79288 0 8.20538C0 11.6947 2.2375 14.6607 5.35357 15.75C5.77321 15.8554 5.70893 15.5572 5.70893 15.3536V13.9697C3.28571 14.2536 3.1875 12.65 3.025 12.3822C2.69643 11.8215 1.91964 11.6786 2.15179 11.4107C2.70357 11.1268 3.26607 11.4822 3.91786 12.4447C4.38929 13.1429 5.30893 13.025 5.775 12.909C5.87679 12.4893 6.09464 12.1143 6.39464 11.8232C3.88393 11.3732 2.8375 9.8411 2.8375 8.01967C2.8375 7.13574 3.12857 6.32324 3.7 5.66788C3.33571 4.58752 3.73393 3.66252 3.7875 3.52502C4.825 3.43217 5.90357 4.26788 5.9875 4.33395C6.57679 4.17502 7.25 4.0911 8.00357 4.0911C8.76071 4.0911 9.43571 4.1786 10.0304 4.33931C10.2321 4.18574 11.2321 3.46788 12.1964 3.55538C12.2482 3.69288 12.6375 4.59645 12.2946 5.66252C12.8732 6.31967 13.1679 7.13931 13.1679 8.02502C13.1679 9.85003 12.1143 11.384 9.59643 11.8268C9.81209 12.0389 9.98333 12.2918 10.1001 12.5708C10.217 12.8498 10.277 13.1493 10.2768 13.4518V15.4607C10.2911 15.6215 10.2768 15.7804 10.5446 15.7804C13.7071 14.7143 15.9839 11.7268 15.9839 8.20717C15.9839 3.79288 12.4054 0.219666 7.99286 0.219666Z" fill="#64748B"/>
</svg>
