<svg xmlns="http://www.w3.org/2000/svg" width="28" height="27.3" viewBox="0 0 28 27.3"><defs><style>.a{fill:#1685e9;}</style></defs><path class="a" d="M9.365,22.545c0,.113-.13.2-.294.2-.186.017-.316-.073-.316-.2,0-.113.13-.2.294-.2C9.219,22.325,9.365,22.415,9.365,22.545ZM7.61,22.291c-.04.113.073.243.243.277a.265.265,0,0,0,.35-.113c.034-.113-.073-.243-.243-.294A.29.29,0,0,0,7.61,22.291Zm2.5-.1c-.164.04-.277.147-.26.277.017.113.164.186.333.147s.277-.147.26-.26S10.269,22.178,10.1,22.195ZM13.819.562A13.537,13.537,0,0,0,0,14.337a14.153,14.153,0,0,0,9.569,13.5c.723.13.977-.316.977-.683,0-.35-.017-2.281-.017-3.466,0,0-3.952.847-4.781-1.682,0,0-.644-1.643-1.569-2.066,0,0-1.293-.886.09-.869a2.98,2.98,0,0,1,2.179,1.456,2.984,2.984,0,0,0,4.115,1.18,3.138,3.138,0,0,1,.9-1.9c-3.156-.35-6.34-.807-6.34-6.238a4.278,4.278,0,0,1,1.332-3.325A5.334,5.334,0,0,1,6.6,6.411c1.18-.367,3.9,1.524,3.9,1.524a13.336,13.336,0,0,1,7.09,0s2.715-1.9,3.9-1.524a5.331,5.331,0,0,1,.147,3.833,4.388,4.388,0,0,1,1.456,3.325c0,5.448-3.325,5.882-6.481,6.238a3.338,3.338,0,0,1,.96,2.619c0,1.9-.017,4.256-.017,4.719,0,.367.26.813.977.683A14.023,14.023,0,0,0,28,14.337,13.842,13.842,0,0,0,13.819.562ZM5.487,20.033c-.073.056-.056.186.04.294.09.09.22.13.294.056.073-.056.056-.186-.04-.294C5.69,20,5.56,19.959,5.487,20.033Zm-.61-.457c-.04.073.017.164.13.22a.168.168,0,0,0,.243-.04c.04-.073-.017-.164-.13-.22C5.007,19.5,4.917,19.519,4.877,19.575Zm1.829,2.01c-.09.073-.056.243.073.35.13.13.294.147.367.056.073-.073.04-.243-.073-.35C6.949,21.512,6.78,21.495,6.706,21.585Zm-.644-.83c-.09.056-.09.2,0,.333s.243.186.316.13a.257.257,0,0,0,0-.35C6.3,20.738,6.153,20.682,6.063,20.755Z" transform="translate(0 -0.563)"/></svg>