<svg width="24" height="18" viewBox="0 0 24 18" fill="none" xmlns="http://www.w3.org/2000/svg">
<path d="M22.695 1.29697C21.9969 0.59911 21.0551 0.199654 20.0682 0.182864C19.0812 0.166073 18.1264 0.533259 17.405 1.20697C17.3689 1.24134 17.3401 1.28269 17.3205 1.3285C17.3009 1.37431 17.2908 1.42363 17.2908 1.47347C17.2908 1.52331 17.3009 1.57264 17.3205 1.61845C17.3401 1.66426 17.3689 1.7056 17.405 1.73997L17.865 2.20997C17.927 2.27138 18.009 2.30841 18.096 2.31428C18.1831 2.32016 18.2693 2.29449 18.339 2.24197C18.779 1.89121 19.3374 1.72398 19.8978 1.7752C20.4581 1.82642 20.977 2.09213 21.3461 2.51685C21.7152 2.94157 21.906 3.49246 21.8786 4.05448C21.8511 4.61651 21.6077 5.14621 21.199 5.53297C18.176 8.55297 14.143 0.0859728 4.98797 4.44997C4.83331 4.5241 4.69571 4.6295 4.58387 4.75951C4.47202 4.88953 4.38836 5.04133 4.33817 5.20533C4.28799 5.36933 4.27237 5.54195 4.2923 5.71229C4.31223 5.88264 4.36728 6.04699 4.45397 6.19497L6.02497 8.90797C6.18779 9.19092 6.45577 9.39812 6.77059 9.48445C7.08542 9.57079 7.4216 9.52929 7.70597 9.36897L7.74297 9.34897L7.71397 9.36897L8.40197 8.98497C9.17808 8.50324 9.91173 7.95626 10.595 7.34997C10.6626 7.28827 10.75 7.25275 10.8415 7.24981C10.933 7.24688 11.0225 7.27673 11.094 7.33397C11.1327 7.36632 11.1642 7.40653 11.1863 7.45193C11.2084 7.49734 11.2206 7.54691 11.2221 7.59738C11.2236 7.64784 11.2144 7.69805 11.1951 7.7447C11.1757 7.79135 11.1467 7.83336 11.11 7.86797C10.3907 8.51536 9.61572 9.09795 8.79397 9.60897H8.76997L8.07397 9.99897C7.77985 10.1638 7.44815 10.2499 7.11097 10.249C6.76174 10.2503 6.41831 10.1596 6.1153 9.98602C5.81228 9.81239 5.56038 9.56196 5.38497 9.25997L3.89997 6.69597C1.05997 8.71997 -0.686026 12.603 0.259974 17.522C0.275509 17.6047 0.319312 17.6795 0.383889 17.7335C0.448465 17.7875 0.5298 17.8173 0.613974 17.818H2.28897C2.38115 17.8201 2.47069 17.7871 2.5394 17.7256C2.60812 17.6641 2.65087 17.5788 2.65897 17.487C2.73626 16.8898 3.02832 16.3413 3.48058 15.9438C3.93284 15.5463 4.51436 15.3271 5.11647 15.3271C5.71859 15.3271 6.3001 15.5463 6.75236 15.9438C7.20462 16.3413 7.49668 16.8898 7.57397 17.487C7.58448 17.5743 7.6266 17.6548 7.69237 17.7132C7.75814 17.7716 7.84302 17.8039 7.93097 17.804H9.56897C9.65675 17.8032 9.74128 17.7707 9.80692 17.7124C9.87256 17.6541 9.91485 17.574 9.92597 17.487C10.0041 16.8906 10.2965 16.343 10.7485 15.9463C11.2006 15.5496 11.7815 15.3309 12.383 15.3309C12.9844 15.3309 13.5653 15.5496 14.0174 15.9463C14.4695 16.343 14.7618 16.8906 14.84 17.487C14.8511 17.5742 14.8936 17.6544 14.9594 17.7128C15.0252 17.7711 15.11 17.8035 15.198 17.804H16.825C16.9202 17.804 17.0117 17.7666 17.0796 17.6998C17.1475 17.633 17.1864 17.5422 17.188 17.447C17.225 15.153 17.844 12.517 19.608 11.197C25.716 6.62697 24.11 2.71097 22.696 1.29697H22.695ZM16.466 8.19797L15.301 7.61397C15.3011 7.48941 15.3331 7.36696 15.3939 7.25826C15.4548 7.14956 15.5424 7.05824 15.6485 6.99297C15.7546 6.9277 15.8756 6.89067 16 6.88539C16.1245 6.88011 16.2482 6.90677 16.3595 6.96281C16.4707 7.01886 16.5657 7.10244 16.6355 7.2056C16.7054 7.30876 16.7476 7.42806 16.7583 7.55216C16.769 7.67626 16.7477 7.80103 16.6965 7.9146C16.6454 8.02817 16.566 8.12675 16.466 8.20097V8.19797Z" fill="white"/>
</svg>
