<svg width="14" height="18" viewBox="0 0 14 18" fill="none" xmlns="http://www.w3.org/2000/svg">
<path d="M13.25 0.159088H0.75C0.404297 0.159088 0.125 0.438385 0.125 0.784088V17.0341C0.125 17.3798 0.404297 17.6591 0.75 17.6591H13.25C13.5957 17.6591 13.875 17.3798 13.875 17.0341V0.784088C13.875 0.438385 13.5957 0.159088 13.25 0.159088ZM8.17188 1.56534H10.0469V5.66495L9.13867 5.00284L8.17188 5.69424V1.56534ZM12.4688 16.2528H1.53125V1.56534H7V7.36417C7 7.42862 7.01953 7.49307 7.05859 7.54581C7.08231 7.57933 7.11243 7.60781 7.14722 7.62961C7.18201 7.65141 7.22078 7.6661 7.26129 7.67282C7.30179 7.67954 7.34323 7.67816 7.3832 7.66877C7.42317 7.65937 7.46087 7.64214 7.49414 7.61807L9.13086 6.44815L10.7207 7.60831C10.7734 7.64737 10.8379 7.66885 10.9043 7.66885C11.0762 7.66885 11.2168 7.52823 11.2168 7.35635V1.56534H12.4668V16.2528H12.4688Z" fill="#94A3B8"/>
</svg>
