<svg width="173" height="155" viewBox="0 0 173 155" fill="none" xmlns="http://www.w3.org/2000/svg">
<path fill-rule="evenodd" clip-rule="evenodd" d="M93.6875 58.1211L136.418 0L172.281 154.918H0.28125L57.8281 32.0508L93.6875 58.1211ZM71.4609 113.945L81.6836 127.961V127.957H92.6484L80.6602 111.516L91.2227 97.0234L84.0469 91.8242L71.4609 109.09V82.7148L62 75.8711V127.961H71.4609V113.945ZM94.1445 112.5C94.1445 121.359 101.352 128.547 110.25 128.547C119.145 128.547 126.352 121.359 126.352 112.504C126.352 104.523 120.512 97.9062 112.855 96.668L120.555 86.1016L113.379 80.9023L97.2305 103.055C95.2891 105.707 94.1445 108.969 94.1445 112.5ZM117.168 112.496C117.168 116.305 114.07 119.395 110.25 119.395C106.426 119.395 103.328 116.305 103.328 112.496C103.328 108.687 106.426 105.602 110.25 105.602C114.07 105.602 117.168 108.687 117.168 112.496Z" fill="#ACACAC"/>
</svg>
