<svg xmlns="http://www.w3.org/2000/svg" width="24" height="19.5" viewBox="0 0 24 19.5">
  <path id="Icon_awesome-list" data-name="Icon awesome-list" d="M3.75,18.375h-3a.75.75,0,0,0-.75.75v3a.75.75,0,0,0,.75.75h3a.75.75,0,0,0,.75-.75v-3A.75.75,0,0,0,3.75,18.375Zm0-15h-3a.75.75,0,0,0-.75.75v3a.75.75,0,0,0,.75.75h3a.75.75,0,0,0,.75-.75v-3A.75.75,0,0,0,3.75,3.375Zm0,7.5h-3a.75.75,0,0,0-.75.75v3a.75.75,0,0,0,.75.75h3a.75.75,0,0,0,.75-.75v-3A.75.75,0,0,0,3.75,10.875Zm19.5,8.25h-15a.75.75,0,0,0-.75.75v1.5a.75.75,0,0,0,.75.75h15a.75.75,0,0,0,.75-.75v-1.5A.75.75,0,0,0,23.25,19.125Zm0-15h-15a.75.75,0,0,0-.75.75v1.5a.75.75,0,0,0,.75.75h15a.75.75,0,0,0,.75-.75v-1.5A.75.75,0,0,0,23.25,4.125Zm0,7.5h-15a.75.75,0,0,0-.75.75v1.5a.75.75,0,0,0,.75.75h15a.75.75,0,0,0,.75-.75v-1.5A.75.75,0,0,0,23.25,11.625Z" transform="translate(0 -3.375)"/>
</svg>
