<svg width="41" height="40" viewBox="0 0 41 40" fill="none" xmlns="http://www.w3.org/2000/svg">
<path d="M34.7858 17.8571H12.4643V7.85711C12.4643 6.47764 13.5849 5.35711 14.9643 5.35711H26.0358C27.4152 5.35711 28.5358 6.47764 28.5358 7.85711V10.8928C28.5358 11.0893 28.6965 11.25 28.8929 11.25H31.3929C31.5893 11.25 31.7501 11.0893 31.7501 10.8928V7.85711C31.7501 4.70086 29.192 2.14282 26.0358 2.14282H14.9643C11.8081 2.14282 9.25005 4.70086 9.25005 7.85711V17.8571H6.21434C5.42416 17.8571 4.78577 18.4955 4.78577 19.2857V36.4285C4.78577 37.2187 5.42416 37.8571 6.21434 37.8571H34.7858C35.5759 37.8571 36.2143 37.2187 36.2143 36.4285V19.2857C36.2143 18.4955 35.5759 17.8571 34.7858 17.8571ZM33.0001 34.6428H8.00005V21.0714H33.0001V34.6428ZM19.2501 28.4375V30.8035C19.2501 31 19.4108 31.1607 19.6072 31.1607H21.3929C21.5893 31.1607 21.7501 31 21.7501 30.8035V28.4375C22.1186 28.1729 22.3936 27.7982 22.5356 27.3674C22.6776 26.9365 22.6793 26.4717 22.5403 26.0399C22.4013 25.608 22.1289 25.2314 21.7623 24.9642C21.3957 24.6971 20.9537 24.5531 20.5001 24.5531C20.0464 24.5531 19.6044 24.6971 19.2378 24.9642C18.8712 25.2314 18.5988 25.608 18.4598 26.0399C18.3208 26.4717 18.3225 26.9365 18.4645 27.3674C18.6065 27.7982 18.8815 28.1729 19.2501 28.4375Z" fill="white"/>
</svg>
