<?xml version="1.0" encoding="UTF-8" standalone="no"?> <!-- Created with Vectornator for iOS (http://vectornator.io/) --><!DOCTYPE svg PUBLIC "-//W3C//DTD SVG 1.1//EN" "http://www.w3.org/Graphics/SVG/1.1/DTD/svg11.dtd">
<svg height="100%" style="fill-rule:nonzero;clip-rule:evenodd;stroke-linecap:round;stroke-linejoin:round;" xmlns:xlink="http://www.w3.org/1999/xlink" xmlns="http://www.w3.org/2000/svg" xml:space="preserve" width="100%" xmlns:vectornator="http://vectornator.io" version="1.1" viewBox="0 0 166.14 28">
<metadata>
<vectornator:setting key="DimensionsVisible" value="1"/>
<vectornator:setting key="PencilOnly" value="0"/>
<vectornator:setting key="SnapToPoints" value="0"/>
<vectornator:setting key="OutlineMode" value="0"/>
<vectornator:setting key="CMYKEnabledKey" value="0"/>
<vectornator:setting key="RulersVisible" value="1"/>
<vectornator:setting key="SnapToEdges" value="0"/>
<vectornator:setting key="GuidesVisible" value="1"/>
<vectornator:setting key="DisplayWhiteBackground" value="0"/>
<vectornator:setting key="doHistoryDisabled" value="0"/>
<vectornator:setting key="SnapToGuides" value="1"/>
<vectornator:setting key="TimeLapseWatermarkDisabled" value="0"/>
<vectornator:setting key="Units" value="Points"/>
<vectornator:setting key="DynamicGuides" value="0"/>
<vectornator:setting key="IsolateActiveLayer" value="0"/>
<vectornator:setting key="SnapToGrid" value="0"/>
</metadata>
<defs/>
<g id="Untitled" vectornator:layerName="Untitled">
<g opacity="1">
<g opacity="1">
<path d="M27.7791+1.19361L23.8723+1.91369L5.81418+1.91369L1.90564+1.19361C1.36982+1.08464+0.814638+1.24558+0.420177+1.62424C0.0467344+1.98305-0.0909078+2.52261+0.0650161+3.01647L1.3871+6.96053C1.43149+7.09759+1.49678+7.22697+1.58067+7.34411L1.58067+19.899C1.63489+21.0484+2.60537+21.9392+3.75514+21.8951L6.05303+21.8951L6.05303+24.0491C6.10391+25.1869+7.06558+26.0691+8.20353+26.022L11.1585+26.022C12.2964+26.0691+13.2581+25.1869+13.309+24.0491L13.309+21.8951L16.9369+21.8951L16.9369+23.9941C16.9893+25.1624+17.9766+26.0684+19.1452+26.0202L21.9864+26.0202C23.1543+26.0684+24.141+25.1627+24.1929+23.9949L24.1929+21.8951L26.0868+21.8951C27.2406+21.9422+28.2152+21.0473+28.2666+19.8937L28.2666+7.06442C28.2817+7.02979+28.2941+6.99516+28.3065+6.96053L29.6224+3.01736C29.7787+2.52323+29.641+1.98322+29.2672+1.62424C28.8722+1.24472+28.3158+1.08371+27.7791+1.19361ZM2.48366+11.8245L3.99931+12.4842C4.14768+12.5775+4.2414+12.7371+4.25059+12.9121C4.25549+13.0867+4.17455+13.2526+4.03394+13.3561L2.40464+14.0549C2.26769+14.1565+2.1891+14.3186+2.19421+14.4891C2.20407+14.6597+2.29522+14.8152+2.43927+14.9073L4.09343+15.5288C4.23782+15.619+4.32181+15.7805+4.31274+15.9505C4.29797+16.1215+4.193+16.2715+4.03749+16.3439L1.89498+17.4502L1.86657+8.61647L4.09521+9.66064C4.24813+9.72699+4.35101+9.87341+4.36158+10.0398C4.36592+10.2049+4.27699+10.3583+4.13161+10.4367L2.51296+11.0653C2.37507+11.1402+2.28622+11.2815+2.27856+11.4382C2.27545+11.5944+2.3547+11.7408+2.48721+11.8236L2.48366+11.8245ZM6.16047+5.04799L4.57023+6.838C4.34987+7.07752+4.02198+7.18715+3.70186+7.12835C3.38633+7.07991+3.1217+6.86454+3.01019+6.56542L2.2679+4.34566C2.18351+4.06764+2.26284+3.7658+2.47301+3.56519C2.69475+3.35324+3.00593+3.26276+3.30675+3.3228L5.64016+3.7552C5.93316+3.80168+6.18168+3.99554+6.29809+4.26841C6.40423+4.53416+6.35093+4.83708+6.16047+5.05065L6.16047+5.04799ZM19.9372+2.24577L18.7323+4.21336C18.6408+4.36388+18.4803+4.45881+18.3043+4.46641C18.1275+4.47851+17.956+4.40321+17.8453+4.26486L17.1713+2.74566C17.0604+2.60673+16.8936+2.52414+16.7159+2.52013C16.5375+2.51248+16.3648+2.58358+16.2435+2.71458L15.479+4.2107C15.3546+4.3452+15.1772+4.41798+14.9942+4.40959C14.8119+4.40525+14.6409+4.32039+14.5272+4.17785L13.8106+2.60093C13.7086+2.47416+13.5524+2.40333+13.3898+2.41003C13.2275+2.41272+13.0763+2.49293+12.9831+2.62579L12.2994+4.28795C12.2011+4.42844+12.0374+4.50858+11.8661+4.50015C11.6954+4.49678+11.5388+4.40499+11.4524+4.25776L10.315+2.22002L19.9372+2.24577ZM16.2897+15.2473C15.8234+15.3739+15.3831+15.5816+14.9889+15.8609C14.9066+15.9239+14.7923+15.9239+14.7101+15.8609C14.3277+15.5841+13.8998+15.3764+13.4457+15.2473C13.3524+15.226+13.2875+15.1414+13.2912+15.0458C13.3008+14.9511+13.3744+14.8757+13.4688+14.8638C14.3907+14.7076+15.3323+14.7076+16.2541+14.8638C16.3467+14.8758+16.4196+14.9487+16.4317+15.0413C16.437+15.1355+16.3754+15.2204+16.2843+15.2447L16.2897+15.2473ZM6.70209+11.9239C6.70209+10.9366+7.28455+10.1339+8.0002+10.1339C8.71585+10.1339+9.29654+10.933+9.29654+11.9239C9.29654+12.9148+8.71585+13.7139+8.0002+13.7139C7.28455+13.7139+6.69942+12.9148+6.69942+11.9257L6.70209+11.9239ZM17.8755+18.7679C16.8066+18.7829+15.7563+18.4874+14.8521+17.9172C13.9493+18.4869+12.9007+18.7827+11.8333+18.7687C9.39332+18.7687+7.40708+17.3481+7.40708+15.6043C7.39817+15.4611+7.47437+15.3261+7.60153+15.2598C7.73295+15.1867+7.89276+15.1867+8.02417+15.2598C8.14999+15.3285+8.22345+15.4649+8.21152+15.6078C8.21152+16.945+9.83549+18.0371+11.8324+18.0371C12.8224+18.0604+13.7925+17.7571+14.5929+17.1741L14.8592+16.9654L15.1256+17.1741C15.9263+17.7565+16.8962+18.0597+17.8861+18.0371C19.8821+18.0371+21.507+16.9494+21.507+15.6078C21.5004+15.4666+21.5762+15.3343+21.7014+15.2686C21.8315+15.1976+21.9887+15.1976+22.1187+15.2686C22.2439+15.3343+22.3197+15.4666+22.3132+15.6078C22.3052+17.3463+20.319+18.7661+17.879+18.7661L17.8755+18.7679ZM21.9056+13.7139C21.1882+13.7139+20.6093+12.9148+20.6093+11.9239C20.6093+10.933+21.19+10.1339+21.9056+10.1339C22.6213+10.1339+23.202+10.933+23.202+11.9239C23.202+12.9148+22.6186+13.7148+21.903+13.7148L21.9056+13.7139ZM24.9423+6.68528L23.352+4.89172C23.1605+4.67806+23.1064+4.37431+23.2126+4.1077C23.3289+3.83401+23.5778+3.63942+23.8715+3.59272L26.204+3.16475C26.5048+3.10472+26.816+3.19519+27.0377+3.40715C27.2479+3.60775+27.3272+3.9096+27.2428+4.18761L26.5005+6.40737C26.3884+6.70603+26.1247+6.9216+25.8097+6.97207C25.4897+7.03171+25.1614+6.92351+24.9396+6.68528L24.9423+6.68528ZM27.867+17.4467L25.7236+16.3403C25.5681+16.2679+25.4631+16.1179+25.4484+15.947C25.4393+15.777+25.5233+15.6155+25.6677+15.5252L27.3218+14.9037C27.4661+14.8115+27.5573+14.6556+27.5669+14.4846C27.5717+14.3138+27.4924+14.1515+27.3547+14.0504L25.7254+13.3481C25.5848+13.2446+25.5038+13.0787+25.5087+12.9042C25.5183+12.729+25.6123+12.5694+25.7609+12.4762L27.4781+11.8165C27.6106+11.7337+27.6899+11.5873+27.6868+11.4311C27.6791+11.2744+27.5903+11.1331+27.4524+11.0582L25.6419+10.4296C25.4965+10.3512+25.4076+10.1978+25.412+10.0327C25.4225+9.86631+25.5254+9.71988+25.6783+9.65354L27.907+8.60937L27.867+17.4467Z" opacity="1" fill="#ffffff"/>
</g>
<g opacity="1">
<path d="M149.189+25.0791L149.189+21.4583L164.428+21.4583L164.428+25.0791L149.189+25.0791Z" opacity="1" fill="#ffffff"/>
<path d="M164.436+3.67003L164.436+7.29089L149.199+7.29089L149.199+3.67003L164.436+3.67003Z" opacity="1" fill="#ffffff"/>
<path d="M132.891+7.29046L132.891+3.67937L145.914+3.67937L145.914+7.29046L132.891+7.29046Z" opacity="1" fill="#ffffff"/>
<path d="M132.891+25.0956L132.891+21.4818L145.914+21.4818L145.914+25.0956L132.891+25.0956Z" opacity="1" fill="#ffffff"/>
<path d="M117.112+25.0956L117.112+21.4818L130.135+21.4818L130.135+25.0956L117.112+25.0956Z" opacity="1" fill="#ffffff"/>
<path d="M132.891+16.2689L132.891+12.6578L145.913+12.6578L145.913+16.2689L132.891+16.2689Z" opacity="1" fill="#ffffff"/>
<path d="M149.506+12.6219L160.345+12.6219L160.345+16.2623L149.506+16.2623L149.506+12.6219Z" opacity="1" fill="#ffffff"/>
<path d="M99.3961+12.6356L110.255+12.6356L110.255+16.276L99.3961+16.276L99.3961+12.6356Z" opacity="1" fill="#ffffff"/>
<path d="M127.298+11.7451L127.298+8.09047C128.7+8.09047+130.073+8.08336+131.447+8.10556C131.549+8.10556+131.733+8.31599+131.734+8.43142C131.756+9.52088+131.748+10.6086+131.748+11.7442L127.298+11.7451Z" opacity="1" fill="#ffffff"/>
<path d="M137.64+11.7593L133.271+11.7593L133.271+8.11888L137.64+8.11888L137.64+11.7593Z" opacity="1" fill="#ffffff"/>
<path d="M147.576+11.7593L143.19+11.7593L143.19+8.12864L147.576+8.12864L147.576+11.7593Z" opacity="1" fill="#ffffff"/>
<path d="M149.879+11.7286L149.879+8.12286L154.283+8.12286L154.283+11.7286L149.879+11.7286Z" opacity="1" fill="#ffffff"/>
<path d="M107.468+8.11444L111.868+8.11444L111.868+11.7353L107.468+11.7353L107.468+8.11444Z" opacity="1" fill="#ffffff"/>
<path d="M115.386+16.2796L115.386+12.6587L119.769+12.6587L119.769+16.2796L115.386+16.2796Z" opacity="1" fill="#ffffff"/>
<path d="M119.781+11.7575L115.352+11.7575C115.352+10.6237+115.342+9.49424+115.367+8.36483C115.367+8.26893+115.595+8.09846+115.722+8.09846C117.059+8.07892+118.396+8.08603+119.783+8.08603L119.781+11.7575Z" opacity="1" fill="#ffffff"/>
<path d="M113.82+3.63408L113.82+7.29668L109.411+7.29668C109.411+6.18236+109.401+5.04762+109.43+3.92265C109.43+3.82409+109.697+3.65628+109.841+3.64385C111.145+3.62609+112.443+3.63408+113.82+3.63408Z" opacity="1" fill="#ffffff"/>
<path d="M131.718+16.2929L127.326+16.2929L127.326+12.6605L131.718+12.6605L131.718+16.2929Z" opacity="1" fill="#ffffff"/>
<path d="M103.915+20.8248L99.5275+20.8248L99.5275+17.1773L103.915+17.1773L103.915+20.8248Z" opacity="1" fill="#ffffff"/>
<path d="M115.406+17.1684L119.774+17.1684L119.774+20.8159L115.406+20.8159L115.406+17.1684Z" opacity="1" fill="#ffffff"/>
<path d="M111.869+20.8159L107.465+20.8159L107.465+17.195L111.869+17.195L111.869+20.8159Z" opacity="1" fill="#ffffff"/>
<path d="M131.71+20.8212L127.328+20.8212L127.328+17.2003L131.71+17.2003L131.71+20.8212Z" opacity="1" fill="#ffffff"/>
<path d="M137.682+20.8221L133.259+20.8221L133.259+17.1329L135.528+17.1329C135.705+17.1329+135.883+17.1444+136.054+17.1444C137.681+17.1444+137.681+17.1444+137.681+18.8075L137.682+20.8221Z" opacity="1" fill="#ffffff"/>
<path d="M143.164+20.8017L143.164+17.1906L147.576+17.1906L147.576+20.8017L143.164+20.8017Z" opacity="1" fill="#ffffff"/>
<path d="M149.9+17.1599L154.262+17.1599L154.262+20.8003L149.9+20.8003L149.9+17.1599Z" opacity="1" fill="#ffffff"/>
<path d="M99.4831+25.108C99.4831+23.9742+99.4716+22.8794+99.5+21.7908C99.5492+21.6257+99.6813+21.4984+99.8481+21.4552C101.185+21.4303+102.523+21.4401+103.915+21.4401L103.915+25.108L99.4831+25.108Z" opacity="1" fill="#ffffff"/>
<path d="M109.454+25.092L109.454+21.4596L113.805+21.4596L113.805+25.092L109.454+25.092Z" opacity="1" fill="#ffffff"/>
<path d="M103.923+8.11L103.923+11.7433L99.5249+11.7433L99.5249+8.11L103.923+8.11Z" opacity="1" fill="#ffffff"/>
<path d="M131.718+3.67049L131.718+7.30112L127.315+7.30112L127.315+3.67049L131.718+3.67049Z" opacity="1" fill="#ffffff"/>
<path d="M103.917+3.63675L103.917+7.30467L99.484+7.30467C99.484+6.17792+99.476+5.05029+99.5009+3.92354C99.5009+3.82498+99.7238+3.64474+99.8445+3.64474C101.183+3.62875+102.525+3.63675+103.917+3.63675Z" opacity="1" fill="#ffffff"/>
<path d="M119.784+3.66782L119.784+7.28869L115.392+7.28869L115.392+3.66782L119.784+3.66782Z" opacity="1" fill="#ffffff"/>
</g>
<g opacity="1">
<path d="M97.3334+3.67138L97.3334+7.29224L79.9251+7.29224L79.9251+3.67138L97.3334+3.67138Z" opacity="1" fill="#ffffff"/>
<path d="M48.1702+3.65628L48.1702+7.29668L30.8135+7.29668L30.8135+3.65628L48.1702+3.65628Z" opacity="1" fill="#ffffff"/>
<path d="M77.8599+21.4561L77.8599+25.0876L62.6155+25.0876L62.6155+21.4561L77.8599+21.4561Z" opacity="1" fill="#ffffff"/>
<path d="M48.6053+25.0796L48.6053+21.4587L63.8444+21.4587L63.8444+25.0796L48.6053+25.0796Z" opacity="1" fill="#ffffff"/>
<path d="M62.6013+16.276L62.6013+12.6427L77.8306+12.6427L77.8306+16.276L62.6013+16.276Z" opacity="1" fill="#ffffff"/>
<path d="M77.8439+3.67138L77.8439+7.29224L62.6066+7.29224L62.6066+3.67138L77.8439+3.67138Z" opacity="1" fill="#ffffff"/>
<path d="M63.8523+3.67049L63.8523+7.29136L48.615+7.29136L48.615+3.67049L63.8523+3.67049Z" opacity="1" fill="#ffffff"/>
<path d="M48.9222+12.6223L59.7617+12.6223L59.7617+16.2627L48.9222+16.2627L48.9222+12.6223Z" opacity="1" fill="#ffffff"/>
<path d="M41.8119+11.7531L37.4275+11.7531L37.4275+8.11267L41.8155+8.11267L41.8119+11.7531Z" opacity="1" fill="#ffffff"/>
<path d="M49.2952+11.7291L49.2952+8.12332L53.6992+8.12332L53.6992+11.7291L49.2952+11.7291Z" opacity="1" fill="#ffffff"/>
<path d="M65.1789+8.0958L69.5447+8.0958L69.5447+11.7362L65.1789+11.7362L65.1789+8.0958Z" opacity="1" fill="#ffffff"/>
<path d="M90.8259+8.0958L90.8259+11.7291L86.4485+11.7291L86.4485+8.0958L90.8259+8.0958Z" opacity="1" fill="#ffffff"/>
<path d="M86.4495+12.6285L90.8003+12.6285L90.8003+16.2583L86.4495+16.2583L86.4495+12.6285Z" opacity="1" fill="#ffffff"/>
<path d="M41.8075+16.2876L37.4275+16.2876L37.4275+12.6472L41.8075+12.6472L41.8075+16.2876Z" opacity="1" fill="#ffffff"/>
<path d="M86.4512+20.8106L86.4512+17.1604L90.8019+17.1604L90.8019+20.8106L86.4512+20.8106Z" opacity="1" fill="#ffffff"/>
<path d="M41.8386+17.1906L41.8386+20.7866L37.4168+20.7866L37.4168+17.1906L41.8386+17.1906Z" opacity="1" fill="#ffffff"/>
<path d="M49.3165+17.1604L53.6788+17.1604L53.6788+20.8008L49.3165+20.8008L49.3165+17.1604Z" opacity="1" fill="#ffffff"/>
<path d="M73.4514+17.1622L77.8244+17.1622L77.8244+20.8026L73.4514+20.8026L73.4514+17.1622Z" opacity="1" fill="#ffffff"/>
<path d="M86.4495+21.449L90.8109+21.449L90.8109+25.0823L86.4602+25.0823L86.4495+21.449Z" opacity="1" fill="#ffffff"/>
<path d="M41.8119+25.108L37.4275+25.108L37.4275+21.4676L41.8155+21.4676L41.8119+25.108Z" opacity="1" fill="#ffffff"/>
</g>
</g>
</g>
</svg>
