<svg xmlns="http://www.w3.org/2000/svg" width="166.14" height="28" viewBox="0 0 166.14 28"><defs><style>.a{fill:#fff;}</style></defs><g transform="translate(-0.038 0.022)"><g transform="translate(0.038 -0.022)"><path class="a" d="M1048.436,6.47v4.078H1028.83V6.47Z" transform="translate(-882.296 -5.452)"/><path class="a" d="M660.018,6.36v4.1H640.47V6.36Z" transform="translate(-549.248 -5.359)"/><path class="a" d="M921.709,150.11V154.2H904.54V150.11Z" transform="translate(-777.501 -129.062)"/><path class="a" d="M780,154.208V150.13h17.163v4.078Z" transform="translate(-668.74 -129.079)"/><path class="a" d="M904.44,82.392V78.3h17.152v4.092Z" transform="translate(-777.417 -67.178)"/><path class="a" d="M921.641,6.47v4.078H904.48V6.47Z" transform="translate(-777.451 -5.452)"/><path class="a" d="M797.241,6.46v4.078H780.08V6.46Z" transform="translate(-668.809 -5.443)"/><path class="a" d="M515.88,10.527V6.46h14.667v4.067Z" transform="translate(-442.186 -5.443)"/><path class="a" d="M515.88,154.3V150.23h14.667V154.3Z" transform="translate(-442.186 -129.163)"/><path class="a" d="M391.49,154.3V150.23h14.667V154.3Z" transform="translate(-335.567 -129.163)"/><path class="a" d="M515.88,82.407V78.34h14.666v4.067Z" transform="translate(-442.186 -67.211)"/><path class="a" d="M780.22,78.14h12.208v4.1H780.22Z" transform="translate(-668.603 -67.041)"/><path class="a" d="M251.47,78.18H263.7v4.1H251.47Z" transform="translate(-215.5 -67.076)"/><path class="a" d="M469.26,46.24V42.124c1.579,0,3.126-.008,4.673.017.115,0,.322.237.323.367.025,1.227.016,2.452.016,3.731Z" transform="translate(-401.866 -36.139)"/><path class="a" d="M521,46.442h-4.92v-4.1H521Z" transform="translate(-441.958 -36.325)"/><path class="a" d="M598.8,46.519H593.86V42.43H598.8Z" transform="translate(-508.567 -36.402)"/><path class="a" d="M691.938,46.445H687v-4.1h4.942Z" transform="translate(-588.329 -36.325)"/><path class="a" d="M780.06,46.511V42.45h4.96v4.061Z" transform="translate(-668.023 -36.418)"/><path class="a" d="M904.59,42.24h4.917v4.1H904.59Z" transform="translate(-774.664 -36.239)"/><path class="a" d="M313.76,42.31h4.955v4.078H313.76Z" transform="translate(-268.699 -36.298)"/><path class="a" d="M375.85,82.428V78.35h4.936v4.078Z" transform="translate(-321.871 -67.22)"/><path class="a" d="M1080.6,42.24v4.092h-4.93V42.24Z" transform="translate(-921.789 -36.239)"/><path class="a" d="M380.557,46.227h-4.988c0-1.277-.011-2.549.017-3.821,0-.108.257-.3.4-.3,1.506-.022,3.012-.014,4.574-.014Z" transform="translate(-321.629 -36.112)"/><path class="a" d="M333.956,6.126v4.125h-4.966c0-1.255-.011-2.533.022-3.8,0-.111.3-.3.463-.314C330.943,6.117,332.405,6.126,333.956,6.126Z" transform="translate(-281.741 -5.16)"/><path class="a" d="M1075.68,78.19h4.9v4.088h-4.9Z" transform="translate(-921.798 -67.084)"/><path class="a" d="M474.416,82.461H469.47V78.37h4.946Z" transform="translate(-402.044 -67.238)"/><path class="a" d="M691.933,82.423H687v-4.1h4.933Z" transform="translate(-588.329 -67.196)"/><path class="a" d="M256.441,118.308H251.5V114.2h4.941Z" transform="translate(-215.382 -97.981)"/><path class="a" d="M376,114.13h4.92v4.108H376Z" transform="translate(-321.999 -97.921)"/><path class="a" d="M1075.69,118.251V114.14h4.9v4.111Z" transform="translate(-921.806 -97.93)"/><path class="a" d="M318.7,118.408h-4.96V114.33h4.96Z" transform="translate(-268.682 -98.091)"/><path class="a" d="M474.415,118.448H469.48V114.37h4.935Z" transform="translate(-402.052 -98.125)"/><path class="a" d="M520.982,118.025H516V113.87h2.555c.2,0,.4.013.593.013,1.832,0,1.832,0,1.832,1.873Z" transform="translate(-441.892 -97.701)"/><path class="a" d="M593.67,118.357V114.29h4.969v4.067Z" transform="translate(-508.406 -98.056)"/><path class="a" d="M691.91,114.35V118.4h-4.98V114.35Z" transform="translate(-588.271 -98.106)"/><path class="a" d="M780.21,114.13h4.913v4.1H780.21Z" transform="translate(-668.149 -97.92)"/><path class="a" d="M982.35,114.15h4.925v4.1H982.35Z" transform="translate(-843.107 -97.938)"/><path class="a" d="M251.137,154.05c0-1.277-.013-2.51.019-3.736a.554.554,0,0,1,.392-.378c1.506-.028,3.013-.017,4.58-.017v4.131Z" transform="translate(-215.069 -128.899)"/><path class="a" d="M329.33,154.161V150.07h4.9v4.091Z" transform="translate(-282.032 -129.028)"/><path class="a" d="M256.433,42.28v4.092H251.48V42.28Z" transform="translate(-215.365 -36.273)"/><path class="a" d="M474.348,6.4v4.089H469.39V6.4Z" transform="translate(-401.976 -5.393)"/><path class="a" d="M256.154,6.147v4.131h-4.993c0-1.269-.009-2.539.019-3.808,0-.111.251-.314.387-.314C253.075,6.138,254.586,6.147,256.154,6.147Z" transform="translate(-215.092 -5.178)"/><path class="a" d="M380.837,6.38v4.078H375.89V6.38Z" transform="translate(-321.905 -5.376)"/><path class="a" d="M1075.68,150.06h4.912v4.092h-4.9Z" transform="translate(-921.798 -129.02)"/><path class="a" d="M691.938,154.265H687v-4.1h4.942Z" transform="translate(-588.329 -129.104)"/><path class="a" d="M31.324.015l-4.4.811H6.586L2.184.015A1.876,1.876,0,0,0,.511.5a1.534,1.534,0,0,0-.4,1.568L1.6,6.51a1.576,1.576,0,0,0,.218.432v14.14A2.361,2.361,0,0,0,4.267,23.33H6.855v2.426a2.328,2.328,0,0,0,2.422,2.222h3.328a2.328,2.328,0,0,0,2.422-2.222V23.33h4.086v2.364A2.391,2.391,0,0,0,21.6,27.976h3.2a2.389,2.389,0,0,0,2.485-2.281V23.33h2.133a2.361,2.361,0,0,0,2.455-2.254V6.627c.017-.039.031-.078.045-.117L33.4,2.069A1.534,1.534,0,0,0,33,.5,1.876,1.876,0,0,0,31.324.015ZM2.835,11.988l1.707.743a.607.607,0,0,1,.283.482.6.6,0,0,1-.244.5L2.746,14.5a.587.587,0,0,0-.237.489.6.6,0,0,0,.276.471l1.863.7a.527.527,0,0,1,.247.475.54.54,0,0,1-.31.443L2.172,18.324,2.14,8.375,4.65,9.551a.5.5,0,0,1,.3.427.493.493,0,0,1-.259.447l-1.823.708a.506.506,0,0,0-.264.42.5.5,0,0,0,.235.434ZM6.976,4.356,5.185,6.372a1.067,1.067,0,0,1-.978.327.992.992,0,0,1-.779-.634l-.836-2.5a.867.867,0,0,1,.231-.879,1.059,1.059,0,0,1,.939-.273L6.39,2.9a.971.971,0,0,1,.741.578.85.85,0,0,1-.155.881ZM22.492,1.2,21.135,3.416a.594.594,0,0,1-.482.285.609.609,0,0,1-.517-.227l-.759-1.711a.676.676,0,0,0-.513-.254.685.685,0,0,0-.532.219l-.861,1.685a.7.7,0,0,1-.546.224.694.694,0,0,1-.526-.261L15.592,1.6a.578.578,0,0,0-.474-.215.571.571,0,0,0-.458.243L13.89,3.5a.562.562,0,0,1-.488.239.553.553,0,0,1-.466-.273L11.655,1.171ZM18.384,15.843a4.634,4.634,0,0,0-1.465.691.258.258,0,0,1-.314,0,4.552,4.552,0,0,0-1.424-.691.224.224,0,0,1-.174-.227.23.23,0,0,1,.2-.205,9.393,9.393,0,0,1,3.137,0,.232.232,0,0,1,.2.2.224.224,0,0,1-.166.229ZM7.586,12.1c0-1.112.656-2.016,1.462-2.016s1.46.9,1.46,2.016-.654,2.016-1.46,2.016-1.465-.9-1.465-2.014ZM20.17,19.808a6.219,6.219,0,0,1-3.405-.958,6.219,6.219,0,0,1-3.4.959c-2.748,0-4.985-1.6-4.985-3.564a.409.409,0,0,1,.219-.388.49.49,0,0,1,.476,0,.408.408,0,0,1,.211.392c0,1.506,1.829,2.736,4.078,2.736a5.078,5.078,0,0,0,3.109-.972l.3-.235.3.235a5.088,5.088,0,0,0,3.109.972c2.248,0,4.078-1.225,4.078-2.736a.41.41,0,0,1,.219-.382.49.49,0,0,1,.47,0,.41.41,0,0,1,.219.382c-.009,1.958-2.246,3.557-4.994,3.557Zm4.539-5.692c-.808,0-1.46-.9-1.46-2.016s.654-2.016,1.46-2.016,1.46.9,1.46,2.016-.657,2.017-1.463,2.017ZM28.129,6.2,26.338,4.18a.851.851,0,0,1-.157-.883.972.972,0,0,1,.742-.58l2.627-.482a1.059,1.059,0,0,1,.939.273.867.867,0,0,1,.231.879l-.836,2.5a1,1,0,0,1-.778.636,1.071,1.071,0,0,1-.98-.323Zm3.294,12.12-2.414-1.246a.54.54,0,0,1-.31-.443.527.527,0,0,1,.247-.475l1.863-.7a.6.6,0,0,0,.276-.472.586.586,0,0,0-.239-.489l-1.835-.791a.6.6,0,0,1-.244-.5.608.608,0,0,1,.284-.482l1.934-.743a.5.5,0,0,0,.235-.434.506.506,0,0,0-.264-.42l-2.039-.708a.493.493,0,0,1-.259-.447.5.5,0,0,1,.3-.427l2.51-1.176Z" transform="translate(-0.038 0.022)"/></g></g></svg>