<svg width="184" height="182" viewBox="0 0 184 182" fill="none" xmlns="http://www.w3.org/2000/svg">
<circle cx="91.6818" cy="91" r="90.9091" fill="#1E293B"/>
<path d="M170.789 151.648H12.535C7.85618 151.648 4.06163 147.854 4.06163 143.175V44.0184C4.06163 39.3396 7.85618 35.545 12.535 35.545H170.789C175.468 35.545 179.262 39.3396 179.262 44.0184V143.175C179.262 147.854 175.468 151.648 170.789 151.648Z" fill="#1E293B" stroke="#090F18" stroke-width="2"/>
<path d="M179.262 44.0184C179.262 44.7273 178.98 45.4072 178.479 45.9084C177.978 46.4096 177.298 46.6912 176.589 46.6912H6.73471C6.02582 46.6912 5.34596 46.4096 4.84467 45.9084C4.34338 45.4072 4.06172 44.7273 4.06163 44.0184C4.06163 39.3396 7.85618 35.545 12.535 35.545H170.789C175.468 35.545 179.262 39.3396 179.262 44.0184Z" fill="#101925" stroke="#090F18" stroke-width="2"/>
<path opacity="0.15" d="M12.552 43.4751C12.8111 43.4784 13.0683 43.4303 13.3087 43.3334C13.549 43.2365 13.7678 43.0929 13.9522 42.9108C14.1366 42.7287 14.283 42.5119 14.383 42.2728C14.4829 42.0336 14.5344 41.7771 14.5344 41.5179C14.5344 41.2588 14.4829 41.0022 14.383 40.7631C14.283 40.524 14.1366 40.3071 13.9522 40.125C13.7678 39.9429 13.549 39.7993 13.3087 39.7024C13.0683 39.6056 12.8111 39.5574 12.552 39.5607C12.0372 39.5673 11.5458 39.7764 11.1841 40.1427C10.8224 40.5091 10.6196 41.0031 10.6196 41.5179C10.6196 42.0327 10.8224 42.5268 11.1841 42.8931C11.5458 43.2594 12.0372 43.4685 12.552 43.4751ZM20.7074 43.4751C20.9665 43.4784 21.2238 43.4303 21.4641 43.3334C21.7045 43.2365 21.9232 43.0929 22.1076 42.9108C22.2921 42.7287 22.4385 42.5119 22.5384 42.2728C22.6384 42.0336 22.6898 41.7771 22.6898 41.5179C22.6898 41.2588 22.6384 41.0022 22.5384 40.7631C22.4385 40.524 22.2921 40.3071 22.1076 40.125C21.9232 39.9429 21.7045 39.7993 21.4641 39.7024C21.2238 39.6056 20.9665 39.5574 20.7074 39.5607C20.1927 39.5673 19.7012 39.7764 19.3396 40.1427C18.9779 40.5091 18.7751 41.0031 18.7751 41.5179C18.7751 42.0327 18.9779 42.5268 19.3396 42.8931C19.7012 43.2594 20.1927 43.4685 20.7074 43.4751ZM28.5369 43.4751C28.796 43.4784 29.0532 43.4303 29.2936 43.3334C29.534 43.2365 29.7527 43.0929 29.9371 42.9108C30.1215 42.7287 30.268 42.5119 30.3679 42.2728C30.4679 42.0336 30.5193 41.7771 30.5193 41.5179C30.5193 41.2588 30.4679 41.0022 30.3679 40.7631C30.268 40.524 30.1215 40.3071 29.9371 40.125C29.7527 39.9429 29.534 39.7993 29.2936 39.7024C29.0532 39.6056 28.796 39.5574 28.5369 39.5607C28.0222 39.5673 27.5307 39.7764 27.169 40.1427C26.8074 40.5091 26.6046 41.0031 26.6046 41.5179C26.6046 42.0327 26.8074 42.5268 27.169 42.8931C27.5307 43.2594 28.0222 43.4685 28.5369 43.4751Z" fill="#E1E4E5"/>
<path d="M122.456 106.061V129.03C122.456 129.869 123.137 130.55 123.976 130.55H123.977C124.816 130.55 125.497 129.869 125.497 129.03V106.061C125.497 105.221 124.816 104.541 123.977 104.541H123.976C123.137 104.541 122.456 105.221 122.456 106.061Z" fill="#BEF264"/>
<path d="M135.63 106.061V129.03C135.63 129.869 136.31 130.55 137.15 130.55H137.15C137.989 130.55 138.67 129.869 138.67 129.03V106.061C138.67 105.221 137.989 104.541 137.15 104.541H137.15C136.31 104.541 135.63 105.221 135.63 106.061Z" fill="#BEF264"/>
<path d="M148.682 111.227V129.773C148.682 130.451 149.353 131 150.182 131H150.182C151.01 131 151.682 130.451 151.682 129.773V111.227C151.682 110.55 151.01 110 150.182 110H150.182C149.353 110 148.682 110.55 148.682 111.227Z" fill="#BEF264"/>
<path d="M129.212 115.012V129.199C129.212 129.945 129.817 130.55 130.563 130.55H130.563C131.309 130.55 131.914 129.945 131.914 129.199V115.012C131.914 114.266 131.309 113.661 130.563 113.661H130.563C129.817 113.661 129.212 114.266 129.212 115.012Z" fill="#BEF264"/>
<path d="M142.385 115.012V129.199C142.385 129.945 142.99 130.55 143.736 130.55H143.737C144.483 130.55 145.088 129.945 145.088 129.199V115.012C145.088 114.266 144.483 113.661 143.737 113.661H143.736C142.99 113.661 142.385 114.266 142.385 115.012Z" fill="#DB2777"/>
<path d="M155.682 121.8V130.2C155.682 130.642 156.353 131 157.182 131H157.182C158.01 131 158.682 130.642 158.682 130.2V121.8C158.682 121.358 158.01 121 157.182 121H157.182C156.353 121 155.682 121.358 155.682 121.8Z" fill="#037DBC"/>
<path d="M131.208 55.7355L128.141 59.0086L126.299 57.0451" stroke="#1E293B" stroke-width="3.568" stroke-linecap="round" stroke-linejoin="round"/>
<path opacity="0.3" d="M46.3417 125.456H28.736M20.8481 102.53L17.2459 106.129L15.4959 104.384L20.8481 102.53ZM28.653 100.808H39.2991H28.653ZM28.736 106.09H46.3417H28.736ZM20.8481 114.854L17.2459 118.453L15.4959 116.708L20.8481 114.854ZM28.653 113.132H39.2991H28.653ZM28.736 118.414H46.3417H28.736ZM46.3417 130.738H28.653H46.3417Z" stroke="#CBD5E1" stroke-width="3" stroke-linecap="round" stroke-linejoin="round"/>
<path opacity="0.3" d="M18.1719 133.999C20.9452 133.999 23.1934 131.751 23.1934 128.978C23.1934 126.205 20.9451 123.957 18.1719 123.957C15.3991 123.957 13.1508 126.205 13.1508 128.978C13.1508 131.751 15.399 133.999 18.1719 133.999Z" stroke="#CBD5E1" stroke-width="3" stroke-linecap="round" stroke-linejoin="round"/>
<path opacity="0.3" d="M74.253 100.808H84.8995M74.336 106.09H91.9421M74.253 113.132H84.8995M74.336 118.414H91.9421M91.9418 130.738H74.253M91.9421 125.456H74.336M66.4485 102.53L62.8463 106.129L61.0963 104.384L66.4485 102.53ZM66.4485 114.854L62.8463 118.453L61.0963 116.708L66.4485 114.854Z" stroke="#CBD5E1" stroke-width="3" stroke-linecap="round" stroke-linejoin="round"/>
<path opacity="0.3" d="M63.7722 133.999C66.5456 133.999 68.7933 131.751 68.7933 128.978C68.7933 126.205 66.5455 123.957 63.7722 123.957C60.9993 123.957 58.751 126.205 58.751 128.978C58.751 131.751 60.9992 133.999 63.7722 133.999Z" stroke="#CBD5E1" stroke-width="3" stroke-linecap="round" stroke-linejoin="round"/>
<path opacity="0.3" fill-rule="evenodd" clip-rule="evenodd" d="M112.111 73.7997H111.415C111.335 73.7996 111.258 73.7676 111.201 73.7107C111.144 73.6538 111.112 73.5766 111.112 73.4962V72.8003C111.112 72.6321 111.249 72.4968 111.415 72.4968H112.111C112.192 72.4971 112.269 72.5291 112.326 72.586C112.382 72.6429 112.414 72.7199 112.415 72.8003V73.4962C112.415 73.5361 112.407 73.5756 112.392 73.6125C112.377 73.6494 112.354 73.6829 112.326 73.7111C112.298 73.7393 112.264 73.7616 112.227 73.7768C112.191 73.7921 112.151 73.7998 112.111 73.7997ZM109.699 73.7997H109.003C108.923 73.7994 108.846 73.7674 108.789 73.7105C108.732 73.6536 108.7 73.5766 108.7 73.4962V72.8003C108.7 72.6321 108.837 72.4968 109.003 72.4968H109.699C109.779 72.4971 109.856 72.5291 109.913 72.586C109.97 72.6429 110.002 72.7199 110.003 72.8003V73.4962C110.002 73.5766 109.97 73.6536 109.913 73.7105C109.856 73.7674 109.779 73.7994 109.699 73.7997ZM107.285 73.7997H106.59C106.509 73.7994 106.432 73.7674 106.375 73.7105C106.318 73.6537 106.286 73.5766 106.286 73.4962V72.8003C106.286 72.6321 106.423 72.4968 106.59 72.4968H107.285C107.452 72.4968 107.589 72.6337 107.589 72.8003V73.4962C107.589 73.5361 107.581 73.5756 107.566 73.6124C107.551 73.6493 107.528 73.6828 107.5 73.711C107.472 73.7392 107.438 73.7615 107.402 73.7768C107.365 73.792 107.325 73.7998 107.285 73.7997ZM104.873 73.7997H104.178C104.097 73.7994 104.02 73.7674 103.963 73.7105C103.906 73.6537 103.874 73.5766 103.874 73.4962V72.8003C103.874 72.6321 104.011 72.4968 104.178 72.4968H104.873C105.041 72.4968 105.178 72.6337 105.178 72.8003V73.4962C105.177 73.5767 105.145 73.6536 105.088 73.7104C105.031 73.7672 104.954 73.7993 104.873 73.7997ZM102.461 73.7997H101.765C101.684 73.7997 101.607 73.7678 101.55 73.7109C101.493 73.654 101.46 73.5768 101.46 73.4962V72.8003C101.46 72.6321 101.597 72.4968 101.765 72.4968H102.461C102.541 72.4971 102.618 72.5291 102.675 72.586C102.732 72.6429 102.764 72.7199 102.764 72.8003V73.4962C102.764 73.5766 102.732 73.6536 102.675 73.7105C102.618 73.7674 102.541 73.7994 102.461 73.7997ZM109.611 71.1692H108.915C108.835 71.169 108.757 71.1369 108.701 71.0801C108.644 71.0232 108.612 70.9462 108.611 70.8657V70.1686C108.611 70.0016 108.748 69.8648 108.915 69.8648H109.611C109.779 69.8648 109.914 70.0016 109.914 70.1686V70.8641C109.915 70.9041 109.907 70.9438 109.892 70.9808C109.877 71.0179 109.854 71.0515 109.826 71.0799C109.798 71.1083 109.764 71.1307 109.727 71.1461C109.69 71.1614 109.651 71.1693 109.611 71.1692ZM107.198 71.1692H106.503C106.422 71.169 106.345 71.1369 106.288 71.0801C106.231 71.0232 106.199 70.9461 106.199 70.8657V70.1686C106.199 70.0016 106.336 69.8648 106.503 69.8648H107.198C107.365 69.8648 107.502 70.0016 107.502 70.1686V70.8641C107.502 70.9041 107.495 70.9438 107.48 70.9808C107.464 71.0179 107.442 71.0515 107.414 71.0799C107.386 71.1083 107.352 71.1307 107.315 71.1461C107.278 71.1614 107.238 71.1693 107.198 71.1692ZM104.786 71.1692H104.09C104.01 71.1692 103.932 71.1373 103.875 71.0804C103.818 71.0236 103.786 70.9464 103.785 70.8657V70.1686C103.785 70.0016 103.922 69.8648 104.09 69.8648H104.786C104.953 69.8648 105.09 70.0016 105.09 70.1686V70.8641C105.09 70.9448 105.058 71.0221 105.001 71.0793C104.944 71.1365 104.867 71.1688 104.786 71.1692ZM107.285 76.6257H106.59C106.509 76.6254 106.432 76.5933 106.375 76.5364C106.318 76.4795 106.286 76.4023 106.286 76.3218V75.6263C106.286 75.458 106.423 75.3224 106.59 75.3224H107.285C107.452 75.3224 107.589 75.4593 107.589 75.6263V76.3218C107.589 76.3617 107.581 76.4013 107.566 76.4382C107.551 76.4751 107.528 76.5086 107.5 76.5368C107.472 76.5651 107.439 76.5875 107.402 76.6027C107.365 76.6179 107.325 76.6257 107.285 76.6257ZM104.873 76.6257H104.178C104.097 76.6254 104.02 76.5933 103.963 76.5364C103.906 76.4795 103.874 76.4023 103.874 76.3218V75.6263C103.874 75.458 104.011 75.3224 104.178 75.3224H104.873C105.041 75.3224 105.178 75.4593 105.178 75.6263V76.3218C105.177 76.4024 105.145 76.4794 105.088 76.5363C105.031 76.5931 104.954 76.6252 104.873 76.6257ZM99.9513 62.9907H99.2554C99.175 62.9906 99.0978 62.9586 99.0409 62.9017C98.984 62.8448 98.952 62.7677 98.9519 62.6872V61.9914C98.9519 61.8231 99.0888 61.6878 99.2554 61.6878H99.9513C100.032 61.6881 100.109 61.7202 100.166 61.777C100.222 61.8339 100.255 61.9109 100.255 61.9914V62.6872C100.255 62.7271 100.247 62.7666 100.232 62.8035C100.217 62.8404 100.194 62.8739 100.166 62.9021C100.138 62.9303 100.104 62.9527 100.068 62.9679C100.031 62.9831 99.9911 62.9909 99.9513 62.9907ZM97.5391 62.9907H96.8432C96.7628 62.9904 96.6858 62.9583 96.6289 62.9015C96.572 62.8446 96.5398 62.7676 96.5394 62.6872V61.9914C96.5394 61.8231 96.6766 61.6878 96.8432 61.6878H97.5391C97.6195 61.6881 97.6966 61.7202 97.7534 61.777C97.8103 61.8339 97.8423 61.9109 97.8426 61.9914V62.6872C97.8423 62.7676 97.8103 62.8447 97.7534 62.9015C97.6966 62.9584 97.6195 62.9905 97.5391 62.9907ZM95.1253 62.9907H94.4295C94.349 62.9905 94.272 62.9584 94.2151 62.9015C94.1582 62.8447 94.1262 62.7676 94.1259 62.6872V61.9914C94.1259 61.8231 94.2628 61.6878 94.4295 61.6878H95.1253C95.2923 61.6878 95.4291 61.8247 95.4291 61.9914V62.6872C95.4292 62.7271 95.4214 62.7666 95.4061 62.8035C95.3908 62.8403 95.3685 62.8738 95.3402 62.902C95.312 62.9302 95.2785 62.9526 95.2416 62.9678C95.2047 62.983 95.1652 62.9908 95.1253 62.9907ZM92.7131 62.9907H92.0173C91.9369 62.9905 91.8598 62.9584 91.8029 62.9015C91.7461 62.8447 91.714 62.7676 91.7138 62.6872V61.9914C91.7138 61.8231 91.8506 61.6878 92.0173 61.6878H92.7131C92.8814 61.6878 93.0182 61.8247 93.0182 61.9914V62.6872C93.0173 62.7677 92.9848 62.8446 92.9278 62.9014C92.8707 62.9581 92.7936 62.9902 92.7131 62.9907ZM90.3009 62.9907H89.6051C89.5245 62.9907 89.4471 62.9588 89.3899 62.9019C89.3327 62.845 89.3004 62.7678 89.3 62.6872V61.9914C89.3 61.8231 89.4368 61.6878 89.6051 61.6878H90.3009C90.3814 61.6881 90.4584 61.7202 90.5153 61.777C90.5721 61.8339 90.6042 61.9109 90.6045 61.9914V62.6872C90.6042 62.7676 90.5721 62.8447 90.5153 62.9015C90.4584 62.9584 90.3814 62.9905 90.3009 62.9907ZM97.4506 60.3603H96.7548C96.6744 60.36 96.5973 60.328 96.5404 60.2711C96.4836 60.2142 96.4515 60.1372 96.4513 60.0567V59.3596C96.4513 59.1926 96.5881 59.0558 96.7548 59.0558H97.4506C97.6189 59.0558 97.7541 59.1926 97.7541 59.3596V60.0551C97.7544 60.0952 97.7467 60.1348 97.7316 60.1718C97.7164 60.2089 97.6941 60.2425 97.6659 60.2709C97.6377 60.2993 97.6041 60.3218 97.5672 60.3371C97.5302 60.3524 97.4906 60.3603 97.4506 60.3603ZM95.0384 60.3603H94.3426C94.2622 60.36 94.1851 60.328 94.1283 60.2711C94.0714 60.2142 94.0393 60.1372 94.0391 60.0567V59.3596C94.0391 59.1926 94.1759 59.0558 94.3426 59.0558H95.0384C95.2051 59.0558 95.342 59.1926 95.342 59.3596V60.0551C95.3422 60.0952 95.3346 60.1348 95.3194 60.1718C95.3043 60.2089 95.2819 60.2425 95.2537 60.2709C95.2255 60.2993 95.192 60.3218 95.155 60.3371C95.1181 60.3524 95.0784 60.3603 95.0384 60.3603ZM92.6263 60.3603H91.9304C91.8498 60.3603 91.7724 60.3283 91.7152 60.2715C91.6581 60.2146 91.6257 60.1374 91.6253 60.0567V59.3596C91.6253 59.1926 91.7622 59.0558 91.9304 59.0558H92.6263C92.7929 59.0558 92.9298 59.1926 92.9298 59.3596V60.0551C92.9298 60.1358 92.8979 60.2132 92.841 60.2703C92.7841 60.3275 92.7069 60.3599 92.6263 60.3603ZM95.1253 65.8167H94.4295C94.349 65.8163 94.272 65.7841 94.2152 65.7272C94.1584 65.6703 94.1263 65.5933 94.1259 65.5128V64.817C94.1259 64.6491 94.2628 64.5135 94.4295 64.5135H95.1253C95.2923 64.5135 95.4291 64.6503 95.4291 64.817V65.5128C95.4292 65.5528 95.4214 65.5923 95.4061 65.6292C95.3908 65.666 95.3685 65.6996 95.3402 65.7278C95.312 65.756 95.2785 65.7784 95.2416 65.7936C95.2047 65.8089 95.1652 65.8167 95.1253 65.8167ZM92.7131 65.8167H92.0173C91.9369 65.8163 91.8599 65.7841 91.803 65.7272C91.7462 65.6703 91.7141 65.5933 91.7138 65.5128V64.817C91.7138 64.6491 91.8506 64.5135 92.0173 64.5135H92.7131C92.8814 64.5135 93.0182 64.6503 93.0182 64.817V65.5128C93.0172 65.5933 92.9847 65.6702 92.9277 65.727C92.8707 65.7838 92.7936 65.816 92.7131 65.8167Z" fill="#CBD5E1"/>
<path opacity="0.1" d="M72.4541 80.3804C73.5974 84.6471 77.983 87.1792 82.2497 86.0359C86.5164 84.8927 89.0484 80.507 87.9052 76.2403C86.7619 71.9736 82.3763 69.4416 78.1096 70.5848C73.8429 71.7281 71.3108 76.1137 72.4541 80.3804Z" fill="url(#paint0_linear_127_17098)"/>
<path d="M74.6617 79.788C75.4783 82.8356 78.6108 84.6441 81.6584 83.8275C84.706 83.0109 86.5146 79.8784 85.698 76.8308C84.8814 73.7832 81.7488 71.9746 78.7013 72.7912C75.6537 73.6078 73.8451 76.7404 74.6617 79.788Z" fill="#1E293B"/>
<path d="M82.2498 86.0353C80.9794 86.3757 79.6446 86.3975 78.3637 86.0989C77.0827 85.8002 75.8953 85.1902 74.9064 84.323C73.9175 83.4558 73.1578 82.3581 72.6945 81.1271C72.2311 79.8961 72.0786 78.5699 72.2502 77.2658C72.4219 75.9618 72.9125 74.7203 73.6786 73.6511C74.4447 72.582 75.4627 71.7183 76.6423 71.1365C77.8219 70.5548 79.1268 70.2729 80.4414 70.3159C81.7559 70.3589 83.0396 70.7255 84.1787 71.3831L82.979 73.4613C82.1818 73.0006 81.2832 72.7438 80.363 72.7137C79.4428 72.6836 78.5293 72.881 77.7037 73.2885C76.8778 73.6955 76.165 74.3 75.6286 75.0484C75.0922 75.7968 74.7486 76.6659 74.6284 77.5788C74.5082 78.4917 74.6151 79.4201 74.9395 80.2819C75.2639 81.1436 75.7959 81.912 76.4883 82.5189C77.1806 83.1258 78.0119 83.5527 78.9084 83.7618C79.805 83.9709 80.7394 83.9557 81.6287 83.7177L82.2498 86.0353Z" fill="#037DBC"/>
<rect x="153" y="41" width="10" height="34" fill="white"/>
<path d="M182.981 74.2449L159.304 32.9184C158.951 32.3042 158.342 32 157.727 32C157.113 32 156.498 32.3042 156.151 32.9184L132.473 74.2449C131.773 75.4732 132.65 77 134.05 77H181.404C182.805 77 183.681 75.4732 182.981 74.2449ZM155.906 48.9898C155.906 48.7372 156.111 48.5306 156.361 48.5306H159.093C159.344 48.5306 159.549 48.7372 159.549 48.9898V59.551C159.549 59.8036 159.344 60.0102 159.093 60.0102H156.361C156.111 60.0102 155.906 59.8036 155.906 59.551V48.9898ZM157.727 69.1939C157.012 69.1792 156.332 68.8824 155.831 68.3673C155.331 67.8523 155.05 67.1599 155.05 66.4388C155.05 65.7177 155.331 65.0253 155.831 64.5102C156.332 63.9951 157.012 63.6984 157.727 63.6837C158.442 63.6984 159.123 63.9951 159.623 64.5102C160.124 65.0253 160.404 65.7177 160.404 66.4388C160.404 67.1599 160.124 67.8523 159.623 68.3673C159.123 68.8824 158.442 69.1792 157.727 69.1939Z" fill="#EC4899"/>
<defs>
<linearGradient id="paint0_linear_127_17098" x1="63.8798" y1="83.0313" x2="104.674" y2="71.5899" gradientUnits="userSpaceOnUse">
<stop stop-color="white"/>
<stop offset="1" stop-color="#EEEEEE"/>
</linearGradient>
</defs>
</svg>
