<svg width="8" height="16" viewBox="0 0 8 16" fill="none" xmlns="http://www.w3.org/2000/svg">
<path fill-rule="evenodd" clip-rule="evenodd" d="M3.79741 4.24486H3.78804C2.61645 4.24486 1.65575 3.29375 1.65575 2.12243C1.65575 0.951105 2.61177 -8.88468e-06 3.78804 -8.88468e-06C4.96431 -8.88468e-06 5.92032 0.951105 5.92032 2.12243C5.92032 2.68935 5.70006 3.22347 5.29703 3.62172C4.8987 4.02465 4.36445 4.24486 3.7974 4.24486H3.79741Z" fill="white"/>
<path fill-rule="evenodd" clip-rule="evenodd" d="M2.63906 16C2.15927 16 1.73946 15.687 1.73946 15.0937L1.77278 6.8176H1.43959V9.94796C1.43959 10.2252 1.33963 10.3981 1.22635 10.4935C1.08308 10.6158 0.92315 10.6843 0.719906 10.6843C0.51333 10.6843 0.356732 10.6158 0.213462 10.4935C0.100178 10.3981 0.000222125 10.2282 0.000222125 9.94796V6.3227C0.000222125 5.91128 0.146824 5.4939 0.46002 5.17788C0.806535 4.83205 1.24634 4.64125 1.75945 4.64125H5.83433C6.34743 4.64125 6.78724 4.83205 7.13375 5.18086C7.44695 5.49688 7.59355 5.91128 7.59355 6.3227V9.94796C7.59355 10.1656 7.53691 10.3594 7.37365 10.4935C7.22705 10.6128 7.06379 10.6784 6.85721 10.6784C6.65063 10.6784 6.48737 10.6128 6.34077 10.4935C6.17751 10.3594 6.12087 10.1656 6.12087 9.94796V6.8176H5.821V15.0937C5.821 15.681 5.37453 16 4.89474 16C4.44827 16 4.01846 15.7227 3.98181 15.1116C3.98181 15.1086 3.98181 15.1026 3.98181 15.0996V10.902H3.58198V15.0937C3.58198 15.0967 3.58198 15.0996 3.58198 15.1026C3.55866 15.6899 3.12218 16 2.63906 16Z" fill="white"/>
</svg>
