<svg width="25" height="18" viewBox="0 0 25 18" fill="none" xmlns="http://www.w3.org/2000/svg">
<path d="M7.91767 10.1669C7.02096 10.4214 6.43266 10.8676 6.04513 11.3135C6.41631 10.9886 6.91352 10.6905 7.5842 10.5004C8.2702 10.306 8.85543 10.3074 9.339 10.4007V10.0226C8.92648 9.98483 8.45356 10.0149 7.91767 10.1669ZM6.00414 6.98818L2.67391 7.86554C2.67391 7.86554 2.73461 7.95127 2.84699 8.06567L5.67061 7.32164C5.67061 7.32164 5.6306 7.83722 5.28312 8.29844C5.9404 7.80117 6.00414 6.98818 6.00414 6.98818ZM8.79176 14.8148C4.10525 16.077 1.62576 10.6458 0.875078 7.82685C0.528252 6.52563 0.37685 5.54012 0.336496 4.90416C0.332161 4.83812 0.334165 4.78245 0.338834 4.73144C0.0957225 4.74613 -0.02067 4.8725 0.00301071 5.23769C0.0433647 5.87331 0.194767 6.85874 0.541592 8.16038C1.29194 10.979 3.77176 16.4102 8.45829 15.1479C9.47838 14.8731 10.2448 14.3726 10.82 13.7336C10.2898 14.2125 9.62612 14.5897 8.79176 14.8148ZM9.67246 3.66425V3.99778H11.5107C11.473 3.87969 11.435 3.77329 11.3973 3.66425H9.67246Z" fill="white"/>
<path d="M11.9216 6.41118C12.7483 6.64597 13.1855 7.22557 13.4166 7.7385L14.3384 8.00029C14.3384 8.00029 14.2126 6.20513 12.5889 5.7439C11.0699 5.31232 10.1351 6.58793 10.0214 6.753C10.4633 6.43818 11.1085 6.18043 11.9216 6.41118ZM19.259 7.74678C17.7386 7.31325 16.8042 8.5915 16.6921 8.75427C17.1344 8.4398 17.7793 8.18198 18.592 8.41378C19.4174 8.64891 19.8543 9.22781 20.0861 9.74109L21.0091 10.0039C21.0091 10.0039 20.8814 8.20835 19.259 7.74678ZM18.3432 12.48L10.6754 10.3363C10.6754 10.3363 10.7584 10.7572 11.0769 11.3022L17.5329 13.107C18.0644 12.7995 18.3432 12.48 18.3432 12.48ZM13.0271 17.0942C6.95562 15.4664 7.68963 7.73049 8.67207 4.06475C9.07658 2.55407 9.49244 1.43122 9.83732 0.678538C9.63155 0.63618 9.46113 0.74457 9.29272 1.08706C8.92655 1.82973 8.4583 3.03896 8.00514 4.73175C7.02298 8.39742 6.28897 16.133 12.3602 17.7608C15.2218 18.5275 17.4511 17.3623 19.113 15.5324C17.5355 16.9611 15.5216 17.7621 13.0271 17.0942Z" fill="white"/>
<path d="M9.67259 13.002V11.4409L5.33528 12.6708C5.33528 12.6708 5.65578 10.8086 7.9178 10.167C8.60379 9.97253 9.1891 9.97386 9.67259 10.0672V3.66426H11.8443C11.6078 2.93359 11.3791 2.37104 11.187 1.98017C10.8692 1.33321 10.5433 1.76208 9.80369 2.38072C9.28276 2.81592 7.96616 3.74436 5.98493 4.27824C4.00366 4.81246 2.40192 4.67078 1.73361 4.55506C0.786169 4.39159 0.290606 4.18353 0.336966 4.90418C0.377313 5.53979 0.528722 6.52529 0.875547 7.82686C1.62589 10.6455 4.10571 16.0767 8.79224 14.8145C10.0164 14.4846 10.8805 13.8326 11.4794 13.0016H9.67259V13.002ZM2.67372 7.86555L6.00427 6.98819C6.00427 6.98819 5.9072 8.26944 4.65863 8.59859C3.40972 8.9274 2.67372 7.86555 2.67372 7.86555Z" fill="white"/>
<path d="M22.207 3.73832C21.3413 3.89009 19.2643 4.07916 16.6975 3.39114C14.13 2.70355 12.4265 1.50096 11.7516 0.935697C10.7948 0.134324 10.3739 -0.422601 9.95974 0.419794C9.59357 1.1628 9.12531 2.37203 8.67209 4.06482C7.68999 7.7305 6.95598 15.4661 13.0271 17.0939C19.097 18.7203 22.3284 11.6536 23.3106 7.98762C23.7638 6.29518 23.9625 5.01358 24.0172 4.18723C24.0796 3.25113 23.4366 3.52287 22.207 3.73832ZM10.0091 6.77109C10.0091 6.77109 10.9658 5.28303 12.5886 5.74425C14.2123 6.20548 14.3381 8.00064 14.3381 8.00064L10.0091 6.77109ZM13.9702 13.4485C11.1159 12.6124 10.6757 10.3364 10.6757 10.3364L18.3433 12.4801C18.3433 12.4797 16.7956 14.2742 13.9702 13.4485ZM16.6812 8.77097C16.6812 8.77097 17.6366 7.28395 19.259 7.7465C20.8814 8.20843 21.0092 10.0036 21.0092 10.0036L16.6812 8.77097Z" fill="white"/>
<path d="M8.15699 11.8707L5.33537 12.6704C5.33537 12.6704 5.64188 10.9243 7.72046 10.2324L6.12273 4.23627L5.98467 4.27823C4.00342 4.81252 2.40168 4.67077 1.73337 4.55505C0.785931 4.39166 0.290368 4.18352 0.336721 4.90424C0.377075 5.53985 0.528477 6.52529 0.875303 7.82693C1.62565 10.6455 4.10547 16.0767 8.79198 14.8144L8.93004 14.7711L8.15699 11.8707ZM2.67381 7.86562L6.00436 6.98819C6.00436 6.98819 5.90729 8.26944 4.65872 8.59859C3.40981 8.92739 2.67381 7.86562 2.67381 7.86562Z" fill="white"/>
<path d="M14.099 13.4798L13.9699 13.4485C11.1156 12.6124 10.6754 10.3364 10.6754 10.3364L14.6292 11.4415L16.7225 3.39782L16.6972 3.39114C14.1296 2.70355 12.4262 1.50096 11.7512 0.935697C10.7944 0.134324 10.3736 -0.422601 9.95939 0.419794C9.59357 1.1628 9.12531 2.37203 8.67209 4.06482C7.68999 7.7305 6.95598 15.4661 13.0271 17.0938L13.1515 17.1219L14.099 13.4798ZM10.0091 6.77109C10.0091 6.77109 10.9658 5.28303 12.5886 5.74425C14.2123 6.20548 14.3381 8.00064 14.3381 8.00064L10.0091 6.77109Z" fill="white"/>
<path d="M8.30064 11.8298L7.54394 12.0445C7.72271 13.0523 8.0378 14.0194 8.53236 14.8738C8.61844 14.8548 8.70383 14.8385 8.79151 14.8145C9.02129 14.7524 9.23436 14.6757 9.43951 14.592C8.88691 13.772 8.52137 12.8275 8.30064 11.8298ZM8.00517 4.73181C7.61631 6.18313 7.26844 8.27209 7.36419 10.3674C7.53559 10.293 7.71665 10.2237 7.91776 10.1666L8.05784 10.1353C7.88708 7.89722 8.25624 5.61655 8.67209 4.06481C8.77752 3.67226 8.88322 3.30714 8.98858 2.96664C8.81886 3.07464 8.63612 3.18536 8.42798 3.29941C8.28762 3.73267 8.14587 4.20621 8.00517 4.73181Z" fill="white"/>
</svg>
