<svg xmlns="http://www.w3.org/2000/svg" width="23.999" height="24" viewBox="0 0 23.999 24"><defs><style>.a{fill:#fd6c35;}</style></defs><path class="a" d="M13.527.1A12,12,0,1,0,23.9,13.527,12,12,0,0,0,13.527.1ZM16,7.584a.855.855,0,0,0-.593.25l-4.453,4.453-.307-.307L10,11.337c4.389-4.376,5.18-4.418,6-3.753Zm-4.863,4.861,4.44-4.44a.62.62,0,1,1,.847.9l-4.7,4.125Zm.33.694-1.1.238a.063.063,0,0,1-.057-.105l.645-.645.512.512Zm-2.8-.459,1.172-1.172.879.878-1.979.426a.074.074,0,0,1-.085-.039.072.072,0,0,1,.013-.093ZM5.016,18.738a.076.076,0,0,1-.069-.083.077.077,0,0,1,.022-.046h0l.946-.946,1.222,1.222-2.123-.147Zm2.425-1.256a.228.228,0,0,0-.117.256l.2.865a.125.125,0,0,1-.211.117h0l-.934-.934-.294-.3,3.762-3.758,1.82-.393.874.874a24.314,24.314,0,0,1-5.1,3.268Zm5.279-3.428h0l-.839-.839,4.7-4.125a.952.952,0,0,0,.119-.127C16.549,10.308,14.668,12.208,12.72,14.054Zm3.657-6.46,0,0a1.822,1.822,0,0,1,2.459-2.684l-1.61,1.613a.119.119,0,0,0,0,.169L18.47,7.937a1.817,1.817,0,0,1-2.093-.343Zm2.578,0a1.714,1.714,0,0,1-.271.218h0L17.476,6.605l1.533-1.533a1.822,1.822,0,0,1-.054,2.522Zm-.1-1.544a.143.143,0,0,0-.053.157.416.416,0,0,1-.053.45.138.138,0,1,0,.213.177.691.691,0,0,0,.087-.751.138.138,0,0,0-.194-.033Z" transform="translate(0 0)"/></svg>