<svg width="20" height="21" viewBox="0 0 20 21" fill="none" xmlns="http://www.w3.org/2000/svg">
<path d="M10 2.15909C5.16797 2.15909 1.25 6.07706 1.25 10.9091C1.25 15.7411 5.16797 19.6591 10 19.6591C14.832 19.6591 18.75 15.7411 18.75 10.9091C18.75 6.07706 14.832 2.15909 10 2.15909ZM10 18.1747C5.98828 18.1747 2.73438 14.9208 2.73438 10.9091C2.73438 6.89737 5.98828 3.64346 10 3.64346C14.0117 3.64346 17.2656 6.89737 17.2656 10.9091C17.2656 14.9208 14.0117 18.1747 10 18.1747Z" fill="#94A3B8"/>
<path d="M12.1797 7.09464C11.5938 6.58096 10.8203 6.29971 10 6.29971C9.17969 6.29971 8.40625 6.58292 7.82031 7.09464C7.21094 7.62784 6.875 8.34464 6.875 9.11221V9.26065C6.875 9.34659 6.94531 9.4169 7.03125 9.4169H7.96875C8.05469 9.4169 8.125 9.34659 8.125 9.26065V9.11221C8.125 8.25089 8.9668 7.54971 10 7.54971C11.0332 7.54971 11.875 8.25089 11.875 9.11221C11.875 9.71964 11.4453 10.2763 10.7793 10.5321C10.3652 10.6903 10.0137 10.9677 9.76172 11.331C9.50586 11.7021 9.37305 12.1474 9.37305 12.5985V13.0185C9.37305 13.1044 9.44336 13.1747 9.5293 13.1747H10.4668C10.5527 13.1747 10.623 13.1044 10.623 13.0185V12.5751C10.6241 12.3855 10.6822 12.2006 10.7898 12.0445C10.8975 11.8884 11.0497 11.7684 11.2266 11.7001C12.3789 11.2567 13.123 10.2411 13.123 9.11221C13.125 8.34464 12.7891 7.62784 12.1797 7.09464ZM9.21875 15.206C9.21875 15.4132 9.30106 15.6119 9.44757 15.7584C9.59409 15.9049 9.7928 15.9872 10 15.9872C10.2072 15.9872 10.4059 15.9049 10.5524 15.7584C10.6989 15.6119 10.7813 15.4132 10.7813 15.206C10.7813 14.9988 10.6989 14.8 10.5524 14.6535C10.4059 14.507 10.2072 14.4247 10 14.4247C9.7928 14.4247 9.59409 14.507 9.44757 14.6535C9.30106 14.8 9.21875 14.9988 9.21875 15.206Z" fill="#94A3B8"/>
</svg>
