<svg width="32" height="32" viewBox="0 0 32 32" fill="none" xmlns="http://www.w3.org/2000/svg">
<g clip-path="url(#clip0_3025_6542)">
<g clip-path="url(#clip1_3025_6542)">
<path fill-rule="evenodd" clip-rule="evenodd" d="M19 6.24414C19 6.04523 18.921 5.85446 18.7803 5.71381C18.6397 5.57316 18.4489 5.49414 18.25 5.49414H13.75C13.5511 5.49414 13.3603 5.57316 13.2197 5.71381C13.079 5.85446 13 6.04523 13 6.24414V7.74414C13 7.94305 13.079 8.13382 13.2197 8.27447C13.3603 8.41512 13.5511 8.49414 13.75 8.49414H18.25C18.4489 8.49414 18.6397 8.41512 18.7803 8.27447C18.921 8.13382 19 7.94305 19 7.74414V6.24414ZM11.5 6.24414C11.5 5.6474 11.7371 5.07511 12.159 4.65315C12.581 4.23119 13.1533 3.99414 13.75 3.99414H18.25C18.8467 3.99414 19.419 4.23119 19.841 4.65315C20.2629 5.07511 20.5 5.6474 20.5 6.24414V7.74414C20.5 8.34088 20.2629 8.91317 19.841 9.33513C19.419 9.75709 18.8467 9.99414 18.25 9.99414H13.75C13.1533 9.99414 12.581 9.75709 12.159 9.33513C11.7371 8.91317 11.5 8.34088 11.5 7.74414V6.24414ZM8.5 6.24414H10V7.74414H8.5C8.10218 7.74414 7.72064 7.90218 7.43934 8.18348C7.15804 8.46479 7 8.84632 7 9.24414V24.9941C7 25.392 7.15804 25.7735 7.43934 26.0548C7.72064 26.3361 8.10218 26.4941 8.5 26.4941H23.5C23.8978 26.4941 24.2794 26.3361 24.5607 26.0548C24.842 25.7735 25 25.392 25 24.9941V9.24414C25 8.84632 24.842 8.46479 24.5607 8.18348C24.2794 7.90218 23.8978 7.74414 23.5 7.74414H22V6.24414H23.5C24.2956 6.24414 25.0587 6.56021 25.6213 7.12282C26.1839 7.68543 26.5 8.44849 26.5 9.24414V24.9941C26.5 25.7898 26.1839 26.5529 25.6213 27.1155C25.0587 27.6781 24.2956 27.9941 23.5 27.9941H8.5C7.70435 27.9941 6.94129 27.6781 6.37868 27.1155C5.81607 26.5529 5.5 25.7898 5.5 24.9941V9.24414C5.5 8.44849 5.81607 7.68543 6.37868 7.12282C6.94129 6.56021 7.70435 6.24414 8.5 6.24414ZM18.9685 12.0281C18.9206 11.8686 18.821 11.7295 18.6853 11.6329C18.5496 11.5363 18.3856 11.4876 18.2192 11.4944C18.0528 11.5013 17.8934 11.5634 17.7661 11.6709C17.6389 11.7784 17.5511 11.9252 17.5165 12.0881L15.88 19.7291L14.47 15.0266C14.429 14.8904 14.35 14.7686 14.2424 14.6755C14.1347 14.5824 14.0028 14.5218 13.8621 14.5009C13.7213 14.48 13.5775 14.4995 13.4474 14.5573C13.3173 14.6151 13.2064 14.7087 13.1275 14.8271L10.348 18.9941H9.25C9.05109 18.9941 8.86032 19.0732 8.71967 19.2138C8.57902 19.3545 8.5 19.5452 8.5 19.7441C8.5 19.9431 8.57902 20.1338 8.71967 20.2745C8.86032 20.4151 9.05109 20.4941 9.25 20.4941H10.75C10.8735 20.4941 10.9951 20.4635 11.104 20.4052C11.2128 20.3468 11.3056 20.2625 11.374 20.1596L13.489 16.9871L15.2815 22.9601C15.3294 23.1197 15.429 23.2587 15.5647 23.3554C15.7004 23.452 15.8644 23.5007 16.0308 23.4939C16.1972 23.487 16.3566 23.4249 16.4839 23.3174C16.6111 23.2099 16.6989 23.0631 16.7335 22.9001L18.37 15.2591L19.78 19.9616C19.8268 20.116 19.9221 20.2512 20.0518 20.3471C20.1815 20.4431 20.3387 20.4946 20.5 20.4941H22.75C22.9489 20.4941 23.1397 20.4151 23.2803 20.2745C23.421 20.1338 23.5 19.9431 23.5 19.7441C23.5 19.5452 23.421 19.3545 23.2803 19.2138C23.1397 19.0732 22.9489 18.9941 22.75 18.9941H21.058L18.9685 12.0281Z" />
</g>
</g>
<defs>
<clipPath id="clip0_3025_6542">
<rect width="32" height="32" />
</clipPath>
<clipPath id="clip1_3025_6542">
<rect width="24" height="24"  transform="translate(4 3.99414)"/>
</clipPath>
</defs>
</svg>
