<svg width="32" height="32" viewBox="0 0 32 32" fill="none" xmlns="http://www.w3.org/2000/svg">
<path d="M14.5003 22.5C14.5003 22.8978 14.6583 23.2794 14.9396 23.5607C15.2209 23.842 15.6025 24 16.0003 24C16.3981 24 16.7797 23.842 17.061 23.5607C17.3423 23.2794 17.5003 22.8978 17.5003 22.5C17.5003 22.1022 17.3423 21.7206 17.061 21.4393C16.7797 21.158 16.3981 21 16.0003 21C15.6025 21 15.2209 21.158 14.9396 21.4393C14.6583 21.7206 14.5003 22.1022 14.5003 22.5ZM15.0003 13V18.75C15.0003 18.8875 15.1128 19 15.2503 19H16.7503C16.8878 19 17.0003 18.8875 17.0003 18.75V13C17.0003 12.8625 16.8878 12.75 16.7503 12.75H15.2503C15.1128 12.75 15.0003 12.8625 15.0003 13ZM29.8659 26.75L16.8659 4.25C16.6722 3.91563 16.3378 3.75 16.0003 3.75C15.6628 3.75 15.3253 3.91563 15.1347 4.25L2.13468 26.75C1.7503 27.4188 2.23155 28.25 3.0003 28.25H29.0003C29.7691 28.25 30.2503 27.4188 29.8659 26.75ZM5.38155 25.8781L16.0003 7.49687L26.6191 25.8781H5.38155Z" />
</svg>
