<svg xmlns="http://www.w3.org/2000/svg" width="20.501" height="25" viewBox="0 0 20.501 25"><defs><style>.a{fill:none;stroke:#20c0fc;}</style></defs><path class="a" d="M12.75,4.5A2.25,2.25,0,1,0,10.5,2.25,2.25,2.25,0,0,0,12.75,4.5ZM5.329,14.882,4.636,16.5H1.5a1.5,1.5,0,0,0,0,3H5.131A2.245,2.245,0,0,0,7.2,18.137l.412-.962-.5-.3a4.464,4.464,0,0,1-1.781-2ZM18,10.5H15.937L14.715,8a4.5,4.5,0,0,0-2.9-2.388L8.487,4.625a4.481,4.481,0,0,0-3.79.8L2.838,6.854a1.5,1.5,0,0,0,1.825,2.38L6.524,7.809a1.46,1.46,0,0,1,1.185-.288l.689.2-1.756,4.1a3.008,3.008,0,0,0,1.233,3.765l3.984,2.352L10.57,22.051a1.5,1.5,0,1,0,2.863.9l1.483-4.737a2.259,2.259,0,0,0-1.014-2.55l-2.871-1.694L12.5,10.3l.95,1.942A2.264,2.264,0,0,0,15.47,13.5H18a1.5,1.5,0,1,0,0-3Z" transform="translate(0.5 0.5)"/></svg>