<svg width="42" height="42" viewBox="0 0 42 42" fill="none" xmlns="http://www.w3.org/2000/svg">
<path d="M41.2655 15.6615L22.7695 0.571984C21.8347 -0.190662 20.2321 -0.190662 19.2973 0.571984L0.734498 15.6615C0.26709 16.0428 0 16.5331 0 17.0778V24.9222C0 25.4669 0.26709 25.9572 0.734498 26.3385L19.2305 41.428C20.1653 42.1907 21.7679 42.1907 22.7027 41.428L41.2655 26.393C41.7329 26.0117 42 25.5214 42 24.9767V17.0778C42 16.5876 41.7329 16.0428 41.2655 15.6615ZM39.7297 23.9416L36.124 21L39.7297 18.0584V23.9416ZM34.5882 19.7471L22.1018 9.56031V2.53308L38.9285 16.2607L34.5882 19.7471ZM8.94753 21.0545L21.0334 11.1946L33.1192 21.0545L21.0334 30.8599L8.94753 21.0545ZM19.8983 2.53308V9.56031L7.41176 19.7471L3.13832 16.2607L19.8983 2.53308ZM21.0334 40.393V33.3658L34.5882 22.3074L38.8617 25.7938L21.0334 40.393Z" fill="url(#paint0_linear_175_4425)"/>
<defs>
<linearGradient id="paint0_linear_175_4425" x1="7.59239" y1="31.9764" x2="29.034" y2="5.69424" gradientUnits="userSpaceOnUse">
<stop stop-color="#AEB5D9"/>
<stop offset="0.1421" stop-color="#9B9AD5"/>
<stop offset="0.4167" stop-color="#7B6DCE"/>
<stop offset="0.6612" stop-color="#644CC8"/>
<stop offset="0.8639" stop-color="#5637C5"/>
<stop offset="1" stop-color="#5130C4"/>
</linearGradient>
</defs>
</svg>
