<?xml version="1.0" encoding="utf-8"?>
<!-- Generator: Adobe Illustrator 23.0.5, SVG Export Plug-In . SVG Version: 6.00 Build 0)  -->
<svg version="1.1" id="TESTKUBE_logos" xmlns="http://www.w3.org/2000/svg" xmlns:xlink="http://www.w3.org/1999/xlink" x="0px"
	 y="0px" viewBox="0 0 139.3 139.3" style="enable-background:new 0 0 139.3 139.3;" xml:space="preserve">
<path d="M100,59.8L72.3,32.1c-1.4-1.4-3.8-1.4-5.2,0L39.3,59.8c-0.7,0.7-1.1,1.6-1.1,2.6v14.4c0,1,0.4,1.9,1.1,2.6l27.7,27.7
	c1.4,1.4,3.8,1.4,5.2,0L100,79.5c0.7-0.7,1.1-1.6,1.1-2.6V62.4C101.1,61.5,100.7,60.5,100,59.8z M97.7,75l-5.4-5.4l5.4-5.4V75z
	 M90,67.3L71.3,48.6V35.7l25.2,25.2L90,67.3z M51.6,69.7l18.1-18.1l18.1,18.1L69.7,87.7L51.6,69.7z M68,35.7v12.9L49.3,67.3
	l-6.4-6.4L68,35.7z M69.7,105.2V92.3L90,72l6.4,6.4L69.7,105.2z"/>
</svg>
