<svg xmlns="http://www.w3.org/2000/svg" width="8.546" height="18" viewBox="0 0 8.546 18">
  <g id="Icon_ionic-ios-man" data-name="Icon ionic-ios-man" transform="translate(-9.984 -1.125)">
    <path id="Path_188" data-name="Path 188" d="M17.176,5.9h-.011a2.389,2.389,0,1,1,2.4-2.389A2.395,2.395,0,0,1,17.176,5.9Z" transform="translate(-2.92)" fill="#adadad"/>
    <path id="Path_189" data-name="Path 189" d="M12.954,20.865a.965.965,0,0,1-1.012-1.02l.037-9.311H11.6v3.522a.767.767,0,0,1-.24.614.864.864,0,0,1-1.14,0,.762.762,0,0,1-.24-.614V9.978A1.818,1.818,0,0,1,10.5,8.69a2.016,2.016,0,0,1,1.462-.6h4.586a2.006,2.006,0,0,1,1.462.607,1.81,1.81,0,0,1,.517,1.285v4.079a.749.749,0,0,1-.247.614.916.916,0,0,1-1.163,0,.749.749,0,0,1-.247-.614V10.534h-.337v9.311a1.035,1.035,0,0,1-2.07.02V15.13h-.45v4.726A1.012,1.012,0,0,1,12.954,20.865Z" transform="translate(0 -1.74)" fill="#adadad"/>
  </g>
</svg>
