<svg xmlns="http://www.w3.org/2000/svg" width="14.626" height="18" viewBox="0 0 14.626 18">
  <path id="Icon_awesome-running" data-name="Icon awesome-running" d="M9.563,3.375A1.688,1.688,0,1,0,7.875,1.688,1.688,1.688,0,0,0,9.563,3.375ZM4,11.161l-.52,1.214H1.125a1.125,1.125,0,0,0,0,2.25H3.848A1.684,1.684,0,0,0,5.4,13.6l.309-.721-.375-.221A3.348,3.348,0,0,1,4,11.161Zm9.5-3.287H11.953L11.036,6A3.374,3.374,0,0,0,8.864,4.212l-2.5-.743a3.361,3.361,0,0,0-2.842.6L2.128,5.14A1.125,1.125,0,1,0,3.5,6.926l1.4-1.069a1.1,1.1,0,0,1,.888-.216l.517.154L4.981,8.867a2.256,2.256,0,0,0,.925,2.824l2.988,1.764-.966,3.084a1.125,1.125,0,1,0,2.147.672l1.112-3.553a1.7,1.7,0,0,0-.761-1.912L8.273,10.475l1.1-2.752.713,1.457a1.7,1.7,0,0,0,1.516.945h1.9a1.125,1.125,0,1,0,0-2.25Z" fill="#adadad"/>
</svg>
