<svg xmlns="http://www.w3.org/2000/svg" width="12.395" height="25" viewBox="0 0 12.395 25"><defs><style>.a{stroke:#20c0fc;}</style></defs><g transform="translate(-9.484 -0.625)"><path class="a" d="M17.979,7.5h-.014a3.185,3.185,0,1,1,3.2-3.185A3.193,3.193,0,0,1,17.979,7.5Z" transform="translate(-2.299)"/><path class="a" d="M13.944,25.125a1.287,1.287,0,0,1-1.35-1.36l.05-12.415h-.5v4.7a1.023,1.023,0,0,1-.32.818,1.152,1.152,0,0,1-1.52,0,1.016,1.016,0,0,1-.32-.818V10.608a2.424,2.424,0,0,1,.69-1.717,2.688,2.688,0,0,1,1.95-.8h6.115a2.674,2.674,0,0,1,1.95.809,2.414,2.414,0,0,1,.69,1.713v5.438a1,1,0,0,1-.33.818,1.222,1.222,0,0,1-1.55,0,1,1,0,0,1-.33-.818v-4.7h-.45V23.765a1.38,1.38,0,0,1-2.76.027V17.478h-.6v6.3A1.349,1.349,0,0,1,13.944,25.125Z"/></g></svg>