<svg width="16" height="16" viewBox="0 0 16 16" fill="none" xmlns="http://www.w3.org/2000/svg">
<path fill-rule="evenodd" clip-rule="evenodd" d="M11.9225 10.1C12.0742 10.2516 12.0742 10.4968 11.9225 10.6484L10.6451 11.9226C10.4935 12.0742 10.2483 12.0742 10.0967 11.9226L7.99996 9.80648L5.89996 11.9226C5.74834 12.0742 5.50318 12.0742 5.35157 11.9226L4.07737 10.6452C3.92575 10.4936 3.92575 10.2484 4.07737 10.0968L6.1935 8.00002L4.07737 5.90002C3.92575 5.7484 3.92575 5.50325 4.07737 5.35163L5.35479 4.07421C5.5064 3.9226 5.75156 3.9226 5.90318 4.07421L7.99996 6.19356L10.1 4.07742C10.2516 3.92581 10.4967 3.92581 10.6483 4.07742L11.9258 5.35485C12.0774 5.50645 12.0774 5.75162 11.9258 5.90324L9.80642 8.00001L11.9225 10.1ZM8 0C3.58065 0 0 3.58065 0 8C0 12.4194 3.58065 16 8 16C12.4194 16 16 12.4194 16 8C16 3.58065 12.4194 0 8 0Z" fill="#DB539C"/>
</svg>
