<svg width="12" height="14" viewBox="0 0 12 14" fill="none" xmlns="http://www.w3.org/2000/svg">
<path d="M11.3531 3.51094L7.99063 0.146875C7.89688 0.053125 7.76875 0 7.63594 0H1C0.723437 0 0.5 0.223437 0.5 0.5V13.5C0.5 13.7766 0.723437 14 1 14H11C11.2766 14 11.5 13.7766 11.5 13.5V3.86406C11.5 3.73125 11.4469 3.60469 11.3531 3.51094ZM10.3469 4.09375H7.40625V1.15313L10.3469 4.09375ZM10.375 12.875H1.625V1.125H6.34375V4.5C6.34375 4.67405 6.41289 4.84097 6.53596 4.96404C6.65903 5.08711 6.82595 5.15625 7 5.15625H10.375V12.875ZM4.28125 7.57812C4.28125 7.6625 4.35 7.72656 4.43437 7.72656H4.94063C5.025 7.72656 5.09375 7.66094 5.09375 7.57969C5.09375 7.13906 5.49687 6.77344 6 6.77344C6.50313 6.77344 6.90625 7.13906 6.90625 7.57812C6.90625 7.97344 6.57812 8.31563 6.13594 8.37344C5.83438 8.41719 5.59688 8.69063 5.59375 9V9.5C5.59375 9.58594 5.66406 9.65625 5.75 9.65625H6.25C6.33594 9.65625 6.40625 9.58594 6.40625 9.5V9.30937C6.40625 9.21562 6.46875 9.12969 6.55781 9.10156C7.25469 8.87656 7.72969 8.25781 7.71875 7.55625C7.70625 6.68906 6.95 5.98125 6.02344 5.96875C5.06406 5.95781 4.28125 6.68125 4.28125 7.57812ZM5.5 10.625C5.5 10.7576 5.55268 10.8848 5.64645 10.9786C5.74021 11.0723 5.86739 11.125 6 11.125C6.13261 11.125 6.25979 11.0723 6.35355 10.9786C6.44732 10.8848 6.5 10.7576 6.5 10.625C6.5 10.4924 6.44732 10.3652 6.35355 10.2714C6.25979 10.1777 6.13261 10.125 6 10.125C5.86739 10.125 5.74021 10.1777 5.64645 10.2714C5.55268 10.3652 5.5 10.4924 5.5 10.625Z" fill="#DBDBDB"/>
</svg>
