<svg width="185" height="123" viewBox="0 0 185 123" fill="none" xmlns="http://www.w3.org/2000/svg">
<path d="M110.907 90.5878C130.258 90.5878 145.945 74.9926 145.945 55.7549C145.945 36.5171 130.258 20.9219 110.907 20.9219C91.5562 20.9219 75.8694 36.5171 75.8694 55.7549C75.8694 74.9926 91.5562 90.5878 110.907 90.5878Z" fill="url(#paint0_linear_1828_17145)"/>
<path d="M123.076 50.405C123.076 34.0847 109.765 20.8477 93.3538 20.8477C76.9423 20.8477 63.5639 34.1854 63.6311 50.5056C63.6648 58.6154 66.9675 65.9544 72.2918 71.2828C76.4368 75.4383 79.5035 80.5322 81.0199 86.1955L83.4125 95.0093H102.891L105.148 86.6648C106.732 80.9008 109.866 75.6729 114.146 71.4839C119.673 66.0885 123.076 58.6488 123.076 50.405Z" fill="#7984F4"/>
<path d="M93.2202 105.597C87.8854 105.597 83.5486 101.283 83.5486 95.9808V94.1055H102.892V95.9808C102.892 101.315 98.556 105.597 93.2202 105.597Z" fill="white" stroke="#DBDBDB" stroke-width="3"/>
<path d="M101.458 99.0629H84.8284C84.4723 99.0629 84.1982 98.7851 84.1982 98.424C84.1982 98.063 84.4723 97.7852 84.8284 97.7852H101.458C101.815 97.7852 102.088 98.063 102.088 98.424C102.088 98.7572 101.787 99.0629 101.458 99.0629ZM101.568 101.785H84.9382C84.5821 101.785 84.3082 101.507 84.3082 101.146C84.3082 100.785 84.5821 100.507 84.9382 100.507H101.568C101.924 100.507 102.198 100.785 102.198 101.146C102.198 101.479 101.924 101.785 101.568 101.785Z" fill="#E1E4E5"/>
<path d="M116.773 49.0599C115.989 49.0599 115.356 48.4219 115.356 47.6316C115.356 38.7814 109.421 31.09 100.925 28.9184C100.17 28.7253 99.7053 27.9467 99.9026 27.1858C100.094 26.4191 100.867 25.9566 101.622 26.1556C111.378 28.6433 118.19 37.4761 118.19 47.6316C118.19 48.4219 117.557 49.0599 116.773 49.0599ZM97.15 28.2979C97.9326 28.2979 98.5669 27.6583 98.5669 26.8696C98.5669 26.0808 97.9326 25.4414 97.15 25.4414C96.3673 25.4414 95.7329 26.0808 95.7329 26.8696C95.7329 27.6583 96.3673 28.2979 97.15 28.2979Z" fill="white"/>
<path d="M50.5276 67.0723H63.9697C64.2131 67.0723 64.4104 67.269 64.4104 67.5118C64.4104 67.7545 64.2131 67.9513 63.9697 67.9513H50.5276C50.2842 67.9513 50.0869 67.7545 50.0869 67.5118C50.0869 67.269 50.2842 67.0723 50.5276 67.0723Z" fill="#E1E4E5"/>
<path d="M45.4591 52.1289H58.6809C58.9243 52.1289 59.1216 52.3257 59.1216 52.5684C59.1216 52.8112 58.9243 53.008 58.6809 53.008H45.4591C45.2157 53.008 45.0184 52.8112 45.0184 52.5684C45.0184 52.3257 45.2157 52.1289 45.4591 52.1289Z" fill="#E1E4E5"/>
<path d="M56.9182 75.4238H70.3603C70.6037 75.4238 70.801 75.227 70.801 74.9843C70.801 74.7416 70.6037 74.5448 70.3603 74.5448H56.9182C56.6748 74.5448 56.4775 74.7416 56.4775 74.9843C56.4775 75.227 56.6748 75.4238 56.9182 75.4238Z" fill="#E1E4E5"/>
<path d="M51.4091 44.6562H59.1218C59.3652 44.6562 59.5625 44.853 59.5625 45.0958C59.5625 45.3385 59.3652 45.5353 59.1218 45.5353H51.4091C51.1657 45.5353 50.9684 45.3385 50.9684 45.0958C50.9684 44.853 51.1657 44.6562 51.4091 44.6562Z" fill="#E1E4E5"/>
<path d="M67.275 82.8965H74.7673C75.0107 82.8965 75.208 82.6997 75.208 82.457C75.208 82.2142 75.0107 82.0174 74.7673 82.0174H67.275C67.0316 82.0174 66.8343 82.2142 66.8343 82.457C66.8343 82.6997 67.0316 82.8965 67.275 82.8965Z" fill="#E1E4E5"/>
<path d="M54.0533 37.1836H61.5456C61.789 37.1836 61.9863 37.3804 61.9863 37.6231C61.9863 37.8659 61.789 38.0626 61.5456 38.0626H54.0533C53.8099 38.0626 53.6126 37.8659 53.6126 37.6231C53.6126 37.3804 53.8099 37.1836 54.0533 37.1836Z" fill="#E1E4E5"/>
<path d="M59.1217 29.7129H66.614C66.8574 29.7129 67.0547 29.9097 67.0547 30.1524C67.0547 30.3952 66.8574 30.5919 66.614 30.5919H59.1217C58.8783 30.5919 58.681 30.3952 58.681 30.1524C58.681 29.9097 58.8783 29.7129 59.1217 29.7129Z" fill="#E1E4E5"/>
<path d="M69.9195 22.2402H77.4118C77.6552 22.2402 77.8525 22.437 77.8525 22.6798C77.8525 22.9225 77.6552 23.1193 77.4118 23.1193H69.9195C69.6761 23.1193 69.4788 22.9225 69.4788 22.6798C69.4788 22.437 69.6761 22.2402 69.9195 22.2402Z" fill="#E1E4E5"/>
<path d="M42.3739 59.6016H60.2234C60.4667 59.6016 60.6641 59.7983 60.6641 60.0411C60.6641 60.2838 60.4667 60.4806 60.2234 60.4806H42.3739C42.1305 60.4806 41.9332 60.2838 41.9332 60.0411C41.9332 59.7983 42.1305 59.6016 42.3739 59.6016Z" fill="#E1E4E5"/>
<path d="M104.451 44.5577C103.833 43.21 102.954 41.9988 101.832 40.9638C99.5537 38.8541 96.5286 37.6914 93.3224 37.6914C90.1162 37.6914 87.0911 38.8541 84.8123 40.9594C83.6906 41.9988 82.8118 43.2056 82.1935 44.5577C81.5487 45.9671 81.2219 47.4601 81.2219 49.0016V50.1908C81.2219 50.4639 81.4427 50.6841 81.7165 50.6841H84.1013C84.3751 50.6841 84.5959 50.4639 84.5959 50.1908V49.0016C84.5959 44.6194 88.5087 41.0563 93.3224 41.0563C98.1361 41.0563 102.049 44.6194 102.049 49.0016C102.049 50.7986 101.409 52.4898 100.194 53.8992C98.9928 55.2954 97.297 56.2952 95.4201 56.718C94.347 56.9602 93.3798 57.5636 92.6953 58.4268C92.0132 59.2871 91.6414 60.3514 91.6398 61.4482V62.8311C91.6398 63.1042 91.8606 63.3244 92.1344 63.3244H94.5192C94.793 63.3244 95.0138 63.1042 95.0138 62.8311V61.4482C95.0138 60.7567 95.4952 60.1489 96.162 59.9992C98.7411 59.4178 101.082 58.0304 102.755 56.0926C103.599 55.1104 104.257 54.0181 104.712 52.8334C105.184 51.6046 105.423 50.3141 105.423 49.0016C105.423 47.4601 105.096 45.9627 104.451 44.5577ZM93.3224 66.8479C91.9578 66.8479 90.8493 67.9533 90.8493 69.3143C90.8493 70.6752 91.9578 71.7807 93.3224 71.7807C94.687 71.7807 95.7955 70.6752 95.7955 69.3143C95.7955 67.9533 94.687 66.8479 93.3224 66.8479Z" fill="white"/>
<defs>
<linearGradient id="paint0_linear_1828_17145" x1="112.401" y1="129.647" x2="110.265" y2="-54.8635" gradientUnits="userSpaceOnUse">
<stop stop-color="white"/>
<stop offset="1" stop-color="#EEEEEE"/>
</linearGradient>
</defs>
</svg>
