<svg width="12" height="12" viewBox="0 0 12 12" fill="none" xmlns="http://www.w3.org/2000/svg">
<g clip-path="url(#clip0_1652_2404)">
<path d="M8.03219 4.15747C8.03219 4.10591 7.99 4.06372 7.93844 4.06372L7.165 4.06724L6.00016 5.45591L4.8365 4.06841L4.06189 4.06489C4.01033 4.06489 3.96814 4.10591 3.96814 4.15864C3.96814 4.18091 3.97634 4.202 3.99041 4.21958L5.51501 6.03599L3.99041 7.85122C3.97624 7.8684 3.96839 7.8899 3.96814 7.91216C3.96814 7.96372 4.01033 8.00591 4.06189 8.00591L4.8365 8.00239L6.00016 6.61372L7.16383 8.00122L7.93727 8.00474C7.98883 8.00474 8.03102 7.96372 8.03102 7.91099C8.03102 7.88872 8.02281 7.86763 8.00875 7.85005L6.48649 6.03481L8.01109 4.21841C8.02516 4.202 8.03219 4.17974 8.03219 4.15747Z" fill="#94A3B8"/>
<path d="M6 0.761719C3.10078 0.761719 0.75 3.1125 0.75 6.01172C0.75 8.91094 3.10078 11.2617 6 11.2617C8.89922 11.2617 11.25 8.91094 11.25 6.01172C11.25 3.1125 8.89922 0.761719 6 0.761719ZM6 10.3711C3.59297 10.3711 1.64062 8.41875 1.64062 6.01172C1.64062 3.60469 3.59297 1.65234 6 1.65234C8.40703 1.65234 10.3594 3.60469 10.3594 6.01172C10.3594 8.41875 8.40703 10.3711 6 10.3711Z" fill="#94A3B8"/>
</g>
<defs>
<clipPath id="clip0_1652_2404">
<rect width="12" height="12" fill="white"/>
</clipPath>
</defs>
</svg>
