<svg width="201" height="182" viewBox="0 0 201 182" fill="none" xmlns="http://www.w3.org/2000/svg">
<circle cx="100" cy="91" r="90.9091" fill="#1E293B"/>
<path d="M179.107 151.648H20.8532C16.1744 151.648 12.3798 147.854 12.3798 143.175V44.0184C12.3798 39.3395 16.1744 35.545 20.8532 35.545H179.107C183.786 35.545 187.58 39.3395 187.58 44.0184V143.175C187.58 147.854 183.786 151.648 179.107 151.648Z" fill="white" stroke="#E2E8F0" stroke-width="2"/>
<path d="M187.58 44.0184C187.58 44.7273 187.299 45.4071 186.797 45.9083C186.296 46.4095 185.616 46.6911 184.907 46.6911H15.0529C14.344 46.6911 13.6642 46.4095 13.1629 45.9083C12.6616 45.4071 12.3799 44.7273 12.3798 44.0184C12.3798 39.3395 16.1744 35.545 20.8532 35.545H179.107C183.786 35.545 187.58 39.3395 187.58 44.0184Z" fill="white" stroke="#E2E8F0" stroke-width="2"/>
<path d="M20.8701 43.475C21.1293 43.4783 21.3865 43.4301 21.6269 43.3333C21.8672 43.2364 22.086 43.0927 22.2704 42.9107C22.4548 42.7286 22.6012 42.5117 22.7012 42.2726C22.8011 42.0335 22.8526 41.7769 22.8526 41.5178C22.8526 41.2586 22.8011 41.0021 22.7012 40.7629C22.6012 40.5238 22.4548 40.307 22.2704 40.1249C22.086 39.9428 21.8672 39.7992 21.6269 39.7023C21.3865 39.6054 21.1293 39.5573 20.8701 39.5606C20.3554 39.5672 19.864 39.7763 19.5023 40.1426C19.1406 40.5089 18.9378 41.003 18.9378 41.5178C18.9378 42.0326 19.1406 42.5266 19.5023 42.893C19.864 43.2593 20.3554 43.4684 20.8701 43.475ZM29.0256 43.475C29.2847 43.4783 29.5419 43.4301 29.7823 43.3333C30.0227 43.2364 30.2414 43.0927 30.4258 42.9107C30.6102 42.7286 30.7567 42.5117 30.8566 42.2726C30.9565 42.0335 31.008 41.7769 31.008 41.5178C31.008 41.2586 30.9565 41.0021 30.8566 40.7629C30.7567 40.5238 30.6102 40.307 30.4258 40.1249C30.2414 39.9428 30.0227 39.7992 29.7823 39.7023C29.5419 39.6054 29.2847 39.5573 29.0256 39.5606C28.5108 39.5672 28.0194 39.7763 27.6577 40.1426C27.2961 40.5089 27.0933 41.003 27.0933 41.5178C27.0933 42.0326 27.2961 42.5266 27.6577 42.893C28.0194 43.2593 28.5108 43.4684 29.0256 43.475ZM36.8551 43.475C37.1142 43.4783 37.3714 43.4301 37.6118 43.3333C37.8522 43.2364 38.0709 43.0927 38.2553 42.9107C38.4397 42.7286 38.5862 42.5117 38.6861 42.2726C38.786 42.0335 38.8375 41.7769 38.8375 41.5178C38.8375 41.2586 38.786 41.0021 38.6861 40.7629C38.5862 40.5238 38.4397 40.307 38.2553 40.1249C38.0709 39.9428 37.8522 39.7992 37.6118 39.7023C37.3714 39.6054 37.1142 39.5573 36.8551 39.5606C36.3403 39.5672 35.8489 39.7763 35.4872 40.1426C35.1256 40.5089 34.9228 41.003 34.9228 41.5178C34.9228 42.0326 35.1256 42.5266 35.4872 42.893C35.8489 43.2593 36.3403 43.4684 36.8551 43.475Z" fill="#E1E4E5"/>
<path d="M70.1061 62.3604H3.52981C1.58035 62.3604 0 63.9408 0 65.8903V87.0697C0 89.0192 1.58035 90.5995 3.52981 90.5995H70.1061C72.0555 90.5995 73.6359 89.0192 73.6359 87.0697V65.8903C73.6359 63.9408 72.0555 62.3604 70.1061 62.3604Z" fill="#818CF8"/>
<path d="M64.4029 71.0323H22.8279C21.9122 71.0323 21.1699 71.7746 21.1699 72.6902C21.1699 73.6058 21.9122 74.348 22.8279 74.348H64.4029C65.3186 74.348 66.0609 73.6058 66.0609 72.6902C66.0609 71.7746 65.3186 71.0323 64.4029 71.0323Z" fill="white"/>
<path d="M48.5891 78.4308H22.8279C21.9122 78.4308 21.1699 79.173 21.1699 80.0886C21.1699 81.0042 21.9122 81.7465 22.8279 81.7465H48.5891C49.5048 81.7465 50.2472 81.0042 50.2472 80.0886C50.2472 79.173 49.5048 78.4308 48.5891 78.4308Z" fill="white"/>
<path d="M11.9878 81.7451C14.946 81.7451 17.3442 79.347 17.3442 76.3887C17.3442 73.4305 14.946 71.0323 11.9878 71.0323C9.02949 71.0323 6.63135 73.4305 6.63135 76.3887C6.63135 79.347 9.02949 81.7451 11.9878 81.7451Z" fill="white"/>
<path d="M127.03 94.4073H112.713C112.241 94.4073 111.859 94.7898 111.859 95.2617V108.516C111.859 108.987 112.241 109.37 112.713 109.37H127.03C127.502 109.37 127.885 108.987 127.885 108.516V95.2617C127.885 94.7898 127.502 94.4073 127.03 94.4073Z" fill="#818CF8"/>
<path d="M169.762 136.657H132.383C131.56 136.657 130.893 137.325 130.893 138.148C130.893 138.971 131.56 139.638 132.383 139.638H169.762C170.586 139.638 171.253 138.971 171.253 138.148C171.253 137.325 170.586 136.657 169.762 136.657Z" fill="white"/>
<path d="M130.775 106.061V129.03C130.775 129.869 131.455 130.55 132.295 130.55H132.295C133.134 130.55 133.815 129.869 133.815 129.03V106.061C133.815 105.221 133.134 104.541 132.295 104.541H132.295C131.455 104.541 130.775 105.221 130.775 106.061Z" fill="white"/>
<path d="M143.948 106.061V129.03C143.948 129.869 144.628 130.55 145.468 130.55H145.468C146.308 130.55 146.988 129.869 146.988 129.03V106.061C146.988 105.221 146.308 104.541 145.468 104.541H145.468C144.628 104.541 143.948 105.221 143.948 106.061Z" fill="white"/>
<path d="M157.121 106.061V129.03C157.121 129.869 157.802 130.55 158.641 130.55H158.642C159.481 130.55 160.161 129.869 160.161 129.03V106.061C160.161 105.221 159.481 104.541 158.642 104.541H158.641C157.802 104.541 157.121 105.221 157.121 106.061Z" fill="white"/>
<path d="M155.545 143.309H132.383C131.56 143.309 130.893 143.976 130.893 144.799C130.893 145.622 131.56 146.29 132.383 146.29H155.545C156.368 146.29 157.035 145.622 157.035 144.799C157.035 143.976 156.368 143.309 155.545 143.309Z" fill="white"/>
<path d="M137.53 115.012V129.199C137.53 129.945 138.135 130.55 138.881 130.55H138.881C139.627 130.55 140.232 129.945 140.232 129.199V115.012C140.232 114.266 139.627 113.661 138.881 113.661H138.881C138.135 113.661 137.53 114.266 137.53 115.012Z" fill="white"/>
<path d="M150.704 115.012V129.199C150.704 129.945 151.308 130.55 152.054 130.55H152.055C152.801 130.55 153.406 129.945 153.406 129.199V115.012C153.406 114.266 152.801 113.661 152.055 113.661H152.054C151.308 113.661 150.704 114.266 150.704 115.012Z" fill="white"/>
<path d="M163.877 115.012V129.199C163.877 129.945 164.482 130.55 165.228 130.55H165.228C165.974 130.55 166.579 129.945 166.579 129.199V115.012C166.579 114.266 165.974 113.661 165.228 113.661H165.228C164.482 113.661 163.877 114.266 163.877 115.012Z" fill="white"/>
<path d="M122.637 146.289C125.297 146.289 127.453 144.133 127.453 141.473C127.453 138.813 125.297 136.657 122.637 136.657C119.977 136.657 117.821 138.813 117.821 141.473C117.821 144.133 119.977 146.289 122.637 146.289Z" fill="white"/>
<path d="M194.231 43.1466H131.389C128.203 43.1466 125.62 45.7296 125.62 48.9159V65.1117C125.62 68.2979 128.203 70.8809 131.389 70.8809H194.231C197.417 70.8809 200 68.2979 200 65.1117V48.9159C200 45.7296 197.417 43.1466 194.231 43.1466Z" fill="white" stroke="#E2E8F0" stroke-width="2"/>
<path d="M191.154 51.4163H148.435C147.494 51.4163 146.731 52.179 146.731 53.1199C146.731 54.0607 147.494 54.8234 148.435 54.8234H191.154C192.095 54.8234 192.858 54.0607 192.858 53.1199C192.858 52.179 192.095 51.4163 191.154 51.4163Z" fill="#E2E8F0"/>
<path d="M174.905 59.0166H148.435C147.494 59.0166 146.731 59.7793 146.731 60.7202C146.731 61.661 147.494 62.4237 148.435 62.4237H174.905C175.846 62.4237 176.609 61.661 176.609 60.7202C176.609 59.7793 175.846 59.0166 174.905 59.0166Z" fill="#E2E8F0"/>
<path fill-rule="evenodd" clip-rule="evenodd" d="M136.97 64.3278C132.959 64.3278 129.707 61.03 129.707 56.963C129.707 52.896 132.959 49.5986 136.97 49.5986C140.98 49.5986 144.232 52.896 144.232 56.963C144.232 61.03 140.98 64.3278 136.97 64.3278Z" fill="#94D89C"/>
<path d="M139.527 55.7354L136.459 59.0085L134.617 57.045" stroke="white" stroke-width="3.568" stroke-linecap="round" stroke-linejoin="round"/>
<path d="M54.6599 125.456H37.0541M29.1663 102.53L25.5641 106.129L23.8141 104.384L29.1663 102.53ZM36.9711 100.808H47.6173H36.9711ZM37.0541 106.089H54.6599H37.0541ZM29.1663 114.854L25.5641 118.453L23.8141 116.708L29.1663 114.854ZM36.9711 113.132H47.6173H36.9711ZM37.0541 118.414H54.6599H37.0541ZM54.6599 130.738H36.9711H54.6599Z" stroke="#E2E8F0" stroke-width="3" stroke-linecap="round" stroke-linejoin="round"/>
<path d="M26.4901 133.999C29.2633 133.999 31.5116 131.751 31.5116 128.978C31.5116 126.205 29.2632 123.957 26.4901 123.957C23.7172 123.957 21.469 126.205 21.469 128.978C21.469 131.751 23.7171 133.999 26.4901 133.999Z" stroke="#E2E8F0" stroke-width="3" stroke-linecap="round" stroke-linejoin="round"/>
<path d="M82.5712 100.808H93.2177M82.6542 106.089H100.26M82.5712 113.132H93.2177M82.6542 118.414H100.26M100.26 130.738H82.5712M100.26 125.456H82.6542M74.7667 102.53L71.1644 106.129L69.4145 104.384L74.7667 102.53ZM74.7667 114.854L71.1644 118.453L69.4145 116.708L74.7667 114.854Z" stroke="#E2E8F0" stroke-width="3" stroke-linecap="round" stroke-linejoin="round"/>
<path d="M72.0904 133.999C74.8638 133.999 77.1115 131.751 77.1115 128.978C77.1115 126.205 74.8637 123.957 72.0904 123.957C69.3175 123.957 67.0692 126.205 67.0692 128.978C67.0692 131.751 69.3174 133.999 72.0904 133.999Z" stroke="#E2E8F0" stroke-width="3" stroke-linecap="round" stroke-linejoin="round"/>
<path fill-rule="evenodd" clip-rule="evenodd" d="M120.429 73.7997H119.734C119.653 73.7996 119.576 73.7676 119.519 73.7107C119.462 73.6538 119.43 73.5766 119.43 73.4961V72.8003C119.43 72.632 119.567 72.4968 119.734 72.4968H120.429C120.51 72.497 120.587 72.5291 120.644 72.586C120.701 72.6428 120.733 72.7199 120.733 72.8003V73.4961C120.733 73.536 120.725 73.5756 120.71 73.6124C120.695 73.6493 120.673 73.6828 120.644 73.711C120.616 73.7393 120.583 73.7616 120.546 73.7768C120.509 73.792 120.469 73.7998 120.429 73.7997ZM118.017 73.7997H117.321C117.241 73.7994 117.164 73.7673 117.107 73.7105C117.05 73.6536 117.018 73.5766 117.018 73.4961V72.8003C117.018 72.632 117.155 72.4968 117.321 72.4968H118.017C118.098 72.497 118.175 72.5291 118.232 72.586C118.288 72.6428 118.32 72.7199 118.321 72.8003V73.4961C118.32 73.5766 118.288 73.6536 118.232 73.7105C118.175 73.7673 118.098 73.7994 118.017 73.7997ZM115.603 73.7997H114.908C114.827 73.7994 114.75 73.7674 114.693 73.7105C114.637 73.6536 114.604 73.5766 114.604 73.4961V72.8003C114.604 72.632 114.741 72.4968 114.908 72.4968H115.603C115.77 72.4968 115.907 72.6336 115.907 72.8003V73.4961C115.907 73.536 115.899 73.5756 115.884 73.6124C115.869 73.6493 115.847 73.6828 115.818 73.711C115.79 73.7392 115.757 73.7615 115.72 73.7767C115.683 73.792 115.643 73.7997 115.603 73.7997ZM113.191 73.7997H112.496C112.415 73.7994 112.338 73.7674 112.281 73.7105C112.224 73.6536 112.192 73.5766 112.192 73.4961V72.8003C112.192 72.632 112.329 72.4968 112.496 72.4968H113.191C113.36 72.4968 113.496 72.6336 113.496 72.8003V73.4961C113.496 73.5767 113.463 73.6536 113.406 73.7104C113.349 73.7672 113.272 73.7992 113.191 73.7997ZM110.779 73.7997H110.083C110.003 73.7997 109.925 73.7677 109.868 73.7109C109.811 73.654 109.779 73.5768 109.778 73.4961V72.8003C109.778 72.632 109.915 72.4968 110.083 72.4968H110.779C110.859 72.497 110.937 72.5291 110.993 72.586C111.05 72.6428 111.082 72.7199 111.083 72.8003V73.4961C111.082 73.5766 111.05 73.6536 110.993 73.7105C110.937 73.7673 110.859 73.7994 110.779 73.7997ZM117.929 71.1692H117.233C117.153 71.169 117.076 71.1369 117.019 71.0801C116.962 71.0232 116.93 70.9461 116.929 70.8657V70.1686C116.929 70.0016 117.066 69.8647 117.233 69.8647H117.929C118.097 69.8647 118.233 70.0016 118.233 70.1686V70.8641C118.233 70.9041 118.225 70.9438 118.21 70.9808C118.195 71.0178 118.172 71.0515 118.144 71.0799C118.116 71.1082 118.082 71.1307 118.045 71.146C118.008 71.1614 117.969 71.1693 117.929 71.1692ZM115.517 71.1692H114.821C114.74 71.169 114.663 71.1369 114.606 71.08C114.55 71.0232 114.517 70.9461 114.517 70.8657V70.1686C114.517 70.0016 114.654 69.8647 114.821 69.8647H115.517C115.684 69.8647 115.82 70.0016 115.82 70.1686V70.8641C115.821 70.9041 115.813 70.9438 115.798 70.9808C115.783 71.0178 115.76 71.0515 115.732 71.0799C115.704 71.1082 115.67 71.1307 115.633 71.146C115.596 71.1614 115.557 71.1693 115.517 71.1692ZM113.104 71.1692H112.409C112.328 71.1692 112.251 71.1373 112.193 71.0804C112.136 71.0235 112.104 70.9463 112.103 70.8657V70.1686C112.103 70.0016 112.24 69.8647 112.409 69.8647H113.104C113.271 69.8647 113.408 70.0016 113.408 70.1686V70.8641C113.408 70.9447 113.376 71.0221 113.319 71.0793C113.262 71.1365 113.185 71.1688 113.104 71.1692ZM115.603 76.6256H114.908C114.827 76.6254 114.75 76.5933 114.693 76.5364C114.636 76.4794 114.604 76.4023 114.604 76.3218V75.6263C114.604 75.458 114.741 75.3224 114.908 75.3224H115.603C115.77 75.3224 115.907 75.4593 115.907 75.6263V76.3218C115.907 76.3617 115.9 76.4012 115.884 76.4382C115.869 76.4751 115.847 76.5086 115.818 76.5368C115.79 76.565 115.757 76.5874 115.72 76.6027C115.683 76.6179 115.643 76.6257 115.603 76.6256ZM113.191 76.6256H112.496C112.415 76.6254 112.338 76.5933 112.281 76.5364C112.224 76.4794 112.192 76.4023 112.192 76.3218V75.6263C112.192 75.458 112.329 75.3224 112.496 75.3224H113.191C113.36 75.3224 113.496 75.4593 113.496 75.6263V76.3218C113.496 76.4024 113.463 76.4794 113.406 76.5362C113.349 76.5931 113.272 76.6252 113.191 76.6256ZM108.269 62.9907H107.574C107.493 62.9906 107.416 62.9586 107.359 62.9017C107.302 62.8448 107.27 62.7676 107.27 62.6872V61.9913C107.27 61.8231 107.407 61.6878 107.574 61.6878H108.269C108.35 61.6881 108.427 61.7201 108.484 61.777C108.541 61.8339 108.573 61.9109 108.573 61.9913V62.6872C108.573 62.7271 108.565 62.7666 108.55 62.8035C108.535 62.8404 108.513 62.8739 108.484 62.9021C108.456 62.9303 108.423 62.9526 108.386 62.9678C108.349 62.9831 108.309 62.9908 108.269 62.9907ZM105.857 62.9907H105.161C105.081 62.9904 105.004 62.9583 104.947 62.9014C104.89 62.8446 104.858 62.7676 104.858 62.6872V61.9913C104.858 61.8231 104.995 61.6878 105.161 61.6878H105.857C105.938 61.6881 106.015 61.7201 106.072 61.777C106.128 61.8339 106.161 61.9109 106.161 61.9913V62.6872C106.161 62.7676 106.128 62.8446 106.072 62.9015C106.015 62.9584 105.938 62.9904 105.857 62.9907ZM103.443 62.9907H102.748C102.667 62.9904 102.59 62.9584 102.533 62.9015C102.476 62.8446 102.444 62.7676 102.444 62.6872V61.9913C102.444 61.8231 102.581 61.6878 102.748 61.6878H103.443C103.61 61.6878 103.747 61.8247 103.747 61.9913V62.6872C103.747 62.7271 103.74 62.7666 103.724 62.8034C103.709 62.8403 103.687 62.8738 103.658 62.902C103.63 62.9302 103.597 62.9525 103.56 62.9678C103.523 62.983 103.483 62.9908 103.443 62.9907ZM101.031 62.9907H100.335C100.255 62.9904 100.178 62.9584 100.121 62.9015C100.064 62.8446 100.032 62.7676 100.032 62.6872V61.9913C100.032 61.8231 100.169 61.6878 100.335 61.6878H101.031C101.2 61.6878 101.336 61.8247 101.336 61.9913V62.6872C101.336 62.7677 101.303 62.8446 101.246 62.9013C101.189 62.9581 101.112 62.9902 101.031 62.9907ZM98.6191 62.9907H97.9233C97.8426 62.9907 97.7653 62.9588 97.7081 62.9019C97.6509 62.845 97.6186 62.7678 97.6182 62.6872V61.9913C97.6182 61.8231 97.755 61.6878 97.9233 61.6878H98.6191C98.6995 61.6881 98.7766 61.7201 98.8335 61.777C98.8903 61.8339 98.9224 61.9109 98.9227 61.9913V62.6872C98.9224 62.7676 98.8903 62.8446 98.8335 62.9015C98.7766 62.9584 98.6995 62.9904 98.6191 62.9907ZM105.769 60.3602H105.073C104.993 60.36 104.915 60.3279 104.859 60.2711C104.802 60.2142 104.77 60.1371 104.769 60.0567V59.3596C104.769 59.1926 104.906 59.0558 105.073 59.0558H105.769C105.937 59.0558 106.072 59.1926 106.072 59.3596V60.0551C106.073 60.0951 106.065 60.1348 106.05 60.1718C106.035 60.2088 106.012 60.2425 105.984 60.2709C105.956 60.2992 105.922 60.3217 105.885 60.3371C105.848 60.3524 105.809 60.3603 105.769 60.3602ZM103.357 60.3602H102.661C102.58 60.36 102.503 60.3279 102.446 60.2711C102.39 60.2142 102.358 60.1371 102.357 60.0567V59.3596C102.357 59.1926 102.494 59.0558 102.661 59.0558H103.357C103.523 59.0558 103.66 59.1926 103.66 59.3596V60.0551C103.66 60.0951 103.653 60.1348 103.638 60.1718C103.622 60.2088 103.6 60.2425 103.572 60.2709C103.544 60.2992 103.51 60.3217 103.473 60.3371C103.436 60.3524 103.397 60.3603 103.357 60.3602ZM100.944 60.3602H100.249C100.168 60.3602 100.091 60.3283 100.033 60.2714C99.9762 60.2146 99.9439 60.1374 99.9435 60.0567V59.3596C99.9435 59.1926 100.08 59.0558 100.249 59.0558H100.944C101.111 59.0558 101.248 59.1926 101.248 59.3596V60.0551C101.248 60.1358 101.216 60.2131 101.159 60.2703C101.102 60.3275 101.025 60.3598 100.944 60.3602ZM103.443 65.8167H102.748C102.667 65.8162 102.59 65.7841 102.533 65.7272C102.477 65.6703 102.444 65.5932 102.444 65.5128V64.817C102.444 64.649 102.581 64.5134 102.748 64.5134H103.443C103.61 64.5134 103.747 64.6503 103.747 64.817V65.5128C103.747 65.5527 103.74 65.5922 103.724 65.6291C103.709 65.666 103.687 65.6995 103.658 65.7278C103.63 65.756 103.597 65.7784 103.56 65.7936C103.523 65.8089 103.483 65.8167 103.443 65.8167ZM101.031 65.8167H100.335C100.255 65.8162 100.178 65.7841 100.121 65.7272C100.064 65.6703 100.032 65.5932 100.032 65.5128V64.817C100.032 64.649 100.169 64.5134 100.335 64.5134H101.031C101.2 64.5134 101.336 64.6503 101.336 64.817V65.5128C101.335 65.5933 101.303 65.6702 101.246 65.727C101.189 65.7838 101.112 65.816 101.031 65.8167Z" fill="#E2E8F0"/>
<path d="M80.7723 80.3804C81.9155 84.6471 86.3012 87.1791 90.5679 86.0359C94.8346 84.8926 97.3666 80.507 96.2234 76.2403C95.0801 71.9736 90.6945 69.4415 86.4278 70.5848C82.1611 71.7281 79.629 76.1137 80.7723 80.3804Z" fill="url(#paint0_linear_5_6117)"/>
<path d="M82.9799 79.7879C83.7965 82.8355 86.929 84.6441 89.9766 83.8275C93.0242 83.0109 94.8328 79.8783 94.0162 76.8308C93.1996 73.7832 90.067 71.9746 87.0194 72.7912C83.9718 73.6078 82.1633 76.7403 82.9799 79.7879Z" fill="white"/>
<path d="M90.568 86.0353C89.2976 86.3757 87.9628 86.3975 86.6818 86.0988C85.4009 85.8001 84.2134 85.1902 83.2246 84.323C82.2357 83.4557 81.476 82.358 81.0126 81.127C80.5493 79.8961 80.3968 78.5698 80.5684 77.2658C80.7401 75.9618 81.2307 74.7202 81.9968 73.6511C82.7629 72.582 83.7808 71.7183 84.9605 71.1365C86.1401 70.5548 87.445 70.2729 88.7595 70.3159C90.0741 70.3589 91.3578 70.7254 92.4969 71.383L91.2972 73.4612C90.5 73.0006 89.6014 72.7438 88.6812 72.7137C87.761 72.6835 86.8475 72.881 86.0219 73.2885C85.196 73.6955 84.4832 74.3 83.9468 75.0484C83.4104 75.7968 83.0668 76.6659 82.9466 77.5788C82.8264 78.4917 82.9333 79.4201 83.2577 80.2818C83.5821 81.1436 84.1141 81.912 84.8065 82.5189C85.4988 83.1258 86.33 83.5527 87.2266 83.7618C88.1232 83.9708 89.0575 83.9557 89.9469 83.7176L90.568 86.0353Z" fill="#94D89C"/>
<defs>
<linearGradient id="paint0_linear_5_6117" x1="72.1979" y1="83.0313" x2="112.992" y2="71.5898" gradientUnits="userSpaceOnUse">
<stop stop-color="white"/>
<stop offset="1" stop-color="#EEEEEE"/>
</linearGradient>
</defs>
</svg>
