<svg width="32" height="32" viewBox="0 0 32 32" fill="none" xmlns="http://www.w3.org/2000/svg">
  <g clip-path="url(#clip0_955_12608)">
    <path
      d="M26.4973 5.58396L16.1567 2.06C16.0319 2.0174 15.8645 1.99609 15.6971 1.99609C15.5298 1.99609 15.3624 2.0174 15.2376 2.06L4.89702 5.58396C4.64443 5.66917 4.4375 5.96132 4.4375 6.22911V20.9093C4.4375 21.1771 4.61096 21.5301 4.82094 21.6974L15.3107 29.8713C15.4172 29.9535 15.5541 29.9961 15.6941 29.9961C15.8341 29.9961 15.9741 29.9535 16.0775 29.8713L26.5673 21.6974C26.7772 21.5331 26.9507 21.1801 26.9507 20.9093V6.22911C26.9568 5.96132 26.7499 5.67222 26.4973 5.58396ZM24.7657 20.325L15.6971 27.3912L6.62857 20.325V7.31247L15.6971 4.22063L24.7657 7.31247V20.325Z"
    />
    <path
      d="M15.3352 12.5432C15.0059 12.5432 14.6975 12.6815 14.4641 12.9342C14.2317 13.1869 14.1028 13.5207 14.1028 13.8772C14.1028 14.2336 14.2317 14.5675 14.4641 14.8202C14.6975 15.0717 15.0059 15.2112 15.3352 15.2112C15.6645 15.2112 15.9729 15.0717 16.2064 14.8202C16.4387 14.5675 16.5676 14.2336 16.5676 13.8772C16.5676 13.5207 16.4387 13.1869 16.2064 12.9342C16.0923 12.8098 15.9566 12.7112 15.807 12.6441C15.6575 12.5769 15.4971 12.5426 15.3352 12.5432ZM19.876 15.3507L19.1557 14.6843C19.1899 14.4578 19.2075 14.2265 19.2075 13.9964C19.2075 13.7663 19.1899 13.5339 19.1557 13.3085L19.876 12.6421C19.9304 12.5917 19.9694 12.5245 19.9877 12.4496C20.006 12.3746 20.0027 12.2954 19.9784 12.2225L19.9685 12.1915C19.7703 11.5915 19.4733 11.0353 19.0919 10.5499L19.072 10.5249C19.0257 10.4659 18.964 10.4235 18.895 10.4033C18.826 10.3831 18.7529 10.386 18.6855 10.4116L17.7912 10.7561C17.4608 10.4629 17.0929 10.2316 16.6943 10.0706L16.5213 9.0585C16.5083 8.98225 16.4741 8.91211 16.4234 8.85738C16.3726 8.80266 16.3077 8.76594 16.2372 8.75212L16.2075 8.74616C15.6348 8.63409 15.0312 8.63409 14.4585 8.74616L14.4288 8.75212C14.3583 8.76594 14.2934 8.80266 14.2426 8.85738C14.1919 8.91211 14.1577 8.98225 14.1447 9.0585L13.9707 10.0754C13.5757 10.2376 13.2079 10.4684 12.8814 10.7585L11.9805 10.4116C11.9131 10.3858 11.84 10.3828 11.771 10.403C11.7019 10.4232 11.6402 10.4657 11.594 10.5249L11.5741 10.5499C11.1934 11.0358 10.8965 11.5918 10.6975 12.1915L10.6876 12.2225C10.638 12.3715 10.6788 12.5384 10.79 12.6421L11.5191 13.3157C11.4849 13.5398 11.4684 13.7687 11.4684 13.9952C11.4684 14.2241 11.4849 14.453 11.5191 14.6747L10.7922 15.3483C10.7378 15.3987 10.6988 15.4659 10.6806 15.5408C10.6623 15.6158 10.6655 15.695 10.6898 15.768L10.6997 15.7989C10.899 16.3986 11.1931 16.953 11.5764 17.4405L11.5962 17.4656C11.6425 17.5245 11.7042 17.5669 11.7732 17.5871C11.8422 17.6073 11.9153 17.6045 11.9827 17.5788L12.8836 17.2319C13.2118 17.524 13.5775 17.7553 13.9729 17.915L14.1469 18.9319C14.1599 19.0082 14.1941 19.0783 14.2448 19.1331C14.2956 19.1878 14.3605 19.2245 14.431 19.2383L14.4607 19.2443C15.0391 19.3569 15.6313 19.3569 16.2097 19.2443L16.2394 19.2383C16.3099 19.2245 16.3748 19.1878 16.4256 19.1331C16.4763 19.0783 16.5105 19.0082 16.5235 18.9319L16.6965 17.9198C17.0951 17.7577 17.463 17.5276 17.7934 17.2343L18.6877 17.5788C18.7551 17.6047 18.8282 17.6076 18.8973 17.5874C18.9663 17.5672 19.028 17.5247 19.0742 17.4656L19.0941 17.4405C19.4773 16.9506 19.7714 16.3986 19.9707 15.7989L19.9806 15.768C20.028 15.6201 19.9872 15.4544 19.876 15.3507ZM15.3352 15.973C14.2658 15.973 13.3991 15.0348 13.3991 13.8772C13.3991 12.7196 14.2658 11.7814 15.3352 11.7814C16.4046 11.7814 17.2714 12.7196 17.2714 13.8772C17.2714 15.0348 16.4046 15.973 15.3352 15.973Z"
    />
  </g>
  <defs>
    <clipPath id="clip0_955_12608">
      <rect width="32" height="32" fill="white" />
    </clipPath>
  </defs>
</svg>
