<svg width="24" height="25" viewBox="0 0 24 25" fill="none" xmlns="http://www.w3.org/2000/svg">
<g clip-path="url(#clip0_2114_74966)">
<path d="M12.0749 0.935706C11.7036 1.15674 11.0847 1.77565 10.3508 2.67307L11.0272 3.95067C11.5002 3.26987 11.9865 2.6598 12.4728 2.13815C12.5082 2.09837 12.5303 2.07626 12.5303 2.07626C12.5126 2.09837 12.4905 2.11605 12.4728 2.13815C12.3136 2.31056 11.8362 2.86758 11.1156 3.97719C11.8097 3.94182 12.8751 3.80036 13.746 3.65005C14.0068 2.20004 13.494 1.53693 13.494 1.53693C13.494 1.53693 12.8397 0.480368 12.0749 0.935706Z" fill="white"/>
<path d="M9.7982 11.6605C9.70979 11.6782 9.62137 11.6915 9.53296 11.7047C9.57717 11.7003 9.62579 11.6915 9.67 11.6826C9.71421 11.6782 9.75842 11.6694 9.7982 11.6605Z" fill="white"/>
<path opacity="0.35" d="M9.7982 11.6605C9.70979 11.6782 9.62137 11.6915 9.53296 11.7047C9.57717 11.7003 9.62579 11.6915 9.67 11.6826C9.71421 11.6782 9.75842 11.6694 9.7982 11.6605Z" fill="white"/>
<path d="M10.028 10.542C10.0236 10.542 10.0236 10.542 10.028 10.542C10.0412 10.542 10.0545 10.5376 10.0678 10.5376C10.1252 10.5288 10.1827 10.5199 10.2357 10.5067C10.1694 10.5199 10.0987 10.5288 10.028 10.542V10.542Z" fill="white"/>
<path opacity="0.35" d="M10.028 10.542C10.0236 10.542 10.0236 10.542 10.028 10.542C10.0412 10.542 10.0545 10.5376 10.0678 10.5376C10.1252 10.5288 10.1827 10.5199 10.2357 10.5067C10.1694 10.5199 10.0987 10.5288 10.028 10.542V10.542Z" fill="white"/>
<path d="M9.02914 7.24846C9.23691 6.86386 9.44469 6.48809 9.65246 6.12117C9.86908 5.74098 10.0901 5.37406 10.3156 5.01598C10.3288 4.99387 10.3421 4.97177 10.3554 4.95409C10.5764 4.60485 10.7974 4.26887 11.0229 3.94615L10.3465 2.67297C10.2979 2.73486 10.2448 2.79675 10.1918 2.86307C9.99728 3.10621 9.79393 3.36703 9.58615 3.64554C9.35185 3.95942 9.11313 4.29097 8.86557 4.64021C8.64011 4.96293 8.41023 5.30333 8.18035 5.65257C7.98584 5.95318 7.79132 6.25821 7.59681 6.57209C7.58797 6.58535 7.58355 6.59419 7.57471 6.60745L8.45444 8.34481C8.64895 7.97789 8.83904 7.61096 9.02914 7.24846V7.24846Z" fill="white"/>
<path d="M5.01933 17.0494C4.90439 17.3677 4.78503 17.6948 4.67009 18.0308C4.67009 18.0352 4.66567 18.0396 4.66567 18.0441C4.64799 18.0927 4.63031 18.1369 4.61704 18.1855C4.53747 18.411 4.47116 18.6143 4.31201 19.0741C4.57284 19.1935 4.78061 19.5029 4.97513 19.8566C4.95302 19.4897 4.80272 19.1448 4.51537 18.8796C5.79297 18.9371 6.89816 18.6143 7.46401 17.6771C7.51264 17.5931 7.56127 17.5047 7.60548 17.4119C7.34465 17.739 7.02636 17.8805 6.42071 17.8451H6.41629H6.42071C7.30929 17.4473 7.75578 17.0627 8.14923 16.4305C8.24207 16.2802 8.3349 16.1166 8.42774 15.9354C7.64969 16.7355 6.74785 16.961 5.79739 16.7886L5.08564 16.8681C5.06354 16.93 5.04144 16.9875 5.01933 17.0494Z" fill="white"/>
<path d="M5.35102 15.4535C5.50574 15.0557 5.66489 14.6534 5.82404 14.2467C5.97877 13.8576 6.13791 13.4686 6.30148 13.0752C6.46505 12.6817 6.63304 12.2883 6.80103 11.8948C6.97344 11.4925 7.15027 11.0947 7.33152 10.6968C7.50835 10.3033 7.69402 9.90989 7.87527 9.52086C7.94158 9.3794 8.0079 9.24235 8.07863 9.10089C8.19357 8.86217 8.31293 8.62345 8.43229 8.38473C8.43671 8.37146 8.44555 8.3582 8.44997 8.34494L7.57908 6.612C7.56582 6.6341 7.55256 6.66063 7.53487 6.68273C7.33152 7.01871 7.12374 7.35911 6.92481 7.70835C6.72145 8.06201 6.52252 8.42009 6.32801 8.78701C6.16444 9.09647 6.00529 9.40592 5.84614 9.7198C5.8152 9.78169 5.78425 9.848 5.75331 9.90989C5.56321 10.3033 5.38638 10.6879 5.23166 11.0549C5.05483 11.4704 4.9001 11.8683 4.76306 12.244C4.67464 12.4916 4.59065 12.7303 4.51549 12.9602C4.4536 13.1547 4.39613 13.3537 4.33866 13.5482C4.20604 14.0079 4.09552 14.4677 4.00269 14.9275L4.88684 16.6737C5.00178 16.3598 5.12556 16.0459 5.24492 15.7232C5.28029 15.6348 5.31565 15.5464 5.35102 15.4535V15.4535Z" fill="white"/>
<path d="M3.98934 14.9893C3.87882 15.5463 3.79925 16.1034 3.75946 16.6604C3.75946 16.678 3.75504 16.7002 3.75504 16.7178C3.48096 16.2758 2.73827 15.8425 2.74269 15.8469C3.27318 16.6162 3.67547 17.3765 3.73294 18.1236C3.45001 18.1811 3.06098 18.0971 2.61449 17.9335C3.08309 18.3624 3.43233 18.4817 3.56937 18.5127C3.14056 18.5392 2.69406 18.8354 2.24314 19.1758C2.90184 18.9061 3.43675 18.8 3.81693 18.8884C3.21129 20.5993 2.60564 22.4914 2 24.4984C2.18567 24.4453 2.29619 24.3171 2.35808 24.1491C2.46418 23.7866 3.18476 21.3994 4.30764 18.2651C4.33858 18.1767 4.37395 18.0883 4.40489 17.9954C4.41374 17.9689 4.42258 17.9468 4.43142 17.9203C4.55078 17.5931 4.67456 17.2572 4.80276 16.9124C4.83371 16.8328 4.86023 16.7576 4.89118 16.6781V16.6736L4.00703 14.9274C3.99818 14.9495 3.99376 14.9672 3.98934 14.9893V14.9893Z" fill="white"/>
<path d="M8.59578 8.49522C8.56925 8.54826 8.54715 8.59689 8.52063 8.64994C8.44547 8.80909 8.3659 8.96824 8.29075 9.1318C8.20675 9.30864 8.12276 9.48989 8.03434 9.67556C7.99013 9.76839 7.94593 9.86123 7.90172 9.95849C7.7691 10.2458 7.63647 10.542 7.49943 10.8471C7.33144 11.2228 7.16345 11.6119 6.99104 12.0186C6.82747 12.4032 6.65948 12.8055 6.4915 13.2166C6.33235 13.61 6.16878 14.0123 6.00521 14.4323C5.85933 14.8036 5.71344 15.1882 5.56314 15.5817C5.55429 15.5994 5.54987 15.6215 5.54103 15.6392C5.39515 16.0282 5.24484 16.4305 5.09453 16.8416C5.09011 16.8505 5.08569 16.8593 5.08569 16.8681L5.79744 16.7886C5.78417 16.7841 5.77091 16.7841 5.75323 16.7797C6.60644 16.6736 7.73815 16.037 8.46758 15.2501C8.80355 14.8876 9.10859 14.4632 9.39152 13.9637C9.60371 13.5924 9.79823 13.1812 9.98832 12.7215C10.1519 12.3236 10.311 11.8904 10.4613 11.4218C10.2668 11.5234 10.0414 11.5986 9.7938 11.6516C9.7496 11.6605 9.70539 11.6693 9.66118 11.6782C9.61697 11.687 9.57277 11.6914 9.52414 11.7003C10.3199 11.3952 10.8194 10.8073 11.1819 10.0823C10.9741 10.2237 10.6337 10.4094 10.227 10.5022C10.174 10.5155 10.1165 10.5243 10.0591 10.5332C10.0458 10.5332 10.0325 10.5376 10.0148 10.5376C10.2889 10.4227 10.5232 10.2945 10.7266 10.1397C10.7708 10.1088 10.8106 10.0734 10.8504 10.0381C10.9123 9.98501 10.9697 9.92754 11.0272 9.87007C11.0626 9.83029 11.0979 9.79492 11.1333 9.75513C11.2129 9.6623 11.288 9.56062 11.3543 9.4501C11.3764 9.41473 11.3985 9.38379 11.4162 9.34842C11.4427 9.29537 11.4693 9.24674 11.4914 9.19812C11.6019 8.97708 11.6903 8.77814 11.761 8.60131C11.7964 8.5129 11.8274 8.43332 11.8539 8.35817C11.8627 8.32723 11.876 8.3007 11.8848 8.26976C11.9113 8.18576 11.9379 8.11061 11.9556 8.0443C11.9821 7.94704 11.9998 7.86747 12.0086 7.81C11.9821 7.8321 11.9511 7.8542 11.9158 7.87189C11.677 8.01335 11.2659 8.14598 10.9344 8.20787L11.5886 8.13713L10.9344 8.20787C10.9299 8.20787 10.9255 8.20787 10.9211 8.21229C10.8902 8.21671 10.8548 8.22113 10.8194 8.22997C10.8238 8.22555 10.8327 8.22555 10.8371 8.22113L8.6002 8.46427C8.60462 8.48195 8.6002 8.49079 8.59578 8.49522V8.49522Z" fill="white"/>
<path d="M11.1157 3.9772C10.9168 4.28223 10.7002 4.63147 10.4659 5.0205C10.4526 5.0426 10.4393 5.06028 10.4305 5.08239C10.2271 5.42278 10.0149 5.79413 9.78947 6.20526C9.59496 6.55892 9.39161 6.93469 9.17941 7.34582C8.99374 7.69948 8.80807 8.07524 8.60913 8.47311L10.846 8.22997C11.4959 7.92936 11.7877 7.65969 12.0706 7.26624C12.1457 7.16014 12.2209 7.0452 12.296 6.92584C12.5259 6.56776 12.7514 6.17431 12.9503 5.78087C13.1448 5.40068 13.3172 5.02492 13.4454 4.68894C13.5294 4.47232 13.5958 4.27339 13.6444 4.09656C13.6842 3.94183 13.7151 3.79594 13.7416 3.65448C12.8752 3.80037 11.8098 3.94183 11.1157 3.9772Z" fill="white"/>
<path d="M9.67 11.687C9.62579 11.6958 9.58159 11.7002 9.53296 11.7091C9.57717 11.7002 9.62137 11.6914 9.67 11.687Z" fill="white"/>
<path opacity="0.35" d="M9.67 11.687C9.62579 11.6958 9.58159 11.7002 9.53296 11.7091C9.57717 11.7002 9.62137 11.6914 9.67 11.687Z" fill="white"/>
<path d="M9.67 11.687C9.62579 11.6958 9.58159 11.7002 9.53296 11.7091C9.57717 11.7002 9.62137 11.6914 9.67 11.687Z" fill="white"/>
<path d="M10.0239 10.542C10.0372 10.542 10.0505 10.5375 10.0681 10.5375C10.0549 10.5375 10.0416 10.542 10.0239 10.542Z" fill="white"/>
<path opacity="0.35" d="M10.0239 10.542C10.0372 10.542 10.0505 10.5375 10.0681 10.5375C10.0549 10.5375 10.0416 10.542 10.0239 10.542Z" fill="white"/>
<path d="M10.0239 10.542C10.0372 10.542 10.0505 10.5375 10.0681 10.5375C10.0549 10.5375 10.0416 10.542 10.0239 10.542Z" fill="white"/>
<path d="M14.7056 24C14.3304 24 14.0015 23.9803 13.7186 23.9408C13.4358 23.907 13.1963 23.8647 13 23.814V21.6321C13.2136 21.6772 13.4387 21.7167 13.6753 21.7505C13.9062 21.7844 14.1602 21.8013 14.4372 21.8013C14.7027 21.8013 14.9481 21.7731 15.1732 21.7167C15.404 21.6603 15.6032 21.5617 15.7706 21.4207C15.9437 21.2854 16.0765 21.1022 16.1688 20.871C16.267 20.6399 16.316 20.3495 16.316 20V8H19V19.9154C19 20.6258 18.8932 21.2375 18.6797 21.7505C18.4719 22.2636 18.1775 22.6864 17.7965 23.019C17.4214 23.3573 16.9711 23.6054 16.4459 23.7632C15.9206 23.9211 15.3405 24 14.7056 24Z" fill="white"/>
</g>
<defs>
<clipPath id="clip0_2114_74966">
<rect width="24" height="24" fill="white" transform="translate(0 0.0057373)"/>
</clipPath>
</defs>
</svg>