<svg width="24" height="25" viewBox="0 0 24 25" fill="none" xmlns="http://www.w3.org/2000/svg">
<g clip-path="url(#clip0_219_22004)">
<mask id="mask0_219_22004" style="mask-type:alpha" maskUnits="userSpaceOnUse" x="0" y="5" width="24" height="18">
<path d="M0 22.5V5.5H7L8.5 10.5L13 11L16.5 8.5V6H24V22.5H0Z" fill="#D9D9D9"/>
</mask>
<g mask="url(#mask0_219_22004)">
<path d="M12.0938 6.6358C10.0275 6.6358 8.41215 6.8398 7.17175 7.2062C7.20262 7.1785 7.23322 7.1505 7.26355 7.1222C7.30095 7.0847 7.21285 7.0597 7.03505 7.0538C6.50155 7.0363 5.16785 7.1974 4.04465 7.7589C2.77165 8.3579 -0.0733532 11.5035 0.00144676 11.6907C0.0764468 11.8779 1.46085 13.0365 1.87265 13.4857C2.13475 13.7852 2.92115 16.4449 3.63255 15.9957C3.82155 15.8647 3.89815 15.3447 3.96255 14.7026C4.02075 15.2001 4.07805 15.7156 4.15595 16.1831C4.26825 16.9319 5.24295 17.5305 5.35525 18.2418C5.49435 19.2556 6.11665 19.9652 7.33575 20.4158C7.82045 21.0839 8.57395 20.7457 9.13675 21.0505C10.0351 21.5372 11.0458 21.3122 12.0567 21.3122C13.0675 21.3122 14.0407 21.4982 14.9767 21.0115C15.5527 20.712 16.2967 21.0426 16.7854 20.4313C18.0108 19.9819 18.6173 19.268 18.7581 18.2418C18.8704 17.5305 19.806 16.9319 19.9183 16.1831C19.9816 15.8032 20.0285 15.3811 20.0765 14.9799C20.1333 15.4793 20.2065 15.8841 20.3675 15.9956C21.0415 16.4449 21.8653 13.7852 22.1274 13.4857C22.5392 13.0365 23.9237 11.8779 23.9986 11.6907C24.0734 11.5035 21.1912 8.358 19.9183 7.7589C18.7952 7.1974 17.4615 7.0363 16.928 7.0539C16.761 7.0593 16.6826 7.0826 16.7033 7.1163C15.5285 6.8083 14.0305 6.6358 12.0938 6.6358ZM12.1231 7.1358C14.3266 7.1358 15.9717 7.3611 17.1331 7.7511C17.2666 7.796 17.3718 7.8491 17.4924 7.8976C18.1825 8.6126 19.1157 9.7286 19.5062 11.0149C19.5308 11.0959 19.5467 11.1807 19.5687 11.2629C19.569 11.2642 19.5684 11.2657 19.5687 11.2669V11.2708C19.614 12.0408 19.8845 12.6877 19.7992 13.2611C19.6456 14.2593 19.5707 15.2337 19.4262 16.1011L19.4242 16.105V16.1089C19.3953 16.3011 19.2062 16.5851 18.9456 16.9156C18.685 17.2461 18.3501 17.618 18.2639 18.1636V18.1696L18.262 18.1734C18.1614 18.9064 17.8413 19.3731 17.092 19.7555C17.2172 19.3108 17.2971 18.7005 17.2971 17.7925C17.3345 16.6694 17.3737 16.2203 16.4377 15.0971C15.7193 14.1735 14.7337 13.5225 13.6447 13.1986C13.5336 12.8087 12.923 12.3626 12.0937 12.3626C11.2652 12.3626 10.679 12.7846 10.5585 13.183C9.44875 13.5012 8.44255 14.1589 7.71275 15.0971C6.77675 16.2203 6.85335 16.7068 6.85335 17.7926C6.85335 18.6963 6.93285 19.3061 7.05645 19.7536C6.28675 19.3686 5.94865 18.8966 5.84945 18.1734V18.1637C5.76195 17.6096 5.41235 17.2402 5.14235 16.9097C4.87235 16.5792 4.67975 16.2931 4.65205 16.1089L4.65005 16.1049V16.1011C4.50565 15.2342 4.43045 14.2605 4.27705 13.2631V13.2611C4.19175 12.6877 4.46035 12.0408 4.50555 11.2708V11.2864C4.51865 11.1427 4.52285 11.0454 4.53095 10.9154C4.89135 9.7567 5.68405 8.7428 6.33575 8.0402C6.57119 7.92926 6.81317 7.83274 7.06035 7.7512C8.25245 7.3596 9.91965 7.1359 12.1231 7.1359V7.1358ZM6.91395 10.9408C6.47902 10.9441 6.06303 11.1192 5.75675 11.428C5.45047 11.7369 5.27874 12.1543 5.27905 12.5892C5.27914 12.8056 5.32185 13.0198 5.40476 13.2197C5.48766 13.4195 5.60912 13.6011 5.7622 13.754C5.91529 13.9069 6.09699 14.0282 6.29695 14.1108C6.4969 14.1935 6.71118 14.236 6.92755 14.2358C7.07678 14.2357 7.2253 14.2153 7.36905 14.1752C7.71775 13.8005 8.08675 13.4529 8.48035 13.1342C8.5421 12.9591 8.57381 12.7749 8.57415 12.5892C8.5743 12.3728 8.53184 12.1586 8.44917 11.9586C8.3665 11.7587 8.24524 11.5769 8.09234 11.4239C7.93943 11.2708 7.75786 11.1493 7.558 11.0664C7.35815 10.9835 7.14392 10.9408 6.92755 10.9407C6.92301 10.9407 6.91848 10.9407 6.91395 10.9407V10.9408ZM17.2112 10.9408C16.776 10.9436 16.3595 11.1185 16.0528 11.4274C15.7461 11.7362 15.5741 12.1539 15.5744 12.5892C15.575 12.8252 15.6263 13.0583 15.7248 13.2728C16.0373 13.537 16.3358 13.8198 16.6193 14.1205C16.8115 14.1965 17.0163 14.2356 17.2229 14.2358C17.6596 14.2356 18.0783 14.062 18.387 13.7533C18.6957 13.4445 18.8693 13.0258 18.8694 12.5892C18.8696 12.3728 18.8271 12.1586 18.7445 11.9586C18.6618 11.7587 18.5406 11.577 18.3877 11.4239C18.2348 11.2708 18.0532 11.1493 17.8534 11.0664C17.6535 10.9835 17.4393 10.9408 17.2229 10.9407C17.219 10.9407 17.2151 10.9407 17.2112 10.9407V10.9408ZM7.33975 11.4271C7.4487 11.4276 7.55304 11.4712 7.62991 11.5484C7.70677 11.6256 7.7499 11.7301 7.74985 11.8391C7.74995 11.9481 7.70685 12.0527 7.62998 12.1299C7.5531 12.2072 7.44874 12.2509 7.33975 12.2513C7.28561 12.2514 7.23199 12.2407 7.18197 12.22C7.13194 12.1994 7.08648 12.169 7.0482 12.1307C7.00991 12.0924 6.97955 12.047 6.95885 11.997C6.93814 11.947 6.92751 11.8933 6.92755 11.8392C6.92751 11.7851 6.93814 11.7315 6.95885 11.6814C6.97955 11.6314 7.00991 11.586 7.0482 11.5477C7.08648 11.5094 7.13194 11.4791 7.18197 11.4584C7.23199 11.4377 7.28561 11.4271 7.33975 11.4271ZM16.8107 11.4271C16.8649 11.4271 16.9185 11.4377 16.9685 11.4584C17.0185 11.479 17.064 11.5094 17.1023 11.5476C17.1405 11.5859 17.1709 11.6314 17.1916 11.6814C17.2123 11.7314 17.223 11.785 17.2229 11.8391C17.223 11.8932 17.2124 11.9469 17.1917 11.9969C17.171 12.0469 17.1406 12.0924 17.1024 12.1307C17.0641 12.1689 17.0186 12.1993 16.9686 12.22C16.9186 12.2407 16.865 12.2513 16.8108 12.2513C16.7567 12.2514 16.7031 12.2407 16.6531 12.22C16.603 12.1994 16.5576 12.169 16.5193 12.1307C16.481 12.0924 16.4506 12.047 16.4299 11.997C16.4092 11.947 16.3986 11.8933 16.3986 11.8392C16.3986 11.7851 16.4092 11.7315 16.4299 11.6814C16.4506 11.6314 16.481 11.586 16.5193 11.5477C16.5576 11.5094 16.603 11.4791 16.6531 11.4584C16.7031 11.4377 16.7567 11.4271 16.8108 11.4271H16.8107ZM11.7012 12.9134C11.7115 12.9129 11.7213 12.9142 11.7305 12.9174C11.7685 12.9291 11.7956 12.9704 11.8059 13.0323C11.8161 13.0942 11.8087 13.1715 11.7852 13.2474C11.7736 13.2851 11.7583 13.3213 11.7403 13.3539C11.7223 13.3866 11.7019 13.4149 11.6803 13.4375C11.6587 13.46 11.6363 13.4762 11.6144 13.4851C11.5925 13.4941 11.5716 13.4956 11.5527 13.4896C11.5153 13.4771 11.4888 13.4354 11.479 13.3736C11.4691 13.3118 11.4767 13.2349 11.5 13.1596C11.5203 13.0936 11.5515 13.033 11.5881 12.9881C11.6248 12.9432 11.6648 12.9168 11.7012 12.9134ZM12.3731 12.9349C12.4107 12.9327 12.4525 12.9575 12.4904 13.0044C12.5282 13.0514 12.5595 13.1171 12.5781 13.1889C12.588 13.2271 12.594 13.2658 12.5958 13.303C12.5977 13.3401 12.5952 13.3749 12.5887 13.4054C12.5822 13.4359 12.5717 13.4614 12.5578 13.4805C12.5439 13.4997 12.5269 13.512 12.5078 13.5169C12.4888 13.5221 12.468 13.5197 12.4466 13.5098C12.4251 13.4999 12.4036 13.4828 12.383 13.4594C12.3625 13.436 12.3435 13.4068 12.327 13.3734C12.3106 13.34 12.297 13.3032 12.2871 13.265C12.2773 13.2268 12.2712 13.1881 12.2694 13.1509C12.2676 13.1137 12.27 13.0789 12.2766 13.0484C12.2831 13.018 12.2936 12.9924 12.3075 12.9733C12.3214 12.9541 12.3383 12.9418 12.3574 12.9369C12.3626 12.9357 12.3678 12.935 12.3731 12.9349ZM12.0567 13.4115C12.0567 13.4115 12.0925 13.6375 12.2422 13.7123C12.392 13.7872 13.1036 13.5619 13.1036 13.5619C12.7666 13.8239 12.1309 13.8249 12.1309 13.8999V14.2729C12.1309 14.6808 12.1572 15.7343 12.0996 15.9585C12.9234 15.963 14.1896 17.084 14.1896 18.4665V18.5406C14.1521 17.1928 12.5805 16.1069 12.0938 16.1069C11.6071 16.1069 10.0335 17.1554 9.99605 18.5406V18.4664C9.99605 17.1038 11.2286 15.9964 12.0527 15.9604C11.9823 15.4087 11.9805 14.8232 11.9805 14.2729V13.8999C11.766 13.8045 11.5483 13.7285 11.3242 13.6635C11.5088 13.6961 11.6952 13.7123 11.8692 13.7123C12.0189 13.6374 12.0567 13.4115 12.0567 13.4115ZM9.01555 14.7592C9.01815 14.7591 9.02075 14.7591 9.02335 14.7592C9.04312 14.7591 9.06271 14.763 9.081 14.7705C9.09928 14.778 9.11589 14.7891 9.12987 14.8031C9.14385 14.8171 9.15493 14.8337 9.16246 14.852C9.16999 14.8702 9.17383 14.8898 9.17375 14.9096C9.17383 14.9294 9.16999 14.949 9.16246 14.9673C9.15493 14.9855 9.14385 15.0021 9.12987 15.0161C9.11589 15.0301 9.09928 15.0412 9.081 15.0487C9.06271 15.0562 9.04312 15.0601 9.02335 15.06C9.00357 15.0601 8.98398 15.0562 8.9657 15.0487C8.94741 15.0412 8.9308 15.0301 8.91682 15.0161C8.90284 15.0021 8.89176 14.9855 8.88423 14.9673C8.8767 14.949 8.87287 14.9294 8.87295 14.9096C8.87275 14.871 8.88747 14.8338 8.91404 14.8058C8.94061 14.7777 8.97697 14.7611 9.01555 14.7592ZM10.1386 14.7592C10.1412 14.7591 10.1438 14.7591 10.1464 14.7592C10.1662 14.7591 10.1858 14.763 10.2041 14.7705C10.2224 14.778 10.239 14.7891 10.253 14.8031C10.267 14.8171 10.278 14.8337 10.2856 14.852C10.2931 14.8702 10.2969 14.8898 10.2968 14.9096C10.2969 14.9294 10.2931 14.949 10.2856 14.9673C10.278 14.9855 10.267 15.0021 10.253 15.0161C10.239 15.0301 10.2224 15.0412 10.2041 15.0487C10.1858 15.0562 10.1662 15.0601 10.1464 15.06C10.1267 15.0601 10.1071 15.0562 10.0888 15.0487C10.0705 15.0412 10.0539 15.0301 10.0399 15.0161C10.0259 15.0021 10.0149 14.9855 10.0073 14.9673C9.9998 14.949 9.99597 14.9294 9.99605 14.9096C9.99585 14.871 10.0106 14.8338 10.0371 14.8058C10.0637 14.7777 10.1001 14.7611 10.1386 14.7592ZM13.8086 14.7592C13.8113 14.7591 13.8139 14.7591 13.8165 14.7592C13.8363 14.7591 13.8559 14.763 13.8742 14.7705C13.8925 14.778 13.9091 14.7891 13.9231 14.8031C13.9371 14.8171 13.9481 14.8337 13.9557 14.852C13.9632 14.8702 13.967 14.8898 13.9669 14.9096C13.967 14.9294 13.9632 14.949 13.9557 14.9673C13.9481 14.9855 13.9371 15.0021 13.9231 15.0161C13.9091 15.0301 13.8925 15.0412 13.8742 15.0487C13.8559 15.0562 13.8363 15.0601 13.8165 15.06C13.7968 15.0601 13.7772 15.0562 13.7589 15.0487C13.7406 15.0412 13.724 15.0301 13.71 15.0161C13.696 15.0021 13.685 14.9855 13.6774 14.9673C13.6699 14.949 13.6661 14.9294 13.6661 14.9096C13.6659 14.871 13.6807 14.8338 13.7072 14.8058C13.7338 14.7777 13.7702 14.7611 13.8087 14.7592H13.8086ZM14.9318 14.7592C14.9344 14.7591 14.937 14.7591 14.9396 14.7592C14.9594 14.7591 14.979 14.763 14.9973 14.7705C15.0156 14.778 15.0322 14.7891 15.0462 14.8031C15.0602 14.8171 15.0712 14.8337 15.0788 14.852C15.0863 14.8702 15.0901 14.8898 15.09 14.9096C15.0901 14.9294 15.0863 14.949 15.0788 14.9673C15.0712 14.9855 15.0602 15.0021 15.0462 15.0161C15.0322 15.0301 15.0156 15.0412 14.9973 15.0487C14.979 15.0562 14.9594 15.0601 14.9396 15.06C14.9199 15.0601 14.9003 15.0562 14.882 15.0487C14.8637 15.0412 14.8471 15.0301 14.8331 15.0161C14.8191 15.0021 14.8081 14.9855 14.8005 14.9673C14.793 14.949 14.7892 14.9294 14.7892 14.9096C14.789 14.871 14.8038 14.8338 14.8303 14.8058C14.8569 14.7777 14.8933 14.7611 14.9318 14.7592ZM9.27925 15.6577C9.28185 15.6576 9.28445 15.6576 9.28705 15.6577C9.32664 15.6581 9.36447 15.6741 9.39228 15.7023C9.42009 15.7305 9.43561 15.7685 9.43545 15.8081C9.43561 15.8477 9.42009 15.8857 9.39228 15.9139C9.36447 15.9421 9.32664 15.9581 9.28705 15.9585C9.26727 15.9586 9.24768 15.9547 9.2294 15.9472C9.21111 15.9397 9.1945 15.9286 9.18052 15.9146C9.16654 15.9006 9.15546 15.884 9.14793 15.8658C9.1404 15.8475 9.13657 15.8279 9.13665 15.8081C9.13645 15.7695 9.15117 15.7323 9.17774 15.7043C9.20431 15.6762 9.24067 15.6596 9.27925 15.6577ZM14.67 15.6577C14.672 15.6577 14.674 15.6577 14.676 15.6577C14.6958 15.6576 14.7154 15.6615 14.7337 15.669C14.7519 15.6766 14.7685 15.6876 14.7825 15.7016C14.7965 15.7156 14.8075 15.7322 14.8151 15.7505C14.8226 15.7688 14.8264 15.7883 14.8263 15.8081C14.8264 15.8279 14.8226 15.8475 14.8151 15.8658C14.8075 15.884 14.7965 15.9006 14.7825 15.9146C14.7685 15.9286 14.7519 15.9397 14.7336 15.9472C14.7153 15.9547 14.6957 15.9586 14.6759 15.9585C14.6364 15.9581 14.5985 15.9421 14.5707 15.9139C14.5429 15.8857 14.5274 15.8477 14.5275 15.8081C14.5273 15.7695 14.5421 15.7323 14.5686 15.7043C14.5952 15.6763 14.6315 15.6596 14.67 15.6577Z" fill="white"/>
</g>
<g clip-path="url(#clip1_219_22004)">
<path d="M11.4014 6.78331L11.4038 6.78664L11.0708 7.59098C10.7512 7.38641 10.5081 7.08213 10.3791 6.72531L11.2384 6.57964L11.2398 6.58131C11.2658 6.57651 11.2927 6.57888 11.3176 6.58817C11.3424 6.59745 11.3643 6.6133 11.3809 6.63403C11.3974 6.65476 11.408 6.67959 11.4116 6.70588C11.4152 6.73216 11.4115 6.75893 11.4011 6.78331H11.4014ZM11.1238 6.07364C11.1493 6.06664 11.1725 6.05283 11.1909 6.03368C11.2093 6.01453 11.2221 5.99076 11.228 5.9649C11.2339 5.93904 11.2327 5.91206 11.2245 5.88684C11.2163 5.86161 11.2014 5.83908 11.1814 5.82164L11.1821 5.81798L10.5284 5.23331C10.329 5.5579 10.2434 5.93965 10.2851 6.31831L11.1231 6.07664L11.1238 6.07364ZM11.5054 5.41364C11.5269 5.4293 11.5522 5.43883 11.5786 5.44124C11.6051 5.44364 11.6317 5.43882 11.6556 5.42729C11.6795 5.41575 11.6998 5.39794 11.7144 5.37576C11.729 5.35357 11.7373 5.32784 11.7384 5.30131L11.7418 5.29964L11.7918 4.42631C11.4132 4.47056 11.0601 4.63969 10.7884 4.90698L11.5041 5.41464L11.5054 5.41398V5.41364ZM11.7588 6.33031L11.9998 6.44664L12.2404 6.33098L12.3004 6.07098L12.1338 5.86331H11.8658L11.6991 6.07098L11.7588 6.33064V6.33031ZM12.2588 5.29864C12.2599 5.3252 12.2682 5.35095 12.2828 5.37315C12.2975 5.39534 12.3179 5.41314 12.3418 5.42464C12.3658 5.43614 12.3924 5.44092 12.4189 5.43845C12.4454 5.43599 12.4707 5.42637 12.4921 5.41064L12.4948 5.41164L13.2061 4.90731C12.9353 4.64213 12.5849 4.47325 12.2088 4.42664L12.2581 5.29831L12.2588 5.29864ZM15.8841 7.28864L13.9598 9.68231C13.9096 9.74431 13.8462 9.79428 13.7742 9.82855C13.7022 9.86281 13.6235 9.8805 13.5438 9.88031L10.4568 9.88131C10.377 9.88137 10.2983 9.86355 10.2264 9.82917C10.1544 9.79479 10.0911 9.74472 10.0411 9.68264L8.11575 7.28931C8.06622 7.22734 8.03129 7.155 8.01357 7.07766C7.99585 7.00033 7.9958 6.92 8.01342 6.84264L8.70009 3.85764C8.73609 3.70098 8.84175 3.56964 8.98775 3.49998L11.7684 2.17098C11.8405 2.13653 11.9194 2.11865 11.9993 2.11865C12.0791 2.11865 12.158 2.13653 12.2301 2.17098L15.0118 3.49931C15.1578 3.56898 15.2634 3.70064 15.2994 3.85698L15.9868 6.84198C16.0228 6.99864 15.9851 7.16298 15.8841 7.28864ZM14.7878 6.60298C14.7738 6.59964 14.7534 6.59431 14.7394 6.59164C14.6814 6.58064 14.6344 6.58331 14.5798 6.57898C14.4631 6.56664 14.3671 6.55664 14.2814 6.52964C14.2464 6.51631 14.2214 6.47464 14.2094 6.45764L14.1424 6.43798C14.1781 6.17889 14.1663 5.91547 14.1074 5.66064C14.0485 5.40322 13.9427 5.15883 13.7954 4.93964C13.8128 4.92398 13.8454 4.89531 13.8544 4.88664C13.8571 4.85664 13.8548 4.82564 13.8858 4.79264C13.9514 4.73098 14.0338 4.67998 14.1334 4.61864C14.1808 4.59064 14.2244 4.57298 14.2718 4.53798C14.2824 4.52998 14.2971 4.51731 14.3084 4.50831C14.3884 4.44464 14.4068 4.33498 14.3494 4.26298C14.2921 4.19098 14.1808 4.18431 14.1011 4.24798C14.0898 4.25698 14.0744 4.26864 14.0641 4.27731C14.0194 4.31598 13.9918 4.35398 13.9541 4.39398C13.8721 4.47731 13.8041 4.54664 13.7298 4.59698C13.6974 4.61564 13.6501 4.60931 13.6288 4.60798L13.5654 4.65298C13.2008 4.27038 12.7098 4.03313 12.1834 3.98531L12.1794 3.91098C12.1578 3.89031 12.1318 3.87264 12.1251 3.82764C12.1178 3.73831 12.1301 3.64198 12.1441 3.52598C12.1518 3.47164 12.1644 3.42664 12.1668 3.36764C12.1671 3.35431 12.1664 3.33464 12.1664 3.32031C12.1664 3.21831 12.0918 3.13531 11.9998 3.13531C11.9081 3.13531 11.8334 3.21831 11.8334 3.32031L11.8338 3.32498C11.8338 3.33864 11.8331 3.35564 11.8338 3.36764C11.8358 3.42664 11.8484 3.47164 11.8561 3.52598C11.8701 3.64198 11.8821 3.73831 11.8748 3.82798C11.8653 3.86119 11.8466 3.89103 11.8208 3.91398L11.8168 3.98431C11.2871 4.02685 10.7921 4.26482 10.4281 4.65198C10.4079 4.63802 10.3879 4.6238 10.3681 4.60931C10.3381 4.61331 10.3081 4.62264 10.2691 4.59964C10.1948 4.54964 10.1268 4.48031 10.0448 4.39698C10.0071 4.35698 9.97975 4.31898 9.93509 4.28064C9.92509 4.27198 9.90942 4.25998 9.89809 4.25131C9.86513 4.2246 9.82447 4.20917 9.78209 4.20731C9.75692 4.20597 9.73179 4.21059 9.70874 4.22078C9.68569 4.23098 9.66537 4.24646 9.64942 4.26598C9.59209 4.33798 9.61042 4.44798 9.69042 4.51164L9.69275 4.51331L9.72742 4.54098C9.77475 4.57598 9.81809 4.59398 9.86542 4.62164C9.96509 4.68331 10.0474 4.73431 10.1131 4.79564C10.1384 4.82298 10.1431 4.87098 10.1464 4.89164L10.1998 4.93931C9.9052 5.38097 9.78412 5.91585 9.85975 6.44131L9.79042 6.46131C9.77209 6.48531 9.74609 6.52264 9.71875 6.53364C9.63309 6.56064 9.53675 6.57031 9.42042 6.58264C9.36575 6.58731 9.31875 6.58464 9.26042 6.59564C9.24809 6.59798 9.23042 6.60231 9.21609 6.60564L9.21475 6.60631L9.21242 6.60698C9.11409 6.63064 9.05109 6.72098 9.07142 6.80964C9.09175 6.89864 9.18775 6.95264 9.28642 6.93131L9.28875 6.93098L9.29209 6.92998L9.33509 6.92031C9.39175 6.90498 9.43309 6.88264 9.48442 6.86298C9.59442 6.82364 9.68575 6.79064 9.77442 6.77764C9.81175 6.77464 9.85109 6.80064 9.87042 6.81131L9.94275 6.79898C10.1057 7.30234 10.4471 7.7287 10.9028 7.99764L10.8728 8.07031C10.8838 8.09831 10.8958 8.13664 10.8874 8.16431C10.8551 8.24831 10.7998 8.33664 10.7368 8.43531C10.7064 8.48064 10.6751 8.51598 10.6474 8.56831C10.6408 8.58064 10.6324 8.59998 10.6261 8.61298C10.5834 8.70464 10.6148 8.80998 10.6971 8.84964C10.7798 8.88964 10.8824 8.84731 10.9271 8.75564V8.75498C10.9338 8.74198 10.9424 8.72498 10.9478 8.71264C10.9711 8.65864 10.9791 8.61231 10.9958 8.55998C11.0398 8.44931 11.0641 8.33331 11.1248 8.26098C11.1414 8.24098 11.1681 8.23364 11.1964 8.22598L11.2341 8.15764C11.7282 8.34805 12.2753 8.34948 12.7704 8.16164L12.8058 8.22564C12.8344 8.23498 12.8658 8.23964 12.8911 8.27731C12.9364 8.35464 12.9674 8.44631 13.0051 8.55731C13.0218 8.60931 13.0298 8.65564 13.0534 8.70964C13.0588 8.72198 13.0678 8.73964 13.0741 8.75264C13.1184 8.84464 13.2214 8.88664 13.3041 8.84664C13.3864 8.80731 13.4178 8.70164 13.3751 8.60998C13.3684 8.59698 13.3601 8.57798 13.3534 8.56531C13.3258 8.51331 13.2944 8.47831 13.2641 8.43264C13.2008 8.33398 13.1488 8.25231 13.1164 8.16831C13.1031 8.12498 13.1188 8.09831 13.1291 8.07031C13.1231 8.06298 13.1094 8.02231 13.1014 8.00298C13.5587 7.73195 13.9004 7.30224 14.0614 6.79564C14.0828 6.79898 14.1201 6.80564 14.1324 6.80831C14.1574 6.79164 14.1804 6.77031 14.2258 6.77364C14.3144 6.78664 14.4058 6.81964 14.5158 6.85898C14.5671 6.87898 14.6081 6.90164 14.6651 6.91664C14.6771 6.91998 14.6944 6.92298 14.7084 6.92598L14.7114 6.92698L14.7138 6.92731C14.8128 6.94864 14.9084 6.89464 14.9288 6.80564C14.9488 6.71698 14.8861 6.62664 14.7878 6.60298ZM13.4668 5.23364L12.8168 5.81564V5.81731C12.7967 5.83473 12.7817 5.85728 12.7734 5.88255C12.7652 5.90782 12.764 5.93486 12.7699 5.96078C12.7758 5.9867 12.7887 6.01052 12.8071 6.02969C12.8255 6.04887 12.8488 6.06268 12.8744 6.06964L12.8754 6.07298L13.7174 6.31564C13.7357 6.12892 13.7235 5.94047 13.6814 5.75764C13.6391 5.57229 13.5665 5.39515 13.4668 5.23331V5.23364ZM12.1291 7.00864C12.1162 6.98436 12.0967 6.96422 12.0729 6.95053C12.0491 6.93685 12.0219 6.93019 11.9944 6.93131C11.9688 6.93227 11.9438 6.93995 11.922 6.95358C11.9003 6.96721 11.8825 6.98631 11.8704 7.00898H11.8698L11.4471 7.77298C11.8064 7.89557 12.1962 7.89592 12.5558 7.77398L12.1324 7.00864H12.1291ZM12.7584 6.57764C12.7279 6.57202 12.6964 6.57622 12.6684 6.58964C12.6342 6.60601 12.6076 6.63503 12.5943 6.67059C12.581 6.70614 12.582 6.74548 12.5971 6.78031L12.5961 6.78164L12.9328 7.59431C13.2544 7.38894 13.4985 7.08223 13.6264 6.72264L12.7598 6.57598L12.7584 6.57764Z" fill="white"/>
</g>
</g>
<defs>
<clipPath id="clip0_219_22004">
<rect width="24" height="24" fill="white" transform="translate(0 0.0057373)"/>
</clipPath>
<clipPath id="clip1_219_22004">
<rect width="8" height="8" fill="white" transform="translate(8 2)"/>
</clipPath>
</defs>
</svg>
