<svg width="18" height="24" viewBox="0 0 18 24" fill="none" xmlns="http://www.w3.org/2000/svg">
<path d="M1.23711 0.000995616C0.925112 -0.0120044 0.572112 0.0729956 0.409112 0.457996C0.251112 0.831996 0.126112 1.646 0.0691118 2.734L1.29211 3.325C1.27211 2.588 1.29911 1.895 1.36811 1.259C1.34211 1.558 1.31211 2.219 1.37411 3.298C1.39311 3.64 1.42311 4.023 1.46211 4.448C1.46411 4.472 1.46411 4.495 1.46911 4.517C1.5506 5.32361 1.65363 6.12789 1.77811 6.929C1.83511 7.297 1.90411 7.68099 1.97311 8.08899L1.96311 8.099C1.97711 8.109 1.97811 8.11699 1.97711 8.12199L2.00711 8.28199C2.03711 8.44399 2.06711 8.60999 2.10011 8.776L2.20811 9.329L2.26411 9.618C2.40461 10.3099 2.55696 10.9993 2.72111 11.686C2.81111 12.068 2.90711 12.466 3.00811 12.872C3.10611 13.258 3.20711 13.655 3.31711 14.065C3.41311 14.427 3.51611 14.8 3.62011 15.182C3.62311 15.2 3.63211 15.218 3.63511 15.237C3.74678 15.6325 3.86011 16.0275 3.97511 16.422L4.02411 16.596C4.10211 16.857 4.18211 17.129 4.26611 17.401C4.16675 17.3598 4.06901 17.3147 3.97311 17.266L3.78311 16.612C3.76311 16.535 3.74111 16.464 3.72111 16.387L3.71911 16.383L3.71511 16.381C3.62811 16.081 3.54511 15.774 3.45811 15.465C3.43511 15.378 3.41411 15.292 3.38911 15.202L3.07511 14.024C2.97511 13.643 2.88111 13.259 2.78511 12.87C2.69111 12.48 2.60011 12.09 2.50811 11.698C2.41511 11.297 2.32711 10.898 2.24311 10.495C2.15811 10.099 2.08211 9.697 2.00311 9.302C1.92817 8.91284 1.85783 8.52281 1.79211 8.132C1.78811 8.119 1.78611 8.10199 1.78211 8.09099L1.78611 8.08899C1.72911 7.70299 1.67011 7.319 1.61211 6.939C1.55678 6.53818 1.50544 6.13683 1.45811 5.735C1.36543 4.93458 1.30804 4.13046 1.28611 3.325L0.0661118 2.735C0.0621118 2.809 0.0561117 2.885 0.0531117 2.965C0.0411117 3.259 0.0331117 3.57 0.0301117 3.895C0.0271863 4.28067 0.0291865 4.66637 0.0361118 5.052C0.0451118 5.422 0.0611119 5.807 0.0811119 6.2C0.101112 6.536 0.123112 6.875 0.151112 7.222L0.153112 7.261L0.159112 7.265C0.162112 7.288 0.166112 7.315 0.165112 7.341C0.198112 7.709 0.229112 8.08 0.272112 8.456C0.351042 9.1673 0.452091 9.87598 0.575112 10.581C0.585112 10.645 0.599112 10.712 0.610112 10.776C0.752944 11.5581 0.935514 12.3324 1.15711 13.096C1.22711 13.333 1.29711 13.56 1.36711 13.776C1.43011 13.958 1.49711 14.141 1.56111 14.321C1.71611 14.743 1.88811 15.153 2.07311 15.553L2.07911 15.557C2.08435 15.5742 2.09104 15.5909 2.09911 15.607C2.32411 16.092 2.57411 16.557 2.85411 17.002C2.86411 17.015 2.87411 17.035 2.88411 17.049C2.42911 16.866 1.62511 16.951 1.63111 16.952C2.46111 17.24 3.18811 17.592 3.64711 18.127C3.46411 18.327 3.12411 18.479 2.69411 18.604C3.28811 18.668 3.61811 18.565 3.73911 18.512C3.42911 18.772 3.25611 19.244 3.10411 19.752C3.45411 19.182 3.80011 18.803 4.13711 18.658C4.21511 18.916 4.29911 19.182 4.38111 19.446C3.61376 20.9511 2.87232 22.4694 2.15711 24C2.24901 23.9877 2.33641 23.9527 2.41147 23.8982C2.48652 23.8438 2.54687 23.7715 2.58711 23.688C2.71711 23.406 3.41711 21.913 4.49511 19.813C4.90811 21.116 5.37511 22.492 5.88111 23.922C5.9315 23.857 5.96485 23.7803 5.97812 23.6991C5.99139 23.6179 5.98417 23.5347 5.95711 23.457C5.49481 22.1509 5.05872 20.8356 4.64911 19.512C4.80311 19.213 4.96511 18.9 5.13311 18.58C5.25811 18.62 5.38811 18.674 5.52211 18.735C5.72511 18.921 5.87411 19.226 6.00411 19.575C6.04108 19.1794 5.92113 18.785 5.67011 18.477C7.00511 18.735 8.21711 18.567 8.95711 17.667C9.02457 17.5836 9.08862 17.4976 9.14911 17.409C8.82411 17.713 8.46711 17.813 7.83611 17.682C8.83211 17.401 9.35911 17.065 9.87111 16.462C9.99111 16.317 10.1151 16.159 10.2421 15.982C9.29911 16.704 8.31511 16.804 7.34211 16.475L7.29711 16.457C8.21111 16.477 9.50011 15.983 10.3891 15.268C10.7991 14.938 11.1851 14.538 11.5591 14.058C11.8391 13.699 12.1091 13.298 12.3791 12.842C12.6131 12.449 12.8471 12.018 13.0791 11.549C12.8396 11.6274 12.5908 11.6735 12.3391 11.686L12.1951 11.694C12.1471 11.696 12.1021 11.694 12.0491 11.696C12.9341 11.498 13.5491 10.956 14.0431 10.249C13.8031 10.366 13.4151 10.511 12.9731 10.546C12.9151 10.552 12.8531 10.552 12.7911 10.552C12.7781 10.55 12.7631 10.552 12.7441 10.55C13.0501 10.472 13.3181 10.372 13.5541 10.241C13.6783 10.17 13.7979 10.0912 13.9121 10.005C13.9561 9.968 14.0001 9.935 14.0421 9.899C14.1411 9.81299 14.2351 9.719 14.3221 9.612C14.3501 9.578 14.3781 9.549 14.4021 9.514C14.4381 9.46399 14.4751 9.416 14.5061 9.368C14.692 9.10209 14.8623 8.82563 15.0161 8.54C15.0311 8.509 15.0481 8.483 15.0621 8.45199C15.1021 8.368 15.1421 8.292 15.1721 8.225C15.2141 8.126 15.2461 8.046 15.2641 7.987C15.2302 8.00813 15.194 8.02524 15.1561 8.038C14.8831 8.15 14.4291 8.225 14.0701 8.239C14.0661 8.239 14.0621 8.239 14.0571 8.243H13.9901C14.7101 8.029 15.0571 7.793 15.4121 7.425C15.8279 6.97498 16.2134 6.49794 16.5661 5.997C16.8301 5.627 17.0711 5.259 17.2581 4.925C17.3674 4.73286 17.4669 4.53527 17.5561 4.333C17.6221 4.176 17.6781 4.028 17.7281 3.883C17.2621 3.893 16.7421 3.894 16.2481 3.883C16.7431 3.893 17.2631 3.89 17.7321 3.878C18.2321 2.393 17.7951 1.616 17.7951 1.616C17.7951 1.616 17.2691 0.403996 16.3951 0.764996C15.9691 0.939996 15.2231 1.495 14.3121 2.325L14.8261 3.775C15.3576 3.20376 15.9265 2.66857 16.5291 2.173C16.2721 2.393 15.7221 2.899 14.9141 3.817C14.6581 4.107 14.3771 4.441 14.0701 4.814C14.0531 4.834 14.0351 4.852 14.0231 4.874C13.4484 5.58802 12.8929 6.31728 12.3571 7.061C12.1091 7.401 11.8591 7.765 11.5921 8.149H11.5761C11.5781 8.169 11.5721 8.177 11.5661 8.18099L11.4651 8.333C11.3611 8.488 11.2521 8.643 11.1471 8.803L10.7951 9.337C10.7341 9.427 10.6711 9.518 10.6091 9.614C10.4251 9.896 10.2421 10.187 10.0511 10.487C9.56417 11.2596 9.08812 12.039 8.62311 12.825C8.16525 13.5997 7.71821 14.3808 7.28211 15.168C7.27011 15.185 7.26211 15.208 7.24811 15.225C7.02401 15.6319 6.80134 16.0395 6.58011 16.448L6.48311 16.629C6.31311 16.947 6.13711 17.271 5.96311 17.608C5.96311 17.612 5.95811 17.616 5.95711 17.621C5.93111 17.669 5.90711 17.714 5.88511 17.762C5.76811 17.984 5.66711 18.186 5.43511 18.632C5.36433 18.563 5.2862 18.502 5.20211 18.45L5.54711 17.8C5.59411 17.711 5.64311 17.623 5.69011 17.53L5.73011 17.453L6.27611 16.452L6.40611 16.219V16.213L6.40511 16.207C6.57411 15.897 6.75011 15.587 6.92511 15.267C6.97611 15.18 7.02711 15.094 7.07811 15.002C7.30211 14.607 7.53211 14.208 7.76211 13.805C8.44755 12.6212 9.1594 11.4529 9.89711 10.301C10.1441 9.915 10.4001 9.531 10.6511 9.149C10.7431 9.011 10.8331 8.877 10.9301 8.739C11.0887 8.5044 11.2488 8.27073 11.4101 8.038C11.4171 8.026 11.4291 8.014 11.4361 8.001H11.4421C11.7021 7.645 11.9591 7.288 12.2151 6.936C12.4931 6.563 12.7691 6.201 13.0451 5.846C13.6067 5.12861 14.1996 4.43628 14.8221 3.771L14.3071 2.325C14.2471 2.382 14.1811 2.441 14.1151 2.503C13.8585 2.74187 13.6058 2.98491 13.3571 3.232C13.0621 3.526 12.7601 3.838 12.4451 4.167C11.8848 4.76503 11.3407 5.37791 10.8131 6.005L10.7831 6.038L10.7851 6.046C10.7681 6.066 10.7521 6.09 10.7311 6.11C10.4651 6.433 10.1931 6.759 9.93011 7.095C9.42839 7.72989 8.94649 8.3802 8.48511 9.045C8.44211 9.105 8.40011 9.17099 8.35811 9.231C7.8516 9.97431 7.38333 10.743 6.95511 11.534C6.82511 11.781 6.69911 12.019 6.58511 12.249C6.48911 12.444 6.39811 12.644 6.30711 12.84C6.09711 13.303 5.90911 13.77 5.74111 14.239L5.74311 14.245C5.73275 14.2635 5.72405 14.2829 5.71711 14.303C5.60911 14.606 5.51411 14.911 5.42711 15.217C5.28711 15.391 5.12511 15.542 4.94411 15.677C4.90192 15.6248 4.85824 15.5737 4.81311 15.524C5.25525 14.8607 5.53733 14.1039 5.63711 13.313C5.68966 12.8181 5.68429 12.3187 5.62111 11.825C5.57511 11.425 5.49511 11.005 5.38311 10.551C5.28611 10.158 5.16611 9.741 5.02011 9.303C4.92911 9.488 4.80011 9.66999 4.64111 9.84799L4.55511 9.942C4.52611 9.974 4.49511 10.002 4.46311 10.036C4.89711 9.362 4.94911 8.639 4.82111 7.888C4.71061 8.19867 4.54458 8.48668 4.33111 8.738C4.29811 8.776 4.25911 8.815 4.22111 8.854C4.21111 8.861 4.20211 8.87199 4.18811 8.882C4.33211 8.642 4.43811 8.415 4.50611 8.184C4.52229 8.13615 4.53565 8.0874 4.54611 8.038C4.56178 7.96353 4.57445 7.88847 4.58411 7.813L4.60211 7.667C4.61136 7.54915 4.61069 7.43073 4.60011 7.313C4.59711 7.273 4.59611 7.237 4.59011 7.2C4.58011 7.145 4.57411 7.095 4.56311 7.046C4.51512 6.76249 4.45068 6.48202 4.37011 6.206C4.36011 6.178 4.35511 6.15 4.34411 6.122C4.31711 6.043 4.29611 5.973 4.27211 5.913C4.24591 5.84175 4.21587 5.77198 4.18211 5.704C4.17438 5.73858 4.16263 5.77214 4.14711 5.804C4.04511 6.044 3.80711 6.374 3.59011 6.604C3.58711 6.607 3.58311 6.609 3.58311 6.614L3.54311 6.657C3.86111 6.077 3.93311 5.711 3.92811 5.259C3.91047 4.71772 3.85702 4.17821 3.76811 3.644C3.71028 3.27217 3.63284 2.90365 3.53611 2.54C3.48547 2.35111 3.4254 2.16487 3.35611 1.982C3.30319 1.84977 3.24582 1.71936 3.18411 1.591C3.18478 1.58966 3.18545 1.58833 3.18611 1.587C2.57611 0.340996 1.82011 0.123996 1.82011 0.123996C1.82011 0.123996 1.55011 0.0139956 1.23811 0.000995616H1.23711ZM4.61711 15.784L4.64911 15.866V15.868C4.58911 15.901 4.53311 15.935 4.47111 15.965C4.45911 15.969 4.44711 15.977 4.43211 15.983C4.49784 15.9199 4.55994 15.8531 4.61811 15.783L4.61711 15.784ZM4.01411 17.41C4.14411 17.546 4.26411 17.652 4.36811 17.73L4.43811 17.957C4.35501 17.9691 4.27283 17.9868 4.19211 18.01L4.16211 17.912C4.13811 17.828 4.11411 17.742 4.08611 17.655L4.06511 17.582L4.01411 17.41ZM4.27411 18.285C4.36456 18.2831 4.45505 18.2864 4.54511 18.295L4.61511 18.524C4.69671 18.5095 4.78009 18.5082 4.86211 18.52L4.53611 19.147C4.44776 18.86 4.36043 18.5726 4.27411 18.285Z" fill="white"/>
</svg>
