<svg width="16" height="16" viewBox="0 0 16 16" fill="none" xmlns="http://www.w3.org/2000/svg">
<path fill-rule="evenodd" clip-rule="evenodd" d="M12.5708 4.03329C12.5379 4.0571 12.5238 4.0991 12.5354 4.13795C12.5839 4.23616 12.5701 4.35371 12.5001 4.43796C12.4847 4.45739 12.4776 4.48217 12.4805 4.50682C12.4834 4.53146 12.496 4.55395 12.5154 4.5693C12.5315 4.58185 12.5511 4.58887 12.5714 4.5893C12.5987 4.58906 12.6246 4.57687 12.6421 4.55596C12.7591 4.41539 12.7819 4.2189 12.7001 4.05529C12.686 4.03505 12.6644 4.02132 12.6401 4.01718C12.6157 4.01305 12.5908 4.01884 12.5708 4.03329ZM12.6369 5.06262C12.5818 5.11707 12.5212 5.16576 12.4562 5.20796H12.4556L11.6509 4.40328L12.6729 3.38126C13.1136 3.86127 13.0976 4.60261 12.6369 5.06262H12.6369ZM10.9178 5.06262L10.9158 5.06129C10.4579 4.60122 10.4427 3.86247 10.8811 3.38387C11.3196 2.90528 12.0569 2.85598 12.5552 3.27193L11.4818 4.34728C11.4668 4.36218 11.4583 4.38245 11.4583 4.40362C11.4583 4.42477 11.4668 4.44506 11.4818 4.45995L12.3132 5.2913C11.8472 5.5226 11.2856 5.43056 10.9178 5.06263L10.9178 5.06262ZM8.48006 9.36936H8.47872L7.91938 8.81002L11.0521 6.05998C11.0811 6.03424 11.1076 6.0059 11.1314 5.97531C11.0328 6.872 9.77874 8.13868 8.48006 9.36936ZM4.96153 11.6547C4.89932 11.6869 4.86712 11.7573 4.88353 11.8254L5.01886 12.4021C5.02785 12.4386 5.01125 12.4766 4.97836 12.4949C4.94546 12.5131 4.90442 12.5071 4.8782 12.4801H4.8762L4.25352 11.8574L4.05752 11.6607L6.56556 9.15537L7.77891 8.89337L8.36158 9.47605C7.52491 10.2107 6.38089 10.9434 4.96153 11.6548V11.6547ZM3.34396 12.4921C3.3305 12.4909 3.31806 12.4844 3.30942 12.474C3.30078 12.4636 3.29666 12.4502 3.29795 12.4367C3.29921 12.4252 3.30438 12.4143 3.31262 12.4061H3.31395L3.94462 11.7754L4.7593 12.5901L3.34395 12.4921H3.34396ZM5.77567 8.45335L6.55701 7.67201L7.14302 8.25735L5.82367 8.54135C5.80101 8.54724 5.77733 8.53636 5.76701 8.51535C5.75416 8.49539 5.75785 8.46903 5.77567 8.45335ZM7.64418 8.75935L6.91083 8.91801C6.89281 8.92208 6.87433 8.91326 6.86617 8.89668C6.85699 8.88084 6.85974 8.8608 6.87283 8.84801L7.30284 8.418L7.64418 8.75935H7.64418ZM7.42391 8.29668L10.384 5.33663C10.4897 5.22577 10.648 5.18245 10.7954 5.22408C10.9428 5.26571 11.0551 5.38544 11.0873 5.53522C11.1194 5.685 11.066 5.84025 10.9486 5.93865L7.81591 8.68869L7.42391 8.29668ZM10.666 5.05597C10.5175 5.05792 10.3757 5.11772 10.2707 5.22264L7.30196 8.19135L7.09729 7.98668L6.66862 7.55801C9.59466 4.64063 10.122 4.61263 10.666 5.05597H10.666ZM9.01803 0.0658762C4.63663 -0.496133 0.627897 2.59991 0.065888 6.98198C-0.496121 11.3634 2.59926 15.3714 6.98133 15.9341C11.3634 16.4961 15.3728 13.4001 15.9335 9.01802C16.4961 4.63661 13.4008 0.628552 9.01803 0.0658762Z" fill="white"/>
</svg>
