<svg width="22" height="28" viewBox="0 0 22 28" fill="none" xmlns="http://www.w3.org/2000/svg">
  <path
    d="M21 0H1C0.446875 0 0 0.446875 0 1V27C0 27.5531 0.446875 28 1 28H21C21.5531 28 22 27.5531 22 27V1C22 0.446875 21.5531 0 21 0ZM2.25 2.25H19.75V8.75H2.25V2.25ZM19.75 17.25H2.25V10.75H19.75V17.25ZM19.75 25.75H2.25V19.25H19.75V25.75ZM4.5 5.5C4.5 5.83152 4.6317 6.14946 4.86612 6.38388C5.10054 6.6183 5.41848 6.75 5.75 6.75C6.08152 6.75 6.39946 6.6183 6.63388 6.38388C6.8683 6.14946 7 5.83152 7 5.5C7 5.16848 6.8683 4.85054 6.63388 4.61612C6.39946 4.3817 6.08152 4.25 5.75 4.25C5.41848 4.25 5.10054 4.3817 4.86612 4.61612C4.6317 4.85054 4.5 5.16848 4.5 5.5ZM4.5 14C4.5 14.3315 4.6317 14.6495 4.86612 14.8839C5.10054 15.1183 5.41848 15.25 5.75 15.25C6.08152 15.25 6.39946 15.1183 6.63388 14.8839C6.8683 14.6495 7 14.3315 7 14C7 13.6685 6.8683 13.3505 6.63388 13.1161C6.39946 12.8817 6.08152 12.75 5.75 12.75C5.41848 12.75 5.10054 12.8817 4.86612 13.1161C4.6317 13.3505 4.5 13.6685 4.5 14ZM4.5 22.5C4.5 22.8315 4.6317 23.1495 4.86612 23.3839C5.10054 23.6183 5.41848 23.75 5.75 23.75C6.08152 23.75 6.39946 23.6183 6.63388 23.3839C6.8683 23.1495 7 22.8315 7 22.5C7 22.1685 6.8683 21.8505 6.63388 21.6161C6.39946 21.3817 6.08152 21.25 5.75 21.25C5.41848 21.25 5.10054 21.3817 4.86612 21.6161C4.6317 21.8505 4.5 22.1685 4.5 22.5Z"
  />
</svg>
