<svg width="1352" height="164" viewBox="0 0 1352 164" fill="none" xmlns="http://www.w3.org/2000/svg">
<rect width="660" height="164" rx="8" fill="#1E293B"/>
<rect width="660" height="164" rx="4" fill="#1E293B"/>
<path d="M24.2422 25.9375V43H21.9805V25.9375H24.2422ZM31.3906 33.6133V35.4648H23.75V33.6133H31.3906ZM32.5508 25.9375V27.7891H23.75V25.9375H32.5508ZM36.7812 32.3125V43H34.6133V30.3203H36.7227L36.7812 32.3125ZM40.7422 30.25L40.7305 32.2656C40.5508 32.2266 40.3789 32.2031 40.2148 32.1953C40.0586 32.1797 39.8789 32.1719 39.6758 32.1719C39.1758 32.1719 38.7344 32.25 38.3516 32.4062C37.9688 32.5625 37.6445 32.7812 37.3789 33.0625C37.1133 33.3438 36.9023 33.6797 36.7461 34.0703C36.5977 34.4531 36.5 34.875 36.4531 35.3359L35.8438 35.6875C35.8438 34.9219 35.918 34.2031 36.0664 33.5312C36.2227 32.8594 36.4609 32.2656 36.7812 31.75C37.1016 31.2266 37.5078 30.8203 38 30.5312C38.5 30.2344 39.0938 30.0859 39.7812 30.0859C39.9375 30.0859 40.1172 30.1055 40.3203 30.1445C40.5234 30.1758 40.6641 30.2109 40.7422 30.25ZM41.9375 36.8008V36.5312C41.9375 35.6172 42.0703 34.7695 42.3359 33.9883C42.6016 33.1992 42.9844 32.5156 43.4844 31.9375C43.9844 31.3516 44.5898 30.8984 45.3008 30.5781C46.0117 30.25 46.8086 30.0859 47.6914 30.0859C48.582 30.0859 49.3828 30.25 50.0938 30.5781C50.8125 30.8984 51.4219 31.3516 51.9219 31.9375C52.4297 32.5156 52.8164 33.1992 53.082 33.9883C53.3477 34.7695 53.4805 35.6172 53.4805 36.5312V36.8008C53.4805 37.7148 53.3477 38.5625 53.082 39.3438C52.8164 40.125 52.4297 40.8086 51.9219 41.3945C51.4219 41.9727 50.8164 42.4258 50.1055 42.7539C49.4023 43.0742 48.6055 43.2344 47.7148 43.2344C46.8242 43.2344 46.0234 43.0742 45.3125 42.7539C44.6016 42.4258 43.9922 41.9727 43.4844 41.3945C42.9844 40.8086 42.6016 40.125 42.3359 39.3438C42.0703 38.5625 41.9375 37.7148 41.9375 36.8008ZM44.1055 36.5312V36.8008C44.1055 37.4336 44.1797 38.0312 44.3281 38.5938C44.4766 39.1484 44.6992 39.6406 44.9961 40.0703C45.3008 40.5 45.6797 40.8398 46.1328 41.0898C46.5859 41.332 47.1133 41.4531 47.7148 41.4531C48.3086 41.4531 48.8281 41.332 49.2734 41.0898C49.7266 40.8398 50.1016 40.5 50.3984 40.0703C50.6953 39.6406 50.918 39.1484 51.0664 38.5938C51.2227 38.0312 51.3008 37.4336 51.3008 36.8008V36.5312C51.3008 35.9062 51.2227 35.3164 51.0664 34.7617C50.918 34.1992 50.6914 33.7031 50.3867 33.2734C50.0898 32.8359 49.7148 32.4922 49.2617 32.2422C48.8164 31.9922 48.293 31.8672 47.6914 31.8672C47.0977 31.8672 46.5742 31.9922 46.1211 32.2422C45.6758 32.4922 45.3008 32.8359 44.9961 33.2734C44.6992 33.7031 44.4766 34.1992 44.3281 34.7617C44.1797 35.3164 44.1055 35.9062 44.1055 36.5312ZM58.3672 33.0273V43H56.1992V30.3203H58.25L58.3672 33.0273ZM57.8516 36.1797L56.9492 36.1445C56.957 35.2773 57.0859 34.4766 57.3359 33.7422C57.5859 33 57.9375 32.3555 58.3906 31.8086C58.8438 31.2617 59.3828 30.8398 60.0078 30.543C60.6406 30.2383 61.3398 30.0859 62.1055 30.0859C62.7305 30.0859 63.293 30.1719 63.793 30.3438C64.293 30.5078 64.7188 30.7734 65.0703 31.1406C65.4297 31.5078 65.7031 31.9844 65.8906 32.5703C66.0781 33.1484 66.1719 33.8555 66.1719 34.6914V43H63.9922V34.668C63.9922 34.0039 63.8945 33.4727 63.6992 33.0742C63.5039 32.668 63.2188 32.375 62.8438 32.1953C62.4688 32.0078 62.0078 31.9141 61.4609 31.9141C60.9219 31.9141 60.4297 32.0273 59.9844 32.2539C59.5469 32.4805 59.168 32.793 58.8477 33.1914C58.5352 33.5898 58.2891 34.0469 58.1094 34.5625C57.9375 35.0703 57.8516 35.6094 57.8516 36.1797ZM74.7734 30.3203V31.9844H67.918V30.3203H74.7734ZM70.2383 27.2383H72.4062V39.8594C72.4062 40.2891 72.4727 40.6133 72.6055 40.832C72.7383 41.0508 72.9102 41.1953 73.1211 41.2656C73.332 41.3359 73.5586 41.3711 73.8008 41.3711C73.9805 41.3711 74.168 41.3555 74.3633 41.3242C74.5664 41.2852 74.7188 41.2539 74.8203 41.2305L74.832 43C74.6602 43.0547 74.4336 43.1055 74.1523 43.1523C73.8789 43.207 73.5469 43.2344 73.1562 43.2344C72.625 43.2344 72.1367 43.1289 71.6914 42.918C71.2461 42.707 70.8906 42.3555 70.625 41.8633C70.3672 41.3633 70.2383 40.6914 70.2383 39.8477V27.2383ZM82.5781 43.2344C81.6953 43.2344 80.8945 43.0859 80.1758 42.7891C79.4648 42.4844 78.8516 42.0586 78.3359 41.5117C77.8281 40.9648 77.4375 40.3164 77.1641 39.5664C76.8906 38.8164 76.7539 37.9961 76.7539 37.1055V36.6133C76.7539 35.582 76.9062 34.6641 77.2109 33.8594C77.5156 33.0469 77.9297 32.3594 78.4531 31.7969C78.9766 31.2344 79.5703 30.8086 80.2344 30.5195C80.8984 30.2305 81.5859 30.0859 82.2969 30.0859C83.2031 30.0859 83.9844 30.2422 84.6406 30.5547C85.3047 30.8672 85.8477 31.3047 86.2695 31.8672C86.6914 32.4219 87.0039 33.0781 87.207 33.8359C87.4102 34.5859 87.5117 35.4062 87.5117 36.2969V37.2695H78.043V35.5H85.3438V35.3359C85.3125 34.7734 85.1953 34.2266 84.9922 33.6953C84.7969 33.1641 84.4844 32.7266 84.0547 32.3828C83.625 32.0391 83.0391 31.8672 82.2969 31.8672C81.8047 31.8672 81.3516 31.9727 80.9375 32.1836C80.5234 32.3867 80.168 32.6914 79.8711 33.0977C79.5742 33.5039 79.3438 34 79.1797 34.5859C79.0156 35.1719 78.9336 35.8477 78.9336 36.6133V37.1055C78.9336 37.707 79.0156 38.2734 79.1797 38.8047C79.3516 39.3281 79.5977 39.7891 79.918 40.1875C80.2461 40.5859 80.6406 40.8984 81.1016 41.125C81.5703 41.3516 82.1016 41.4648 82.6953 41.4648C83.4609 41.4648 84.1094 41.3086 84.6406 40.9961C85.1719 40.6836 85.6367 40.2656 86.0352 39.7422L87.3477 40.7852C87.0742 41.1992 86.7266 41.5938 86.3047 41.9688C85.8828 42.3438 85.3633 42.6484 84.7461 42.8828C84.1367 43.1172 83.4141 43.2344 82.5781 43.2344ZM92.2109 33.0273V43H90.043V30.3203H92.0938L92.2109 33.0273ZM91.6953 36.1797L90.793 36.1445C90.8008 35.2773 90.9297 34.4766 91.1797 33.7422C91.4297 33 91.7812 32.3555 92.2344 31.8086C92.6875 31.2617 93.2266 30.8398 93.8516 30.543C94.4844 30.2383 95.1836 30.0859 95.9492 30.0859C96.5742 30.0859 97.1367 30.1719 97.6367 30.3438C98.1367 30.5078 98.5625 30.7734 98.9141 31.1406C99.2734 31.5078 99.5469 31.9844 99.7344 32.5703C99.9219 33.1484 100.016 33.8555 100.016 34.6914V43H97.8359V34.668C97.8359 34.0039 97.7383 33.4727 97.543 33.0742C97.3477 32.668 97.0625 32.375 96.6875 32.1953C96.3125 32.0078 95.8516 31.9141 95.3047 31.9141C94.7656 31.9141 94.2734 32.0273 93.8281 32.2539C93.3906 32.4805 93.0117 32.793 92.6914 33.1914C92.3789 33.5898 92.1328 34.0469 91.9531 34.5625C91.7812 35.0703 91.6953 35.6094 91.6953 36.1797ZM111.301 40.5391V25H113.48V43H111.488L111.301 40.5391ZM102.77 36.8008V36.5547C102.77 35.5859 102.887 34.707 103.121 33.918C103.363 33.1211 103.703 32.4375 104.141 31.8672C104.586 31.2969 105.113 30.8594 105.723 30.5547C106.34 30.2422 107.027 30.0859 107.785 30.0859C108.582 30.0859 109.277 30.2266 109.871 30.5078C110.473 30.7812 110.98 31.1836 111.395 31.7148C111.816 32.2383 112.148 32.8711 112.391 33.6133C112.633 34.3555 112.801 35.1953 112.895 36.1328V37.2109C112.809 38.1406 112.641 38.9766 112.391 39.7188C112.148 40.4609 111.816 41.0938 111.395 41.6172C110.98 42.1406 110.473 42.543 109.871 42.8242C109.27 43.0977 108.566 43.2344 107.762 43.2344C107.02 43.2344 106.34 43.0742 105.723 42.7539C105.113 42.4336 104.586 41.9844 104.141 41.4062C103.703 40.8281 103.363 40.1484 103.121 39.3672C102.887 38.5781 102.77 37.7227 102.77 36.8008ZM104.949 36.5547V36.8008C104.949 37.4336 105.012 38.0273 105.137 38.582C105.27 39.1367 105.473 39.625 105.746 40.0469C106.02 40.4688 106.367 40.8008 106.789 41.043C107.211 41.2773 107.715 41.3945 108.301 41.3945C109.02 41.3945 109.609 41.2422 110.07 40.9375C110.539 40.6328 110.914 40.2305 111.195 39.7305C111.477 39.2305 111.695 38.6875 111.852 38.1016V35.2773C111.758 34.8477 111.621 34.4336 111.441 34.0352C111.27 33.6289 111.043 33.2695 110.762 32.957C110.488 32.6367 110.148 32.3828 109.742 32.1953C109.344 32.0078 108.871 31.9141 108.324 31.9141C107.73 31.9141 107.219 32.0391 106.789 32.2891C106.367 32.5312 106.02 32.8672 105.746 33.2969C105.473 33.7188 105.27 34.2109 105.137 34.7734C105.012 35.3281 104.949 35.9219 104.949 36.5547Z" fill="#E2E8F0"/>
<rect x="363.5" y="21.5" width="27" height="27" rx="3.5" fill="#365314"/>
<path d="M377 26.25C372.168 26.25 368.25 30.168 368.25 35C368.25 39.832 372.168 43.75 377 43.75C381.832 43.75 385.75 39.832 385.75 35C385.75 30.168 381.832 26.25 377 26.25ZM380.779 32.1426L376.666 37.8457C376.609 37.9259 376.533 37.9913 376.445 38.0364C376.357 38.0815 376.26 38.1051 376.161 38.1051C376.062 38.1051 375.965 38.0815 375.877 38.0364C375.79 37.9913 375.714 37.9259 375.656 37.8457L373.221 34.4707C373.146 34.3672 373.221 34.2227 373.348 34.2227H374.264C374.463 34.2227 374.652 34.3184 374.77 34.4824L376.16 36.4121L379.23 32.1543C379.348 31.9922 379.535 31.8945 379.736 31.8945H380.652C380.779 31.8945 380.854 32.0391 380.779 32.1426Z" fill="#BEF264"/>
<rect x="363.5" y="21.5" width="27" height="27" rx="3.5" stroke="#65A30D"/>
<path d="M410.559 34.4648V35.0039C410.559 35.6445 410.479 36.2188 410.318 36.7266C410.158 37.2344 409.928 37.666 409.627 38.0215C409.326 38.377 408.965 38.6484 408.543 38.8359C408.125 39.0234 407.656 39.1172 407.137 39.1172C406.633 39.1172 406.17 39.0234 405.748 38.8359C405.33 38.6484 404.967 38.377 404.658 38.0215C404.354 37.666 404.117 37.2344 403.949 36.7266C403.781 36.2188 403.697 35.6445 403.697 35.0039V34.4648C403.697 33.8242 403.779 33.252 403.943 32.748C404.111 32.2402 404.348 31.8086 404.652 31.4531C404.957 31.0938 405.318 30.8203 405.736 30.6328C406.158 30.4453 406.621 30.3516 407.125 30.3516C407.645 30.3516 408.113 30.4453 408.531 30.6328C408.953 30.8203 409.314 31.0938 409.615 31.4531C409.92 31.8086 410.152 32.2402 410.312 32.748C410.477 33.252 410.559 33.8242 410.559 34.4648ZM409.439 35.0039V34.4531C409.439 33.9453 409.387 33.4961 409.281 33.1055C409.18 32.7148 409.029 32.3867 408.83 32.1211C408.631 31.8555 408.387 31.6543 408.098 31.5176C407.812 31.3809 407.488 31.3125 407.125 31.3125C406.773 31.3125 406.455 31.3809 406.17 31.5176C405.889 31.6543 405.646 31.8555 405.443 32.1211C405.244 32.3867 405.09 32.7148 404.98 33.1055C404.871 33.4961 404.816 33.9453 404.816 34.4531V35.0039C404.816 35.5156 404.871 35.9688 404.98 36.3633C405.09 36.7539 405.246 37.084 405.449 37.3535C405.656 37.6191 405.9 37.8203 406.182 37.957C406.467 38.0938 406.785 38.1621 407.137 38.1621C407.504 38.1621 407.83 38.0938 408.115 37.957C408.4 37.8203 408.641 37.6191 408.836 37.3535C409.035 37.084 409.186 36.7539 409.287 36.3633C409.389 35.9688 409.439 35.5156 409.439 35.0039ZM413.172 33.8789V41.4375H412.082V32.6602H413.078L413.172 33.8789ZM417.443 35.7773V35.9004C417.443 36.3613 417.389 36.7891 417.279 37.1836C417.17 37.5742 417.01 37.9141 416.799 38.2031C416.592 38.4922 416.336 38.7168 416.031 38.877C415.727 39.0371 415.377 39.1172 414.982 39.1172C414.58 39.1172 414.225 39.0508 413.916 38.918C413.607 38.7852 413.346 38.5918 413.131 38.3379C412.916 38.084 412.744 37.7793 412.615 37.4238C412.49 37.0684 412.404 36.668 412.357 36.2227V35.5664C412.404 35.0977 412.492 34.6777 412.621 34.3066C412.75 33.9355 412.92 33.6191 413.131 33.3574C413.346 33.0918 413.605 32.8906 413.91 32.7539C414.215 32.6133 414.566 32.543 414.965 32.543C415.363 32.543 415.717 32.6211 416.025 32.7773C416.334 32.9297 416.594 33.1484 416.805 33.4336C417.016 33.7188 417.174 34.0605 417.279 34.459C417.389 34.8535 417.443 35.293 417.443 35.7773ZM416.354 35.9004V35.7773C416.354 35.4609 416.32 35.1641 416.254 34.8867C416.188 34.6055 416.084 34.3594 415.943 34.1484C415.807 33.9336 415.631 33.7656 415.416 33.6445C415.201 33.5195 414.945 33.457 414.648 33.457C414.375 33.457 414.137 33.5039 413.934 33.5977C413.734 33.6914 413.564 33.8184 413.424 33.9785C413.283 34.1348 413.168 34.3145 413.078 34.5176C412.992 34.7168 412.928 34.9238 412.885 35.1387V36.6562C412.963 36.9297 413.072 37.1875 413.213 37.4297C413.354 37.668 413.541 37.8613 413.775 38.0098C414.01 38.1543 414.305 38.2266 414.66 38.2266C414.953 38.2266 415.205 38.166 415.416 38.0449C415.631 37.9199 415.807 37.75 415.943 37.5352C416.084 37.3203 416.188 37.0742 416.254 36.7969C416.32 36.5156 416.354 36.2168 416.354 35.9004ZM421.457 39.1172C421.016 39.1172 420.615 39.043 420.256 38.8945C419.9 38.7422 419.594 38.5293 419.336 38.2559C419.082 37.9824 418.887 37.6582 418.75 37.2832C418.613 36.9082 418.545 36.498 418.545 36.0527V35.8066C418.545 35.291 418.621 34.832 418.773 34.4297C418.926 34.0234 419.133 33.6797 419.395 33.3984C419.656 33.1172 419.953 32.9043 420.285 32.7598C420.617 32.6152 420.961 32.543 421.316 32.543C421.77 32.543 422.16 32.6211 422.488 32.7773C422.82 32.9336 423.092 33.1523 423.303 33.4336C423.514 33.7109 423.67 34.0391 423.771 34.418C423.873 34.793 423.924 35.2031 423.924 35.6484V36.1348H419.189V35.25H422.84V35.168C422.824 34.8867 422.766 34.6133 422.664 34.3477C422.566 34.082 422.41 33.8633 422.195 33.6914C421.98 33.5195 421.688 33.4336 421.316 33.4336C421.07 33.4336 420.844 33.4863 420.637 33.5918C420.43 33.6934 420.252 33.8457 420.104 34.0488C419.955 34.252 419.84 34.5 419.758 34.793C419.676 35.0859 419.635 35.4238 419.635 35.8066V36.0527C419.635 36.3535 419.676 36.6367 419.758 36.9023C419.844 37.1641 419.967 37.3945 420.127 37.5938C420.291 37.793 420.488 37.9492 420.719 38.0625C420.953 38.1758 421.219 38.2324 421.516 38.2324C421.898 38.2324 422.223 38.1543 422.488 37.998C422.754 37.8418 422.986 37.6328 423.186 37.3711L423.842 37.8926C423.705 38.0996 423.531 38.2969 423.32 38.4844C423.109 38.6719 422.85 38.8242 422.541 38.9414C422.236 39.0586 421.875 39.1172 421.457 39.1172ZM426.273 33.6562V39H425.189V32.6602H426.244L426.273 33.6562ZM428.254 32.625L428.248 33.6328C428.158 33.6133 428.072 33.6016 427.99 33.5977C427.912 33.5898 427.822 33.5859 427.721 33.5859C427.471 33.5859 427.25 33.625 427.059 33.7031C426.867 33.7812 426.705 33.8906 426.572 34.0312C426.439 34.1719 426.334 34.3398 426.256 34.5352C426.182 34.7266 426.133 34.9375 426.109 35.168L425.805 35.3438C425.805 34.9609 425.842 34.6016 425.916 34.2656C425.994 33.9297 426.113 33.6328 426.273 33.375C426.434 33.1133 426.637 32.9102 426.883 32.7656C427.133 32.6172 427.43 32.543 427.773 32.543C427.852 32.543 427.941 32.5527 428.043 32.5723C428.145 32.5879 428.215 32.6055 428.254 32.625ZM432.76 37.916V34.6523C432.76 34.4023 432.709 34.1855 432.607 34.002C432.51 33.8145 432.361 33.6699 432.162 33.5684C431.963 33.4668 431.717 33.416 431.424 33.416C431.15 33.416 430.91 33.4629 430.703 33.5566C430.5 33.6504 430.34 33.7734 430.223 33.9258C430.109 34.0781 430.053 34.2422 430.053 34.418H428.969C428.969 34.1914 429.027 33.9668 429.145 33.7441C429.262 33.5215 429.43 33.3203 429.648 33.1406C429.871 32.957 430.137 32.8125 430.445 32.707C430.758 32.5977 431.105 32.543 431.488 32.543C431.949 32.543 432.355 32.6211 432.707 32.7773C433.062 32.9336 433.34 33.1699 433.539 33.4863C433.742 33.7988 433.844 34.1914 433.844 34.6641V37.6172C433.844 37.8281 433.861 38.0527 433.896 38.291C433.936 38.5293 433.992 38.7344 434.066 38.9062V39H432.936C432.881 38.875 432.838 38.709 432.807 38.502C432.775 38.291 432.76 38.0957 432.76 37.916ZM432.947 35.1562L432.959 35.918H431.863C431.555 35.918 431.279 35.9434 431.037 35.9941C430.795 36.041 430.592 36.1133 430.428 36.2109C430.264 36.3086 430.139 36.4316 430.053 36.5801C429.967 36.7246 429.924 36.8945 429.924 37.0898C429.924 37.2891 429.969 37.4707 430.059 37.6348C430.148 37.7988 430.283 37.9297 430.463 38.0273C430.646 38.1211 430.871 38.168 431.137 38.168C431.469 38.168 431.762 38.0977 432.016 37.957C432.27 37.8164 432.471 37.6445 432.619 37.4414C432.771 37.2383 432.854 37.041 432.865 36.8496L433.328 37.3711C433.301 37.5352 433.227 37.7168 433.105 37.916C432.984 38.1152 432.822 38.3066 432.619 38.4902C432.42 38.6699 432.182 38.8203 431.904 38.9414C431.631 39.0586 431.322 39.1172 430.979 39.1172C430.549 39.1172 430.172 39.0332 429.848 38.8652C429.527 38.6973 429.277 38.4727 429.098 38.1914C428.922 37.9062 428.834 37.5879 428.834 37.2363C428.834 36.8965 428.9 36.5977 429.033 36.3398C429.166 36.0781 429.357 35.8613 429.607 35.6895C429.857 35.5137 430.158 35.3809 430.51 35.291C430.861 35.2012 431.254 35.1562 431.688 35.1562H432.947ZM438.203 32.6602V33.4922H434.775V32.6602H438.203ZM435.936 31.1191H437.02V37.4297C437.02 37.6445 437.053 37.8066 437.119 37.916C437.186 38.0254 437.271 38.0977 437.377 38.1328C437.482 38.168 437.596 38.1855 437.717 38.1855C437.807 38.1855 437.9 38.1777 437.998 38.1621C438.1 38.1426 438.176 38.127 438.227 38.1152L438.232 39C438.146 39.0273 438.033 39.0527 437.893 39.0762C437.756 39.1035 437.59 39.1172 437.395 39.1172C437.129 39.1172 436.885 39.0645 436.662 38.959C436.439 38.8535 436.262 38.6777 436.129 38.4316C436 38.1816 435.936 37.8457 435.936 37.4238V31.1191ZM440.652 32.6602V39H439.562V32.6602H440.652ZM439.48 30.9785C439.48 30.8027 439.533 30.6543 439.639 30.5332C439.748 30.4121 439.908 30.3516 440.119 30.3516C440.326 30.3516 440.484 30.4121 440.594 30.5332C440.707 30.6543 440.764 30.8027 440.764 30.9785C440.764 31.1465 440.707 31.291 440.594 31.4121C440.484 31.5293 440.326 31.5879 440.119 31.5879C439.908 31.5879 439.748 31.5293 439.639 31.4121C439.533 31.291 439.48 31.1465 439.48 30.9785ZM442.105 35.9004V35.7656C442.105 35.3086 442.172 34.8848 442.305 34.4941C442.438 34.0996 442.629 33.7578 442.879 33.4688C443.129 33.1758 443.432 32.9492 443.787 32.7891C444.143 32.625 444.541 32.543 444.982 32.543C445.428 32.543 445.828 32.625 446.184 32.7891C446.543 32.9492 446.848 33.1758 447.098 33.4688C447.352 33.7578 447.545 34.0996 447.678 34.4941C447.811 34.8848 447.877 35.3086 447.877 35.7656V35.9004C447.877 36.3574 447.811 36.7812 447.678 37.1719C447.545 37.5625 447.352 37.9043 447.098 38.1973C446.848 38.4863 446.545 38.7129 446.189 38.877C445.838 39.0371 445.439 39.1172 444.994 39.1172C444.549 39.1172 444.148 39.0371 443.793 38.877C443.438 38.7129 443.133 38.4863 442.879 38.1973C442.629 37.9043 442.438 37.5625 442.305 37.1719C442.172 36.7812 442.105 36.3574 442.105 35.9004ZM443.189 35.7656V35.9004C443.189 36.2168 443.227 36.5156 443.301 36.7969C443.375 37.0742 443.486 37.3203 443.635 37.5352C443.787 37.75 443.977 37.9199 444.203 38.0449C444.43 38.166 444.693 38.2266 444.994 38.2266C445.291 38.2266 445.551 38.166 445.773 38.0449C446 37.9199 446.188 37.75 446.336 37.5352C446.484 37.3203 446.596 37.0742 446.67 36.7969C446.748 36.5156 446.787 36.2168 446.787 35.9004V35.7656C446.787 35.4531 446.748 35.1582 446.67 34.8809C446.596 34.5996 446.482 34.3516 446.33 34.1367C446.182 33.918 445.994 33.7461 445.768 33.6211C445.545 33.4961 445.283 33.4336 444.982 33.4336C444.686 33.4336 444.424 33.4961 444.197 33.6211C443.975 33.7461 443.787 33.918 443.635 34.1367C443.486 34.3516 443.375 34.5996 443.301 34.8809C443.227 35.1582 443.189 35.4531 443.189 35.7656ZM450.32 34.0137V39H449.236V32.6602H450.262L450.32 34.0137ZM450.062 35.5898L449.611 35.5723C449.615 35.1387 449.68 34.7383 449.805 34.3711C449.93 34 450.105 33.6777 450.332 33.4043C450.559 33.1309 450.828 32.9199 451.141 32.7715C451.457 32.6191 451.807 32.543 452.189 32.543C452.502 32.543 452.783 32.5859 453.033 32.6719C453.283 32.7539 453.496 32.8867 453.672 33.0703C453.852 33.2539 453.988 33.4922 454.082 33.7852C454.176 34.0742 454.223 34.4277 454.223 34.8457V39H453.133V34.834C453.133 34.502 453.084 34.2363 452.986 34.0371C452.889 33.834 452.746 33.6875 452.559 33.5977C452.371 33.5039 452.141 33.457 451.867 33.457C451.598 33.457 451.352 33.5137 451.129 33.627C450.91 33.7402 450.721 33.8965 450.561 34.0957C450.404 34.2949 450.281 34.5234 450.191 34.7812C450.105 35.0352 450.062 35.3047 450.062 35.5898ZM459.607 37.916V34.6523C459.607 34.4023 459.557 34.1855 459.455 34.002C459.357 33.8145 459.209 33.6699 459.01 33.5684C458.811 33.4668 458.564 33.416 458.271 33.416C457.998 33.416 457.758 33.4629 457.551 33.5566C457.348 33.6504 457.188 33.7734 457.07 33.9258C456.957 34.0781 456.9 34.2422 456.9 34.418H455.816C455.816 34.1914 455.875 33.9668 455.992 33.7441C456.109 33.5215 456.277 33.3203 456.496 33.1406C456.719 32.957 456.984 32.8125 457.293 32.707C457.605 32.5977 457.953 32.543 458.336 32.543C458.797 32.543 459.203 32.6211 459.555 32.7773C459.91 32.9336 460.188 33.1699 460.387 33.4863C460.59 33.7988 460.691 34.1914 460.691 34.6641V37.6172C460.691 37.8281 460.709 38.0527 460.744 38.291C460.783 38.5293 460.84 38.7344 460.914 38.9062V39H459.783C459.729 38.875 459.686 38.709 459.654 38.502C459.623 38.291 459.607 38.0957 459.607 37.916ZM459.795 35.1562L459.807 35.918H458.711C458.402 35.918 458.127 35.9434 457.885 35.9941C457.643 36.041 457.439 36.1133 457.275 36.2109C457.111 36.3086 456.986 36.4316 456.9 36.5801C456.814 36.7246 456.771 36.8945 456.771 37.0898C456.771 37.2891 456.816 37.4707 456.906 37.6348C456.996 37.7988 457.131 37.9297 457.311 38.0273C457.494 38.1211 457.719 38.168 457.984 38.168C458.316 38.168 458.609 38.0977 458.863 37.957C459.117 37.8164 459.318 37.6445 459.467 37.4414C459.619 37.2383 459.701 37.041 459.713 36.8496L460.176 37.3711C460.148 37.5352 460.074 37.7168 459.953 37.916C459.832 38.1152 459.67 38.3066 459.467 38.4902C459.268 38.6699 459.029 38.8203 458.752 38.9414C458.479 39.0586 458.17 39.1172 457.826 39.1172C457.396 39.1172 457.02 39.0332 456.695 38.8652C456.375 38.6973 456.125 38.4727 455.945 38.1914C455.77 37.9062 455.682 37.5879 455.682 37.2363C455.682 36.8965 455.748 36.5977 455.881 36.3398C456.014 36.0781 456.205 35.8613 456.455 35.6895C456.705 35.5137 457.006 35.3809 457.357 35.291C457.709 35.2012 458.102 35.1562 458.535 35.1562H459.795ZM463.574 30V39H462.484V30H463.574Z" fill="#A3E635"/>
<path d="M505.99 30.4688H508.814C509.455 30.4688 509.996 30.5664 510.438 30.7617C510.883 30.957 511.221 31.2461 511.451 31.6289C511.686 32.0078 511.803 32.4746 511.803 33.0293C511.803 33.4199 511.723 33.7773 511.562 34.1016C511.406 34.4219 511.18 34.6953 510.883 34.9219C510.59 35.1445 510.238 35.3105 509.828 35.4199L509.512 35.543H506.857L506.846 34.623H508.85C509.256 34.623 509.594 34.5527 509.863 34.4121C510.133 34.2676 510.336 34.0742 510.473 33.832C510.609 33.5898 510.678 33.3223 510.678 33.0293C510.678 32.7012 510.613 32.4141 510.484 32.168C510.355 31.9219 510.152 31.7324 509.875 31.5996C509.602 31.4629 509.248 31.3945 508.814 31.3945H507.121V39H505.99V30.4688ZM510.977 39L508.902 35.1328L510.08 35.127L512.184 38.9297V39H510.977ZM519.405 38.0801V39H514.887V38.0801H519.405ZM515.116 30.4688V39H513.985V30.4688H515.116ZM518.807 34.1367V35.0566H514.887V34.1367H518.807ZM519.346 30.4688V31.3945H514.887V30.4688H519.346ZM526.579 38.0801V39H522.313V38.0801H526.579ZM522.536 30.4688V39H521.405V30.4688H522.536ZM529.687 30.4688V39H528.556V30.4688H529.687ZM535.607 31.2246L532.783 39H531.629L534.88 30.4688H535.625L535.607 31.2246ZM537.974 39L535.144 31.2246L535.127 30.4688H535.871L539.134 39H537.974ZM537.828 35.8418V36.7676H533.035V35.8418H537.828ZM543.918 35.0098H541.756L541.744 34.1016H543.707C544.031 34.1016 544.314 34.0469 544.557 33.9375C544.799 33.8281 544.986 33.6719 545.119 33.4688C545.256 33.2617 545.324 33.0156 545.324 32.7305C545.324 32.418 545.264 32.1641 545.143 31.9688C545.025 31.7695 544.844 31.625 544.598 31.5352C544.355 31.4414 544.047 31.3945 543.672 31.3945H542.008V39H540.877V30.4688H543.672C544.109 30.4688 544.5 30.5137 544.844 30.6035C545.188 30.6895 545.479 30.8262 545.717 31.0137C545.959 31.1973 546.143 31.4316 546.268 31.7168C546.393 32.002 546.455 32.3438 546.455 32.7422C546.455 33.0938 546.365 33.4121 546.186 33.6973C546.006 33.9785 545.756 34.209 545.436 34.3887C545.119 34.5684 544.748 34.6836 544.322 34.7344L543.918 35.0098ZM543.865 39H541.311L541.949 38.0801H543.865C544.225 38.0801 544.529 38.0176 544.779 37.8926C545.033 37.7676 545.227 37.5918 545.359 37.3652C545.492 37.1348 545.559 36.8633 545.559 36.5508C545.559 36.2344 545.502 35.9609 545.389 35.7305C545.275 35.5 545.098 35.3223 544.855 35.1973C544.613 35.0723 544.301 35.0098 543.918 35.0098H542.307L542.318 34.1016H544.521L544.762 34.4297C545.172 34.4648 545.52 34.582 545.805 34.7812C546.09 34.9766 546.307 35.2266 546.455 35.5312C546.607 35.8359 546.684 36.1719 546.684 36.5391C546.684 37.0703 546.566 37.5195 546.332 37.8867C546.102 38.25 545.775 38.5273 545.354 38.7188C544.932 38.9062 544.436 39 543.865 39ZM550.166 30.4688V39H549.036V30.4688H550.166ZM557.997 38.0801V39H553.731V38.0801H557.997ZM553.954 30.4688V39H552.823V30.4688H553.954ZM561.105 30.4688V39H559.974V30.4688H561.105ZM566.738 30.4688V39H565.625V30.4688H566.738ZM569.48 30.4688V31.3945H562.888V30.4688H569.48ZM571.832 30.4688L574.047 34.752L576.268 30.4688H577.551L574.609 35.8125V39H573.479V35.8125L570.537 30.4688H571.832Z" fill="#475569"/>
<path d="M592.681 39.6377H592.848C593.785 39.6377 594.547 39.5059 595.133 39.2422C595.719 38.9785 596.17 38.624 596.486 38.1787C596.803 37.7334 597.02 37.2324 597.137 36.6758C597.254 36.1133 597.312 35.5361 597.312 34.9443V32.9844C597.312 32.4043 597.245 31.8887 597.11 31.4375C596.981 30.9863 596.8 30.6084 596.565 30.3037C596.337 29.999 596.076 29.7676 595.783 29.6094C595.49 29.4512 595.18 29.3721 594.852 29.3721C594.477 29.3721 594.14 29.4482 593.841 29.6006C593.548 29.7471 593.299 29.9551 593.094 30.2246C592.895 30.4941 592.742 30.8105 592.637 31.1738C592.531 31.5371 592.479 31.9326 592.479 32.3604C592.479 32.7412 592.525 33.1104 592.619 33.4678C592.713 33.8252 592.856 34.1475 593.05 34.4346C593.243 34.7217 593.483 34.9502 593.771 35.1201C594.063 35.2842 594.406 35.3662 594.799 35.3662C595.162 35.3662 595.502 35.2959 595.818 35.1553C596.141 35.0088 596.425 34.8125 596.671 34.5664C596.923 34.3145 597.122 34.0303 597.269 33.7139C597.421 33.3975 597.509 33.0664 597.532 32.7207H598.306C598.306 33.207 598.209 33.6875 598.016 34.1621C597.828 34.6309 597.564 35.0586 597.225 35.4453C596.885 35.832 596.486 36.1426 596.029 36.377C595.572 36.6055 595.074 36.7197 594.535 36.7197C593.902 36.7197 593.354 36.5967 592.892 36.3506C592.429 36.1045 592.048 35.7764 591.749 35.3662C591.456 34.9561 591.236 34.499 591.09 33.9951C590.949 33.4854 590.879 32.9697 590.879 32.4482C590.879 31.8389 590.964 31.2676 591.134 30.7344C591.304 30.2012 591.556 29.7324 591.89 29.3281C592.224 28.918 592.637 28.5986 593.129 28.3701C593.627 28.1416 594.201 28.0273 594.852 28.0273C595.584 28.0273 596.208 28.1738 596.724 28.4668C597.239 28.7598 597.658 29.1523 597.98 29.6445C598.309 30.1367 598.549 30.6904 598.701 31.3057C598.854 31.9209 598.93 32.5537 598.93 33.2041V33.793C598.93 34.4551 598.886 35.1289 598.798 35.8145C598.716 36.4941 598.555 37.1445 598.314 37.7656C598.08 38.3867 597.737 38.9434 597.286 39.4355C596.835 39.9219 596.246 40.3086 595.52 40.5957C594.799 40.877 593.908 41.0176 592.848 41.0176H592.681V39.6377ZM609.257 37.5371C609.257 38.3164 609.075 38.9785 608.712 39.5234C608.354 40.0625 607.868 40.4727 607.253 40.7539C606.644 41.0352 605.955 41.1758 605.188 41.1758C604.42 41.1758 603.729 41.0352 603.113 40.7539C602.498 40.4727 602.012 40.0625 601.654 39.5234C601.297 38.9785 601.118 38.3164 601.118 37.5371C601.118 37.0273 601.215 36.5615 601.408 36.1396C601.607 35.7119 601.886 35.3398 602.243 35.0234C602.606 34.707 603.034 34.4639 603.526 34.2939C604.024 34.1182 604.572 34.0303 605.17 34.0303C605.955 34.0303 606.655 34.1826 607.271 34.4873C607.886 34.7861 608.369 35.1992 608.721 35.7266C609.078 36.2539 609.257 36.8574 609.257 37.5371ZM607.622 37.502C607.622 37.0273 607.52 36.6084 607.314 36.2451C607.109 35.876 606.822 35.5889 606.453 35.3838C606.084 35.1787 605.656 35.0762 605.17 35.0762C604.672 35.0762 604.241 35.1787 603.878 35.3838C603.521 35.5889 603.242 35.876 603.043 36.2451C602.844 36.6084 602.744 37.0273 602.744 37.502C602.744 37.9941 602.841 38.416 603.034 38.7676C603.233 39.1133 603.515 39.3799 603.878 39.5674C604.247 39.749 604.684 39.8398 605.188 39.8398C605.691 39.8398 606.125 39.749 606.488 39.5674C606.852 39.3799 607.13 39.1133 607.323 38.7676C607.522 38.416 607.622 37.9941 607.622 37.502ZM608.958 31.5342C608.958 32.1553 608.794 32.7148 608.466 33.2129C608.138 33.7109 607.689 34.1035 607.121 34.3906C606.553 34.6777 605.908 34.8213 605.188 34.8213C604.455 34.8213 603.802 34.6777 603.228 34.3906C602.659 34.1035 602.214 33.7109 601.892 33.2129C601.569 32.7148 601.408 32.1553 601.408 31.5342C601.408 30.79 601.569 30.1572 601.892 29.6357C602.22 29.1143 602.668 28.7158 603.236 28.4404C603.805 28.165 604.452 28.0273 605.179 28.0273C605.911 28.0273 606.562 28.165 607.13 28.4404C607.698 28.7158 608.144 29.1143 608.466 29.6357C608.794 30.1572 608.958 30.79 608.958 31.5342ZM607.332 31.5605C607.332 31.1328 607.241 30.7549 607.06 30.4268C606.878 30.0986 606.626 29.8408 606.304 29.6533C605.981 29.46 605.606 29.3633 605.179 29.3633C604.751 29.3633 604.376 29.4541 604.054 29.6357C603.737 29.8115 603.488 30.0635 603.307 30.3916C603.131 30.7197 603.043 31.1094 603.043 31.5605C603.043 32 603.131 32.3838 603.307 32.7119C603.488 33.04 603.74 33.2949 604.062 33.4766C604.385 33.6582 604.76 33.749 605.188 33.749C605.615 33.749 605.987 33.6582 606.304 33.4766C606.626 33.2949 606.878 33.04 607.06 32.7119C607.241 32.3838 607.332 32 607.332 31.5605ZM611.173 31.3408V30.6641C611.173 30.1777 611.278 29.7354 611.489 29.3369C611.7 28.9385 612.002 28.6191 612.395 28.3789C612.787 28.1387 613.253 28.0186 613.792 28.0186C614.343 28.0186 614.812 28.1387 615.198 28.3789C615.591 28.6191 615.893 28.9385 616.104 29.3369C616.314 29.7354 616.42 30.1777 616.42 30.6641V31.3408C616.42 31.8154 616.314 32.252 616.104 32.6504C615.898 33.0488 615.6 33.3682 615.207 33.6084C614.82 33.8486 614.354 33.9688 613.81 33.9688C613.265 33.9688 612.793 33.8486 612.395 33.6084C612.002 33.3682 611.7 33.0488 611.489 32.6504C611.278 32.252 611.173 31.8154 611.173 31.3408ZM612.395 30.6641V31.3408C612.395 31.6104 612.444 31.8652 612.544 32.1055C612.649 32.3457 612.808 32.542 613.019 32.6943C613.229 32.8408 613.493 32.9141 613.81 32.9141C614.126 32.9141 614.387 32.8408 614.592 32.6943C614.797 32.542 614.949 32.3457 615.049 32.1055C615.148 31.8652 615.198 31.6104 615.198 31.3408V30.6641C615.198 30.3887 615.146 30.1309 615.04 29.8906C614.94 29.6445 614.785 29.4482 614.574 29.3018C614.369 29.1494 614.108 29.0732 613.792 29.0732C613.481 29.0732 613.221 29.1494 613.01 29.3018C612.805 29.4482 612.649 29.6445 612.544 29.8906C612.444 30.1309 612.395 30.3887 612.395 30.6641ZM617.404 38.5479V37.8623C617.404 37.3818 617.51 36.9424 617.721 36.5439C617.932 36.1455 618.233 35.8262 618.626 35.5859C619.019 35.3457 619.484 35.2256 620.023 35.2256C620.574 35.2256 621.043 35.3457 621.43 35.5859C621.822 35.8262 622.124 36.1455 622.335 36.5439C622.546 36.9424 622.651 37.3818 622.651 37.8623V38.5479C622.651 39.0283 622.546 39.4678 622.335 39.8662C622.13 40.2646 621.831 40.584 621.438 40.8242C621.052 41.0645 620.586 41.1846 620.041 41.1846C619.496 41.1846 619.027 41.0645 618.635 40.8242C618.242 40.584 617.938 40.2646 617.721 39.8662C617.51 39.4678 617.404 39.0283 617.404 38.5479ZM618.626 37.8623V38.5479C618.626 38.8174 618.676 39.0752 618.775 39.3213C618.881 39.5615 619.039 39.7578 619.25 39.9102C619.461 40.0566 619.725 40.1299 620.041 40.1299C620.357 40.1299 620.618 40.0566 620.823 39.9102C621.034 39.7578 621.189 39.5615 621.289 39.3213C621.389 39.0811 621.438 38.8232 621.438 38.5479V37.8623C621.438 37.5869 621.386 37.3291 621.28 37.0889C621.181 36.8486 621.025 36.6553 620.814 36.5088C620.609 36.3564 620.346 36.2803 620.023 36.2803C619.713 36.2803 619.452 36.3564 619.241 36.5088C619.036 36.6553 618.881 36.8486 618.775 37.0889C618.676 37.3291 618.626 37.5869 618.626 37.8623ZM620.428 30.0225L614.179 40.0244L613.265 39.4443L619.514 29.4424L620.428 30.0225Z" fill="#E2E8F0"/>
<path d="M638.171 35.3922L634.282 30.9097C634.247 30.8692 634.203 30.8366 634.155 30.8143C634.106 30.7921 634.053 30.7805 633.999 30.7805C633.945 30.7805 633.892 30.7921 633.843 30.8143C633.795 30.8366 633.751 30.8692 633.716 30.9097L629.828 35.3922C629.816 35.4057 629.808 35.4223 629.806 35.44C629.803 35.4577 629.806 35.4758 629.813 35.4921C629.821 35.5084 629.832 35.5222 629.847 35.5319C629.863 35.5416 629.88 35.5468 629.898 35.5468H630.847C630.901 35.5468 630.953 35.5234 630.989 35.4824L633.554 32.5257V39.1246C633.554 39.1761 633.596 39.2183 633.648 39.2183H634.351C634.403 39.2183 634.445 39.1761 634.445 39.1246V32.5257L637.01 35.4824C637.045 35.5234 637.097 35.5468 637.152 35.5468H638.101C638.181 35.5468 638.224 35.4531 638.171 35.3922Z" fill="#BEF264"/>
<g clip-path="url(#clip0_3990_66954)">
<g clip-path="url(#clip1_3990_66954)">
<rect x="20" y="74" width="6" height="38" fill="#A3E635"/>
<rect x="29" y="74" width="6" height="38" fill="#A3E635"/>
<rect x="38" y="74" width="6" height="38" fill="#A3E635"/>
<rect x="47" y="74" width="6" height="38" fill="#A3E635"/>
<rect x="56" y="74" width="6" height="38" fill="#A3E635"/>
<rect x="65" y="74" width="6" height="38" fill="#A3E635"/>
<rect x="74" y="74" width="6" height="38" fill="#A3E635"/>
<rect x="83" y="74" width="6" height="38" fill="#A3E635"/>
<rect x="92" y="74" width="6" height="38" fill="#A3E635"/>
<rect x="101" y="74" width="6" height="38" fill="#A3E635"/>
<rect x="110" y="74" width="6" height="38" fill="#A3E635"/>
<rect x="119" y="74" width="6" height="38" fill="#A3E635"/>
<rect x="128" y="74" width="6" height="38" fill="#A3E635"/>
<rect x="137" y="74" width="6" height="38" fill="#A3E635"/>
<rect x="146" y="74" width="6" height="38" fill="#A3E635"/>
<rect x="155" y="74" width="6" height="38" fill="#A3E635"/>
<rect x="164" y="74" width="6" height="38" fill="#A3E635"/>
<rect x="173" y="74" width="6" height="38" fill="#A3E635"/>
<rect x="182" y="74" width="6" height="38" fill="#A3E635"/>
<rect x="191" y="74" width="6" height="38" fill="#A3E635"/>
<rect x="200" y="74" width="6" height="38" fill="#A3E635"/>
<rect x="209" y="74" width="6" height="38" fill="#A3E635"/>
<rect x="218" y="74" width="6" height="38" fill="#A3E635"/>
<rect x="227" y="74" width="6" height="38" fill="#A3E635"/>
<rect x="236" y="74" width="6" height="38" fill="#A3E635"/>
<rect x="245" y="74" width="6" height="38" fill="#A3E635"/>
<rect x="254" y="74" width="6" height="38" fill="#A3E635"/>
<rect x="263" y="74" width="6" height="38" fill="#A3E635"/>
<rect x="272" y="74" width="6" height="38" fill="#A3E635"/>
<rect x="281" y="74" width="6" height="38" fill="#A3E635"/>
<rect x="290" y="74" width="6" height="38" fill="#A3E635"/>
<rect x="299" y="74" width="6" height="38" fill="#A3E635"/>
<rect x="308" y="74" width="6" height="38" fill="#A3E635"/>
<rect x="317" y="74" width="6" height="38" fill="#A3E635"/>
<rect x="326" y="74" width="6" height="38" fill="#A3E635"/>
<rect x="335" y="74" width="6" height="38" fill="#A3E635"/>
<rect x="344" y="74" width="6" height="38" fill="#A3E635"/>
<rect x="353" y="74" width="6" height="38" fill="#A3E635"/>
<rect x="362" y="74" width="6" height="38" fill="#A3E635"/>
<rect x="371" y="74" width="6" height="38" fill="#A3E635"/>
<rect x="380" y="74" width="6" height="38" fill="#A3E635"/>
<rect x="389" y="74" width="6" height="38" fill="#A3E635"/>
<rect x="398" y="74" width="6" height="38" fill="#A3E635"/>
<rect x="407" y="74" width="6" height="38" fill="#A3E635"/>
<rect x="416" y="74" width="6" height="38" fill="#A3E635"/>
<rect x="425" y="74" width="6" height="38" fill="#A3E635"/>
<rect x="434" y="74" width="6" height="38" fill="#A3E635"/>
<rect x="443" y="74" width="6" height="38" fill="#DB2777"/>
<rect x="452" y="74" width="6" height="38" fill="#A3E635"/>
<rect x="461" y="74" width="6" height="38" fill="#DB2777"/>
<rect x="470" y="74" width="6" height="38" fill="#A3E635"/>
<rect x="479" y="74" width="6" height="38" fill="#A3E635"/>
<rect x="488" y="74" width="6" height="38" fill="#A3E635"/>
<rect x="497" y="74" width="6" height="38" fill="#A3E635"/>
<rect x="506" y="74" width="6" height="38" fill="#A3E635"/>
<rect x="515" y="74" width="6" height="38" fill="#A3E635"/>
<rect x="524" y="74" width="6" height="38" fill="#A3E635"/>
<rect x="533" y="74" width="6" height="38" fill="#A3E635"/>
<rect x="542" y="74" width="6" height="38" fill="#A3E635"/>
<rect x="551" y="74" width="6" height="38" fill="#A3E635"/>
<rect x="560" y="74" width="6" height="38" fill="#A3E635"/>
<rect x="569" y="74" width="6" height="38" fill="#A3E635"/>
<rect x="578" y="74" width="6" height="38" fill="#A3E635"/>
<rect x="587" y="74" width="6" height="38" fill="#A3E635"/>
<rect x="596" y="74" width="6" height="38" fill="#A3E635"/>
<rect x="605" y="74" width="6" height="38" fill="#A3E635"/>
<rect x="614" y="74" width="6" height="38" fill="#A3E635"/>
<rect x="623" y="74" width="6" height="38" fill="#A3E635"/>
<rect x="632" y="74" width="6" height="38" fill="#A3E635"/>
</g>
</g>
<path d="M26.2988 139.109V140H20.7148V139.221L23.5098 136.109C23.8535 135.727 24.1191 135.402 24.3066 135.137C24.498 134.867 24.6309 134.627 24.7051 134.416C24.7832 134.201 24.8223 133.982 24.8223 133.76C24.8223 133.479 24.7637 133.225 24.6465 132.998C24.5332 132.768 24.3652 132.584 24.1426 132.447C23.9199 132.311 23.6504 132.242 23.334 132.242C22.9551 132.242 22.6387 132.316 22.3848 132.465C22.1348 132.609 21.9473 132.812 21.8223 133.074C21.6973 133.336 21.6348 133.637 21.6348 133.977H20.5508C20.5508 133.496 20.6562 133.057 20.8672 132.658C21.0781 132.26 21.3906 131.943 21.8047 131.709C22.2188 131.471 22.7285 131.352 23.334 131.352C23.873 131.352 24.334 131.447 24.7168 131.639C25.0996 131.826 25.3926 132.092 25.5957 132.436C25.8027 132.775 25.9062 133.174 25.9062 133.631C25.9062 133.881 25.8633 134.135 25.7773 134.393C25.6953 134.646 25.5801 134.9 25.4316 135.154C25.2871 135.408 25.1172 135.658 24.9219 135.904C24.7305 136.15 24.5254 136.393 24.3066 136.631L22.0215 139.109H26.2988ZM31.6215 131.422V140H30.5375V132.775L28.352 133.572V132.594L31.4516 131.422H31.6215ZM35.5437 139.426C35.5437 139.242 35.6004 139.088 35.7137 138.963C35.8309 138.834 35.9988 138.77 36.2176 138.77C36.4363 138.77 36.6023 138.834 36.7156 138.963C36.8328 139.088 36.8914 139.242 36.8914 139.426C36.8914 139.605 36.8328 139.758 36.7156 139.883C36.6023 140.008 36.4363 140.07 36.2176 140.07C35.9988 140.07 35.8309 140.008 35.7137 139.883C35.6004 139.758 35.5437 139.605 35.5437 139.426ZM44.5285 135.055V136.355C44.5285 137.055 44.466 137.645 44.341 138.125C44.216 138.605 44.0363 138.992 43.802 139.285C43.5676 139.578 43.2844 139.791 42.9523 139.924C42.6242 140.053 42.2531 140.117 41.8391 140.117C41.5109 140.117 41.2082 140.076 40.9309 139.994C40.6535 139.912 40.4035 139.781 40.1809 139.602C39.9621 139.418 39.7746 139.18 39.6184 138.887C39.4621 138.594 39.343 138.238 39.2609 137.82C39.1789 137.402 39.1379 136.914 39.1379 136.355V135.055C39.1379 134.355 39.2004 133.77 39.3254 133.297C39.4543 132.824 39.6359 132.445 39.8703 132.16C40.1047 131.871 40.3859 131.664 40.7141 131.539C41.0461 131.414 41.4172 131.352 41.8273 131.352C42.1594 131.352 42.4641 131.393 42.7414 131.475C43.0227 131.553 43.2727 131.68 43.4914 131.855C43.7102 132.027 43.8957 132.258 44.048 132.547C44.2043 132.832 44.3234 133.182 44.4055 133.596C44.4875 134.01 44.5285 134.496 44.5285 135.055ZM43.4387 136.531V134.873C43.4387 134.49 43.4152 134.154 43.3684 133.865C43.3254 133.572 43.2609 133.322 43.175 133.115C43.0891 132.908 42.9797 132.74 42.8469 132.611C42.718 132.482 42.5676 132.389 42.3957 132.33C42.2277 132.268 42.0383 132.236 41.8273 132.236C41.5695 132.236 41.341 132.285 41.1418 132.383C40.9426 132.477 40.7746 132.627 40.6379 132.834C40.5051 133.041 40.4035 133.312 40.3332 133.648C40.2629 133.984 40.2277 134.393 40.2277 134.873V136.531C40.2277 136.914 40.2492 137.252 40.2922 137.545C40.3391 137.838 40.4074 138.092 40.4973 138.307C40.5871 138.518 40.6965 138.691 40.8254 138.828C40.9543 138.965 41.1027 139.066 41.2707 139.133C41.4426 139.195 41.632 139.227 41.8391 139.227C42.1047 139.227 42.3371 139.176 42.5363 139.074C42.7355 138.973 42.9016 138.814 43.0344 138.6C43.1711 138.381 43.2727 138.102 43.3391 137.762C43.4055 137.418 43.4387 137.008 43.4387 136.531ZM50.0855 131.422V140H49.0016V132.775L46.816 133.572V132.594L49.9156 131.422H50.0855ZM54.0078 139.426C54.0078 139.242 54.0645 139.088 54.1777 138.963C54.2949 138.834 54.4629 138.77 54.6816 138.77C54.9004 138.77 55.0664 138.834 55.1797 138.963C55.2969 139.088 55.3555 139.242 55.3555 139.426C55.3555 139.605 55.2969 139.758 55.1797 139.883C55.0664 140.008 54.9004 140.07 54.6816 140.07C54.4629 140.07 54.2949 140.008 54.1777 139.883C54.0645 139.758 54.0078 139.605 54.0078 139.426ZM63.227 139.109V140H57.643V139.221L60.4379 136.109C60.7816 135.727 61.0473 135.402 61.2348 135.137C61.4262 134.867 61.559 134.627 61.6332 134.416C61.7113 134.201 61.7504 133.982 61.7504 133.76C61.7504 133.479 61.6918 133.225 61.5746 132.998C61.4613 132.768 61.2934 132.584 61.0707 132.447C60.848 132.311 60.5785 132.242 60.2621 132.242C59.8832 132.242 59.5668 132.316 59.3129 132.465C59.0629 132.609 58.8754 132.812 58.7504 133.074C58.6254 133.336 58.5629 133.637 58.5629 133.977H57.4789C57.4789 133.496 57.5844 133.057 57.7953 132.658C58.0062 132.26 58.3187 131.943 58.7328 131.709C59.1469 131.471 59.6566 131.352 60.2621 131.352C60.8012 131.352 61.2621 131.447 61.6449 131.639C62.0277 131.826 62.3207 132.092 62.5238 132.436C62.7309 132.775 62.8344 133.174 62.8344 133.631C62.8344 133.881 62.7914 134.135 62.7055 134.393C62.6234 134.646 62.5082 134.9 62.3598 135.154C62.2152 135.408 62.0453 135.658 61.85 135.904C61.6586 136.15 61.4535 136.393 61.2348 136.631L58.9496 139.109H63.227ZM70.3426 135.055V136.355C70.3426 137.055 70.2801 137.645 70.1551 138.125C70.0301 138.605 69.8504 138.992 69.616 139.285C69.3816 139.578 69.0984 139.791 68.7664 139.924C68.4383 140.053 68.0672 140.117 67.6531 140.117C67.325 140.117 67.0223 140.076 66.7449 139.994C66.4676 139.912 66.2176 139.781 65.9949 139.602C65.7762 139.418 65.5887 139.18 65.4324 138.887C65.2762 138.594 65.157 138.238 65.075 137.82C64.993 137.402 64.952 136.914 64.952 136.355V135.055C64.952 134.355 65.0145 133.77 65.1395 133.297C65.2684 132.824 65.45 132.445 65.6844 132.16C65.9188 131.871 66.2 131.664 66.5281 131.539C66.8602 131.414 67.2313 131.352 67.6414 131.352C67.9734 131.352 68.2781 131.393 68.5555 131.475C68.8367 131.553 69.0867 131.68 69.3055 131.855C69.5242 132.027 69.7098 132.258 69.8621 132.547C70.0184 132.832 70.1375 133.182 70.2195 133.596C70.3016 134.01 70.3426 134.496 70.3426 135.055ZM69.2527 136.531V134.873C69.2527 134.49 69.2293 134.154 69.1824 133.865C69.1395 133.572 69.075 133.322 68.9891 133.115C68.9031 132.908 68.7938 132.74 68.6609 132.611C68.532 132.482 68.3816 132.389 68.2098 132.33C68.0418 132.268 67.8523 132.236 67.6414 132.236C67.3836 132.236 67.1551 132.285 66.9559 132.383C66.7566 132.477 66.5887 132.627 66.452 132.834C66.3191 133.041 66.2176 133.312 66.1473 133.648C66.077 133.984 66.0418 134.393 66.0418 134.873V136.531C66.0418 136.914 66.0633 137.252 66.1063 137.545C66.1531 137.838 66.2215 138.092 66.3113 138.307C66.4012 138.518 66.5105 138.691 66.6395 138.828C66.7684 138.965 66.9168 139.066 67.0848 139.133C67.2566 139.195 67.4461 139.227 67.6531 139.227C67.9188 139.227 68.1512 139.176 68.3504 139.074C68.5496 138.973 68.7156 138.814 68.8484 138.6C68.9852 138.381 69.0867 138.102 69.1531 137.762C69.2195 137.418 69.2527 137.008 69.2527 136.531ZM77.927 139.109V140H72.343V139.221L75.1379 136.109C75.4816 135.727 75.7473 135.402 75.9348 135.137C76.1262 134.867 76.259 134.627 76.3332 134.416C76.4113 134.201 76.4504 133.982 76.4504 133.76C76.4504 133.479 76.3918 133.225 76.2746 132.998C76.1613 132.768 75.9934 132.584 75.7707 132.447C75.548 132.311 75.2785 132.242 74.9621 132.242C74.5832 132.242 74.2668 132.316 74.0129 132.465C73.7629 132.609 73.5754 132.812 73.4504 133.074C73.3254 133.336 73.2629 133.637 73.2629 133.977H72.1789C72.1789 133.496 72.2844 133.057 72.4953 132.658C72.7062 132.26 73.0187 131.943 73.4328 131.709C73.8469 131.471 74.3566 131.352 74.9621 131.352C75.5012 131.352 75.9621 131.447 76.3449 131.639C76.7277 131.826 77.0207 132.092 77.2238 132.436C77.4309 132.775 77.5344 133.174 77.5344 133.631C77.5344 133.881 77.4914 134.135 77.4055 134.393C77.3234 134.646 77.2082 134.9 77.0598 135.154C76.9152 135.408 76.7453 135.658 76.55 135.904C76.3586 136.15 76.1535 136.393 75.9348 136.631L73.6496 139.109H77.927ZM81.2691 135.201H82.0426C82.4215 135.201 82.734 135.139 82.9801 135.014C83.2301 134.885 83.4156 134.711 83.5367 134.492C83.6617 134.27 83.7242 134.02 83.7242 133.742C83.7242 133.414 83.6695 133.139 83.5602 132.916C83.4508 132.693 83.2867 132.525 83.068 132.412C82.8492 132.299 82.5719 132.242 82.2359 132.242C81.9313 132.242 81.6617 132.303 81.4273 132.424C81.1969 132.541 81.0152 132.709 80.8824 132.928C80.7535 133.146 80.6891 133.404 80.6891 133.701H79.6051C79.6051 133.268 79.7145 132.873 79.9332 132.518C80.152 132.162 80.4586 131.879 80.8531 131.668C81.2516 131.457 81.7125 131.352 82.2359 131.352C82.7516 131.352 83.2027 131.443 83.5895 131.627C83.9762 131.807 84.277 132.076 84.4918 132.436C84.7066 132.791 84.8141 133.234 84.8141 133.766C84.8141 133.98 84.7633 134.211 84.6617 134.457C84.5641 134.699 84.4098 134.926 84.1988 135.137C83.9918 135.348 83.7223 135.521 83.3902 135.658C83.0582 135.791 82.6598 135.857 82.1949 135.857H81.2691V135.201ZM81.2691 136.092V135.441H82.1949C82.7379 135.441 83.1871 135.506 83.5426 135.635C83.898 135.764 84.1773 135.936 84.3805 136.15C84.5875 136.365 84.732 136.602 84.8141 136.859C84.9 137.113 84.943 137.367 84.943 137.621C84.943 138.02 84.8746 138.373 84.7379 138.682C84.6051 138.99 84.4156 139.252 84.1695 139.467C83.9273 139.682 83.6422 139.844 83.3141 139.953C82.9859 140.062 82.6285 140.117 82.2418 140.117C81.8707 140.117 81.5211 140.064 81.193 139.959C80.8688 139.854 80.5816 139.701 80.3316 139.502C80.0816 139.299 79.8863 139.051 79.7457 138.758C79.6051 138.461 79.5348 138.123 79.5348 137.744H80.6188C80.6188 138.041 80.6832 138.301 80.8121 138.523C80.9449 138.746 81.1324 138.92 81.3746 139.045C81.6207 139.166 81.9098 139.227 82.2418 139.227C82.5738 139.227 82.859 139.17 83.0973 139.057C83.3395 138.939 83.525 138.764 83.6539 138.529C83.7867 138.295 83.8531 138 83.8531 137.645C83.8531 137.289 83.7789 136.998 83.6305 136.771C83.482 136.541 83.2711 136.371 82.9977 136.262C82.7281 136.148 82.4098 136.092 82.0426 136.092H81.2691Z" fill="#475569"/>
<path d="M604.143 131.469V140H603.029V131.469H604.143ZM606.885 131.469V132.395H600.293V131.469H606.885ZM615.155 135.465V136.004C615.155 136.645 615.075 137.219 614.914 137.727C614.754 138.234 614.524 138.666 614.223 139.021C613.922 139.377 613.561 139.648 613.139 139.836C612.721 140.023 612.252 140.117 611.733 140.117C611.229 140.117 610.766 140.023 610.344 139.836C609.926 139.648 609.563 139.377 609.254 139.021C608.95 138.666 608.713 138.234 608.545 137.727C608.377 137.219 608.293 136.645 608.293 136.004V135.465C608.293 134.824 608.375 134.252 608.539 133.748C608.707 133.24 608.944 132.809 609.248 132.453C609.553 132.094 609.914 131.82 610.332 131.633C610.754 131.445 611.217 131.352 611.721 131.352C612.241 131.352 612.709 131.445 613.127 131.633C613.549 131.82 613.911 132.094 614.211 132.453C614.516 132.809 614.748 133.24 614.909 133.748C615.073 134.252 615.155 134.824 615.155 135.465ZM614.036 136.004V135.453C614.036 134.945 613.983 134.496 613.877 134.105C613.776 133.715 613.625 133.387 613.426 133.121C613.227 132.855 612.983 132.654 612.694 132.518C612.409 132.381 612.084 132.312 611.721 132.312C611.37 132.312 611.051 132.381 610.766 132.518C610.485 132.654 610.243 132.855 610.039 133.121C609.84 133.387 609.686 133.715 609.577 134.105C609.467 134.496 609.412 134.945 609.412 135.453V136.004C609.412 136.516 609.467 136.969 609.577 137.363C609.686 137.754 609.842 138.084 610.045 138.354C610.252 138.619 610.496 138.82 610.778 138.957C611.063 139.094 611.381 139.162 611.733 139.162C612.1 139.162 612.426 139.094 612.711 138.957C612.996 138.82 613.237 138.619 613.432 138.354C613.631 138.084 613.782 137.754 613.883 137.363C613.985 136.969 614.036 136.516 614.036 136.004ZM619.757 140H617.975L617.987 139.08H619.757C620.366 139.08 620.874 138.953 621.28 138.699C621.686 138.441 621.991 138.082 622.194 137.621C622.401 137.156 622.505 136.613 622.505 135.992V135.471C622.505 134.982 622.446 134.549 622.329 134.17C622.212 133.787 622.04 133.465 621.813 133.203C621.587 132.938 621.309 132.736 620.981 132.6C620.657 132.463 620.284 132.395 619.862 132.395H617.94V131.469H619.862C620.421 131.469 620.93 131.562 621.391 131.75C621.852 131.934 622.249 132.201 622.581 132.553C622.917 132.9 623.175 133.322 623.354 133.818C623.534 134.311 623.624 134.865 623.624 135.482V135.992C623.624 136.609 623.534 137.166 623.354 137.662C623.175 138.154 622.915 138.574 622.575 138.922C622.239 139.27 621.833 139.537 621.356 139.725C620.884 139.908 620.35 140 619.757 140ZM618.579 131.469V140H617.448V131.469H618.579ZM628.952 132.225L626.128 140H624.974L628.226 131.469H628.97L628.952 132.225ZM631.32 140L628.489 132.225L628.472 131.469H629.216L632.48 140H631.32ZM631.173 136.842V137.768H626.38V136.842H631.173ZM634.064 131.469L636.279 135.752L638.5 131.469H639.783L636.841 136.812V140H635.711V136.812L632.769 131.469H634.064Z" fill="#475569"/>
<rect x="692" width="660" height="164" rx="4" fill="#1E293B"/>
<path d="M720.297 27.4492L714.648 43H712.34L718.844 25.9375H720.332L720.297 27.4492ZM725.031 43L719.371 27.4492L719.336 25.9375H720.824L727.352 43H725.031ZM724.738 36.6836V38.5352H715.152V36.6836H724.738ZM736.926 40.0703V30.3203H739.105V43H737.031L736.926 40.0703ZM737.336 37.3984L738.238 37.375C738.238 38.2188 738.148 39 737.969 39.7188C737.797 40.4297 737.516 41.0469 737.125 41.5703C736.734 42.0938 736.223 42.5039 735.59 42.8008C734.957 43.0898 734.188 43.2344 733.281 43.2344C732.664 43.2344 732.098 43.1445 731.582 42.9648C731.074 42.7852 730.637 42.5078 730.27 42.1328C729.902 41.7578 729.617 41.2695 729.414 40.668C729.219 40.0664 729.121 39.3438 729.121 38.5V30.3203H731.289V38.5234C731.289 39.0938 731.352 39.5664 731.477 39.9414C731.609 40.3086 731.785 40.6016 732.004 40.8203C732.23 41.0312 732.48 41.1797 732.754 41.2656C733.035 41.3516 733.324 41.3945 733.621 41.3945C734.543 41.3945 735.273 41.2188 735.812 40.8672C736.352 40.5078 736.738 40.0273 736.973 39.4258C737.215 38.8164 737.336 38.1406 737.336 37.3984ZM747.719 30.3203V31.9844H740.863V30.3203H747.719ZM743.184 27.2383H745.352V39.8594C745.352 40.2891 745.418 40.6133 745.551 40.832C745.684 41.0508 745.855 41.1953 746.066 41.2656C746.277 41.3359 746.504 41.3711 746.746 41.3711C746.926 41.3711 747.113 41.3555 747.309 41.3242C747.512 41.2852 747.664 41.2539 747.766 41.2305L747.777 43C747.605 43.0547 747.379 43.1055 747.098 43.1523C746.824 43.207 746.492 43.2344 746.102 43.2344C745.57 43.2344 745.082 43.1289 744.637 42.918C744.191 42.707 743.836 42.3555 743.57 41.8633C743.312 41.3633 743.184 40.6914 743.184 39.8477V27.2383ZM752.43 25V43H750.262V25H752.43ZM751.914 36.1797L751.012 36.1445C751.02 35.2773 751.148 34.4766 751.398 33.7422C751.648 33 752 32.3555 752.453 31.8086C752.906 31.2617 753.445 30.8398 754.07 30.543C754.703 30.2383 755.402 30.0859 756.168 30.0859C756.793 30.0859 757.355 30.1719 757.855 30.3438C758.355 30.5078 758.781 30.7734 759.133 31.1406C759.492 31.5078 759.766 31.9844 759.953 32.5703C760.141 33.1484 760.234 33.8555 760.234 34.6914V43H758.055V34.668C758.055 34.0039 757.957 33.4727 757.762 33.0742C757.566 32.668 757.281 32.375 756.906 32.1953C756.531 32.0078 756.07 31.9141 755.523 31.9141C754.984 31.9141 754.492 32.0273 754.047 32.2539C753.609 32.4805 753.23 32.793 752.91 33.1914C752.598 33.5898 752.352 34.0469 752.172 34.5625C752 35.0703 751.914 35.6094 751.914 36.1797ZM778.855 38.6875C778.855 38.2891 778.793 37.9375 778.668 37.6328C778.551 37.3203 778.34 37.0391 778.035 36.7891C777.738 36.5391 777.324 36.3008 776.793 36.0742C776.27 35.8477 775.605 35.6172 774.801 35.3828C773.957 35.1328 773.195 34.8555 772.516 34.5508C771.836 34.2383 771.254 33.8828 770.77 33.4844C770.285 33.0859 769.914 32.6289 769.656 32.1133C769.398 31.5977 769.27 31.0078 769.27 30.3438C769.27 29.6797 769.406 29.0664 769.68 28.5039C769.953 27.9414 770.344 27.4531 770.852 27.0391C771.367 26.6172 771.98 26.2891 772.691 26.0547C773.402 25.8203 774.195 25.7031 775.07 25.7031C776.352 25.7031 777.438 25.9492 778.328 26.4414C779.227 26.9258 779.91 27.5625 780.379 28.3516C780.848 29.1328 781.082 29.9688 781.082 30.8594H778.832C778.832 30.2188 778.695 29.6523 778.422 29.1602C778.148 28.6602 777.734 28.2695 777.18 27.9883C776.625 27.6992 775.922 27.5547 775.07 27.5547C774.266 27.5547 773.602 27.6758 773.078 27.918C772.555 28.1602 772.164 28.4883 771.906 28.9023C771.656 29.3164 771.531 29.7891 771.531 30.3203C771.531 30.6797 771.605 31.0078 771.754 31.3047C771.91 31.5938 772.148 31.8633 772.469 32.1133C772.797 32.3633 773.211 32.5938 773.711 32.8047C774.219 33.0156 774.824 33.2188 775.527 33.4141C776.496 33.6875 777.332 33.9922 778.035 34.3281C778.738 34.6641 779.316 35.043 779.77 35.4648C780.23 35.8789 780.57 36.3516 780.789 36.8828C781.016 37.4062 781.129 38 781.129 38.6641C781.129 39.3594 780.988 39.9883 780.707 40.5508C780.426 41.1133 780.023 41.5938 779.5 41.9922C778.977 42.3906 778.348 42.6992 777.613 42.918C776.887 43.1289 776.074 43.2344 775.176 43.2344C774.387 43.2344 773.609 43.125 772.844 42.9062C772.086 42.6875 771.395 42.3594 770.77 41.9219C770.152 41.4844 769.656 40.9453 769.281 40.3047C768.914 39.6562 768.73 38.9062 768.73 38.0547H770.98C770.98 38.6406 771.094 39.1445 771.32 39.5664C771.547 39.9805 771.855 40.3242 772.246 40.5977C772.645 40.8711 773.094 41.0742 773.594 41.207C774.102 41.332 774.629 41.3945 775.176 41.3945C775.965 41.3945 776.633 41.2852 777.18 41.0664C777.727 40.8477 778.141 40.5352 778.422 40.1289C778.711 39.7227 778.855 39.2422 778.855 38.6875ZM788.945 43.2344C788.062 43.2344 787.262 43.0859 786.543 42.7891C785.832 42.4844 785.219 42.0586 784.703 41.5117C784.195 40.9648 783.805 40.3164 783.531 39.5664C783.258 38.8164 783.121 37.9961 783.121 37.1055V36.6133C783.121 35.582 783.273 34.6641 783.578 33.8594C783.883 33.0469 784.297 32.3594 784.82 31.7969C785.344 31.2344 785.938 30.8086 786.602 30.5195C787.266 30.2305 787.953 30.0859 788.664 30.0859C789.57 30.0859 790.352 30.2422 791.008 30.5547C791.672 30.8672 792.215 31.3047 792.637 31.8672C793.059 32.4219 793.371 33.0781 793.574 33.8359C793.777 34.5859 793.879 35.4062 793.879 36.2969V37.2695H784.41V35.5H791.711V35.3359C791.68 34.7734 791.562 34.2266 791.359 33.6953C791.164 33.1641 790.852 32.7266 790.422 32.3828C789.992 32.0391 789.406 31.8672 788.664 31.8672C788.172 31.8672 787.719 31.9727 787.305 32.1836C786.891 32.3867 786.535 32.6914 786.238 33.0977C785.941 33.5039 785.711 34 785.547 34.5859C785.383 35.1719 785.301 35.8477 785.301 36.6133V37.1055C785.301 37.707 785.383 38.2734 785.547 38.8047C785.719 39.3281 785.965 39.7891 786.285 40.1875C786.613 40.5859 787.008 40.8984 787.469 41.125C787.938 41.3516 788.469 41.4648 789.062 41.4648C789.828 41.4648 790.477 41.3086 791.008 40.9961C791.539 40.6836 792.004 40.2656 792.402 39.7422L793.715 40.7852C793.441 41.1992 793.094 41.5938 792.672 41.9688C792.25 42.3438 791.73 42.6484 791.113 42.8828C790.504 43.1172 789.781 43.2344 788.945 43.2344ZM798.578 32.3125V43H796.41V30.3203H798.52L798.578 32.3125ZM802.539 30.25L802.527 32.2656C802.348 32.2266 802.176 32.2031 802.012 32.1953C801.855 32.1797 801.676 32.1719 801.473 32.1719C800.973 32.1719 800.531 32.25 800.148 32.4062C799.766 32.5625 799.441 32.7812 799.176 33.0625C798.91 33.3438 798.699 33.6797 798.543 34.0703C798.395 34.4531 798.297 34.875 798.25 35.3359L797.641 35.6875C797.641 34.9219 797.715 34.2031 797.863 33.5312C798.02 32.8594 798.258 32.2656 798.578 31.75C798.898 31.2266 799.305 30.8203 799.797 30.5312C800.297 30.2344 800.891 30.0859 801.578 30.0859C801.734 30.0859 801.914 30.1055 802.117 30.1445C802.32 30.1758 802.461 30.2109 802.539 30.25ZM808.609 41.043L812.078 30.3203H814.293L809.734 43H808.281L808.609 41.043ZM805.715 30.3203L809.289 41.1016L809.535 43H808.082L803.488 30.3203H805.715ZM818.734 30.3203V43H816.555V30.3203H818.734ZM816.391 26.957C816.391 26.6055 816.496 26.3086 816.707 26.0664C816.926 25.8242 817.246 25.7031 817.668 25.7031C818.082 25.7031 818.398 25.8242 818.617 26.0664C818.844 26.3086 818.957 26.6055 818.957 26.957C818.957 27.293 818.844 27.582 818.617 27.8242C818.398 28.0586 818.082 28.1758 817.668 28.1758C817.246 28.1758 816.926 28.0586 816.707 27.8242C816.496 27.582 816.391 27.293 816.391 26.957ZM827.289 41.4531C827.805 41.4531 828.281 41.3477 828.719 41.1367C829.156 40.9258 829.516 40.6367 829.797 40.2695C830.078 39.8945 830.238 39.4688 830.277 38.9922H832.34C832.301 39.7422 832.047 40.4414 831.578 41.0898C831.117 41.7305 830.512 42.25 829.762 42.6484C829.012 43.0391 828.188 43.2344 827.289 43.2344C826.336 43.2344 825.504 43.0664 824.793 42.7305C824.09 42.3945 823.504 41.9336 823.035 41.3477C822.574 40.7617 822.227 40.0898 821.992 39.332C821.766 38.5664 821.652 37.7578 821.652 36.9062V36.4141C821.652 35.5625 821.766 34.7578 821.992 34C822.227 33.2344 822.574 32.5586 823.035 31.9727C823.504 31.3867 824.09 30.9258 824.793 30.5898C825.504 30.2539 826.336 30.0859 827.289 30.0859C828.281 30.0859 829.148 30.2891 829.891 30.6953C830.633 31.0938 831.215 31.6406 831.637 32.3359C832.066 33.0234 832.301 33.8047 832.34 34.6797H830.277C830.238 34.1562 830.09 33.6836 829.832 33.2617C829.582 32.8398 829.238 32.5039 828.801 32.2539C828.371 31.9961 827.867 31.8672 827.289 31.8672C826.625 31.8672 826.066 32 825.613 32.2656C825.168 32.5234 824.812 32.875 824.547 33.3203C824.289 33.7578 824.102 34.2461 823.984 34.7852C823.875 35.3164 823.82 35.8594 823.82 36.4141V36.9062C823.82 37.4609 823.875 38.0078 823.984 38.5469C824.094 39.0859 824.277 39.5742 824.535 40.0117C824.801 40.4492 825.156 40.8008 825.602 41.0664C826.055 41.3242 826.617 41.4531 827.289 41.4531ZM840.039 43.2344C839.156 43.2344 838.355 43.0859 837.637 42.7891C836.926 42.4844 836.312 42.0586 835.797 41.5117C835.289 40.9648 834.898 40.3164 834.625 39.5664C834.352 38.8164 834.215 37.9961 834.215 37.1055V36.6133C834.215 35.582 834.367 34.6641 834.672 33.8594C834.977 33.0469 835.391 32.3594 835.914 31.7969C836.438 31.2344 837.031 30.8086 837.695 30.5195C838.359 30.2305 839.047 30.0859 839.758 30.0859C840.664 30.0859 841.445 30.2422 842.102 30.5547C842.766 30.8672 843.309 31.3047 843.73 31.8672C844.152 32.4219 844.465 33.0781 844.668 33.8359C844.871 34.5859 844.973 35.4062 844.973 36.2969V37.2695H835.504V35.5H842.805V35.3359C842.773 34.7734 842.656 34.2266 842.453 33.6953C842.258 33.1641 841.945 32.7266 841.516 32.3828C841.086 32.0391 840.5 31.8672 839.758 31.8672C839.266 31.8672 838.812 31.9727 838.398 32.1836C837.984 32.3867 837.629 32.6914 837.332 33.0977C837.035 33.5039 836.805 34 836.641 34.5859C836.477 35.1719 836.395 35.8477 836.395 36.6133V37.1055C836.395 37.707 836.477 38.2734 836.641 38.8047C836.812 39.3281 837.059 39.7891 837.379 40.1875C837.707 40.5859 838.102 40.8984 838.562 41.125C839.031 41.3516 839.562 41.4648 840.156 41.4648C840.922 41.4648 841.57 41.3086 842.102 40.9961C842.633 40.6836 843.098 40.2656 843.496 39.7422L844.809 40.7852C844.535 41.1992 844.188 41.5938 843.766 41.9688C843.344 42.3438 842.824 42.6484 842.207 42.8828C841.598 43.1172 840.875 43.2344 840.039 43.2344Z" fill="#E2E8F0"/>
<rect x="1055.5" y="21.5" width="27" height="27" rx="3.5" fill="#365314"/>
<path d="M1069 26.25C1064.17 26.25 1060.25 30.168 1060.25 35C1060.25 39.832 1064.17 43.75 1069 43.75C1073.83 43.75 1077.75 39.832 1077.75 35C1077.75 30.168 1073.83 26.25 1069 26.25ZM1072.78 32.1426L1068.67 37.8457C1068.61 37.9259 1068.53 37.9913 1068.44 38.0364C1068.36 38.0815 1068.26 38.1051 1068.16 38.1051C1068.06 38.1051 1067.97 38.0815 1067.88 38.0364C1067.79 37.9913 1067.71 37.9259 1067.66 37.8457L1065.22 34.4707C1065.15 34.3672 1065.22 34.2227 1065.35 34.2227H1066.26C1066.46 34.2227 1066.65 34.3184 1066.77 34.4824L1068.16 36.4121L1071.23 32.1543C1071.35 31.9922 1071.54 31.8945 1071.74 31.8945H1072.65C1072.78 31.8945 1072.85 32.0391 1072.78 32.1426Z" fill="#BEF264"/>
<rect x="1055.5" y="21.5" width="27" height="27" rx="3.5" stroke="#65A30D"/>
<path d="M1102.56 34.4648V35.0039C1102.56 35.6445 1102.48 36.2188 1102.32 36.7266C1102.16 37.2344 1101.93 37.666 1101.63 38.0215C1101.33 38.377 1100.96 38.6484 1100.54 38.8359C1100.12 39.0234 1099.66 39.1172 1099.14 39.1172C1098.63 39.1172 1098.17 39.0234 1097.75 38.8359C1097.33 38.6484 1096.97 38.377 1096.66 38.0215C1096.35 37.666 1096.12 37.2344 1095.95 36.7266C1095.78 36.2188 1095.7 35.6445 1095.7 35.0039V34.4648C1095.7 33.8242 1095.78 33.252 1095.94 32.748C1096.11 32.2402 1096.35 31.8086 1096.65 31.4531C1096.96 31.0938 1097.32 30.8203 1097.74 30.6328C1098.16 30.4453 1098.62 30.3516 1099.12 30.3516C1099.64 30.3516 1100.11 30.4453 1100.53 30.6328C1100.95 30.8203 1101.31 31.0938 1101.62 31.4531C1101.92 31.8086 1102.15 32.2402 1102.31 32.748C1102.48 33.252 1102.56 33.8242 1102.56 34.4648ZM1101.44 35.0039V34.4531C1101.44 33.9453 1101.39 33.4961 1101.28 33.1055C1101.18 32.7148 1101.03 32.3867 1100.83 32.1211C1100.63 31.8555 1100.39 31.6543 1100.1 31.5176C1099.81 31.3809 1099.49 31.3125 1099.12 31.3125C1098.77 31.3125 1098.46 31.3809 1098.17 31.5176C1097.89 31.6543 1097.65 31.8555 1097.44 32.1211C1097.24 32.3867 1097.09 32.7148 1096.98 33.1055C1096.87 33.4961 1096.82 33.9453 1096.82 34.4531V35.0039C1096.82 35.5156 1096.87 35.9688 1096.98 36.3633C1097.09 36.7539 1097.25 37.084 1097.45 37.3535C1097.66 37.6191 1097.9 37.8203 1098.18 37.957C1098.47 38.0938 1098.79 38.1621 1099.14 38.1621C1099.5 38.1621 1099.83 38.0938 1100.12 37.957C1100.4 37.8203 1100.64 37.6191 1100.84 37.3535C1101.04 37.084 1101.19 36.7539 1101.29 36.3633C1101.39 35.9688 1101.44 35.5156 1101.44 35.0039ZM1105.17 33.8789V41.4375H1104.08V32.6602H1105.08L1105.17 33.8789ZM1109.44 35.7773V35.9004C1109.44 36.3613 1109.39 36.7891 1109.28 37.1836C1109.17 37.5742 1109.01 37.9141 1108.8 38.2031C1108.59 38.4922 1108.34 38.7168 1108.03 38.877C1107.73 39.0371 1107.38 39.1172 1106.98 39.1172C1106.58 39.1172 1106.22 39.0508 1105.92 38.918C1105.61 38.7852 1105.35 38.5918 1105.13 38.3379C1104.92 38.084 1104.74 37.7793 1104.62 37.4238C1104.49 37.0684 1104.4 36.668 1104.36 36.2227V35.5664C1104.4 35.0977 1104.49 34.6777 1104.62 34.3066C1104.75 33.9355 1104.92 33.6191 1105.13 33.3574C1105.35 33.0918 1105.61 32.8906 1105.91 32.7539C1106.21 32.6133 1106.57 32.543 1106.96 32.543C1107.36 32.543 1107.72 32.6211 1108.03 32.7773C1108.33 32.9297 1108.59 33.1484 1108.8 33.4336C1109.02 33.7188 1109.17 34.0605 1109.28 34.459C1109.39 34.8535 1109.44 35.293 1109.44 35.7773ZM1108.35 35.9004V35.7773C1108.35 35.4609 1108.32 35.1641 1108.25 34.8867C1108.19 34.6055 1108.08 34.3594 1107.94 34.1484C1107.81 33.9336 1107.63 33.7656 1107.42 33.6445C1107.2 33.5195 1106.95 33.457 1106.65 33.457C1106.38 33.457 1106.14 33.5039 1105.93 33.5977C1105.73 33.6914 1105.56 33.8184 1105.42 33.9785C1105.28 34.1348 1105.17 34.3145 1105.08 34.5176C1104.99 34.7168 1104.93 34.9238 1104.88 35.1387V36.6562C1104.96 36.9297 1105.07 37.1875 1105.21 37.4297C1105.35 37.668 1105.54 37.8613 1105.78 38.0098C1106.01 38.1543 1106.3 38.2266 1106.66 38.2266C1106.95 38.2266 1107.21 38.166 1107.42 38.0449C1107.63 37.9199 1107.81 37.75 1107.94 37.5352C1108.08 37.3203 1108.19 37.0742 1108.25 36.7969C1108.32 36.5156 1108.35 36.2168 1108.35 35.9004ZM1113.46 39.1172C1113.02 39.1172 1112.62 39.043 1112.26 38.8945C1111.9 38.7422 1111.59 38.5293 1111.34 38.2559C1111.08 37.9824 1110.89 37.6582 1110.75 37.2832C1110.61 36.9082 1110.54 36.498 1110.54 36.0527V35.8066C1110.54 35.291 1110.62 34.832 1110.77 34.4297C1110.93 34.0234 1111.13 33.6797 1111.39 33.3984C1111.66 33.1172 1111.95 32.9043 1112.29 32.7598C1112.62 32.6152 1112.96 32.543 1113.32 32.543C1113.77 32.543 1114.16 32.6211 1114.49 32.7773C1114.82 32.9336 1115.09 33.1523 1115.3 33.4336C1115.51 33.7109 1115.67 34.0391 1115.77 34.418C1115.87 34.793 1115.92 35.2031 1115.92 35.6484V36.1348H1111.19V35.25H1114.84V35.168C1114.82 34.8867 1114.77 34.6133 1114.66 34.3477C1114.57 34.082 1114.41 33.8633 1114.2 33.6914C1113.98 33.5195 1113.69 33.4336 1113.32 33.4336C1113.07 33.4336 1112.84 33.4863 1112.64 33.5918C1112.43 33.6934 1112.25 33.8457 1112.1 34.0488C1111.96 34.252 1111.84 34.5 1111.76 34.793C1111.68 35.0859 1111.63 35.4238 1111.63 35.8066V36.0527C1111.63 36.3535 1111.68 36.6367 1111.76 36.9023C1111.84 37.1641 1111.97 37.3945 1112.13 37.5938C1112.29 37.793 1112.49 37.9492 1112.72 38.0625C1112.95 38.1758 1113.22 38.2324 1113.52 38.2324C1113.9 38.2324 1114.22 38.1543 1114.49 37.998C1114.75 37.8418 1114.99 37.6328 1115.19 37.3711L1115.84 37.8926C1115.71 38.0996 1115.53 38.2969 1115.32 38.4844C1115.11 38.6719 1114.85 38.8242 1114.54 38.9414C1114.24 39.0586 1113.88 39.1172 1113.46 39.1172ZM1118.27 33.6562V39H1117.19V32.6602H1118.24L1118.27 33.6562ZM1120.25 32.625L1120.25 33.6328C1120.16 33.6133 1120.07 33.6016 1119.99 33.5977C1119.91 33.5898 1119.82 33.5859 1119.72 33.5859C1119.47 33.5859 1119.25 33.625 1119.06 33.7031C1118.87 33.7812 1118.71 33.8906 1118.57 34.0312C1118.44 34.1719 1118.33 34.3398 1118.26 34.5352C1118.18 34.7266 1118.13 34.9375 1118.11 35.168L1117.8 35.3438C1117.8 34.9609 1117.84 34.6016 1117.92 34.2656C1117.99 33.9297 1118.11 33.6328 1118.27 33.375C1118.43 33.1133 1118.64 32.9102 1118.88 32.7656C1119.13 32.6172 1119.43 32.543 1119.77 32.543C1119.85 32.543 1119.94 32.5527 1120.04 32.5723C1120.14 32.5879 1120.21 32.6055 1120.25 32.625ZM1124.76 37.916V34.6523C1124.76 34.4023 1124.71 34.1855 1124.61 34.002C1124.51 33.8145 1124.36 33.6699 1124.16 33.5684C1123.96 33.4668 1123.72 33.416 1123.42 33.416C1123.15 33.416 1122.91 33.4629 1122.7 33.5566C1122.5 33.6504 1122.34 33.7734 1122.22 33.9258C1122.11 34.0781 1122.05 34.2422 1122.05 34.418H1120.97C1120.97 34.1914 1121.03 33.9668 1121.14 33.7441C1121.26 33.5215 1121.43 33.3203 1121.65 33.1406C1121.87 32.957 1122.14 32.8125 1122.45 32.707C1122.76 32.5977 1123.11 32.543 1123.49 32.543C1123.95 32.543 1124.36 32.6211 1124.71 32.7773C1125.06 32.9336 1125.34 33.1699 1125.54 33.4863C1125.74 33.7988 1125.84 34.1914 1125.84 34.6641V37.6172C1125.84 37.8281 1125.86 38.0527 1125.9 38.291C1125.94 38.5293 1125.99 38.7344 1126.07 38.9062V39H1124.94C1124.88 38.875 1124.84 38.709 1124.81 38.502C1124.78 38.291 1124.76 38.0957 1124.76 37.916ZM1124.95 35.1562L1124.96 35.918H1123.86C1123.55 35.918 1123.28 35.9434 1123.04 35.9941C1122.79 36.041 1122.59 36.1133 1122.43 36.2109C1122.26 36.3086 1122.14 36.4316 1122.05 36.5801C1121.97 36.7246 1121.92 36.8945 1121.92 37.0898C1121.92 37.2891 1121.97 37.4707 1122.06 37.6348C1122.15 37.7988 1122.28 37.9297 1122.46 38.0273C1122.65 38.1211 1122.87 38.168 1123.14 38.168C1123.47 38.168 1123.76 38.0977 1124.02 37.957C1124.27 37.8164 1124.47 37.6445 1124.62 37.4414C1124.77 37.2383 1124.85 37.041 1124.87 36.8496L1125.33 37.3711C1125.3 37.5352 1125.23 37.7168 1125.11 37.916C1124.98 38.1152 1124.82 38.3066 1124.62 38.4902C1124.42 38.6699 1124.18 38.8203 1123.9 38.9414C1123.63 39.0586 1123.32 39.1172 1122.98 39.1172C1122.55 39.1172 1122.17 39.0332 1121.85 38.8652C1121.53 38.6973 1121.28 38.4727 1121.1 38.1914C1120.92 37.9062 1120.83 37.5879 1120.83 37.2363C1120.83 36.8965 1120.9 36.5977 1121.03 36.3398C1121.17 36.0781 1121.36 35.8613 1121.61 35.6895C1121.86 35.5137 1122.16 35.3809 1122.51 35.291C1122.86 35.2012 1123.25 35.1562 1123.69 35.1562H1124.95ZM1130.2 32.6602V33.4922H1126.78V32.6602H1130.2ZM1127.94 31.1191H1129.02V37.4297C1129.02 37.6445 1129.05 37.8066 1129.12 37.916C1129.19 38.0254 1129.27 38.0977 1129.38 38.1328C1129.48 38.168 1129.6 38.1855 1129.72 38.1855C1129.81 38.1855 1129.9 38.1777 1130 38.1621C1130.1 38.1426 1130.18 38.127 1130.23 38.1152L1130.23 39C1130.15 39.0273 1130.03 39.0527 1129.89 39.0762C1129.76 39.1035 1129.59 39.1172 1129.39 39.1172C1129.13 39.1172 1128.88 39.0645 1128.66 38.959C1128.44 38.8535 1128.26 38.6777 1128.13 38.4316C1128 38.1816 1127.94 37.8457 1127.94 37.4238V31.1191ZM1132.65 32.6602V39H1131.56V32.6602H1132.65ZM1131.48 30.9785C1131.48 30.8027 1131.53 30.6543 1131.64 30.5332C1131.75 30.4121 1131.91 30.3516 1132.12 30.3516C1132.33 30.3516 1132.48 30.4121 1132.59 30.5332C1132.71 30.6543 1132.76 30.8027 1132.76 30.9785C1132.76 31.1465 1132.71 31.291 1132.59 31.4121C1132.48 31.5293 1132.33 31.5879 1132.12 31.5879C1131.91 31.5879 1131.75 31.5293 1131.64 31.4121C1131.53 31.291 1131.48 31.1465 1131.48 30.9785ZM1134.11 35.9004V35.7656C1134.11 35.3086 1134.17 34.8848 1134.3 34.4941C1134.44 34.0996 1134.63 33.7578 1134.88 33.4688C1135.13 33.1758 1135.43 32.9492 1135.79 32.7891C1136.14 32.625 1136.54 32.543 1136.98 32.543C1137.43 32.543 1137.83 32.625 1138.18 32.7891C1138.54 32.9492 1138.85 33.1758 1139.1 33.4688C1139.35 33.7578 1139.54 34.0996 1139.68 34.4941C1139.81 34.8848 1139.88 35.3086 1139.88 35.7656V35.9004C1139.88 36.3574 1139.81 36.7812 1139.68 37.1719C1139.54 37.5625 1139.35 37.9043 1139.1 38.1973C1138.85 38.4863 1138.54 38.7129 1138.19 38.877C1137.84 39.0371 1137.44 39.1172 1136.99 39.1172C1136.55 39.1172 1136.15 39.0371 1135.79 38.877C1135.44 38.7129 1135.13 38.4863 1134.88 38.1973C1134.63 37.9043 1134.44 37.5625 1134.3 37.1719C1134.17 36.7812 1134.11 36.3574 1134.11 35.9004ZM1135.19 35.7656V35.9004C1135.19 36.2168 1135.23 36.5156 1135.3 36.7969C1135.38 37.0742 1135.49 37.3203 1135.63 37.5352C1135.79 37.75 1135.98 37.9199 1136.2 38.0449C1136.43 38.166 1136.69 38.2266 1136.99 38.2266C1137.29 38.2266 1137.55 38.166 1137.77 38.0449C1138 37.9199 1138.19 37.75 1138.34 37.5352C1138.48 37.3203 1138.6 37.0742 1138.67 36.7969C1138.75 36.5156 1138.79 36.2168 1138.79 35.9004V35.7656C1138.79 35.4531 1138.75 35.1582 1138.67 34.8809C1138.6 34.5996 1138.48 34.3516 1138.33 34.1367C1138.18 33.918 1137.99 33.7461 1137.77 33.6211C1137.54 33.4961 1137.28 33.4336 1136.98 33.4336C1136.69 33.4336 1136.42 33.4961 1136.2 33.6211C1135.97 33.7461 1135.79 33.918 1135.63 34.1367C1135.49 34.3516 1135.38 34.5996 1135.3 34.8809C1135.23 35.1582 1135.19 35.4531 1135.19 35.7656ZM1142.32 34.0137V39H1141.24V32.6602H1142.26L1142.32 34.0137ZM1142.06 35.5898L1141.61 35.5723C1141.62 35.1387 1141.68 34.7383 1141.8 34.3711C1141.93 34 1142.11 33.6777 1142.33 33.4043C1142.56 33.1309 1142.83 32.9199 1143.14 32.7715C1143.46 32.6191 1143.81 32.543 1144.19 32.543C1144.5 32.543 1144.78 32.5859 1145.03 32.6719C1145.28 32.7539 1145.5 32.8867 1145.67 33.0703C1145.85 33.2539 1145.99 33.4922 1146.08 33.7852C1146.18 34.0742 1146.22 34.4277 1146.22 34.8457V39H1145.13V34.834C1145.13 34.502 1145.08 34.2363 1144.99 34.0371C1144.89 33.834 1144.75 33.6875 1144.56 33.5977C1144.37 33.5039 1144.14 33.457 1143.87 33.457C1143.6 33.457 1143.35 33.5137 1143.13 33.627C1142.91 33.7402 1142.72 33.8965 1142.56 34.0957C1142.4 34.2949 1142.28 34.5234 1142.19 34.7812C1142.11 35.0352 1142.06 35.3047 1142.06 35.5898ZM1151.61 37.916V34.6523C1151.61 34.4023 1151.56 34.1855 1151.46 34.002C1151.36 33.8145 1151.21 33.6699 1151.01 33.5684C1150.81 33.4668 1150.56 33.416 1150.27 33.416C1150 33.416 1149.76 33.4629 1149.55 33.5566C1149.35 33.6504 1149.19 33.7734 1149.07 33.9258C1148.96 34.0781 1148.9 34.2422 1148.9 34.418H1147.82C1147.82 34.1914 1147.88 33.9668 1147.99 33.7441C1148.11 33.5215 1148.28 33.3203 1148.5 33.1406C1148.72 32.957 1148.98 32.8125 1149.29 32.707C1149.61 32.5977 1149.95 32.543 1150.34 32.543C1150.8 32.543 1151.2 32.6211 1151.55 32.7773C1151.91 32.9336 1152.19 33.1699 1152.39 33.4863C1152.59 33.7988 1152.69 34.1914 1152.69 34.6641V37.6172C1152.69 37.8281 1152.71 38.0527 1152.74 38.291C1152.78 38.5293 1152.84 38.7344 1152.91 38.9062V39H1151.78C1151.73 38.875 1151.69 38.709 1151.65 38.502C1151.62 38.291 1151.61 38.0957 1151.61 37.916ZM1151.79 35.1562L1151.81 35.918H1150.71C1150.4 35.918 1150.13 35.9434 1149.88 35.9941C1149.64 36.041 1149.44 36.1133 1149.28 36.2109C1149.11 36.3086 1148.99 36.4316 1148.9 36.5801C1148.81 36.7246 1148.77 36.8945 1148.77 37.0898C1148.77 37.2891 1148.82 37.4707 1148.91 37.6348C1149 37.7988 1149.13 37.9297 1149.31 38.0273C1149.49 38.1211 1149.72 38.168 1149.98 38.168C1150.32 38.168 1150.61 38.0977 1150.86 37.957C1151.12 37.8164 1151.32 37.6445 1151.47 37.4414C1151.62 37.2383 1151.7 37.041 1151.71 36.8496L1152.18 37.3711C1152.15 37.5352 1152.07 37.7168 1151.95 37.916C1151.83 38.1152 1151.67 38.3066 1151.47 38.4902C1151.27 38.6699 1151.03 38.8203 1150.75 38.9414C1150.48 39.0586 1150.17 39.1172 1149.83 39.1172C1149.4 39.1172 1149.02 39.0332 1148.7 38.8652C1148.38 38.6973 1148.12 38.4727 1147.95 38.1914C1147.77 37.9062 1147.68 37.5879 1147.68 37.2363C1147.68 36.8965 1147.75 36.5977 1147.88 36.3398C1148.01 36.0781 1148.21 35.8613 1148.46 35.6895C1148.71 35.5137 1149.01 35.3809 1149.36 35.291C1149.71 35.2012 1150.1 35.1562 1150.54 35.1562H1151.79ZM1155.57 30V39H1154.48V30H1155.57Z" fill="#A3E635"/>
<path d="M1197.99 30.4688H1200.81C1201.46 30.4688 1202 30.5664 1202.44 30.7617C1202.88 30.957 1203.22 31.2461 1203.45 31.6289C1203.69 32.0078 1203.8 32.4746 1203.8 33.0293C1203.8 33.4199 1203.72 33.7773 1203.56 34.1016C1203.41 34.4219 1203.18 34.6953 1202.88 34.9219C1202.59 35.1445 1202.24 35.3105 1201.83 35.4199L1201.51 35.543H1198.86L1198.85 34.623H1200.85C1201.26 34.623 1201.59 34.5527 1201.86 34.4121C1202.13 34.2676 1202.34 34.0742 1202.47 33.832C1202.61 33.5898 1202.68 33.3223 1202.68 33.0293C1202.68 32.7012 1202.61 32.4141 1202.48 32.168C1202.36 31.9219 1202.15 31.7324 1201.88 31.5996C1201.6 31.4629 1201.25 31.3945 1200.81 31.3945H1199.12V39H1197.99V30.4688ZM1202.98 39L1200.9 35.1328L1202.08 35.127L1204.18 38.9297V39H1202.98ZM1211.4 38.0801V39H1206.89V38.0801H1211.4ZM1207.12 30.4688V39H1205.98V30.4688H1207.12ZM1210.81 34.1367V35.0566H1206.89V34.1367H1210.81ZM1211.35 30.4688V31.3945H1206.89V30.4688H1211.35ZM1218.58 38.0801V39H1214.31V38.0801H1218.58ZM1214.54 30.4688V39H1213.41V30.4688H1214.54ZM1221.69 30.4688V39H1220.56V30.4688H1221.69ZM1227.61 31.2246L1224.78 39H1223.63L1226.88 30.4688H1227.62L1227.61 31.2246ZM1229.97 39L1227.14 31.2246L1227.13 30.4688H1227.87L1231.13 39H1229.97ZM1229.83 35.8418V36.7676H1225.03V35.8418H1229.83ZM1235.92 35.0098H1233.76L1233.74 34.1016H1235.71C1236.03 34.1016 1236.31 34.0469 1236.56 33.9375C1236.8 33.8281 1236.99 33.6719 1237.12 33.4688C1237.26 33.2617 1237.32 33.0156 1237.32 32.7305C1237.32 32.418 1237.26 32.1641 1237.14 31.9688C1237.03 31.7695 1236.84 31.625 1236.6 31.5352C1236.36 31.4414 1236.05 31.3945 1235.67 31.3945H1234.01V39H1232.88V30.4688H1235.67C1236.11 30.4688 1236.5 30.5137 1236.84 30.6035C1237.19 30.6895 1237.48 30.8262 1237.72 31.0137C1237.96 31.1973 1238.14 31.4316 1238.27 31.7168C1238.39 32.002 1238.46 32.3438 1238.46 32.7422C1238.46 33.0938 1238.37 33.4121 1238.19 33.6973C1238.01 33.9785 1237.76 34.209 1237.44 34.3887C1237.12 34.5684 1236.75 34.6836 1236.32 34.7344L1235.92 35.0098ZM1235.87 39H1233.31L1233.95 38.0801H1235.87C1236.22 38.0801 1236.53 38.0176 1236.78 37.8926C1237.03 37.7676 1237.23 37.5918 1237.36 37.3652C1237.49 37.1348 1237.56 36.8633 1237.56 36.5508C1237.56 36.2344 1237.5 35.9609 1237.39 35.7305C1237.28 35.5 1237.1 35.3223 1236.86 35.1973C1236.61 35.0723 1236.3 35.0098 1235.92 35.0098H1234.31L1234.32 34.1016H1236.52L1236.76 34.4297C1237.17 34.4648 1237.52 34.582 1237.8 34.7812C1238.09 34.9766 1238.31 35.2266 1238.46 35.5312C1238.61 35.8359 1238.68 36.1719 1238.68 36.5391C1238.68 37.0703 1238.57 37.5195 1238.33 37.8867C1238.1 38.25 1237.78 38.5273 1237.35 38.7188C1236.93 38.9062 1236.44 39 1235.87 39ZM1242.17 30.4688V39H1241.04V30.4688H1242.17ZM1250 38.0801V39H1245.73V38.0801H1250ZM1245.95 30.4688V39H1244.82V30.4688H1245.95ZM1253.1 30.4688V39H1251.97V30.4688H1253.1ZM1258.74 30.4688V39H1257.62V30.4688H1258.74ZM1261.48 30.4688V31.3945H1254.89V30.4688H1261.48ZM1263.83 30.4688L1266.05 34.752L1268.27 30.4688H1269.55L1266.61 35.8125V39H1265.48V35.8125L1262.54 30.4688H1263.83Z" fill="#475569"/>
<path d="M1291.13 37.5371C1291.13 38.3164 1290.95 38.9785 1290.59 39.5234C1290.23 40.0625 1289.74 40.4727 1289.13 40.7539C1288.52 41.0352 1287.83 41.1758 1287.06 41.1758C1286.29 41.1758 1285.6 41.0352 1284.99 40.7539C1284.37 40.4727 1283.89 40.0625 1283.53 39.5234C1283.17 38.9785 1282.99 38.3164 1282.99 37.5371C1282.99 37.0273 1283.09 36.5615 1283.28 36.1396C1283.48 35.7119 1283.76 35.3398 1284.12 35.0234C1284.48 34.707 1284.91 34.4639 1285.4 34.2939C1285.9 34.1182 1286.45 34.0303 1287.04 34.0303C1287.83 34.0303 1288.53 34.1826 1289.15 34.4873C1289.76 34.7861 1290.24 35.1992 1290.6 35.7266C1290.95 36.2539 1291.13 36.8574 1291.13 37.5371ZM1289.5 37.502C1289.5 37.0273 1289.39 36.6084 1289.19 36.2451C1288.98 35.876 1288.7 35.5889 1288.33 35.3838C1287.96 35.1787 1287.53 35.0762 1287.04 35.0762C1286.55 35.0762 1286.12 35.1787 1285.75 35.3838C1285.4 35.5889 1285.12 35.876 1284.92 36.2451C1284.72 36.6084 1284.62 37.0273 1284.62 37.502C1284.62 37.9941 1284.72 38.416 1284.91 38.7676C1285.11 39.1133 1285.39 39.3799 1285.75 39.5674C1286.12 39.749 1286.56 39.8398 1287.06 39.8398C1287.57 39.8398 1288 39.749 1288.36 39.5674C1288.73 39.3799 1289 39.1133 1289.2 38.7676C1289.4 38.416 1289.5 37.9941 1289.5 37.502ZM1290.83 31.5342C1290.83 32.1553 1290.67 32.7148 1290.34 33.2129C1290.01 33.7109 1289.56 34.1035 1289 34.3906C1288.43 34.6777 1287.78 34.8213 1287.06 34.8213C1286.33 34.8213 1285.68 34.6777 1285.1 34.3906C1284.53 34.1035 1284.09 33.7109 1283.77 33.2129C1283.44 32.7148 1283.28 32.1553 1283.28 31.5342C1283.28 30.79 1283.44 30.1572 1283.77 29.6357C1284.09 29.1143 1284.54 28.7158 1285.11 28.4404C1285.68 28.165 1286.33 28.0273 1287.05 28.0273C1287.79 28.0273 1288.44 28.165 1289 28.4404C1289.57 28.7158 1290.02 29.1143 1290.34 29.6357C1290.67 30.1572 1290.83 30.79 1290.83 31.5342ZM1289.21 31.5605C1289.21 31.1328 1289.12 30.7549 1288.93 30.4268C1288.75 30.0986 1288.5 29.8408 1288.18 29.6533C1287.86 29.46 1287.48 29.3633 1287.05 29.3633C1286.63 29.3633 1286.25 29.4541 1285.93 29.6357C1285.61 29.8115 1285.36 30.0635 1285.18 30.3916C1285.01 30.7197 1284.92 31.1094 1284.92 31.5605C1284.92 32 1285.01 32.3838 1285.18 32.7119C1285.36 33.04 1285.62 33.2949 1285.94 33.4766C1286.26 33.6582 1286.63 33.749 1287.06 33.749C1287.49 33.749 1287.86 33.6582 1288.18 33.4766C1288.5 33.2949 1288.75 33.04 1288.93 32.7119C1289.12 32.3838 1289.21 32 1289.21 31.5605ZM1301.57 39.6641V41H1293.2V39.8311L1297.39 35.1641C1297.91 34.5898 1298.3 34.1035 1298.58 33.7051C1298.87 33.3008 1299.07 32.9404 1299.18 32.624C1299.3 32.3018 1299.36 31.9736 1299.36 31.6396C1299.36 31.2178 1299.27 30.8369 1299.09 30.4971C1298.92 30.1514 1298.67 29.876 1298.34 29.6709C1298 29.4658 1297.6 29.3633 1297.13 29.3633C1296.56 29.3633 1296.08 29.4746 1295.7 29.6973C1295.33 29.9141 1295.05 30.2188 1294.86 30.6113C1294.67 31.0039 1294.58 31.4551 1294.58 31.9648H1292.95C1292.95 31.2441 1293.11 30.585 1293.43 29.9873C1293.74 29.3896 1294.21 28.915 1294.83 28.5635C1295.45 28.2061 1296.22 28.0273 1297.13 28.0273C1297.93 28.0273 1298.63 28.1709 1299.2 28.458C1299.77 28.7393 1300.21 29.1377 1300.52 29.6533C1300.83 30.1631 1300.98 30.7607 1300.98 31.4463C1300.98 31.8213 1300.92 32.2021 1300.79 32.5889C1300.67 32.9697 1300.5 33.3506 1300.27 33.7314C1300.06 34.1123 1299.8 34.4873 1299.51 34.8564C1299.22 35.2256 1298.91 35.5889 1298.58 35.9463L1295.16 39.6641H1301.57ZM1303.17 31.3408V30.6641C1303.17 30.1777 1303.28 29.7354 1303.49 29.3369C1303.7 28.9385 1304 28.6191 1304.39 28.3789C1304.79 28.1387 1305.25 28.0186 1305.79 28.0186C1306.34 28.0186 1306.81 28.1387 1307.2 28.3789C1307.59 28.6191 1307.89 28.9385 1308.1 29.3369C1308.31 29.7354 1308.42 30.1777 1308.42 30.6641V31.3408C1308.42 31.8154 1308.31 32.252 1308.1 32.6504C1307.9 33.0488 1307.6 33.3682 1307.21 33.6084C1306.82 33.8486 1306.35 33.9688 1305.81 33.9688C1305.26 33.9688 1304.79 33.8486 1304.39 33.6084C1304 33.3682 1303.7 33.0488 1303.49 32.6504C1303.28 32.252 1303.17 31.8154 1303.17 31.3408ZM1304.39 30.6641V31.3408C1304.39 31.6104 1304.44 31.8652 1304.54 32.1055C1304.65 32.3457 1304.81 32.542 1305.02 32.6943C1305.23 32.8408 1305.49 32.9141 1305.81 32.9141C1306.13 32.9141 1306.39 32.8408 1306.59 32.6943C1306.8 32.542 1306.95 32.3457 1307.05 32.1055C1307.15 31.8652 1307.2 31.6104 1307.2 31.3408V30.6641C1307.2 30.3887 1307.15 30.1309 1307.04 29.8906C1306.94 29.6445 1306.79 29.4482 1306.57 29.3018C1306.37 29.1494 1306.11 29.0732 1305.79 29.0732C1305.48 29.0732 1305.22 29.1494 1305.01 29.3018C1304.8 29.4482 1304.65 29.6445 1304.54 29.8906C1304.44 30.1309 1304.39 30.3887 1304.39 30.6641ZM1309.4 38.5479V37.8623C1309.4 37.3818 1309.51 36.9424 1309.72 36.5439C1309.93 36.1455 1310.23 35.8262 1310.63 35.5859C1311.02 35.3457 1311.48 35.2256 1312.02 35.2256C1312.57 35.2256 1313.04 35.3457 1313.43 35.5859C1313.82 35.8262 1314.12 36.1455 1314.33 36.5439C1314.55 36.9424 1314.65 37.3818 1314.65 37.8623V38.5479C1314.65 39.0283 1314.55 39.4678 1314.33 39.8662C1314.13 40.2646 1313.83 40.584 1313.44 40.8242C1313.05 41.0645 1312.59 41.1846 1312.04 41.1846C1311.5 41.1846 1311.03 41.0645 1310.63 40.8242C1310.24 40.584 1309.94 40.2646 1309.72 39.8662C1309.51 39.4678 1309.4 39.0283 1309.4 38.5479ZM1310.63 37.8623V38.5479C1310.63 38.8174 1310.68 39.0752 1310.78 39.3213C1310.88 39.5615 1311.04 39.7578 1311.25 39.9102C1311.46 40.0566 1311.72 40.1299 1312.04 40.1299C1312.36 40.1299 1312.62 40.0566 1312.82 39.9102C1313.03 39.7578 1313.19 39.5615 1313.29 39.3213C1313.39 39.0811 1313.44 38.8232 1313.44 38.5479V37.8623C1313.44 37.5869 1313.39 37.3291 1313.28 37.0889C1313.18 36.8486 1313.03 36.6553 1312.81 36.5088C1312.61 36.3564 1312.35 36.2803 1312.02 36.2803C1311.71 36.2803 1311.45 36.3564 1311.24 36.5088C1311.04 36.6553 1310.88 36.8486 1310.78 37.0889C1310.68 37.3291 1310.63 37.5869 1310.63 37.8623ZM1312.43 30.0225L1306.18 40.0244L1305.26 39.4443L1311.51 29.4424L1312.43 30.0225Z" fill="#E2E8F0"/>
<path d="M1330.17 35.3922L1326.28 30.9097C1326.25 30.8692 1326.2 30.8366 1326.15 30.8143C1326.11 30.7921 1326.05 30.7805 1326 30.7805C1325.95 30.7805 1325.89 30.7921 1325.84 30.8143C1325.79 30.8366 1325.75 30.8692 1325.72 30.9097L1321.83 35.3922C1321.82 35.4057 1321.81 35.4223 1321.81 35.44C1321.8 35.4577 1321.81 35.4758 1321.81 35.4921C1321.82 35.5084 1321.83 35.5222 1321.85 35.5319C1321.86 35.5416 1321.88 35.5468 1321.9 35.5468H1322.85C1322.9 35.5468 1322.95 35.5234 1322.99 35.4824L1325.55 32.5257V39.1246C1325.55 39.1761 1325.6 39.2183 1325.65 39.2183H1326.35C1326.4 39.2183 1326.44 39.1761 1326.44 39.1246V32.5257L1329.01 35.4824C1329.05 35.5234 1329.1 35.5468 1329.15 35.5468H1330.1C1330.18 35.5468 1330.22 35.4531 1330.17 35.3922Z" fill="#BEF264"/>
<g clip-path="url(#clip2_3990_66954)">
<g clip-path="url(#clip3_3990_66954)">
<rect x="712" y="74" width="6" height="38" fill="#A3E635"/>
<rect x="721" y="74" width="6" height="38" fill="#A3E635"/>
<rect x="730" y="74" width="6" height="38" fill="#A3E635"/>
<rect x="739" y="74" width="6" height="38" fill="#A3E635"/>
<rect x="748" y="74" width="6" height="38" fill="#A3E635"/>
<rect x="757" y="74" width="6" height="38" fill="#A3E635"/>
<rect x="766" y="74" width="6" height="38" fill="#A3E635"/>
<rect x="775" y="74" width="6" height="38" fill="#A3E635"/>
<rect x="784" y="74" width="6" height="38" fill="#A3E635"/>
<rect x="793" y="74" width="6" height="38" fill="#A3E635"/>
<rect x="802" y="74" width="6" height="38" fill="#A3E635"/>
<rect x="811" y="74" width="6" height="38" fill="#A3E635"/>
<rect x="820" y="74" width="6" height="38" fill="#A3E635"/>
<rect x="829" y="74" width="6" height="38" fill="#A3E635"/>
<rect x="838" y="74" width="6" height="38" fill="#A3E635"/>
<rect x="847" y="74" width="6" height="38" fill="#A3E635"/>
<rect x="856" y="74" width="6" height="38" fill="#A3E635"/>
<rect x="865" y="74" width="6" height="38" fill="#A3E635"/>
<rect x="874" y="74" width="6" height="38" fill="#A3E635"/>
<rect x="883" y="74" width="6" height="38" fill="#A3E635"/>
<rect x="892" y="74" width="6" height="38" fill="#A3E635"/>
<rect x="901" y="74" width="6" height="38" fill="#A3E635"/>
<rect x="910" y="74" width="6" height="38" fill="#A3E635"/>
<rect x="919" y="74" width="6" height="38" fill="#A3E635"/>
<rect x="928" y="74" width="6" height="38" fill="#A3E635"/>
<rect x="937" y="74" width="6" height="38" fill="#A3E635"/>
<rect x="946" y="74" width="6" height="38" fill="#A3E635"/>
<rect x="955" y="74" width="6" height="38" fill="#A3E635"/>
<rect x="964" y="74" width="6" height="38" fill="#A3E635"/>
<rect x="973" y="74" width="6" height="38" fill="#A3E635"/>
<rect x="982" y="74" width="6" height="38" fill="#A3E635"/>
<rect x="991" y="74" width="6" height="38" fill="#A3E635"/>
<rect x="1000" y="74" width="6" height="38" fill="#A3E635"/>
<rect x="1009" y="74" width="6" height="38" fill="#A3E635"/>
<rect x="1018" y="74" width="6" height="38" fill="#A3E635"/>
<rect x="1027" y="74" width="6" height="38" fill="#A3E635"/>
<rect x="1036" y="74" width="6" height="38" fill="#A3E635"/>
<rect x="1045" y="74" width="6" height="38" fill="#A3E635"/>
<rect x="1054" y="74" width="6" height="38" fill="#A3E635"/>
<rect x="1063" y="74" width="6" height="38" fill="#A3E635"/>
<rect x="1072" y="74" width="6" height="38" fill="#A3E635"/>
<rect x="1081" y="74" width="6" height="38" fill="#A3E635"/>
<rect x="1090" y="74" width="6" height="38" fill="#A3E635"/>
<rect x="1099" y="74" width="6" height="38" fill="#A3E635"/>
<rect x="1108" y="74" width="6" height="38" fill="#DB2777"/>
<rect x="1117" y="74" width="6" height="38" fill="#A3E635"/>
<rect x="1126" y="74" width="6" height="38" fill="#A3E635"/>
<rect x="1135" y="74" width="6" height="38" fill="#A3E635"/>
<rect x="1144" y="74" width="6" height="38" fill="#A3E635"/>
<rect x="1153" y="74" width="6" height="38" fill="#A3E635"/>
<rect x="1162" y="74" width="6" height="38" fill="#A3E635"/>
<rect x="1171" y="74" width="6" height="38" fill="#A3E635"/>
<rect x="1180" y="74" width="6" height="38" fill="#A3E635"/>
<rect x="1189" y="74" width="6" height="38" fill="#A3E635"/>
<rect x="1198" y="74" width="6" height="38" fill="#A3E635"/>
<rect x="1207" y="74" width="6" height="38" fill="#A3E635"/>
<rect x="1216" y="74" width="6" height="38" fill="#A3E635"/>
<rect x="1225" y="74" width="6" height="38" fill="#A3E635"/>
<rect x="1234" y="74" width="6" height="38" fill="#A3E635"/>
<rect x="1243" y="74" width="6" height="38" fill="#A3E635"/>
<rect x="1252" y="74" width="6" height="38" fill="#A3E635"/>
<rect x="1261" y="74" width="6" height="38" fill="#A3E635"/>
<rect x="1270" y="74" width="6" height="38" fill="#FB923C"/>
<rect x="1279" y="74" width="6" height="38" fill="#FB923C"/>
<rect x="1288" y="74" width="6" height="38" fill="#FB923C"/>
<rect x="1297" y="74" width="6" height="38" fill="#FB923C"/>
<rect x="1306" y="74" width="6" height="38" fill="#A3E635"/>
<rect x="1315" y="74" width="6" height="38" fill="#A3E635"/>
</g>
<path d="M718.299 130.109V131H712.715V130.221L715.51 127.109C715.854 126.727 716.119 126.402 716.307 126.137C716.498 125.867 716.631 125.627 716.705 125.416C716.783 125.201 716.822 124.982 716.822 124.76C716.822 124.479 716.764 124.225 716.646 123.998C716.533 123.768 716.365 123.584 716.143 123.447C715.92 123.311 715.65 123.242 715.334 123.242C714.955 123.242 714.639 123.316 714.385 123.465C714.135 123.609 713.947 123.812 713.822 124.074C713.697 124.336 713.635 124.637 713.635 124.977H712.551C712.551 124.496 712.656 124.057 712.867 123.658C713.078 123.26 713.391 122.943 713.805 122.709C714.219 122.471 714.729 122.352 715.334 122.352C715.873 122.352 716.334 122.447 716.717 122.639C717.1 122.826 717.393 123.092 717.596 123.436C717.803 123.775 717.906 124.174 717.906 124.631C717.906 124.881 717.863 125.135 717.777 125.393C717.695 125.646 717.58 125.9 717.432 126.154C717.287 126.408 717.117 126.658 716.922 126.904C716.73 127.15 716.525 127.393 716.307 127.631L714.021 130.109H718.299ZM723.621 122.422V131H722.537V123.775L720.352 124.572V123.594L723.452 122.422H723.621ZM727.544 130.426C727.544 130.242 727.6 130.088 727.714 129.963C727.831 129.834 727.999 129.77 728.218 129.77C728.436 129.77 728.602 129.834 728.716 129.963C728.833 130.088 728.891 130.242 728.891 130.426C728.891 130.605 728.833 130.758 728.716 130.883C728.602 131.008 728.436 131.07 728.218 131.07C727.999 131.07 727.831 131.008 727.714 130.883C727.6 130.758 727.544 130.605 727.544 130.426ZM736.529 126.055V127.355C736.529 128.055 736.466 128.645 736.341 129.125C736.216 129.605 736.036 129.992 735.802 130.285C735.568 130.578 735.284 130.791 734.952 130.924C734.624 131.053 734.253 131.117 733.839 131.117C733.511 131.117 733.208 131.076 732.931 130.994C732.654 130.912 732.404 130.781 732.181 130.602C731.962 130.418 731.775 130.18 731.618 129.887C731.462 129.594 731.343 129.238 731.261 128.82C731.179 128.402 731.138 127.914 731.138 127.355V126.055C731.138 125.355 731.2 124.77 731.325 124.297C731.454 123.824 731.636 123.445 731.87 123.16C732.105 122.871 732.386 122.664 732.714 122.539C733.046 122.414 733.417 122.352 733.827 122.352C734.159 122.352 734.464 122.393 734.741 122.475C735.023 122.553 735.273 122.68 735.491 122.855C735.71 123.027 735.896 123.258 736.048 123.547C736.204 123.832 736.323 124.182 736.405 124.596C736.487 125.01 736.529 125.496 736.529 126.055ZM735.439 127.531V125.873C735.439 125.49 735.415 125.154 735.368 124.865C735.325 124.572 735.261 124.322 735.175 124.115C735.089 123.908 734.98 123.74 734.847 123.611C734.718 123.482 734.568 123.389 734.396 123.33C734.228 123.268 734.038 123.236 733.827 123.236C733.57 123.236 733.341 123.285 733.142 123.383C732.943 123.477 732.775 123.627 732.638 123.834C732.505 124.041 732.404 124.312 732.333 124.648C732.263 124.984 732.228 125.393 732.228 125.873V127.531C732.228 127.914 732.249 128.252 732.292 128.545C732.339 128.838 732.407 129.092 732.497 129.307C732.587 129.518 732.696 129.691 732.825 129.828C732.954 129.965 733.103 130.066 733.271 130.133C733.443 130.195 733.632 130.227 733.839 130.227C734.105 130.227 734.337 130.176 734.536 130.074C734.736 129.973 734.902 129.814 735.034 129.6C735.171 129.381 735.273 129.102 735.339 128.762C735.405 128.418 735.439 128.008 735.439 127.531ZM742.086 122.422V131H741.002V123.775L738.816 124.572V123.594L741.916 122.422H742.086ZM746.008 130.426C746.008 130.242 746.064 130.088 746.178 129.963C746.295 129.834 746.463 129.77 746.682 129.77C746.9 129.77 747.066 129.834 747.18 129.963C747.297 130.088 747.355 130.242 747.355 130.426C747.355 130.605 747.297 130.758 747.18 130.883C747.066 131.008 746.9 131.07 746.682 131.07C746.463 131.07 746.295 131.008 746.178 130.883C746.064 130.758 746.008 130.605 746.008 130.426ZM755.227 130.109V131H749.643V130.221L752.438 127.109C752.782 126.727 753.047 126.402 753.235 126.137C753.426 125.867 753.559 125.627 753.633 125.416C753.711 125.201 753.75 124.982 753.75 124.76C753.75 124.479 753.692 124.225 753.575 123.998C753.461 123.768 753.293 123.584 753.071 123.447C752.848 123.311 752.579 123.242 752.262 123.242C751.883 123.242 751.567 123.316 751.313 123.465C751.063 123.609 750.875 123.812 750.75 124.074C750.625 124.336 750.563 124.637 750.563 124.977H749.479C749.479 124.496 749.584 124.057 749.795 123.658C750.006 123.26 750.319 122.943 750.733 122.709C751.147 122.471 751.657 122.352 752.262 122.352C752.801 122.352 753.262 122.447 753.645 122.639C754.028 122.826 754.321 123.092 754.524 123.436C754.731 123.775 754.834 124.174 754.834 124.631C754.834 124.881 754.791 125.135 754.705 125.393C754.623 125.646 754.508 125.9 754.36 126.154C754.215 126.408 754.045 126.658 753.85 126.904C753.659 127.15 753.454 127.393 753.235 127.631L750.95 130.109H755.227ZM762.343 126.055V127.355C762.343 128.055 762.28 128.645 762.155 129.125C762.03 129.605 761.85 129.992 761.616 130.285C761.382 130.578 761.098 130.791 760.766 130.924C760.438 131.053 760.067 131.117 759.653 131.117C759.325 131.117 759.022 131.076 758.745 130.994C758.468 130.912 758.218 130.781 757.995 130.602C757.776 130.418 757.589 130.18 757.432 129.887C757.276 129.594 757.157 129.238 757.075 128.82C756.993 128.402 756.952 127.914 756.952 127.355V126.055C756.952 125.355 757.014 124.77 757.139 124.297C757.268 123.824 757.45 123.445 757.684 123.16C757.919 122.871 758.2 122.664 758.528 122.539C758.86 122.414 759.231 122.352 759.641 122.352C759.973 122.352 760.278 122.393 760.555 122.475C760.837 122.553 761.087 122.68 761.305 122.855C761.524 123.027 761.71 123.258 761.862 123.547C762.018 123.832 762.138 124.182 762.22 124.596C762.302 125.01 762.343 125.496 762.343 126.055ZM761.253 127.531V125.873C761.253 125.49 761.229 125.154 761.182 124.865C761.139 124.572 761.075 124.322 760.989 124.115C760.903 123.908 760.794 123.74 760.661 123.611C760.532 123.482 760.382 123.389 760.21 123.33C760.042 123.268 759.852 123.236 759.641 123.236C759.384 123.236 759.155 123.285 758.956 123.383C758.757 123.477 758.589 123.627 758.452 123.834C758.319 124.041 758.218 124.312 758.147 124.648C758.077 124.984 758.042 125.393 758.042 125.873V127.531C758.042 127.914 758.063 128.252 758.106 128.545C758.153 128.838 758.221 129.092 758.311 129.307C758.401 129.518 758.511 129.691 758.639 129.828C758.768 129.965 758.917 130.066 759.085 130.133C759.257 130.195 759.446 130.227 759.653 130.227C759.919 130.227 760.151 130.176 760.35 130.074C760.55 129.973 760.716 129.814 760.848 129.6C760.985 129.381 761.087 129.102 761.153 128.762C761.22 128.418 761.253 128.008 761.253 127.531ZM769.927 130.109V131H764.343V130.221L767.138 127.109C767.482 126.727 767.747 126.402 767.935 126.137C768.126 125.867 768.259 125.627 768.333 125.416C768.411 125.201 768.45 124.982 768.45 124.76C768.45 124.479 768.392 124.225 768.275 123.998C768.161 123.768 767.993 123.584 767.771 123.447C767.548 123.311 767.279 123.242 766.962 123.242C766.583 123.242 766.267 123.316 766.013 123.465C765.763 123.609 765.575 123.812 765.45 124.074C765.325 124.336 765.263 124.637 765.263 124.977H764.179C764.179 124.496 764.284 124.057 764.495 123.658C764.706 123.26 765.019 122.943 765.433 122.709C765.847 122.471 766.357 122.352 766.962 122.352C767.501 122.352 767.962 122.447 768.345 122.639C768.728 122.826 769.021 123.092 769.224 123.436C769.431 123.775 769.534 124.174 769.534 124.631C769.534 124.881 769.491 125.135 769.405 125.393C769.323 125.646 769.208 125.9 769.06 126.154C768.915 126.408 768.745 126.658 768.55 126.904C768.359 127.15 768.154 127.393 767.935 127.631L765.65 130.109H769.927ZM773.269 126.201H774.043C774.421 126.201 774.734 126.139 774.98 126.014C775.23 125.885 775.416 125.711 775.537 125.492C775.662 125.27 775.724 125.02 775.724 124.742C775.724 124.414 775.67 124.139 775.56 123.916C775.451 123.693 775.287 123.525 775.068 123.412C774.849 123.299 774.572 123.242 774.236 123.242C773.931 123.242 773.662 123.303 773.427 123.424C773.197 123.541 773.015 123.709 772.882 123.928C772.754 124.146 772.689 124.404 772.689 124.701H771.605C771.605 124.268 771.714 123.873 771.933 123.518C772.152 123.162 772.459 122.879 772.853 122.668C773.252 122.457 773.713 122.352 774.236 122.352C774.752 122.352 775.203 122.443 775.589 122.627C775.976 122.807 776.277 123.076 776.492 123.436C776.707 123.791 776.814 124.234 776.814 124.766C776.814 124.98 776.763 125.211 776.662 125.457C776.564 125.699 776.41 125.926 776.199 126.137C775.992 126.348 775.722 126.521 775.39 126.658C775.058 126.791 774.66 126.857 774.195 126.857H773.269V126.201ZM773.269 127.092V126.441H774.195C774.738 126.441 775.187 126.506 775.543 126.635C775.898 126.764 776.177 126.936 776.38 127.15C776.588 127.365 776.732 127.602 776.814 127.859C776.9 128.113 776.943 128.367 776.943 128.621C776.943 129.02 776.875 129.373 776.738 129.682C776.605 129.99 776.416 130.252 776.17 130.467C775.927 130.682 775.642 130.844 775.314 130.953C774.986 131.062 774.629 131.117 774.242 131.117C773.871 131.117 773.521 131.064 773.193 130.959C772.869 130.854 772.582 130.701 772.332 130.502C772.082 130.299 771.886 130.051 771.746 129.758C771.605 129.461 771.535 129.123 771.535 128.744H772.619C772.619 129.041 772.683 129.301 772.812 129.523C772.945 129.746 773.132 129.92 773.375 130.045C773.621 130.166 773.91 130.227 774.242 130.227C774.574 130.227 774.859 130.17 775.097 130.057C775.339 129.939 775.525 129.764 775.654 129.529C775.787 129.295 775.853 129 775.853 128.645C775.853 128.289 775.779 127.998 775.63 127.771C775.482 127.541 775.271 127.371 774.998 127.262C774.728 127.148 774.41 127.092 774.043 127.092H773.269Z" fill="#475569"/>
<path d="M1296.14 122.469V131H1295.03V122.469H1296.14ZM1298.88 122.469V123.395H1292.29V122.469H1298.88ZM1307.15 126.465V127.004C1307.15 127.645 1307.07 128.219 1306.91 128.727C1306.75 129.234 1306.52 129.666 1306.22 130.021C1305.92 130.377 1305.56 130.648 1305.14 130.836C1304.72 131.023 1304.25 131.117 1303.73 131.117C1303.23 131.117 1302.77 131.023 1302.34 130.836C1301.93 130.648 1301.56 130.377 1301.25 130.021C1300.95 129.666 1300.71 129.234 1300.55 128.727C1300.38 128.219 1300.29 127.645 1300.29 127.004V126.465C1300.29 125.824 1300.38 125.252 1300.54 124.748C1300.71 124.24 1300.94 123.809 1301.25 123.453C1301.55 123.094 1301.91 122.82 1302.33 122.633C1302.75 122.445 1303.22 122.352 1303.72 122.352C1304.24 122.352 1304.71 122.445 1305.13 122.633C1305.55 122.82 1305.91 123.094 1306.21 123.453C1306.52 123.809 1306.75 124.24 1306.91 124.748C1307.07 125.252 1307.15 125.824 1307.15 126.465ZM1306.04 127.004V126.453C1306.04 125.945 1305.98 125.496 1305.88 125.105C1305.78 124.715 1305.63 124.387 1305.43 124.121C1305.23 123.855 1304.98 123.654 1304.69 123.518C1304.41 123.381 1304.08 123.312 1303.72 123.312C1303.37 123.312 1303.05 123.381 1302.77 123.518C1302.48 123.654 1302.24 123.855 1302.04 124.121C1301.84 124.387 1301.69 124.715 1301.58 125.105C1301.47 125.496 1301.41 125.945 1301.41 126.453V127.004C1301.41 127.516 1301.47 127.969 1301.58 128.363C1301.69 128.754 1301.84 129.084 1302.05 129.354C1302.25 129.619 1302.5 129.82 1302.78 129.957C1303.06 130.094 1303.38 130.162 1303.73 130.162C1304.1 130.162 1304.43 130.094 1304.71 129.957C1305 129.82 1305.24 129.619 1305.43 129.354C1305.63 129.084 1305.78 128.754 1305.88 128.363C1305.98 127.969 1306.04 127.516 1306.04 127.004ZM1311.76 131H1309.98L1309.99 130.08H1311.76C1312.37 130.08 1312.87 129.953 1313.28 129.699C1313.69 129.441 1313.99 129.082 1314.19 128.621C1314.4 128.156 1314.5 127.613 1314.5 126.992V126.471C1314.5 125.982 1314.45 125.549 1314.33 125.17C1314.21 124.787 1314.04 124.465 1313.81 124.203C1313.59 123.938 1313.31 123.736 1312.98 123.6C1312.66 123.463 1312.28 123.395 1311.86 123.395H1309.94V122.469H1311.86C1312.42 122.469 1312.93 122.562 1313.39 122.75C1313.85 122.934 1314.25 123.201 1314.58 123.553C1314.92 123.9 1315.17 124.322 1315.35 124.818C1315.53 125.311 1315.62 125.865 1315.62 126.482V126.992C1315.62 127.609 1315.53 128.166 1315.35 128.662C1315.17 129.154 1314.91 129.574 1314.58 129.922C1314.24 130.27 1313.83 130.537 1313.36 130.725C1312.88 130.908 1312.35 131 1311.76 131ZM1310.58 122.469V131H1309.45V122.469H1310.58ZM1320.95 123.225L1318.13 131H1316.97L1320.23 122.469H1320.97L1320.95 123.225ZM1323.32 131L1320.49 123.225L1320.47 122.469H1321.22L1324.48 131H1323.32ZM1323.17 127.842V128.768H1318.38V127.842H1323.17ZM1326.06 122.469L1328.28 126.752L1330.5 122.469H1331.78L1328.84 127.812V131H1327.71V127.812L1324.77 122.469H1326.06Z" fill="#475569"/>
</g>
<defs>
<clipPath id="clip0_3990_66954">
<rect width="620" height="50" fill="white" transform="translate(20 62)"/>
</clipPath>
<clipPath id="clip1_3990_66954">
<rect width="969" height="38" fill="white" transform="translate(20 74)"/>
</clipPath>
<clipPath id="clip2_3990_66954">
<rect width="620" height="77" fill="white" transform="translate(712 62)"/>
</clipPath>
<clipPath id="clip3_3990_66954">
<rect width="609" height="38" fill="white" transform="translate(712 74)"/>
</clipPath>
</defs>
</svg>
