<svg width="660" height="164" viewBox="0 0 660 164" fill="none" xmlns="http://www.w3.org/2000/svg">
<rect width="660" height="164" rx="4" fill="#1E293B"/>
<path d="M28.2969 27.4492L22.6484 43H20.3398L26.8438 25.9375H28.332L28.2969 27.4492ZM33.0312 43L27.3711 27.4492L27.3359 25.9375H28.8242L35.3516 43H33.0312ZM32.7383 36.6836V38.5352H23.1523V36.6836H32.7383ZM44.9258 40.0703V30.3203H47.1055V43H45.0312L44.9258 40.0703ZM45.3359 37.3984L46.2383 37.375C46.2383 38.2188 46.1484 39 45.9688 39.7188C45.7969 40.4297 45.5156 41.0469 45.125 41.5703C44.7344 42.0938 44.2227 42.5039 43.5898 42.8008C42.957 43.0898 42.1875 43.2344 41.2812 43.2344C40.6641 43.2344 40.0977 43.1445 39.582 42.9648C39.0742 42.7852 38.6367 42.5078 38.2695 42.1328C37.9023 41.7578 37.6172 41.2695 37.4141 40.668C37.2188 40.0664 37.1211 39.3438 37.1211 38.5V30.3203H39.2891V38.5234C39.2891 39.0938 39.3516 39.5664 39.4766 39.9414C39.6094 40.3086 39.7852 40.6016 40.0039 40.8203C40.2305 41.0312 40.4805 41.1797 40.7539 41.2656C41.0352 41.3516 41.3242 41.3945 41.6211 41.3945C42.543 41.3945 43.2734 41.2188 43.8125 40.8672C44.3516 40.5078 44.7383 40.0273 44.9727 39.4258C45.2148 38.8164 45.3359 38.1406 45.3359 37.3984ZM55.7188 30.3203V31.9844H48.8633V30.3203H55.7188ZM51.1836 27.2383H53.3516V39.8594C53.3516 40.2891 53.418 40.6133 53.5508 40.832C53.6836 41.0508 53.8555 41.1953 54.0664 41.2656C54.2773 41.3359 54.5039 41.3711 54.7461 41.3711C54.9258 41.3711 55.1133 41.3555 55.3086 41.3242C55.5117 41.2852 55.6641 41.2539 55.7656 41.2305L55.7773 43C55.6055 43.0547 55.3789 43.1055 55.0977 43.1523C54.8242 43.207 54.4922 43.2344 54.1016 43.2344C53.5703 43.2344 53.082 43.1289 52.6367 42.918C52.1914 42.707 51.8359 42.3555 51.5703 41.8633C51.3125 41.3633 51.1836 40.6914 51.1836 39.8477V27.2383ZM60.4297 25V43H58.2617V25H60.4297ZM59.9141 36.1797L59.0117 36.1445C59.0195 35.2773 59.1484 34.4766 59.3984 33.7422C59.6484 33 60 32.3555 60.4531 31.8086C60.9062 31.2617 61.4453 30.8398 62.0703 30.543C62.7031 30.2383 63.4023 30.0859 64.168 30.0859C64.793 30.0859 65.3555 30.1719 65.8555 30.3438C66.3555 30.5078 66.7812 30.7734 67.1328 31.1406C67.4922 31.5078 67.7656 31.9844 67.9531 32.5703C68.1406 33.1484 68.2344 33.8555 68.2344 34.6914V43H66.0547V34.668C66.0547 34.0039 65.957 33.4727 65.7617 33.0742C65.5664 32.668 65.2812 32.375 64.9062 32.1953C64.5312 32.0078 64.0703 31.9141 63.5234 31.9141C62.9844 31.9141 62.4922 32.0273 62.0469 32.2539C61.6094 32.4805 61.2305 32.793 60.9102 33.1914C60.5977 33.5898 60.3516 34.0469 60.1719 34.5625C60 35.0703 59.9141 35.6094 59.9141 36.1797ZM86.8555 38.6875C86.8555 38.2891 86.793 37.9375 86.668 37.6328C86.5508 37.3203 86.3398 37.0391 86.0352 36.7891C85.7383 36.5391 85.3242 36.3008 84.793 36.0742C84.2695 35.8477 83.6055 35.6172 82.8008 35.3828C81.957 35.1328 81.1953 34.8555 80.5156 34.5508C79.8359 34.2383 79.2539 33.8828 78.7695 33.4844C78.2852 33.0859 77.9141 32.6289 77.6562 32.1133C77.3984 31.5977 77.2695 31.0078 77.2695 30.3438C77.2695 29.6797 77.4062 29.0664 77.6797 28.5039C77.9531 27.9414 78.3438 27.4531 78.8516 27.0391C79.3672 26.6172 79.9805 26.2891 80.6914 26.0547C81.4023 25.8203 82.1953 25.7031 83.0703 25.7031C84.3516 25.7031 85.4375 25.9492 86.3281 26.4414C87.2266 26.9258 87.9102 27.5625 88.3789 28.3516C88.8477 29.1328 89.082 29.9688 89.082 30.8594H86.832C86.832 30.2188 86.6953 29.6523 86.4219 29.1602C86.1484 28.6602 85.7344 28.2695 85.1797 27.9883C84.625 27.6992 83.9219 27.5547 83.0703 27.5547C82.2656 27.5547 81.6016 27.6758 81.0781 27.918C80.5547 28.1602 80.1641 28.4883 79.9062 28.9023C79.6562 29.3164 79.5312 29.7891 79.5312 30.3203C79.5312 30.6797 79.6055 31.0078 79.7539 31.3047C79.9102 31.5938 80.1484 31.8633 80.4688 32.1133C80.7969 32.3633 81.2109 32.5938 81.7109 32.8047C82.2188 33.0156 82.8242 33.2188 83.5273 33.4141C84.4961 33.6875 85.332 33.9922 86.0352 34.3281C86.7383 34.6641 87.3164 35.043 87.7695 35.4648C88.2305 35.8789 88.5703 36.3516 88.7891 36.8828C89.0156 37.4062 89.1289 38 89.1289 38.6641C89.1289 39.3594 88.9883 39.9883 88.707 40.5508C88.4258 41.1133 88.0234 41.5938 87.5 41.9922C86.9766 42.3906 86.3477 42.6992 85.6133 42.918C84.8867 43.1289 84.0742 43.2344 83.1758 43.2344C82.3867 43.2344 81.6094 43.125 80.8438 42.9062C80.0859 42.6875 79.3945 42.3594 78.7695 41.9219C78.1523 41.4844 77.6562 40.9453 77.2812 40.3047C76.9141 39.6562 76.7305 38.9062 76.7305 38.0547H78.9805C78.9805 38.6406 79.0938 39.1445 79.3203 39.5664C79.5469 39.9805 79.8555 40.3242 80.2461 40.5977C80.6445 40.8711 81.0938 41.0742 81.5938 41.207C82.1016 41.332 82.6289 41.3945 83.1758 41.3945C83.9648 41.3945 84.6328 41.2852 85.1797 41.0664C85.7266 40.8477 86.1406 40.5352 86.4219 40.1289C86.7109 39.7227 86.8555 39.2422 86.8555 38.6875ZM96.9453 43.2344C96.0625 43.2344 95.2617 43.0859 94.543 42.7891C93.832 42.4844 93.2188 42.0586 92.7031 41.5117C92.1953 40.9648 91.8047 40.3164 91.5312 39.5664C91.2578 38.8164 91.1211 37.9961 91.1211 37.1055V36.6133C91.1211 35.582 91.2734 34.6641 91.5781 33.8594C91.8828 33.0469 92.2969 32.3594 92.8203 31.7969C93.3438 31.2344 93.9375 30.8086 94.6016 30.5195C95.2656 30.2305 95.9531 30.0859 96.6641 30.0859C97.5703 30.0859 98.3516 30.2422 99.0078 30.5547C99.6719 30.8672 100.215 31.3047 100.637 31.8672C101.059 32.4219 101.371 33.0781 101.574 33.8359C101.777 34.5859 101.879 35.4062 101.879 36.2969V37.2695H92.4102V35.5H99.7109V35.3359C99.6797 34.7734 99.5625 34.2266 99.3594 33.6953C99.1641 33.1641 98.8516 32.7266 98.4219 32.3828C97.9922 32.0391 97.4062 31.8672 96.6641 31.8672C96.1719 31.8672 95.7188 31.9727 95.3047 32.1836C94.8906 32.3867 94.5352 32.6914 94.2383 33.0977C93.9414 33.5039 93.7109 34 93.5469 34.5859C93.3828 35.1719 93.3008 35.8477 93.3008 36.6133V37.1055C93.3008 37.707 93.3828 38.2734 93.5469 38.8047C93.7188 39.3281 93.9648 39.7891 94.2852 40.1875C94.6133 40.5859 95.0078 40.8984 95.4688 41.125C95.9375 41.3516 96.4688 41.4648 97.0625 41.4648C97.8281 41.4648 98.4766 41.3086 99.0078 40.9961C99.5391 40.6836 100.004 40.2656 100.402 39.7422L101.715 40.7852C101.441 41.1992 101.094 41.5938 100.672 41.9688C100.25 42.3438 99.7305 42.6484 99.1133 42.8828C98.5039 43.1172 97.7812 43.2344 96.9453 43.2344ZM106.578 32.3125V43H104.41V30.3203H106.52L106.578 32.3125ZM110.539 30.25L110.527 32.2656C110.348 32.2266 110.176 32.2031 110.012 32.1953C109.855 32.1797 109.676 32.1719 109.473 32.1719C108.973 32.1719 108.531 32.25 108.148 32.4062C107.766 32.5625 107.441 32.7812 107.176 33.0625C106.91 33.3438 106.699 33.6797 106.543 34.0703C106.395 34.4531 106.297 34.875 106.25 35.3359L105.641 35.6875C105.641 34.9219 105.715 34.2031 105.863 33.5312C106.02 32.8594 106.258 32.2656 106.578 31.75C106.898 31.2266 107.305 30.8203 107.797 30.5312C108.297 30.2344 108.891 30.0859 109.578 30.0859C109.734 30.0859 109.914 30.1055 110.117 30.1445C110.32 30.1758 110.461 30.2109 110.539 30.25ZM116.609 41.043L120.078 30.3203H122.293L117.734 43H116.281L116.609 41.043ZM113.715 30.3203L117.289 41.1016L117.535 43H116.082L111.488 30.3203H113.715ZM126.734 30.3203V43H124.555V30.3203H126.734ZM124.391 26.957C124.391 26.6055 124.496 26.3086 124.707 26.0664C124.926 25.8242 125.246 25.7031 125.668 25.7031C126.082 25.7031 126.398 25.8242 126.617 26.0664C126.844 26.3086 126.957 26.6055 126.957 26.957C126.957 27.293 126.844 27.582 126.617 27.8242C126.398 28.0586 126.082 28.1758 125.668 28.1758C125.246 28.1758 124.926 28.0586 124.707 27.8242C124.496 27.582 124.391 27.293 124.391 26.957ZM135.289 41.4531C135.805 41.4531 136.281 41.3477 136.719 41.1367C137.156 40.9258 137.516 40.6367 137.797 40.2695C138.078 39.8945 138.238 39.4688 138.277 38.9922H140.34C140.301 39.7422 140.047 40.4414 139.578 41.0898C139.117 41.7305 138.512 42.25 137.762 42.6484C137.012 43.0391 136.188 43.2344 135.289 43.2344C134.336 43.2344 133.504 43.0664 132.793 42.7305C132.09 42.3945 131.504 41.9336 131.035 41.3477C130.574 40.7617 130.227 40.0898 129.992 39.332C129.766 38.5664 129.652 37.7578 129.652 36.9062V36.4141C129.652 35.5625 129.766 34.7578 129.992 34C130.227 33.2344 130.574 32.5586 131.035 31.9727C131.504 31.3867 132.09 30.9258 132.793 30.5898C133.504 30.2539 134.336 30.0859 135.289 30.0859C136.281 30.0859 137.148 30.2891 137.891 30.6953C138.633 31.0938 139.215 31.6406 139.637 32.3359C140.066 33.0234 140.301 33.8047 140.34 34.6797H138.277C138.238 34.1562 138.09 33.6836 137.832 33.2617C137.582 32.8398 137.238 32.5039 136.801 32.2539C136.371 31.9961 135.867 31.8672 135.289 31.8672C134.625 31.8672 134.066 32 133.613 32.2656C133.168 32.5234 132.812 32.875 132.547 33.3203C132.289 33.7578 132.102 34.2461 131.984 34.7852C131.875 35.3164 131.82 35.8594 131.82 36.4141V36.9062C131.82 37.4609 131.875 38.0078 131.984 38.5469C132.094 39.0859 132.277 39.5742 132.535 40.0117C132.801 40.4492 133.156 40.8008 133.602 41.0664C134.055 41.3242 134.617 41.4531 135.289 41.4531ZM148.039 43.2344C147.156 43.2344 146.355 43.0859 145.637 42.7891C144.926 42.4844 144.312 42.0586 143.797 41.5117C143.289 40.9648 142.898 40.3164 142.625 39.5664C142.352 38.8164 142.215 37.9961 142.215 37.1055V36.6133C142.215 35.582 142.367 34.6641 142.672 33.8594C142.977 33.0469 143.391 32.3594 143.914 31.7969C144.438 31.2344 145.031 30.8086 145.695 30.5195C146.359 30.2305 147.047 30.0859 147.758 30.0859C148.664 30.0859 149.445 30.2422 150.102 30.5547C150.766 30.8672 151.309 31.3047 151.73 31.8672C152.152 32.4219 152.465 33.0781 152.668 33.8359C152.871 34.5859 152.973 35.4062 152.973 36.2969V37.2695H143.504V35.5H150.805V35.3359C150.773 34.7734 150.656 34.2266 150.453 33.6953C150.258 33.1641 149.945 32.7266 149.516 32.3828C149.086 32.0391 148.5 31.8672 147.758 31.8672C147.266 31.8672 146.812 31.9727 146.398 32.1836C145.984 32.3867 145.629 32.6914 145.332 33.0977C145.035 33.5039 144.805 34 144.641 34.5859C144.477 35.1719 144.395 35.8477 144.395 36.6133V37.1055C144.395 37.707 144.477 38.2734 144.641 38.8047C144.812 39.3281 145.059 39.7891 145.379 40.1875C145.707 40.5859 146.102 40.8984 146.562 41.125C147.031 41.3516 147.562 41.4648 148.156 41.4648C148.922 41.4648 149.57 41.3086 150.102 40.9961C150.633 40.6836 151.098 40.2656 151.496 39.7422L152.809 40.7852C152.535 41.1992 152.188 41.5938 151.766 41.9688C151.344 42.3438 150.824 42.6484 150.207 42.8828C149.598 43.1172 148.875 43.2344 148.039 43.2344Z" fill="#E2E8F0"/>
<rect x="363.5" y="21.5" width="27" height="27" rx="3.5" fill="#365314"/>
<path d="M377 26.25C372.168 26.25 368.25 30.168 368.25 35C368.25 39.832 372.168 43.75 377 43.75C381.832 43.75 385.75 39.832 385.75 35C385.75 30.168 381.832 26.25 377 26.25ZM380.779 32.1426L376.666 37.8457C376.609 37.9259 376.533 37.9913 376.445 38.0364C376.357 38.0815 376.26 38.1051 376.161 38.1051C376.062 38.1051 375.965 38.0815 375.877 38.0364C375.79 37.9913 375.714 37.9259 375.656 37.8457L373.221 34.4707C373.146 34.3672 373.221 34.2227 373.348 34.2227H374.264C374.463 34.2227 374.652 34.3184 374.77 34.4824L376.16 36.4121L379.23 32.1543C379.348 31.9922 379.535 31.8945 379.736 31.8945H380.652C380.779 31.8945 380.854 32.0391 380.779 32.1426Z" fill="#BEF264"/>
<rect x="363.5" y="21.5" width="27" height="27" rx="3.5" stroke="#65A30D"/>
<path d="M410.559 34.4648V35.0039C410.559 35.6445 410.479 36.2188 410.318 36.7266C410.158 37.2344 409.928 37.666 409.627 38.0215C409.326 38.377 408.965 38.6484 408.543 38.8359C408.125 39.0234 407.656 39.1172 407.137 39.1172C406.633 39.1172 406.17 39.0234 405.748 38.8359C405.33 38.6484 404.967 38.377 404.658 38.0215C404.354 37.666 404.117 37.2344 403.949 36.7266C403.781 36.2188 403.697 35.6445 403.697 35.0039V34.4648C403.697 33.8242 403.779 33.252 403.943 32.748C404.111 32.2402 404.348 31.8086 404.652 31.4531C404.957 31.0938 405.318 30.8203 405.736 30.6328C406.158 30.4453 406.621 30.3516 407.125 30.3516C407.645 30.3516 408.113 30.4453 408.531 30.6328C408.953 30.8203 409.314 31.0938 409.615 31.4531C409.92 31.8086 410.152 32.2402 410.312 32.748C410.477 33.252 410.559 33.8242 410.559 34.4648ZM409.439 35.0039V34.4531C409.439 33.9453 409.387 33.4961 409.281 33.1055C409.18 32.7148 409.029 32.3867 408.83 32.1211C408.631 31.8555 408.387 31.6543 408.098 31.5176C407.812 31.3809 407.488 31.3125 407.125 31.3125C406.773 31.3125 406.455 31.3809 406.17 31.5176C405.889 31.6543 405.646 31.8555 405.443 32.1211C405.244 32.3867 405.09 32.7148 404.98 33.1055C404.871 33.4961 404.816 33.9453 404.816 34.4531V35.0039C404.816 35.5156 404.871 35.9688 404.98 36.3633C405.09 36.7539 405.246 37.084 405.449 37.3535C405.656 37.6191 405.9 37.8203 406.182 37.957C406.467 38.0938 406.785 38.1621 407.137 38.1621C407.504 38.1621 407.83 38.0938 408.115 37.957C408.4 37.8203 408.641 37.6191 408.836 37.3535C409.035 37.084 409.186 36.7539 409.287 36.3633C409.389 35.9688 409.439 35.5156 409.439 35.0039ZM413.172 33.8789V41.4375H412.082V32.6602H413.078L413.172 33.8789ZM417.443 35.7773V35.9004C417.443 36.3613 417.389 36.7891 417.279 37.1836C417.17 37.5742 417.01 37.9141 416.799 38.2031C416.592 38.4922 416.336 38.7168 416.031 38.877C415.727 39.0371 415.377 39.1172 414.982 39.1172C414.58 39.1172 414.225 39.0508 413.916 38.918C413.607 38.7852 413.346 38.5918 413.131 38.3379C412.916 38.084 412.744 37.7793 412.615 37.4238C412.49 37.0684 412.404 36.668 412.357 36.2227V35.5664C412.404 35.0977 412.492 34.6777 412.621 34.3066C412.75 33.9355 412.92 33.6191 413.131 33.3574C413.346 33.0918 413.605 32.8906 413.91 32.7539C414.215 32.6133 414.566 32.543 414.965 32.543C415.363 32.543 415.717 32.6211 416.025 32.7773C416.334 32.9297 416.594 33.1484 416.805 33.4336C417.016 33.7188 417.174 34.0605 417.279 34.459C417.389 34.8535 417.443 35.293 417.443 35.7773ZM416.354 35.9004V35.7773C416.354 35.4609 416.32 35.1641 416.254 34.8867C416.188 34.6055 416.084 34.3594 415.943 34.1484C415.807 33.9336 415.631 33.7656 415.416 33.6445C415.201 33.5195 414.945 33.457 414.648 33.457C414.375 33.457 414.137 33.5039 413.934 33.5977C413.734 33.6914 413.564 33.8184 413.424 33.9785C413.283 34.1348 413.168 34.3145 413.078 34.5176C412.992 34.7168 412.928 34.9238 412.885 35.1387V36.6562C412.963 36.9297 413.072 37.1875 413.213 37.4297C413.354 37.668 413.541 37.8613 413.775 38.0098C414.01 38.1543 414.305 38.2266 414.66 38.2266C414.953 38.2266 415.205 38.166 415.416 38.0449C415.631 37.9199 415.807 37.75 415.943 37.5352C416.084 37.3203 416.188 37.0742 416.254 36.7969C416.32 36.5156 416.354 36.2168 416.354 35.9004ZM421.457 39.1172C421.016 39.1172 420.615 39.043 420.256 38.8945C419.9 38.7422 419.594 38.5293 419.336 38.2559C419.082 37.9824 418.887 37.6582 418.75 37.2832C418.613 36.9082 418.545 36.498 418.545 36.0527V35.8066C418.545 35.291 418.621 34.832 418.773 34.4297C418.926 34.0234 419.133 33.6797 419.395 33.3984C419.656 33.1172 419.953 32.9043 420.285 32.7598C420.617 32.6152 420.961 32.543 421.316 32.543C421.77 32.543 422.16 32.6211 422.488 32.7773C422.82 32.9336 423.092 33.1523 423.303 33.4336C423.514 33.7109 423.67 34.0391 423.771 34.418C423.873 34.793 423.924 35.2031 423.924 35.6484V36.1348H419.189V35.25H422.84V35.168C422.824 34.8867 422.766 34.6133 422.664 34.3477C422.566 34.082 422.41 33.8633 422.195 33.6914C421.98 33.5195 421.688 33.4336 421.316 33.4336C421.07 33.4336 420.844 33.4863 420.637 33.5918C420.43 33.6934 420.252 33.8457 420.104 34.0488C419.955 34.252 419.84 34.5 419.758 34.793C419.676 35.0859 419.635 35.4238 419.635 35.8066V36.0527C419.635 36.3535 419.676 36.6367 419.758 36.9023C419.844 37.1641 419.967 37.3945 420.127 37.5938C420.291 37.793 420.488 37.9492 420.719 38.0625C420.953 38.1758 421.219 38.2324 421.516 38.2324C421.898 38.2324 422.223 38.1543 422.488 37.998C422.754 37.8418 422.986 37.6328 423.186 37.3711L423.842 37.8926C423.705 38.0996 423.531 38.2969 423.32 38.4844C423.109 38.6719 422.85 38.8242 422.541 38.9414C422.236 39.0586 421.875 39.1172 421.457 39.1172ZM426.273 33.6562V39H425.189V32.6602H426.244L426.273 33.6562ZM428.254 32.625L428.248 33.6328C428.158 33.6133 428.072 33.6016 427.99 33.5977C427.912 33.5898 427.822 33.5859 427.721 33.5859C427.471 33.5859 427.25 33.625 427.059 33.7031C426.867 33.7812 426.705 33.8906 426.572 34.0312C426.439 34.1719 426.334 34.3398 426.256 34.5352C426.182 34.7266 426.133 34.9375 426.109 35.168L425.805 35.3438C425.805 34.9609 425.842 34.6016 425.916 34.2656C425.994 33.9297 426.113 33.6328 426.273 33.375C426.434 33.1133 426.637 32.9102 426.883 32.7656C427.133 32.6172 427.43 32.543 427.773 32.543C427.852 32.543 427.941 32.5527 428.043 32.5723C428.145 32.5879 428.215 32.6055 428.254 32.625ZM432.76 37.916V34.6523C432.76 34.4023 432.709 34.1855 432.607 34.002C432.51 33.8145 432.361 33.6699 432.162 33.5684C431.963 33.4668 431.717 33.416 431.424 33.416C431.15 33.416 430.91 33.4629 430.703 33.5566C430.5 33.6504 430.34 33.7734 430.223 33.9258C430.109 34.0781 430.053 34.2422 430.053 34.418H428.969C428.969 34.1914 429.027 33.9668 429.145 33.7441C429.262 33.5215 429.43 33.3203 429.648 33.1406C429.871 32.957 430.137 32.8125 430.445 32.707C430.758 32.5977 431.105 32.543 431.488 32.543C431.949 32.543 432.355 32.6211 432.707 32.7773C433.062 32.9336 433.34 33.1699 433.539 33.4863C433.742 33.7988 433.844 34.1914 433.844 34.6641V37.6172C433.844 37.8281 433.861 38.0527 433.896 38.291C433.936 38.5293 433.992 38.7344 434.066 38.9062V39H432.936C432.881 38.875 432.838 38.709 432.807 38.502C432.775 38.291 432.76 38.0957 432.76 37.916ZM432.947 35.1562L432.959 35.918H431.863C431.555 35.918 431.279 35.9434 431.037 35.9941C430.795 36.041 430.592 36.1133 430.428 36.2109C430.264 36.3086 430.139 36.4316 430.053 36.5801C429.967 36.7246 429.924 36.8945 429.924 37.0898C429.924 37.2891 429.969 37.4707 430.059 37.6348C430.148 37.7988 430.283 37.9297 430.463 38.0273C430.646 38.1211 430.871 38.168 431.137 38.168C431.469 38.168 431.762 38.0977 432.016 37.957C432.27 37.8164 432.471 37.6445 432.619 37.4414C432.771 37.2383 432.854 37.041 432.865 36.8496L433.328 37.3711C433.301 37.5352 433.227 37.7168 433.105 37.916C432.984 38.1152 432.822 38.3066 432.619 38.4902C432.42 38.6699 432.182 38.8203 431.904 38.9414C431.631 39.0586 431.322 39.1172 430.979 39.1172C430.549 39.1172 430.172 39.0332 429.848 38.8652C429.527 38.6973 429.277 38.4727 429.098 38.1914C428.922 37.9062 428.834 37.5879 428.834 37.2363C428.834 36.8965 428.9 36.5977 429.033 36.3398C429.166 36.0781 429.357 35.8613 429.607 35.6895C429.857 35.5137 430.158 35.3809 430.51 35.291C430.861 35.2012 431.254 35.1562 431.688 35.1562H432.947ZM438.203 32.6602V33.4922H434.775V32.6602H438.203ZM435.936 31.1191H437.02V37.4297C437.02 37.6445 437.053 37.8066 437.119 37.916C437.186 38.0254 437.271 38.0977 437.377 38.1328C437.482 38.168 437.596 38.1855 437.717 38.1855C437.807 38.1855 437.9 38.1777 437.998 38.1621C438.1 38.1426 438.176 38.127 438.227 38.1152L438.232 39C438.146 39.0273 438.033 39.0527 437.893 39.0762C437.756 39.1035 437.59 39.1172 437.395 39.1172C437.129 39.1172 436.885 39.0645 436.662 38.959C436.439 38.8535 436.262 38.6777 436.129 38.4316C436 38.1816 435.936 37.8457 435.936 37.4238V31.1191ZM440.652 32.6602V39H439.562V32.6602H440.652ZM439.48 30.9785C439.48 30.8027 439.533 30.6543 439.639 30.5332C439.748 30.4121 439.908 30.3516 440.119 30.3516C440.326 30.3516 440.484 30.4121 440.594 30.5332C440.707 30.6543 440.764 30.8027 440.764 30.9785C440.764 31.1465 440.707 31.291 440.594 31.4121C440.484 31.5293 440.326 31.5879 440.119 31.5879C439.908 31.5879 439.748 31.5293 439.639 31.4121C439.533 31.291 439.48 31.1465 439.48 30.9785ZM442.105 35.9004V35.7656C442.105 35.3086 442.172 34.8848 442.305 34.4941C442.438 34.0996 442.629 33.7578 442.879 33.4688C443.129 33.1758 443.432 32.9492 443.787 32.7891C444.143 32.625 444.541 32.543 444.982 32.543C445.428 32.543 445.828 32.625 446.184 32.7891C446.543 32.9492 446.848 33.1758 447.098 33.4688C447.352 33.7578 447.545 34.0996 447.678 34.4941C447.811 34.8848 447.877 35.3086 447.877 35.7656V35.9004C447.877 36.3574 447.811 36.7812 447.678 37.1719C447.545 37.5625 447.352 37.9043 447.098 38.1973C446.848 38.4863 446.545 38.7129 446.189 38.877C445.838 39.0371 445.439 39.1172 444.994 39.1172C444.549 39.1172 444.148 39.0371 443.793 38.877C443.438 38.7129 443.133 38.4863 442.879 38.1973C442.629 37.9043 442.438 37.5625 442.305 37.1719C442.172 36.7812 442.105 36.3574 442.105 35.9004ZM443.189 35.7656V35.9004C443.189 36.2168 443.227 36.5156 443.301 36.7969C443.375 37.0742 443.486 37.3203 443.635 37.5352C443.787 37.75 443.977 37.9199 444.203 38.0449C444.43 38.166 444.693 38.2266 444.994 38.2266C445.291 38.2266 445.551 38.166 445.773 38.0449C446 37.9199 446.188 37.75 446.336 37.5352C446.484 37.3203 446.596 37.0742 446.67 36.7969C446.748 36.5156 446.787 36.2168 446.787 35.9004V35.7656C446.787 35.4531 446.748 35.1582 446.67 34.8809C446.596 34.5996 446.482 34.3516 446.33 34.1367C446.182 33.918 445.994 33.7461 445.768 33.6211C445.545 33.4961 445.283 33.4336 444.982 33.4336C444.686 33.4336 444.424 33.4961 444.197 33.6211C443.975 33.7461 443.787 33.918 443.635 34.1367C443.486 34.3516 443.375 34.5996 443.301 34.8809C443.227 35.1582 443.189 35.4531 443.189 35.7656ZM450.32 34.0137V39H449.236V32.6602H450.262L450.32 34.0137ZM450.062 35.5898L449.611 35.5723C449.615 35.1387 449.68 34.7383 449.805 34.3711C449.93 34 450.105 33.6777 450.332 33.4043C450.559 33.1309 450.828 32.9199 451.141 32.7715C451.457 32.6191 451.807 32.543 452.189 32.543C452.502 32.543 452.783 32.5859 453.033 32.6719C453.283 32.7539 453.496 32.8867 453.672 33.0703C453.852 33.2539 453.988 33.4922 454.082 33.7852C454.176 34.0742 454.223 34.4277 454.223 34.8457V39H453.133V34.834C453.133 34.502 453.084 34.2363 452.986 34.0371C452.889 33.834 452.746 33.6875 452.559 33.5977C452.371 33.5039 452.141 33.457 451.867 33.457C451.598 33.457 451.352 33.5137 451.129 33.627C450.91 33.7402 450.721 33.8965 450.561 34.0957C450.404 34.2949 450.281 34.5234 450.191 34.7812C450.105 35.0352 450.062 35.3047 450.062 35.5898ZM459.607 37.916V34.6523C459.607 34.4023 459.557 34.1855 459.455 34.002C459.357 33.8145 459.209 33.6699 459.01 33.5684C458.811 33.4668 458.564 33.416 458.271 33.416C457.998 33.416 457.758 33.4629 457.551 33.5566C457.348 33.6504 457.188 33.7734 457.07 33.9258C456.957 34.0781 456.9 34.2422 456.9 34.418H455.816C455.816 34.1914 455.875 33.9668 455.992 33.7441C456.109 33.5215 456.277 33.3203 456.496 33.1406C456.719 32.957 456.984 32.8125 457.293 32.707C457.605 32.5977 457.953 32.543 458.336 32.543C458.797 32.543 459.203 32.6211 459.555 32.7773C459.91 32.9336 460.188 33.1699 460.387 33.4863C460.59 33.7988 460.691 34.1914 460.691 34.6641V37.6172C460.691 37.8281 460.709 38.0527 460.744 38.291C460.783 38.5293 460.84 38.7344 460.914 38.9062V39H459.783C459.729 38.875 459.686 38.709 459.654 38.502C459.623 38.291 459.607 38.0957 459.607 37.916ZM459.795 35.1562L459.807 35.918H458.711C458.402 35.918 458.127 35.9434 457.885 35.9941C457.643 36.041 457.439 36.1133 457.275 36.2109C457.111 36.3086 456.986 36.4316 456.9 36.5801C456.814 36.7246 456.771 36.8945 456.771 37.0898C456.771 37.2891 456.816 37.4707 456.906 37.6348C456.996 37.7988 457.131 37.9297 457.311 38.0273C457.494 38.1211 457.719 38.168 457.984 38.168C458.316 38.168 458.609 38.0977 458.863 37.957C459.117 37.8164 459.318 37.6445 459.467 37.4414C459.619 37.2383 459.701 37.041 459.713 36.8496L460.176 37.3711C460.148 37.5352 460.074 37.7168 459.953 37.916C459.832 38.1152 459.67 38.3066 459.467 38.4902C459.268 38.6699 459.029 38.8203 458.752 38.9414C458.479 39.0586 458.17 39.1172 457.826 39.1172C457.396 39.1172 457.02 39.0332 456.695 38.8652C456.375 38.6973 456.125 38.4727 455.945 38.1914C455.77 37.9062 455.682 37.5879 455.682 37.2363C455.682 36.8965 455.748 36.5977 455.881 36.3398C456.014 36.0781 456.205 35.8613 456.455 35.6895C456.705 35.5137 457.006 35.3809 457.357 35.291C457.709 35.2012 458.102 35.1562 458.535 35.1562H459.795ZM463.574 30V39H462.484V30H463.574Z" fill="#A3E635"/>
<path d="M505.99 30.4688H508.814C509.455 30.4688 509.996 30.5664 510.438 30.7617C510.883 30.957 511.221 31.2461 511.451 31.6289C511.686 32.0078 511.803 32.4746 511.803 33.0293C511.803 33.4199 511.723 33.7773 511.562 34.1016C511.406 34.4219 511.18 34.6953 510.883 34.9219C510.59 35.1445 510.238 35.3105 509.828 35.4199L509.512 35.543H506.857L506.846 34.623H508.85C509.256 34.623 509.594 34.5527 509.863 34.4121C510.133 34.2676 510.336 34.0742 510.473 33.832C510.609 33.5898 510.678 33.3223 510.678 33.0293C510.678 32.7012 510.613 32.4141 510.484 32.168C510.355 31.9219 510.152 31.7324 509.875 31.5996C509.602 31.4629 509.248 31.3945 508.814 31.3945H507.121V39H505.99V30.4688ZM510.977 39L508.902 35.1328L510.08 35.127L512.184 38.9297V39H510.977ZM519.405 38.0801V39H514.887V38.0801H519.405ZM515.116 30.4688V39H513.985V30.4688H515.116ZM518.807 34.1367V35.0566H514.887V34.1367H518.807ZM519.346 30.4688V31.3945H514.887V30.4688H519.346ZM526.579 38.0801V39H522.313V38.0801H526.579ZM522.536 30.4688V39H521.405V30.4688H522.536ZM529.687 30.4688V39H528.556V30.4688H529.687ZM535.607 31.2246L532.783 39H531.629L534.88 30.4688H535.625L535.607 31.2246ZM537.974 39L535.144 31.2246L535.127 30.4688H535.871L539.134 39H537.974ZM537.828 35.8418V36.7676H533.035V35.8418H537.828ZM543.918 35.0098H541.756L541.744 34.1016H543.707C544.031 34.1016 544.314 34.0469 544.557 33.9375C544.799 33.8281 544.986 33.6719 545.119 33.4688C545.256 33.2617 545.324 33.0156 545.324 32.7305C545.324 32.418 545.264 32.1641 545.143 31.9688C545.025 31.7695 544.844 31.625 544.598 31.5352C544.355 31.4414 544.047 31.3945 543.672 31.3945H542.008V39H540.877V30.4688H543.672C544.109 30.4688 544.5 30.5137 544.844 30.6035C545.188 30.6895 545.479 30.8262 545.717 31.0137C545.959 31.1973 546.143 31.4316 546.268 31.7168C546.393 32.002 546.455 32.3438 546.455 32.7422C546.455 33.0938 546.365 33.4121 546.186 33.6973C546.006 33.9785 545.756 34.209 545.436 34.3887C545.119 34.5684 544.748 34.6836 544.322 34.7344L543.918 35.0098ZM543.865 39H541.311L541.949 38.0801H543.865C544.225 38.0801 544.529 38.0176 544.779 37.8926C545.033 37.7676 545.227 37.5918 545.359 37.3652C545.492 37.1348 545.559 36.8633 545.559 36.5508C545.559 36.2344 545.502 35.9609 545.389 35.7305C545.275 35.5 545.098 35.3223 544.855 35.1973C544.613 35.0723 544.301 35.0098 543.918 35.0098H542.307L542.318 34.1016H544.521L544.762 34.4297C545.172 34.4648 545.52 34.582 545.805 34.7812C546.09 34.9766 546.307 35.2266 546.455 35.5312C546.607 35.8359 546.684 36.1719 546.684 36.5391C546.684 37.0703 546.566 37.5195 546.332 37.8867C546.102 38.25 545.775 38.5273 545.354 38.7188C544.932 38.9062 544.436 39 543.865 39ZM550.166 30.4688V39H549.036V30.4688H550.166ZM557.997 38.0801V39H553.731V38.0801H557.997ZM553.954 30.4688V39H552.823V30.4688H553.954ZM561.105 30.4688V39H559.974V30.4688H561.105ZM566.738 30.4688V39H565.625V30.4688H566.738ZM569.48 30.4688V31.3945H562.888V30.4688H569.48ZM571.832 30.4688L574.047 34.752L576.268 30.4688H577.551L574.609 35.8125V39H573.479V35.8125L570.537 30.4688H571.832Z" fill="#475569"/>
<path d="M599.132 37.5371C599.132 38.3164 598.95 38.9785 598.587 39.5234C598.229 40.0625 597.743 40.4727 597.128 40.7539C596.519 41.0352 595.83 41.1758 595.062 41.1758C594.295 41.1758 593.604 41.0352 592.988 40.7539C592.373 40.4727 591.887 40.0625 591.529 39.5234C591.172 38.9785 590.993 38.3164 590.993 37.5371C590.993 37.0273 591.09 36.5615 591.283 36.1396C591.482 35.7119 591.761 35.3398 592.118 35.0234C592.481 34.707 592.909 34.4639 593.401 34.2939C593.899 34.1182 594.447 34.0303 595.045 34.0303C595.83 34.0303 596.53 34.1826 597.146 34.4873C597.761 34.7861 598.244 35.1992 598.596 35.7266C598.953 36.2539 599.132 36.8574 599.132 37.5371ZM597.497 37.502C597.497 37.0273 597.395 36.6084 597.189 36.2451C596.984 35.876 596.697 35.5889 596.328 35.3838C595.959 35.1787 595.531 35.0762 595.045 35.0762C594.547 35.0762 594.116 35.1787 593.753 35.3838C593.396 35.5889 593.117 35.876 592.918 36.2451C592.719 36.6084 592.619 37.0273 592.619 37.502C592.619 37.9941 592.716 38.416 592.909 38.7676C593.108 39.1133 593.39 39.3799 593.753 39.5674C594.122 39.749 594.559 39.8398 595.062 39.8398C595.566 39.8398 596 39.749 596.363 39.5674C596.727 39.3799 597.005 39.1133 597.198 38.7676C597.397 38.416 597.497 37.9941 597.497 37.502ZM598.833 31.5342C598.833 32.1553 598.669 32.7148 598.341 33.2129C598.013 33.7109 597.564 34.1035 596.996 34.3906C596.428 34.6777 595.783 34.8213 595.062 34.8213C594.33 34.8213 593.677 34.6777 593.103 34.3906C592.534 34.1035 592.089 33.7109 591.767 33.2129C591.444 32.7148 591.283 32.1553 591.283 31.5342C591.283 30.79 591.444 30.1572 591.767 29.6357C592.095 29.1143 592.543 28.7158 593.111 28.4404C593.68 28.165 594.327 28.0273 595.054 28.0273C595.786 28.0273 596.437 28.165 597.005 28.4404C597.573 28.7158 598.019 29.1143 598.341 29.6357C598.669 30.1572 598.833 30.79 598.833 31.5342ZM597.207 31.5605C597.207 31.1328 597.116 30.7549 596.935 30.4268C596.753 30.0986 596.501 29.8408 596.179 29.6533C595.856 29.46 595.481 29.3633 595.054 29.3633C594.626 29.3633 594.251 29.4541 593.929 29.6357C593.612 29.8115 593.363 30.0635 593.182 30.3916C593.006 30.7197 592.918 31.1094 592.918 31.5605C592.918 32 593.006 32.3838 593.182 32.7119C593.363 33.04 593.615 33.2949 593.938 33.4766C594.26 33.6582 594.635 33.749 595.062 33.749C595.49 33.749 595.862 33.6582 596.179 33.4766C596.501 33.2949 596.753 33.04 596.935 32.7119C597.116 32.3838 597.207 32 597.207 31.5605ZM609.573 39.6641V41H601.197V39.8311L605.39 35.1641C605.905 34.5898 606.304 34.1035 606.585 33.7051C606.872 33.3008 607.071 32.9404 607.183 32.624C607.3 32.3018 607.358 31.9736 607.358 31.6396C607.358 31.2178 607.271 30.8369 607.095 30.4971C606.925 30.1514 606.673 29.876 606.339 29.6709C606.005 29.4658 605.601 29.3633 605.126 29.3633C604.558 29.3633 604.083 29.4746 603.702 29.6973C603.327 29.9141 603.046 30.2188 602.858 30.6113C602.671 31.0039 602.577 31.4551 602.577 31.9648H600.951C600.951 31.2441 601.109 30.585 601.426 29.9873C601.742 29.3896 602.211 28.915 602.832 28.5635C603.453 28.2061 604.218 28.0273 605.126 28.0273C605.935 28.0273 606.626 28.1709 607.2 28.458C607.774 28.7393 608.214 29.1377 608.519 29.6533C608.829 30.1631 608.984 30.7607 608.984 31.4463C608.984 31.8213 608.92 32.2021 608.791 32.5889C608.668 32.9697 608.495 33.3506 608.272 33.7314C608.056 34.1123 607.801 34.4873 607.508 34.8564C607.221 35.2256 606.913 35.5889 606.585 35.9463L603.157 39.6641H609.573ZM611.173 31.3408V30.6641C611.173 30.1777 611.278 29.7354 611.489 29.3369C611.7 28.9385 612.002 28.6191 612.395 28.3789C612.787 28.1387 613.253 28.0186 613.792 28.0186C614.343 28.0186 614.812 28.1387 615.198 28.3789C615.591 28.6191 615.893 28.9385 616.104 29.3369C616.314 29.7354 616.42 30.1777 616.42 30.6641V31.3408C616.42 31.8154 616.314 32.252 616.104 32.6504C615.898 33.0488 615.6 33.3682 615.207 33.6084C614.82 33.8486 614.354 33.9688 613.81 33.9688C613.265 33.9688 612.793 33.8486 612.395 33.6084C612.002 33.3682 611.7 33.0488 611.489 32.6504C611.278 32.252 611.173 31.8154 611.173 31.3408ZM612.395 30.6641V31.3408C612.395 31.6104 612.444 31.8652 612.544 32.1055C612.649 32.3457 612.808 32.542 613.019 32.6943C613.229 32.8408 613.493 32.9141 613.81 32.9141C614.126 32.9141 614.387 32.8408 614.592 32.6943C614.797 32.542 614.949 32.3457 615.049 32.1055C615.148 31.8652 615.198 31.6104 615.198 31.3408V30.6641C615.198 30.3887 615.146 30.1309 615.04 29.8906C614.94 29.6445 614.785 29.4482 614.574 29.3018C614.369 29.1494 614.108 29.0732 613.792 29.0732C613.481 29.0732 613.221 29.1494 613.01 29.3018C612.805 29.4482 612.649 29.6445 612.544 29.8906C612.444 30.1309 612.395 30.3887 612.395 30.6641ZM617.404 38.5479V37.8623C617.404 37.3818 617.51 36.9424 617.721 36.5439C617.932 36.1455 618.233 35.8262 618.626 35.5859C619.019 35.3457 619.484 35.2256 620.023 35.2256C620.574 35.2256 621.043 35.3457 621.43 35.5859C621.822 35.8262 622.124 36.1455 622.335 36.5439C622.546 36.9424 622.651 37.3818 622.651 37.8623V38.5479C622.651 39.0283 622.546 39.4678 622.335 39.8662C622.13 40.2646 621.831 40.584 621.438 40.8242C621.052 41.0645 620.586 41.1846 620.041 41.1846C619.496 41.1846 619.027 41.0645 618.635 40.8242C618.242 40.584 617.938 40.2646 617.721 39.8662C617.51 39.4678 617.404 39.0283 617.404 38.5479ZM618.626 37.8623V38.5479C618.626 38.8174 618.676 39.0752 618.775 39.3213C618.881 39.5615 619.039 39.7578 619.25 39.9102C619.461 40.0566 619.725 40.1299 620.041 40.1299C620.357 40.1299 620.618 40.0566 620.823 39.9102C621.034 39.7578 621.189 39.5615 621.289 39.3213C621.389 39.0811 621.438 38.8232 621.438 38.5479V37.8623C621.438 37.5869 621.386 37.3291 621.28 37.0889C621.181 36.8486 621.025 36.6553 620.814 36.5088C620.609 36.3564 620.346 36.2803 620.023 36.2803C619.713 36.2803 619.452 36.3564 619.241 36.5088C619.036 36.6553 618.881 36.8486 618.775 37.0889C618.676 37.3291 618.626 37.5869 618.626 37.8623ZM620.428 30.0225L614.179 40.0244L613.265 39.4443L619.514 29.4424L620.428 30.0225Z" fill="#E2E8F0"/>
<path d="M638.171 35.3922L634.282 30.9097C634.247 30.8692 634.203 30.8366 634.155 30.8143C634.106 30.7921 634.053 30.7805 633.999 30.7805C633.945 30.7805 633.892 30.7921 633.843 30.8143C633.795 30.8366 633.751 30.8692 633.716 30.9097L629.828 35.3922C629.816 35.4057 629.808 35.4223 629.806 35.44C629.803 35.4577 629.806 35.4758 629.813 35.4921C629.821 35.5084 629.832 35.5222 629.848 35.5319C629.863 35.5416 629.88 35.5468 629.898 35.5468H630.847C630.901 35.5468 630.953 35.5234 630.989 35.4824L633.554 32.5257V39.1246C633.554 39.1761 633.596 39.2183 633.648 39.2183H634.351C634.403 39.2183 634.445 39.1761 634.445 39.1246V32.5257L637.01 35.4824C637.045 35.5234 637.097 35.5468 637.152 35.5468H638.101C638.181 35.5468 638.224 35.4531 638.171 35.3922Z" fill="#BEF264"/>
<g clip-path="url(#clip0_3990_67482)">
<g clip-path="url(#clip1_3990_67482)">
<rect x="20" y="74" width="6" height="38" fill="#A3E635"/>
<rect x="29" y="74" width="6" height="38" fill="#A3E635"/>
<rect x="38" y="74" width="6" height="38" fill="#A3E635"/>
<rect x="47" y="74" width="6" height="38" fill="#A3E635"/>
<rect x="56" y="74" width="6" height="38" fill="#A3E635"/>
<rect x="65" y="74" width="6" height="38" fill="#A3E635"/>
<rect x="74" y="74" width="6" height="38" fill="#A3E635"/>
<rect x="83" y="74" width="6" height="38" fill="#A3E635"/>
<rect x="92" y="74" width="6" height="38" fill="#A3E635"/>
<rect x="101" y="74" width="6" height="38" fill="#A3E635"/>
<rect x="110" y="74" width="6" height="38" fill="#A3E635"/>
<rect x="119" y="74" width="6" height="38" fill="#A3E635"/>
<rect x="128" y="74" width="6" height="38" fill="#A3E635"/>
<rect x="137" y="74" width="6" height="38" fill="#A3E635"/>
<rect x="146" y="74" width="6" height="38" fill="#A3E635"/>
<rect x="155" y="74" width="6" height="38" fill="#A3E635"/>
<rect x="164" y="74" width="6" height="38" fill="#A3E635"/>
<rect x="173" y="74" width="6" height="38" fill="#A3E635"/>
<rect x="182" y="74" width="6" height="38" fill="#A3E635"/>
<rect x="191" y="74" width="6" height="38" fill="#A3E635"/>
<rect x="200" y="74" width="6" height="38" fill="#A3E635"/>
<rect x="209" y="74" width="6" height="38" fill="#A3E635"/>
<rect x="218" y="74" width="6" height="38" fill="#A3E635"/>
<rect x="227" y="74" width="6" height="38" fill="#A3E635"/>
<rect x="236" y="74" width="6" height="38" fill="#A3E635"/>
<rect x="245" y="74" width="6" height="38" fill="#A3E635"/>
<rect x="254" y="74" width="6" height="38" fill="#A3E635"/>
<rect x="263" y="74" width="6" height="38" fill="#A3E635"/>
<rect x="272" y="74" width="6" height="38" fill="#A3E635"/>
<rect x="281" y="74" width="6" height="38" fill="#A3E635"/>
<rect x="290" y="74" width="6" height="38" fill="#A3E635"/>
<rect x="299" y="74" width="6" height="38" fill="#A3E635"/>
<rect x="308" y="74" width="6" height="38" fill="#A3E635"/>
<rect x="317" y="74" width="6" height="38" fill="#A3E635"/>
<rect x="326" y="74" width="6" height="38" fill="#A3E635"/>
<rect x="335" y="74" width="6" height="38" fill="#A3E635"/>
<rect x="344" y="74" width="6" height="38" fill="#A3E635"/>
<rect x="353" y="74" width="6" height="38" fill="#A3E635"/>
<rect x="362" y="74" width="6" height="38" fill="#A3E635"/>
<rect x="371" y="74" width="6" height="38" fill="#A3E635"/>
<rect x="380" y="74" width="6" height="38" fill="#A3E635"/>
<rect x="389" y="74" width="6" height="38" fill="#A3E635"/>
<rect x="398" y="74" width="6" height="38" fill="#A3E635"/>
<rect x="407" y="74" width="6" height="38" fill="#A3E635"/>
<rect x="416" y="74" width="6" height="38" fill="#DB2777"/>
<rect x="425" y="74" width="6" height="38" fill="#A3E635"/>
<rect x="434" y="74" width="6" height="38" fill="#A3E635"/>
<rect x="443" y="74" width="6" height="38" fill="#A3E635"/>
<rect x="452" y="74" width="6" height="38" fill="#A3E635"/>
<rect x="461" y="74" width="6" height="38" fill="#A3E635"/>
<rect x="470" y="74" width="6" height="38" fill="#A3E635"/>
<rect x="479" y="74" width="6" height="38" fill="#A3E635"/>
<rect x="488" y="74" width="6" height="38" fill="#A3E635"/>
<rect x="497" y="74" width="6" height="38" fill="#A3E635"/>
<rect x="506" y="74" width="6" height="38" fill="#A3E635"/>
<rect x="515" y="74" width="6" height="38" fill="#A3E635"/>
<rect x="524" y="74" width="6" height="38" fill="#A3E635"/>
<rect x="533" y="74" width="6" height="38" fill="#A3E635"/>
<rect x="542" y="74" width="6" height="38" fill="#A3E635"/>
<rect x="551" y="74" width="6" height="38" fill="#A3E635"/>
<rect x="560" y="74" width="6" height="38" fill="#A3E635"/>
<rect x="569" y="74" width="6" height="38" fill="#A3E635"/>
<rect x="578" y="74" width="6" height="38" fill="#FB923C"/>
<rect x="587" y="74" width="6" height="38" fill="#FB923C"/>
<rect x="596" y="74" width="6" height="38" fill="#FB923C"/>
<rect x="605" y="74" width="6" height="38" fill="#FB923C"/>
<rect x="614" y="74" width="6" height="38" fill="#A3E635"/>
<rect x="623" y="74" width="6" height="38" fill="#A3E635"/>
</g>
<path d="M26.2988 130.109V131H20.7148V130.221L23.5098 127.109C23.8535 126.727 24.1191 126.402 24.3066 126.137C24.498 125.867 24.6309 125.627 24.7051 125.416C24.7832 125.201 24.8223 124.982 24.8223 124.76C24.8223 124.479 24.7637 124.225 24.6465 123.998C24.5332 123.768 24.3652 123.584 24.1426 123.447C23.9199 123.311 23.6504 123.242 23.334 123.242C22.9551 123.242 22.6387 123.316 22.3848 123.465C22.1348 123.609 21.9473 123.812 21.8223 124.074C21.6973 124.336 21.6348 124.637 21.6348 124.977H20.5508C20.5508 124.496 20.6562 124.057 20.8672 123.658C21.0781 123.26 21.3906 122.943 21.8047 122.709C22.2188 122.471 22.7285 122.352 23.334 122.352C23.873 122.352 24.334 122.447 24.7168 122.639C25.0996 122.826 25.3926 123.092 25.5957 123.436C25.8027 123.775 25.9062 124.174 25.9062 124.631C25.9062 124.881 25.8633 125.135 25.7773 125.393C25.6953 125.646 25.5801 125.9 25.4316 126.154C25.2871 126.408 25.1172 126.658 24.9219 126.904C24.7305 127.15 24.5254 127.393 24.3066 127.631L22.0215 130.109H26.2988ZM31.6215 122.422V131H30.5375V123.775L28.352 124.572V123.594L31.4516 122.422H31.6215ZM35.5437 130.426C35.5437 130.242 35.6004 130.088 35.7137 129.963C35.8309 129.834 35.9988 129.77 36.2176 129.77C36.4363 129.77 36.6023 129.834 36.7156 129.963C36.8328 130.088 36.8914 130.242 36.8914 130.426C36.8914 130.605 36.8328 130.758 36.7156 130.883C36.6023 131.008 36.4363 131.07 36.2176 131.07C35.9988 131.07 35.8309 131.008 35.7137 130.883C35.6004 130.758 35.5437 130.605 35.5437 130.426ZM44.5285 126.055V127.355C44.5285 128.055 44.466 128.645 44.341 129.125C44.216 129.605 44.0363 129.992 43.802 130.285C43.5676 130.578 43.2844 130.791 42.9523 130.924C42.6242 131.053 42.2531 131.117 41.8391 131.117C41.5109 131.117 41.2082 131.076 40.9309 130.994C40.6535 130.912 40.4035 130.781 40.1809 130.602C39.9621 130.418 39.7746 130.18 39.6184 129.887C39.4621 129.594 39.343 129.238 39.2609 128.82C39.1789 128.402 39.1379 127.914 39.1379 127.355V126.055C39.1379 125.355 39.2004 124.77 39.3254 124.297C39.4543 123.824 39.6359 123.445 39.8703 123.16C40.1047 122.871 40.3859 122.664 40.7141 122.539C41.0461 122.414 41.4172 122.352 41.8273 122.352C42.1594 122.352 42.4641 122.393 42.7414 122.475C43.0227 122.553 43.2727 122.68 43.4914 122.855C43.7102 123.027 43.8957 123.258 44.048 123.547C44.2043 123.832 44.3234 124.182 44.4055 124.596C44.4875 125.01 44.5285 125.496 44.5285 126.055ZM43.4387 127.531V125.873C43.4387 125.49 43.4152 125.154 43.3684 124.865C43.3254 124.572 43.2609 124.322 43.175 124.115C43.0891 123.908 42.9797 123.74 42.8469 123.611C42.718 123.482 42.5676 123.389 42.3957 123.33C42.2277 123.268 42.0383 123.236 41.8273 123.236C41.5695 123.236 41.341 123.285 41.1418 123.383C40.9426 123.477 40.7746 123.627 40.6379 123.834C40.5051 124.041 40.4035 124.312 40.3332 124.648C40.2629 124.984 40.2277 125.393 40.2277 125.873V127.531C40.2277 127.914 40.2492 128.252 40.2922 128.545C40.3391 128.838 40.4074 129.092 40.4973 129.307C40.5871 129.518 40.6965 129.691 40.8254 129.828C40.9543 129.965 41.1027 130.066 41.2707 130.133C41.4426 130.195 41.632 130.227 41.8391 130.227C42.1047 130.227 42.3371 130.176 42.5363 130.074C42.7355 129.973 42.9016 129.814 43.0344 129.6C43.1711 129.381 43.2727 129.102 43.3391 128.762C43.4055 128.418 43.4387 128.008 43.4387 127.531ZM50.0855 122.422V131H49.0016V123.775L46.816 124.572V123.594L49.9156 122.422H50.0855ZM54.0078 130.426C54.0078 130.242 54.0645 130.088 54.1777 129.963C54.2949 129.834 54.4629 129.77 54.6816 129.77C54.9004 129.77 55.0664 129.834 55.1797 129.963C55.2969 130.088 55.3555 130.242 55.3555 130.426C55.3555 130.605 55.2969 130.758 55.1797 130.883C55.0664 131.008 54.9004 131.07 54.6816 131.07C54.4629 131.07 54.2949 131.008 54.1777 130.883C54.0645 130.758 54.0078 130.605 54.0078 130.426ZM63.227 130.109V131H57.643V130.221L60.4379 127.109C60.7816 126.727 61.0473 126.402 61.2348 126.137C61.4262 125.867 61.559 125.627 61.6332 125.416C61.7113 125.201 61.7504 124.982 61.7504 124.76C61.7504 124.479 61.6918 124.225 61.5746 123.998C61.4613 123.768 61.2934 123.584 61.0707 123.447C60.848 123.311 60.5785 123.242 60.2621 123.242C59.8832 123.242 59.5668 123.316 59.3129 123.465C59.0629 123.609 58.8754 123.812 58.7504 124.074C58.6254 124.336 58.5629 124.637 58.5629 124.977H57.4789C57.4789 124.496 57.5844 124.057 57.7953 123.658C58.0062 123.26 58.3187 122.943 58.7328 122.709C59.1469 122.471 59.6566 122.352 60.2621 122.352C60.8012 122.352 61.2621 122.447 61.6449 122.639C62.0277 122.826 62.3207 123.092 62.5238 123.436C62.7309 123.775 62.8344 124.174 62.8344 124.631C62.8344 124.881 62.7914 125.135 62.7055 125.393C62.6234 125.646 62.5082 125.9 62.3598 126.154C62.2152 126.408 62.0453 126.658 61.85 126.904C61.6586 127.15 61.4535 127.393 61.2348 127.631L58.9496 130.109H63.227ZM70.3426 126.055V127.355C70.3426 128.055 70.2801 128.645 70.1551 129.125C70.0301 129.605 69.8504 129.992 69.616 130.285C69.3816 130.578 69.0984 130.791 68.7664 130.924C68.4383 131.053 68.0672 131.117 67.6531 131.117C67.325 131.117 67.0223 131.076 66.7449 130.994C66.4676 130.912 66.2176 130.781 65.9949 130.602C65.7762 130.418 65.5887 130.18 65.4324 129.887C65.2762 129.594 65.157 129.238 65.075 128.82C64.993 128.402 64.952 127.914 64.952 127.355V126.055C64.952 125.355 65.0145 124.77 65.1395 124.297C65.2684 123.824 65.45 123.445 65.6844 123.16C65.9188 122.871 66.2 122.664 66.5281 122.539C66.8602 122.414 67.2313 122.352 67.6414 122.352C67.9734 122.352 68.2781 122.393 68.5555 122.475C68.8367 122.553 69.0867 122.68 69.3055 122.855C69.5242 123.027 69.7098 123.258 69.8621 123.547C70.0184 123.832 70.1375 124.182 70.2195 124.596C70.3016 125.01 70.3426 125.496 70.3426 126.055ZM69.2527 127.531V125.873C69.2527 125.49 69.2293 125.154 69.1824 124.865C69.1395 124.572 69.075 124.322 68.9891 124.115C68.9031 123.908 68.7938 123.74 68.6609 123.611C68.532 123.482 68.3816 123.389 68.2098 123.33C68.0418 123.268 67.8523 123.236 67.6414 123.236C67.3836 123.236 67.1551 123.285 66.9559 123.383C66.7566 123.477 66.5887 123.627 66.452 123.834C66.3191 124.041 66.2176 124.312 66.1473 124.648C66.077 124.984 66.0418 125.393 66.0418 125.873V127.531C66.0418 127.914 66.0633 128.252 66.1063 128.545C66.1531 128.838 66.2215 129.092 66.3113 129.307C66.4012 129.518 66.5105 129.691 66.6395 129.828C66.7684 129.965 66.9168 130.066 67.0848 130.133C67.2566 130.195 67.4461 130.227 67.6531 130.227C67.9188 130.227 68.1512 130.176 68.3504 130.074C68.5496 129.973 68.7156 129.814 68.8484 129.6C68.9852 129.381 69.0867 129.102 69.1531 128.762C69.2195 128.418 69.2527 128.008 69.2527 127.531ZM77.927 130.109V131H72.343V130.221L75.1379 127.109C75.4816 126.727 75.7473 126.402 75.9348 126.137C76.1262 125.867 76.259 125.627 76.3332 125.416C76.4113 125.201 76.4504 124.982 76.4504 124.76C76.4504 124.479 76.3918 124.225 76.2746 123.998C76.1613 123.768 75.9934 123.584 75.7707 123.447C75.548 123.311 75.2785 123.242 74.9621 123.242C74.5832 123.242 74.2668 123.316 74.0129 123.465C73.7629 123.609 73.5754 123.812 73.4504 124.074C73.3254 124.336 73.2629 124.637 73.2629 124.977H72.1789C72.1789 124.496 72.2844 124.057 72.4953 123.658C72.7062 123.26 73.0187 122.943 73.4328 122.709C73.8469 122.471 74.3566 122.352 74.9621 122.352C75.5012 122.352 75.9621 122.447 76.3449 122.639C76.7277 122.826 77.0207 123.092 77.2238 123.436C77.4309 123.775 77.5344 124.174 77.5344 124.631C77.5344 124.881 77.4914 125.135 77.4055 125.393C77.3234 125.646 77.2082 125.9 77.0598 126.154C76.9152 126.408 76.7453 126.658 76.55 126.904C76.3586 127.15 76.1535 127.393 75.9348 127.631L73.6496 130.109H77.927ZM81.2691 126.201H82.0426C82.4215 126.201 82.734 126.139 82.9801 126.014C83.2301 125.885 83.4156 125.711 83.5367 125.492C83.6617 125.27 83.7242 125.02 83.7242 124.742C83.7242 124.414 83.6695 124.139 83.5602 123.916C83.4508 123.693 83.2867 123.525 83.068 123.412C82.8492 123.299 82.5719 123.242 82.2359 123.242C81.9313 123.242 81.6617 123.303 81.4273 123.424C81.1969 123.541 81.0152 123.709 80.8824 123.928C80.7535 124.146 80.6891 124.404 80.6891 124.701H79.6051C79.6051 124.268 79.7145 123.873 79.9332 123.518C80.152 123.162 80.4586 122.879 80.8531 122.668C81.2516 122.457 81.7125 122.352 82.2359 122.352C82.7516 122.352 83.2027 122.443 83.5895 122.627C83.9762 122.807 84.277 123.076 84.4918 123.436C84.7066 123.791 84.8141 124.234 84.8141 124.766C84.8141 124.98 84.7633 125.211 84.6617 125.457C84.5641 125.699 84.4098 125.926 84.1988 126.137C83.9918 126.348 83.7223 126.521 83.3902 126.658C83.0582 126.791 82.6598 126.857 82.1949 126.857H81.2691V126.201ZM81.2691 127.092V126.441H82.1949C82.7379 126.441 83.1871 126.506 83.5426 126.635C83.898 126.764 84.1773 126.936 84.3805 127.15C84.5875 127.365 84.732 127.602 84.8141 127.859C84.9 128.113 84.943 128.367 84.943 128.621C84.943 129.02 84.8746 129.373 84.7379 129.682C84.6051 129.99 84.4156 130.252 84.1695 130.467C83.9273 130.682 83.6422 130.844 83.3141 130.953C82.9859 131.062 82.6285 131.117 82.2418 131.117C81.8707 131.117 81.5211 131.064 81.193 130.959C80.8688 130.854 80.5816 130.701 80.3316 130.502C80.0816 130.299 79.8863 130.051 79.7457 129.758C79.6051 129.461 79.5348 129.123 79.5348 128.744H80.6188C80.6188 129.041 80.6832 129.301 80.8121 129.523C80.9449 129.746 81.1324 129.92 81.3746 130.045C81.6207 130.166 81.9098 130.227 82.2418 130.227C82.5738 130.227 82.859 130.17 83.0973 130.057C83.3395 129.939 83.525 129.764 83.6539 129.529C83.7867 129.295 83.8531 129 83.8531 128.645C83.8531 128.289 83.7789 127.998 83.6305 127.771C83.482 127.541 83.2711 127.371 82.9977 127.262C82.7281 127.148 82.4098 127.092 82.0426 127.092H81.2691Z" fill="#475569"/>
<path d="M604.143 122.469V131H603.029V122.469H604.143ZM606.885 122.469V123.395H600.293V122.469H606.885ZM615.155 126.465V127.004C615.155 127.645 615.075 128.219 614.914 128.727C614.754 129.234 614.524 129.666 614.223 130.021C613.922 130.377 613.561 130.648 613.139 130.836C612.721 131.023 612.252 131.117 611.733 131.117C611.229 131.117 610.766 131.023 610.344 130.836C609.926 130.648 609.563 130.377 609.254 130.021C608.95 129.666 608.713 129.234 608.545 128.727C608.377 128.219 608.293 127.645 608.293 127.004V126.465C608.293 125.824 608.375 125.252 608.539 124.748C608.707 124.24 608.944 123.809 609.248 123.453C609.553 123.094 609.914 122.82 610.332 122.633C610.754 122.445 611.217 122.352 611.721 122.352C612.241 122.352 612.709 122.445 613.127 122.633C613.549 122.82 613.911 123.094 614.211 123.453C614.516 123.809 614.748 124.24 614.909 124.748C615.073 125.252 615.155 125.824 615.155 126.465ZM614.036 127.004V126.453C614.036 125.945 613.983 125.496 613.877 125.105C613.776 124.715 613.625 124.387 613.426 124.121C613.227 123.855 612.983 123.654 612.694 123.518C612.409 123.381 612.084 123.312 611.721 123.312C611.37 123.312 611.051 123.381 610.766 123.518C610.485 123.654 610.243 123.855 610.039 124.121C609.84 124.387 609.686 124.715 609.577 125.105C609.467 125.496 609.412 125.945 609.412 126.453V127.004C609.412 127.516 609.467 127.969 609.577 128.363C609.686 128.754 609.842 129.084 610.045 129.354C610.252 129.619 610.496 129.82 610.778 129.957C611.063 130.094 611.381 130.162 611.733 130.162C612.1 130.162 612.426 130.094 612.711 129.957C612.996 129.82 613.237 129.619 613.432 129.354C613.631 129.084 613.782 128.754 613.883 128.363C613.985 127.969 614.036 127.516 614.036 127.004ZM619.757 131H617.975L617.987 130.08H619.757C620.366 130.08 620.874 129.953 621.28 129.699C621.686 129.441 621.991 129.082 622.194 128.621C622.401 128.156 622.505 127.613 622.505 126.992V126.471C622.505 125.982 622.446 125.549 622.329 125.17C622.212 124.787 622.04 124.465 621.813 124.203C621.587 123.938 621.309 123.736 620.981 123.6C620.657 123.463 620.284 123.395 619.862 123.395H617.94V122.469H619.862C620.421 122.469 620.93 122.562 621.391 122.75C621.852 122.934 622.249 123.201 622.581 123.553C622.917 123.9 623.175 124.322 623.354 124.818C623.534 125.311 623.624 125.865 623.624 126.482V126.992C623.624 127.609 623.534 128.166 623.354 128.662C623.175 129.154 622.915 129.574 622.575 129.922C622.239 130.27 621.833 130.537 621.356 130.725C620.884 130.908 620.35 131 619.757 131ZM618.579 122.469V131H617.448V122.469H618.579ZM628.952 123.225L626.128 131H624.974L628.226 122.469H628.97L628.952 123.225ZM631.32 131L628.489 123.225L628.472 122.469H629.216L632.48 131H631.32ZM631.173 127.842V128.768H626.38V127.842H631.173ZM634.064 122.469L636.279 126.752L638.5 122.469H639.783L636.841 127.812V131H635.711V127.812L632.769 122.469H634.064Z" fill="#475569"/>
</g>
<defs>
<clipPath id="clip0_3990_67482">
<rect width="620" height="77" fill="white" transform="translate(20 62)"/>
</clipPath>
<clipPath id="clip1_3990_67482">
<rect width="609" height="38" fill="white" transform="translate(20 74)"/>
</clipPath>
</defs>
</svg>
