<svg width="24" height="25" viewBox="0 0 24 25" fill="none" xmlns="http://www.w3.org/2000/svg">
<path d="M15.7773 10.0201C15.7773 9.77861 15.6817 9.55113 15.5094 9.38129C15.1538 9.02916 14.5772 9.03072 14.2231 9.38441L11.3326 12.2731L9.76126 10.7197C9.58893 10.5499 9.36176 10.4564 9.12049 10.4564C9.11893 10.4564 9.11893 10.4564 9.11736 10.4564C8.87453 10.4564 8.64579 10.5514 8.47502 10.7228C8.12096 11.0765 8.12252 11.6515 8.47816 12.002L11.3373 14.8315L15.511 10.6605C15.6833 10.4891 15.7773 10.2616 15.7773 10.0201Z" fill="white"/>
<path d="M6.83162 7.56566C6.62952 7.36467 6.30208 7.36467 6.10155 7.56566L2 11.6448L3.0951 12.7339C3.19224 12.8305 3.32227 12.885 3.46014 12.885C3.59801 12.885 3.72804 12.8321 3.82517 12.7339C4.02571 12.5345 4.02571 12.2073 3.82517 12.0078L3.46014 11.6448L3.48991 11.6136L6.83005 8.29174C7.03372 8.0923 7.03372 7.76666 6.83162 7.56566Z" fill="white"/>
<path d="M19.8616 12.1289C19.9994 12.1289 20.1295 12.076 20.2266 11.9778L22.0001 10.214L14.7464 3L11.3216 6.40602L9.27242 4.36802L7.55065 6.08038C7.45352 6.17698 7.39868 6.3063 7.39868 6.44341C7.39868 6.58053 7.45195 6.70985 7.55065 6.80645C7.75118 7.00745 8.08018 7.00745 8.28072 6.80645L9.27242 5.82017L11.3216 7.85818L14.7464 4.45215L14.7777 4.48176L20.5399 10.2125L19.4965 11.2502C19.2944 11.4496 19.2944 11.7768 19.4965 11.9762C19.5952 12.0744 19.7237 12.1289 19.8616 12.1289Z" fill="white"/>
<path d="M4.63844 14.0784L11.3313 20.7346L12.9716 19.1033C13.1737 18.9023 13.1737 18.5767 12.9716 18.3772C12.8744 18.2806 12.7444 18.2261 12.6065 18.2261C12.4687 18.2261 12.3386 18.2791 12.2415 18.3772L11.3313 19.2825L11.2999 19.2529L5.36851 13.3523C5.26824 13.2526 5.13507 13.2028 5.00347 13.2028C4.87187 13.2028 4.7387 13.2526 4.63844 13.3523C4.4379 13.5518 4.4379 13.879 4.63844 14.0784Z" fill="white"/>
<path d="M18.3656 12.5017C18.234 12.5017 18.1008 12.5516 18.0005 12.6513L13.6985 16.9298C13.4963 17.1293 13.4963 17.4565 13.6985 17.6559C13.7956 17.7525 13.9256 17.8071 14.0635 17.8071C14.2014 17.8071 14.3314 17.7541 14.4285 17.6559L18.7306 13.3774C18.9327 13.1779 18.9327 12.8507 18.7306 12.6513C18.6303 12.5516 18.4972 12.5017 18.3656 12.5017Z" fill="white"/>
<path d="M10.1264 16.6307L11.3093 17.8071L14.9408 14.1954C15.1429 13.9944 15.1429 13.6688 14.9408 13.4694C14.7387 13.2684 14.4113 13.2684 14.2107 13.4694L11.3093 16.355L10.8565 15.9047C10.7562 15.805 10.6231 15.7551 10.4915 15.7551C10.3599 15.7551 10.2267 15.805 10.1264 15.9047C9.92433 16.1041 9.92433 16.4298 10.1264 16.6307Z" fill="white"/>
<path d="M14.723 5.92004L13.7329 6.90477C13.5308 7.10576 13.5308 7.43141 13.7329 7.63084C13.83 7.72745 13.96 7.78198 14.0979 7.78198C14.2358 7.78198 14.3658 7.72901 14.4629 7.63084L14.723 7.3722L14.7543 7.4018L17.5321 10.1643L15.6317 12.0559C15.4296 12.2553 15.4296 12.5825 15.6317 12.7819C15.7288 12.8785 15.8588 12.9331 15.9967 12.9331C16.1346 12.9331 16.2646 12.8801 16.3618 12.7819L18.9922 10.1659L14.723 5.92004Z" fill="white"/>
<path d="M12.9606 9.11831C13.1627 8.91887 13.1627 8.59167 12.9606 8.39223C12.76 8.19123 12.431 8.19123 12.2305 8.39223L11.3249 9.29282L9.28357 7.26416L4.98462 11.5396L8.63653 15.1716C8.73367 15.2682 8.8637 15.3227 9.00157 15.3227C9.13944 15.3227 9.26947 15.2697 9.3666 15.1716C9.5687 14.9721 9.5687 14.6449 9.3666 14.4455L6.44476 11.5396L6.47453 11.5084L9.282 8.71632L11.3249 10.7465L12.9606 9.11831Z" fill="white"/>
</svg>
