<svg width="32" height="32" viewBox="0 0 32 32" fill="none" xmlns="http://www.w3.org/2000/svg">
  <g clip-path="url(#clip0_3798_531)">
    <path
      fill-rule="evenodd"
      clip-rule="evenodd"
      d="M22.1659 8.00645L25.8068 3.40625C25.9349 3.24062 25.8193 3 25.6099 3H13.6255C13.538 3 13.4536 3.04688 13.4099 3.125L5.31301 17.1094C5.21613 17.275 5.33488 17.4844 5.52863 17.4844H10.9786L8.18488 28.6594C8.12551 28.9031 8.41926 29.075 8.60051 28.9L15.936 21.9007C15.4772 21.3437 15.0879 20.7272 14.7814 20.0647L11.8193 22.8906L13.7036 15.3594H8.78488L14.7099 5.12813H21.7286L18.7803 8.855C19.8096 8.35324 20.9553 8.05324 22.1659 8.00645Z"
    />
    <g clip-path="url(#clip1_3798_531)">
      <path
        d="M23.5 9C25.4891 9 27.3968 9.79018 28.8033 11.1967C30.2098 12.6032 31 14.5109 31 16.5C31 18.4891 30.2098 20.3968 28.8033 21.8033C27.3968 23.2098 25.4891 24 23.5 24C21.5109 24 19.6032 23.2098 18.1967 21.8033C16.7902 20.3968 16 18.4891 16 16.5C16 14.5109 16.7902 12.6032 18.1967 11.1967C19.6032 9.79018 21.5109 9 23.5 9ZM20.2188 16.0312C20.0944 16.0312 19.9752 16.0806 19.8873 16.1685C19.7994 16.2565 19.75 16.3757 19.75 16.5C19.75 16.6243 19.7994 16.7435 19.8873 16.8315C19.9752 16.9194 20.0944 16.9688 20.2188 16.9688H25.6497L23.6369 18.9806C23.5933 19.0242 23.5587 19.0759 23.5351 19.1329C23.5115 19.1898 23.4994 19.2509 23.4994 19.3125C23.4994 19.3741 23.5115 19.4352 23.5351 19.4921C23.5587 19.5491 23.5933 19.6008 23.6369 19.6444C23.6805 19.688 23.7322 19.7225 23.7891 19.7461C23.8461 19.7697 23.9071 19.7818 23.9688 19.7818C24.0304 19.7818 24.0914 19.7697 24.1484 19.7461C24.2053 19.7225 24.257 19.688 24.3006 19.6444L27.1131 16.8319C27.1568 16.7883 27.1914 16.7366 27.215 16.6797C27.2387 16.6227 27.2508 16.5617 27.2508 16.5C27.2508 16.4383 27.2387 16.3773 27.215 16.3203C27.1914 16.2634 27.1568 16.2117 27.1131 16.1681L24.3006 13.3556C24.257 13.312 24.2053 13.2775 24.1484 13.2539C24.0914 13.2303 24.0304 13.2182 23.9688 13.2182C23.9071 13.2182 23.8461 13.2303 23.7891 13.2539C23.7322 13.2775 23.6805 13.312 23.6369 13.3556C23.5933 13.3992 23.5587 13.4509 23.5351 13.5079C23.5115 13.5648 23.4994 13.6259 23.4994 13.6875C23.4994 13.7491 23.5115 13.8102 23.5351 13.8671C23.5587 13.9241 23.5933 13.9758 23.6369 14.0194L25.6497 16.0312H20.2188Z"
      />
    </g>
  </g>
  <defs>
    <clipPath id="clip0_3798_531">
      <rect width="32" height="32" fill="white" />
    </clipPath>
    <clipPath id="clip1_3798_531">
      <rect width="15" height="15" fill="white" transform="translate(16 9)" />
    </clipPath>
  </defs>
</svg>
