<svg width="231" height="153" viewBox="0 0 231 153" fill="none" xmlns="http://www.w3.org/2000/svg">
<path d="M137.957 112.682C162.028 112.682 181.541 93.2831 181.541 69.3533C181.541 45.4233 162.028 26.0244 137.957 26.0244C113.887 26.0244 94.3741 45.4233 94.3741 69.3533C94.3741 93.2831 113.887 112.682 137.957 112.682Z" fill="#1E293B"/>
<path d="M153.095 62.699C153.095 42.3982 136.537 25.9326 116.123 25.9326C95.7087 25.9326 79.0673 42.5234 79.1509 62.8241C79.1928 72.9119 83.301 82.0409 89.9239 88.669C95.0799 93.838 98.8946 100.174 100.781 107.219L103.757 118.182H127.986L130.794 107.803C132.764 100.633 136.663 94.1298 141.986 88.9191C148.862 82.2078 153.095 72.9535 153.095 62.699Z" fill="#818CF8"/>
<path d="M115.957 131.352C109.321 131.352 103.926 125.986 103.926 119.39V117.058H127.988V119.39C127.988 126.026 122.594 131.352 115.957 131.352Z" fill="#94A3B8" stroke="#334155" stroke-width="3"/>
<path d="M126.204 123.225H105.518C105.075 123.225 104.734 122.88 104.734 122.43C104.734 121.981 105.075 121.636 105.518 121.636H126.204C126.648 121.636 126.988 121.981 126.988 122.43C126.988 122.845 126.613 123.225 126.204 123.225ZM126.341 126.611H105.655C105.212 126.611 104.871 126.265 104.871 125.816C104.871 125.367 105.212 125.021 105.655 125.021H126.341C126.784 125.021 127.124 125.367 127.124 125.816C127.124 126.23 126.784 126.611 126.341 126.611Z" fill="#334155"/>
<path d="M145.254 61.0256C144.279 61.0256 143.492 60.232 143.492 59.2489C143.492 48.2401 136.109 38.6728 125.541 35.9715C124.602 35.7313 124.024 34.7628 124.269 33.8163C124.507 32.8626 125.469 32.2873 126.408 32.5349C138.543 35.6293 147.017 46.6165 147.017 59.2489C147.017 60.232 146.229 61.0256 145.254 61.0256ZM120.845 35.1997C121.819 35.1997 122.608 34.4041 122.608 33.423C122.608 32.4418 121.819 31.6465 120.845 31.6465C119.872 31.6465 119.082 32.4418 119.082 33.423C119.082 34.4041 119.872 35.1997 120.845 35.1997Z" fill="white"/>
<path d="M62.8514 83.4316H79.5721C79.8748 83.4316 80.1203 83.6763 80.1203 83.9783C80.1203 84.2802 79.8748 84.525 79.5721 84.525H62.8514C62.5486 84.525 62.3032 84.2802 62.3032 83.9783C62.3032 83.6763 62.5486 83.4316 62.8514 83.4316Z" fill="#334155"/>
<path d="M56.5467 64.8438H72.9933C73.2961 64.8438 73.5415 65.0886 73.5415 65.3904C73.5415 65.6925 73.2961 65.9373 72.9933 65.9373H56.5467C56.2439 65.9373 55.9985 65.6925 55.9985 65.3904C55.9985 65.0886 56.2439 64.8438 56.5467 64.8438Z" fill="#334155"/>
<path d="M70.8007 93.8199H87.5213C87.8241 93.8199 88.0695 93.5752 88.0695 93.2733C88.0695 92.9714 87.8241 92.7266 87.5213 92.7266H70.8007C70.4979 92.7266 70.2525 92.9714 70.2525 93.2733C70.2525 93.5752 70.4979 93.8199 70.8007 93.8199Z" fill="#334155"/>
<path d="M63.9479 55.5479H73.5418C73.8445 55.5479 74.0899 55.7926 74.0899 56.0947C74.0899 56.3966 73.8445 56.6414 73.5418 56.6414H63.9479C63.6451 56.6414 63.3997 56.3966 63.3997 56.0947C63.3997 55.7926 63.6451 55.5479 63.9479 55.5479Z" fill="#334155"/>
<path d="M83.6835 103.115H93.0032C93.306 103.115 93.5514 102.87 93.5514 102.568C93.5514 102.266 93.306 102.021 93.0032 102.021H83.6835C83.3808 102.021 83.1354 102.266 83.1354 102.568C83.1354 102.87 83.3808 103.115 83.6835 103.115Z" fill="#334155"/>
<path d="M67.237 46.2529H76.5567C76.8595 46.2529 77.1049 46.4977 77.1049 46.7996C77.1049 47.1016 76.8595 47.3463 76.5567 47.3463H67.237C66.9343 47.3463 66.6888 47.1016 66.6888 46.7996C66.6888 46.4977 66.9343 46.2529 67.237 46.2529Z" fill="#334155"/>
<path d="M73.5416 36.96H82.8613C83.1641 36.96 83.4095 37.2048 83.4095 37.5067C83.4095 37.8087 83.1641 38.0534 82.8613 38.0534H73.5416C73.2389 38.0534 72.9934 37.8087 72.9934 37.5067C72.9934 37.2048 73.2389 36.96 73.5416 36.96Z" fill="#334155"/>
<path d="M86.973 27.665H96.2927C96.5955 27.665 96.8409 27.9098 96.8409 28.2119C96.8409 28.5138 96.5955 28.7586 96.2927 28.7586H86.973C86.6703 28.7586 86.4248 28.5138 86.4248 28.2119C86.4248 27.9098 86.6703 27.665 86.973 27.665Z" fill="#334155"/>
<path d="M52.709 74.1387H74.912C75.2147 74.1387 75.4602 74.3833 75.4602 74.6854C75.4602 74.9873 75.2147 75.2321 74.912 75.2321H52.709C52.4062 75.2321 52.1608 74.9873 52.1608 74.6854C52.1608 74.3833 52.4062 74.1387 52.709 74.1387Z" fill="#334155"/>
</svg>
