<svg width="24" height="24" viewBox="0 0 24 24" fill="none" xmlns="http://www.w3.org/2000/svg">
<path d="M21.6759 14.6633L20.1408 13.3508C20.2134 12.9055 20.2509 12.4508 20.2509 11.9961C20.2509 11.5414 20.2134 11.0867 20.1408 10.6414L21.6759 9.32892C21.7917 9.22979 21.8746 9.09777 21.9135 8.9504C21.9524 8.80303 21.9456 8.6473 21.8939 8.50392L21.8728 8.44298C21.4502 7.26179 20.8173 6.16681 20.0048 5.21095L19.9626 5.16173C19.8641 5.04584 19.7327 4.96253 19.5858 4.92278C19.439 4.88303 19.2835 4.88871 19.14 4.93907L17.2345 5.61642C16.5314 5.03986 15.7462 4.58517 14.8978 4.26642L14.5298 2.27423C14.5021 2.12433 14.4293 1.98642 14.3213 1.87884C14.2133 1.77125 14.0751 1.69907 13.9251 1.67189L13.8618 1.66017C12.6408 1.43986 11.3564 1.43986 10.1353 1.66017L10.072 1.67189C9.92199 1.69907 9.78381 1.77125 9.6758 1.87884C9.56779 1.98642 9.49508 2.12433 9.46731 2.27423L9.097 4.27579C8.25533 4.59461 7.47153 5.04906 6.77669 5.62111L4.85716 4.93907C4.71364 4.88831 4.55807 4.88243 4.41113 4.9222C4.26419 4.96197 4.13283 5.04551 4.0345 5.16173L3.99231 5.21095C3.18078 6.16749 2.54804 7.26229 2.12435 8.44298L2.10325 8.50392C1.99778 8.79689 2.0845 9.12501 2.32122 9.32892L3.87513 10.6555C3.80247 11.0961 3.76731 11.5461 3.76731 11.9938C3.76731 12.4438 3.80247 12.8938 3.87513 13.332L2.32122 14.6586C2.20543 14.7577 2.12256 14.8898 2.08362 15.0371C2.04469 15.1845 2.05153 15.3402 2.10325 15.4836L2.12435 15.5445C2.54856 16.7258 3.17669 17.8156 3.99231 18.7766L4.0345 18.8258C4.13307 18.9417 4.26443 19.025 4.41129 19.0647C4.55814 19.1045 4.7136 19.0988 4.85716 19.0485L6.77669 18.3664C7.47513 18.9406 8.2556 19.3953 9.097 19.7117L9.46731 21.7133C9.49508 21.8632 9.56779 22.0011 9.6758 22.1087C9.78381 22.2163 9.92199 22.2885 10.072 22.3156L10.1353 22.3274C11.3676 22.5488 12.6295 22.5488 13.8618 22.3274L13.9251 22.3156C14.0751 22.2885 14.2133 22.2163 14.3213 22.1087C14.4293 22.0011 14.5021 21.8632 14.5298 21.7133L14.8978 19.7211C15.7459 19.4032 16.5355 18.947 17.2345 18.3711L19.14 19.0485C19.2835 19.0992 19.4391 19.1051 19.586 19.0653C19.7329 19.0256 19.8643 18.942 19.9626 18.8258L20.0048 18.7766C20.8204 17.8133 21.4486 16.7258 21.8728 15.5445L21.8939 15.4836C21.9993 15.1953 21.9126 14.8672 21.6759 14.6633ZM18.4767 10.918C18.5353 11.2719 18.5658 11.6352 18.5658 11.9984C18.5658 12.3617 18.5353 12.725 18.4767 13.0789L18.322 14.0188L20.0728 15.5164C19.8074 16.1279 19.4723 16.7067 19.0743 17.2414L16.8993 16.4703L16.1634 17.075C15.6033 17.5344 14.9798 17.8953 14.3048 18.1485L13.4118 18.4836L12.9923 20.757C12.3304 20.832 11.6621 20.832 11.0001 20.757L10.5806 18.4789L9.69466 18.1391C9.02669 17.886 8.4056 17.525 7.85013 17.068L7.11419 16.461L4.92513 17.2391C4.52669 16.7024 4.19388 16.1235 3.92669 15.5141L5.69622 14.0024L5.54388 13.0649C5.48763 12.7156 5.45716 12.3547 5.45716 11.9984C5.45716 11.6399 5.48528 11.2813 5.54388 10.932L5.69622 9.99454L3.92669 8.48282C4.19153 7.87111 4.52669 7.29454 4.92513 6.75782L7.11419 7.53595L7.85013 6.92892C8.4056 6.47189 9.02669 6.11095 9.69466 5.85782L10.5829 5.52267L11.0025 3.24454C11.6611 3.16954 12.3337 3.16954 12.9947 3.24454L13.4142 5.51798L14.3072 5.85314C14.9798 6.10626 15.6056 6.4672 16.1658 6.92657L16.9017 7.53126L19.0767 6.76017C19.4751 7.29689 19.8079 7.87579 20.0751 8.48517L18.3243 9.98282L18.4767 10.918ZM12.0009 7.63907C9.72278 7.63907 7.87591 9.48595 7.87591 11.7641C7.87591 14.0422 9.72278 15.8891 12.0009 15.8891C14.279 15.8891 16.1259 14.0422 16.1259 11.7641C16.1259 9.48595 14.279 7.63907 12.0009 7.63907ZM13.8572 13.6203C13.6137 13.8645 13.3244 14.0581 13.0058 14.19C12.6872 14.322 12.3457 14.3896 12.0009 14.3891C11.3001 14.3891 10.6415 14.1149 10.1447 13.6203C9.90049 13.3769 9.70688 13.0875 9.57495 12.769C9.44301 12.4504 9.37537 12.1089 9.37591 11.7641C9.37591 11.0633 9.65013 10.4047 10.1447 9.90782C10.6415 9.41095 11.3001 9.13907 12.0009 9.13907C12.7017 9.13907 13.3603 9.41095 13.8572 9.90782C14.1013 10.1513 14.2949 10.4406 14.4269 10.7592C14.5588 11.0778 14.6264 11.4193 14.6259 11.7641C14.6259 12.4649 14.3517 13.1235 13.8572 13.6203Z"/>
</svg>
