<svg xmlns="http://www.w3.org/2000/svg" viewBox="0 0 198.85 181.31"><defs><style>.cls-1{fill:#fff;}</style></defs><g id="Layer_2" data-name="Layer 2"><g id="Layer_1-2" data-name="Layer 1"><path class="cls-1" d="M186.06.22,159.89,5.46H39L12.8.22A10.56,10.56,0,0,0,.47,13.52L9.28,42.28A10.31,10.31,0,0,0,10.58,45v91.59a14.59,14.59,0,0,0,14.59,14.59h15.4v15.7A14.4,14.4,0,0,0,55,181.31H74.76a14.4,14.4,0,0,0,14.4-14.39v-15.7h24.3v15.32a14.77,14.77,0,0,0,14.77,14.77h19A14.77,14.77,0,0,0,162,166.54V151.22h12.69a14.59,14.59,0,0,0,14.58-14.59V43c.1-.25.19-.5.27-.76l8.81-28.76A10.56,10.56,0,0,0,186.06.22ZM21.39,77.76l10.15,4.81a4,4,0,0,1,.23,6.37L20.86,94.06a3.92,3.92,0,0,0,.23,6.21l11.08,4.51a3.51,3.51,0,0,1-.37,6l-15,8.06.49-64.43L32.13,62a3.26,3.26,0,0,1,.23,5.67l-10.8,4.58A3.32,3.32,0,0,0,21.39,77.76Zm19.9-49.44L30.64,41.41a6.05,6.05,0,0,1-10.45-2l-5-16.22a6,6,0,0,1,7-7.5L37.8,18.83A5.89,5.89,0,0,1,41.29,28.32Zm92.25-15.71-8.06,15a3.51,3.51,0,0,1-6,.38L115,16.94a3.91,3.91,0,0,0-6.21-.23l-5.12,10.91a4,4,0,0,1-6.37-.24l-4.81-11.5a3.32,3.32,0,0,0-5.53.18L82.4,28.2A3.26,3.26,0,0,1,76.73,28L69.11,13.1ZM109.1,102.73a26.68,26.68,0,0,0-8.72,4.47,1.43,1.43,0,0,1-1.86,0,26.42,26.42,0,0,0-8.47-4.48,1.43,1.43,0,0,1,.18-2.77,51.29,51.29,0,0,1,18.67,0A1.44,1.44,0,0,1,109.1,102.73ZM44.9,78.49c0-7.2,3.89-13,8.69-13s8.68,5.85,8.68,13-3.89,13.05-8.69,13.05S44.9,85.7,44.9,78.49Zm74.82,50.61A35.56,35.56,0,0,1,99.47,123a35.5,35.5,0,0,1-20.24,6.06c-16.72,0-30.31-10.66-30.31-23.77a3.37,3.37,0,0,1,6.74,0c0,9.39,10.57,17,23.57,17,7,0,13.52-2.23,18-6.13l2.2-1.9,2.21,1.9c4.51,3.9,11.09,6.13,18,6.13,13,0,23.56-7.63,23.56-17a3.38,3.38,0,0,1,6.75,0C150,118.44,136.43,129.1,119.72,129.1Zm27-37.55c-4.8,0-8.69-5.84-8.69-13s3.89-13,8.69-13,8.69,5.84,8.69,13S151.5,91.55,146.71,91.55Zm9.68-64.34a5.9,5.9,0,0,1,3.5-9.5l15.62-3.12a6,6,0,0,1,7,7.5l-5,16.22a6.06,6.06,0,0,1-10.45,2Zm11.82,83.52a3.51,3.51,0,0,1-.37-6l11.08-4.51a3.92,3.92,0,0,0,.23-6.21l-10.92-5.12a4,4,0,0,1,.24-6.37L180,77.76a3.31,3.31,0,0,0-.18-5.53l-12.14-4.58a3.26,3.26,0,0,1,.23-5.67l14.87-7.62.49,64.43Z"/></g></g></svg>