<svg width="16" height="16" viewBox="0 0 16 16" fill="none" xmlns="http://www.w3.org/2000/svg">
<path fill-rule="evenodd" clip-rule="evenodd" d="M7.97878 14.6135C9.75232 14.6135 11.4187 13.9238 12.6709 12.6716C13.9232 11.4193 14.6128 9.75294 14.6128 7.9794C14.6128 6.20586 13.9232 4.53949 12.6709 3.28724C11.4187 2.03498 9.75232 1.34534 7.97878 1.34534C6.20524 1.34534 4.53887 2.03498 3.28662 3.28724C2.03436 4.53949 1.34472 6.20586 1.34472 7.9794C1.34472 9.75294 2.03436 11.4193 3.28662 12.6716C4.53887 13.9238 6.20524 14.6135 7.97878 14.6135ZM7.97888 0.456451C9.98985 0.456451 11.8794 1.23856 13.2996 2.6587C14.7197 4.07884 15.5018 5.96843 15.5018 7.9794C15.5018 9.99037 14.7197 11.88 13.2996 13.3001C11.8794 14.7202 9.98985 15.5024 7.97888 15.5024C5.96792 15.5024 4.07832 14.7202 2.65818 13.3001C1.23804 11.88 0.455933 9.99037 0.455933 7.9794C0.455933 5.96843 1.23804 4.07884 2.65818 2.6587C4.07832 1.23856 5.96792 0.456451 7.97888 0.456451Z" fill="white"/>
<path fill-rule="evenodd" clip-rule="evenodd" d="M11.7393 11.092C11.4817 11.8896 11.0953 12.4813 10.5544 12.9187C10.0134 13.3561 9.29219 13.5876 8.39062 13.6648L8.21031 12.4813C8.80277 12.4041 9.24067 12.2755 9.52402 12.0697C9.62705 11.9925 9.83312 11.7609 9.83312 11.7609L7.69512 4.91715H9.47249L10.7089 10.0371L12.0226 4.91715H13.7485L11.7393 11.092L11.7393 11.092Z" fill="white"/>
<path fill-rule="evenodd" clip-rule="evenodd" d="M5.53682 4.68495C5.94843 4.68495 6.3343 4.7364 6.643 4.86501C6.97743 4.99363 7.28613 5.17369 7.59483 5.43093L6.87453 6.40842C6.66873 6.25408 6.46293 6.15118 6.28285 6.07401C6.10278 5.99684 5.87125 5.97112 5.66545 5.97112C4.79079 5.97112 4.35347 6.63993 4.35347 8.00326C4.35347 8.69778 4.45637 9.18653 4.6879 9.46948C4.91943 9.77816 5.22813 9.90678 5.66546 9.90678C5.87126 9.90678 6.07706 9.88106 6.25714 9.80389C6.43721 9.72672 6.64301 9.62383 6.90026 9.46948L7.62057 10.4984C7.02888 10.9872 6.36004 11.2187 5.58828 11.2187C4.97088 11.2187 4.45637 11.09 3.99332 10.8328C3.55599 10.5756 3.19584 10.1897 2.96431 9.701C2.73279 9.21226 2.60416 8.64634 2.60416 7.97753C2.60416 7.33445 2.73279 6.74281 2.96431 6.25406C3.19584 5.7396 3.55599 5.35375 3.99332 5.07079C4.43065 4.83928 4.94515 4.68494 5.53682 4.68494V4.68495Z" fill="white"/>
</svg>
