<svg width="148" height="148" viewBox="0 0 148 148" fill="none" xmlns="http://www.w3.org/2000/svg">
<path d="M73.6 7.10001C110.3 7.10001 140.1 36.9 140.1 73.6C140.1 110.3 110.3 140.1 73.6 140.1C36.9 140.1 7.1 110.3 7.1 73.6C7.1 36.9 36.9 7.10001 73.6 7.10001ZM73.6 0C33 0 0 33 0 73.6C0 114.2 33.1 147.2 73.6 147.2C114.1 147.2 147.2 114.1 147.2 73.6C147.2 33.1 114.1 0 73.6 0Z" fill="#ACACAC"/>
<path d="M115.9 70.7998L121.6 62.6998L115.5 47.8998L105.8 46.0998L101.5 41.7998L99.9 32.0998L84.9 25.7998L76.8 31.4998H70.7L62.6 25.7998L47.6 31.8998L45.8 41.5998L41.3 45.8998L31.6 47.6998L25.3 62.4998L31 70.5998V76.6998L25.3 84.7998L31.4 99.7998L41.1 101.6L45.4 105.9L47.2 115.6L62 121.9L70.1 116.2H76.2L84.3 121.9L99.3 115.8L101.1 106.1L105.6 101.8L115.3 100.2L121.6 85.3998L115.9 77.2998V70.7998V70.7998ZM113.7 85.9998L110.5 93.8998L102.4 95.2998L94.9 102.8L93.5 110.9L85.6 114.1L78.9 109.4H68.4L61.5 114.1L53.6 110.9L52.2 102.8L44.9 95.2998L36.8 93.8998L33.6 85.9998L38.3 79.2998V68.7998L33.6 61.8998L36.8 53.9998L44.9 52.5998L52.4 45.0998L53.8 36.9998L61.7 33.7998L68.4 38.4998H78.9L85.8 33.7998L93.7 36.9998L95.1 45.0998L102.6 52.5998L110.7 53.9998L113.9 61.8998L109.2 68.7998V79.2998L113.7 85.9998ZM99.7 75.5998C99.7 89.9998 87.9 101.8 73.5 101.8C59.1 101.8 47.3 89.9998 47.3 75.5998C47.3 68.6998 49.9 61.9998 55 57.0998L59.9 61.9998C56.3 65.5998 54.2 70.4998 54.2 75.5998C54.2 83.2998 58.7 89.7998 65.1 92.7998L74.6 77.7998L60 74.7998L76 46.1998L82.1 49.5998L70.7 69.8998L86.1 73.2998L72.5 94.7998C72.9 94.7998 73.1 94.7998 73.5 94.7998C84 94.7998 92.6 86.2998 92.6 75.6998C92.6 69.9998 90.2 64.7998 85.7 61.0998L90.2 55.5998C96.3 60.5998 99.7 67.8998 99.7 75.5998Z" fill="#ACACAC"/>
</svg>
