<svg width="231" height="154" viewBox="0 0 231 154" fill="none" xmlns="http://www.w3.org/2000/svg">
<path d="M138.397 113.182C162.467 113.182 181.98 93.7831 181.98 69.8533C181.98 45.9233 162.467 26.5244 138.397 26.5244C114.326 26.5244 94.8132 45.9233 94.8132 69.8533C94.8132 93.7831 114.326 113.182 138.397 113.182Z" fill="#1E293B"/>
<path d="M153.534 63.199C153.534 42.8982 136.976 26.4326 116.562 26.4326C96.1477 26.4326 79.5063 43.0234 79.5899 63.3241C79.6318 73.4119 83.7401 82.5409 90.363 89.169C95.519 94.338 99.3336 100.674 101.22 107.719L104.196 118.682H128.425L131.233 108.303C133.203 101.133 137.102 94.6298 142.426 89.4191C149.301 82.7078 153.534 73.4535 153.534 63.199Z" fill="#818CF8"/>
<path d="M116.396 131.852C109.76 131.852 104.365 126.486 104.365 119.89V117.558H128.427V119.89C128.427 126.526 123.033 131.852 116.396 131.852Z" fill="#94A3B8" stroke="#334155" stroke-width="3"/>
<path d="M126.643 123.725H105.957C105.514 123.725 105.173 123.38 105.173 122.93C105.173 122.481 105.514 122.136 105.957 122.136H126.643C127.087 122.136 127.427 122.481 127.427 122.93C127.427 123.345 127.052 123.725 126.643 123.725ZM126.78 127.111H106.094C105.651 127.111 105.31 126.765 105.31 126.316C105.31 125.867 105.651 125.521 106.094 125.521H126.78C127.223 125.521 127.563 125.867 127.563 126.316C127.563 126.73 127.223 127.111 126.78 127.111Z" fill="#334155"/>
<path d="M145.693 61.5256C144.718 61.5256 143.931 60.732 143.931 59.7489C143.931 48.7401 136.548 39.1728 125.98 36.4715C125.041 36.2313 124.463 35.2628 124.708 34.3163C124.946 33.3626 125.908 32.7873 126.847 33.0349C138.982 36.1293 147.456 47.1165 147.456 59.7489C147.456 60.732 146.668 61.5256 145.693 61.5256ZM121.284 35.6997C122.258 35.6997 123.047 34.9041 123.047 33.923C123.047 32.9418 122.258 32.1465 121.284 32.1465C120.311 32.1465 119.521 32.9418 119.521 33.923C119.521 34.9041 120.311 35.6997 121.284 35.6997Z" fill="white"/>
<path d="M63.2904 83.9316H80.0111C80.3139 83.9316 80.5593 84.1763 80.5593 84.4783C80.5593 84.7802 80.3139 85.025 80.0111 85.025H63.2904C62.9877 85.025 62.7422 84.7802 62.7422 84.4783C62.7422 84.1763 62.9877 83.9316 63.2904 83.9316Z" fill="#334155"/>
<path d="M56.9857 65.3438H73.4324C73.7351 65.3438 73.9805 65.5886 73.9805 65.8904C73.9805 66.1925 73.7351 66.4373 73.4324 66.4373H56.9857C56.683 66.4373 56.4375 66.1925 56.4375 65.8904C56.4375 65.5886 56.683 65.3438 56.9857 65.3438Z" fill="#334155"/>
<path d="M71.2397 94.3199H87.9604C88.2631 94.3199 88.5086 94.0752 88.5086 93.7733C88.5086 93.4714 88.2631 93.2266 87.9604 93.2266H71.2397C70.937 93.2266 70.6915 93.4714 70.6915 93.7733C70.6915 94.0752 70.937 94.3199 71.2397 94.3199Z" fill="#334155"/>
<path d="M64.3869 56.0479H73.9808C74.2835 56.0479 74.529 56.2926 74.529 56.5947C74.529 56.8966 74.2835 57.1414 73.9808 57.1414H64.3869C64.0842 57.1414 63.8387 56.8966 63.8387 56.5947C63.8387 56.2926 64.0842 56.0479 64.3869 56.0479Z" fill="#334155"/>
<path d="M84.1226 103.615H93.4423C93.745 103.615 93.9904 103.37 93.9904 103.068C93.9904 102.766 93.745 102.521 93.4423 102.521H84.1226C83.8198 102.521 83.5744 102.766 83.5744 103.068C83.5744 103.37 83.8198 103.615 84.1226 103.615Z" fill="#334155"/>
<path d="M67.6761 46.7529H76.9957C77.2985 46.7529 77.5439 46.9977 77.5439 47.2996C77.5439 47.6016 77.2985 47.8463 76.9957 47.8463H67.6761C67.3733 47.8463 67.1279 47.6016 67.1279 47.2996C67.1279 46.9977 67.3733 46.7529 67.6761 46.7529Z" fill="#334155"/>
<path d="M73.9807 37.46H83.3003C83.6031 37.46 83.8485 37.7048 83.8485 38.0067C83.8485 38.3087 83.6031 38.5534 83.3003 38.5534H73.9807C73.6779 38.5534 73.4325 38.3087 73.4325 38.0067C73.4325 37.7048 73.6779 37.46 73.9807 37.46Z" fill="#334155"/>
<path d="M87.4121 28.165H96.7317C97.0345 28.165 97.2799 28.4098 97.2799 28.7119C97.2799 29.0138 97.0345 29.2586 96.7317 29.2586H87.4121C87.1093 29.2586 86.8639 29.0138 86.8639 28.7119C86.8639 28.4098 87.1093 28.165 87.4121 28.165Z" fill="#334155"/>
<path d="M53.148 74.6387H75.3511C75.6537 74.6387 75.8993 74.8833 75.8993 75.1854C75.8993 75.4873 75.6537 75.7321 75.3511 75.7321H53.148C52.8453 75.7321 52.5999 75.4873 52.5999 75.1854C52.5999 74.8833 52.8453 74.6387 53.148 74.6387Z" fill="#334155"/>
<path d="M130.366 55.9258C129.597 54.2494 128.504 52.7428 127.108 51.4553C124.274 48.8311 120.511 47.3848 116.523 47.3848C112.535 47.3848 108.772 48.8311 105.937 51.4498C104.542 52.7428 103.449 54.2439 102.68 55.9258C101.878 57.6789 101.471 59.5361 101.471 61.4536V62.9328C101.471 63.2725 101.746 63.5464 102.086 63.5464H105.053C105.393 63.5464 105.668 63.2725 105.668 62.9328V61.4536C105.668 56.0025 110.535 51.5704 116.523 51.5704C122.511 51.5704 127.378 56.0025 127.378 61.4536C127.378 63.6888 126.582 65.7925 125.071 67.5457C123.576 69.2824 121.467 70.5261 119.132 71.052C117.798 71.3533 116.594 72.1038 115.743 73.1776C114.894 74.2477 114.432 75.5716 114.43 76.9359V78.6561C114.43 78.9958 114.705 79.2697 115.045 79.2697H118.012C118.352 79.2697 118.627 78.9958 118.627 78.6561V76.9359C118.627 76.0758 119.226 75.3197 120.055 75.1335C123.263 74.4103 126.175 72.6845 128.256 70.2741C129.306 69.0523 130.125 67.6936 130.691 66.2199C131.278 64.6914 131.575 63.0862 131.575 61.4536C131.575 59.5361 131.168 57.6735 130.366 55.9258ZM116.523 83.6526C114.826 83.6526 113.447 85.0276 113.447 86.7206C113.447 88.4134 114.826 89.7885 116.523 89.7885C118.22 89.7885 119.599 88.4134 119.599 86.7206C119.599 85.0276 118.22 83.6526 116.523 83.6526Z" fill="white"/>
</svg>
