<svg xmlns="http://www.w3.org/2000/svg" width="26" height="26" viewBox="0 0 26 26">
  <path id="Icon_awesome-times-circle" data-name="Icon awesome-times-circle" d="M13.563.563a13,13,0,1,0,13,13A13,13,0,0,0,13.563.563Zm6.374,16.413a.63.63,0,0,1,0,.891l-2.076,2.071a.63.63,0,0,1-.891,0L13.563,16.5,10.15,19.937a.63.63,0,0,1-.891,0L7.188,17.861a.63.63,0,0,1,0-.891l3.439-3.407L7.188,10.15a.63.63,0,0,1,0-.891L9.264,7.183a.63.63,0,0,1,.891,0l3.407,3.444,3.413-3.439a.63.63,0,0,1,.891,0l2.076,2.076a.63.63,0,0,1,0,.891L16.5,13.563Z" transform="translate(-0.563 -0.563)" fill="#db5382"/>
</svg>
