<svg xmlns="http://www.w3.org/2000/svg" width="18" height="18" viewBox="0 0 18 18">
  <path id="Icon_awesome-times" data-name="Icon awesome-times" d="M12.412,14.625l5.117-5.117a1.609,1.609,0,0,0,0-2.275L16.392,6.1a1.609,1.609,0,0,0-2.275,0L9,11.213,3.883,6.1a1.609,1.609,0,0,0-2.275,0L.471,7.233a1.609,1.609,0,0,0,0,2.275l5.117,5.117L.471,19.742a1.609,1.609,0,0,0,0,2.275l1.137,1.137a1.609,1.609,0,0,0,2.275,0L9,18.037l5.117,5.117a1.609,1.609,0,0,0,2.275,0l1.137-1.137a1.609,1.609,0,0,0,0-2.275Z" transform="translate(0 -5.625)" fill="#acacac"/>
</svg>
