<svg xmlns="http://www.w3.org/2000/svg" width="18" height="18" viewBox="0 0 18 18">
  <path id="Icon_awesome-times-circle" data-name="Icon awesome-times-circle" d="M9.563.563a9,9,0,1,0,9,9A9,9,0,0,0,9.563.563Zm4.413,11.362a.436.436,0,0,1,0,.617l-1.437,1.433a.436.436,0,0,1-.617,0L9.563,11.595,7.2,13.975a.436.436,0,0,1-.617,0L5.15,12.538a.436.436,0,0,1,0-.617L7.53,9.563,5.15,7.2a.436.436,0,0,1,0-.617L6.587,5.146a.436.436,0,0,1,.617,0L9.563,7.53,11.925,5.15a.436.436,0,0,1,.617,0l1.437,1.437a.436.436,0,0,1,0,.617L11.595,9.563Z" transform="translate(-0.563 -0.563)" fill="#db5382"/>
</svg>
