<svg xmlns="http://www.w3.org/2000/svg" width="17.999" height="18" viewBox="0 0 17.999 18">
  <path id="Icon_simple-postman" data-name="Icon simple-postman" d="M10.146.074a9,9,0,1,0,7.78,10.071A9,9,0,0,0,10.146.074ZM12,5.688a.641.641,0,0,0-.445.188l-3.34,3.34-.23-.23L7.5,8.5C10.794,5.221,11.387,5.189,12,5.688ZM8.352,9.334,11.682,6a.465.465,0,1,1,.635.677L8.793,9.775Zm.248.521-.825.179a.047.047,0,0,1-.043-.079l.484-.484.384.384ZM6.5,9.51l.879-.879.659.659-1.484.32a.055.055,0,0,1-.064-.029.054.054,0,0,1,.01-.07ZM3.762,14.054a.057.057,0,0,1-.052-.062.058.058,0,0,1,.017-.034h0l.71-.71.917.917-1.592-.11Zm1.819-.942a.171.171,0,0,0-.088.192l.152.649a.094.094,0,0,1-.158.088h0l-.7-.7-.221-.221L7.385,10.3l1.365-.295.656.656a18.235,18.235,0,0,1-3.825,2.451ZM9.54,10.541h0L8.91,9.912l3.524-3.094a.714.714,0,0,0,.089-.1C12.412,7.731,11,9.156,9.54,10.541ZM12.283,5.7l0,0a1.367,1.367,0,0,1,1.844-2.013l-1.208,1.21a.089.089,0,0,0,0,.127l.935.935a1.363,1.363,0,0,1-1.57-.257Zm1.934,0a1.286,1.286,0,0,1-.2.164h0l-.905-.905,1.15-1.15a1.367,1.367,0,0,1-.04,1.892Zm-.075-1.158a.107.107,0,0,0-.04.118.312.312,0,0,1-.04.338.1.1,0,1,0,.16.133.518.518,0,0,0,.065-.563.1.1,0,0,0-.146-.025Z" transform="translate(0 0)" fill="#adadad"/>
</svg>
