<svg xmlns="http://www.w3.org/2000/svg" width="24" height="24" viewBox="0 0 24 24">
  <path id="Icon_awesome-question-circle" data-name="Icon awesome-question-circle" d="M24.563,12.563a12,12,0,1,1-12-12A12,12,0,0,1,24.563,12.563ZM12.885,4.53A6.267,6.267,0,0,0,7.245,7.615a.581.581,0,0,0,.131.787L9.055,9.675a.58.58,0,0,0,.806-.1c.864-1.1,1.457-1.732,2.773-1.732.989,0,2.211.636,2.211,1.595,0,.725-.6,1.1-1.574,1.644-1.138.638-2.644,1.432-2.644,3.419v.194a.581.581,0,0,0,.581.581h2.71a.581.581,0,0,0,.581-.581v-.065c0-1.377,4.025-1.435,4.025-5.161C18.523,6.659,15.612,4.53,12.885,4.53Zm-.322,12a2.226,2.226,0,1,0,2.226,2.226A2.228,2.228,0,0,0,12.563,16.53Z" transform="translate(-0.563 -0.563)" fill="#fff"/>
</svg>
