<svg xmlns="http://www.w3.org/2000/svg" width="41.502" height="48" viewBox="0 0 41.502 48">
  <g id="Layer_2" data-name="Layer 2" transform="translate(0 0.001)">
    <g id="Layer_2-2" data-name="Layer 2" transform="translate(0 -0.001)">
      <path id="Path_203" data-name="Path 203" d="M41.5,19.707a1.565,1.565,0,0,0-.48-1.136L22.427.44,22.376.394V.357H22.32a1.584,1.584,0,0,0-2.042.032L.546,17.55A1.6,1.6,0,0,0,0,18.771L.093,25.6h0L.13,28.2a2.114,2.114,0,0,0,.632,1.48L18.838,47.4a2.106,2.106,0,0,0,.381.293v.021h.037a2.106,2.106,0,0,0,2.464-.245L40.8,30.487a2.1,2.1,0,0,0,.707-1.576V23.73h0ZM20.336,37.083a2.1,2.1,0,0,1-1.474-.6L5.97,23.88,20.176,11.22a1.6,1.6,0,0,1,2.162.045L35.67,24.2,21.739,36.553a2.112,2.112,0,0,1-1.4.531Zm.125-34.364-.1,6.346a3.466,3.466,0,0,0-1.429.752L4.623,22.562l-.976-.952A2.066,2.066,0,0,0,2.186,21a2.426,2.426,0,0,0-.267.021L1.89,18.891ZM1.952,24.2l-.013-1.083a.2.2,0,0,1,.053-.16.3.3,0,0,1,.195-.08.2.2,0,0,1,.149.069l.883.864L1.962,24.933Zm.125,4.133a.232.232,0,0,1-.069-.163V27.13a1.552,1.552,0,0,0,.744-.373L4.575,25.13,17.56,37.825a3.978,3.978,0,0,0,1.77,1l-.069,6.338Zm37.46.747L21.123,45.477l.072-6.613a3.983,3.983,0,0,0,1.789-.907L37.02,25.517,38.8,27.244a1.578,1.578,0,0,0,.816.427v1.24a.235.235,0,0,1-.077.173Z" transform="translate(0 0.001)" fill="#564bfb"/>
    </g>
  </g>
</svg>
