<svg xmlns="http://www.w3.org/2000/svg" width="49" height="49" viewBox="0 0 49 49"><defs><style>.a{fill:none;stroke:#d90915;}</style></defs><path class="a" d="M24.563.563a24,24,0,1,0,24,24A24,24,0,0,0,24.563.563Zm11.768,30.3a1.162,1.162,0,0,1,0,1.645L32.5,36.33a1.162,1.162,0,0,1-1.645,0l-6.29-6.348-6.3,6.348a1.162,1.162,0,0,1-1.645,0L12.795,32.5a1.162,1.162,0,0,1,0-1.645l6.348-6.29-6.348-6.3a1.162,1.162,0,0,1,0-1.645l3.832-3.832a1.162,1.162,0,0,1,1.645,0l6.29,6.358,6.3-6.348a1.162,1.162,0,0,1,1.645,0l3.832,3.832a1.162,1.162,0,0,1,0,1.645l-6.358,6.29Z" transform="translate(-0.063 -0.063)"/></svg>