<svg width="40" height="49" viewBox="0 0 40 49" fill="none" xmlns="http://www.w3.org/2000/svg">
<g clip-path="url(#clip0_302_1022)">
<path d="M39.0476 18.2719L21.5137 0.685572C21.0752 0.249685 20.4829 0.00512695 19.8656 0.00512695C19.2483 0.00512695 18.656 0.249685 18.2176 0.685572L0.683568 18.2719C0.248079 18.7077 0.00231083 19.2986 0 19.9155L0 29.0727C0.00231083 29.6896 0.248079 30.2805 0.683568 30.7162L18.2176 48.3026C18.656 48.7385 19.2483 48.9831 19.8656 48.9831C20.4829 48.9831 21.0752 48.7385 21.5137 48.3026L39.0476 30.7162C39.4831 30.2805 39.7289 29.6896 39.7312 29.0727V19.9155C39.7289 19.2986 39.4831 18.7077 39.0476 18.2719V18.2719ZM37.5892 27.8987L34.2041 24.5011L37.5892 21.106V27.8987ZM32.741 23.0336L20.9003 11.1552V3.00303L36.805 18.9552L32.741 23.0336ZM8.4533 24.4988L19.8656 13.0524L31.2779 24.4988L19.8656 35.9475L8.4533 24.4988ZM18.8309 3.00303V11.1552L6.99018 23.0336L2.92623 18.9552L18.8309 3.00303ZM19.8656 47.0347V38.8802L32.741 25.9663L36.805 30.0541L19.8656 47.0347Z" fill="url(#paint0_linear_302_1022)"/>
</g>
<defs>
<linearGradient id="paint0_linear_302_1022" x1="7.1681" y1="37.2342" x2="32.6389" y2="11.8417" gradientUnits="userSpaceOnUse">
<stop stop-color="#B0B5D8"/>
<stop offset="0.13" stop-color="#9E9DD4"/>
<stop offset="0.41" stop-color="#7A70CB"/>
<stop offset="0.66" stop-color="#604FC5"/>
<stop offset="0.86" stop-color="#513AC1"/>
<stop offset="1" stop-color="#4B33C0"/>
</linearGradient>
<clipPath id="clip0_302_1022">
<rect width="223" height="49" fill="black"/>
</clipPath>
</defs>
</svg>
